G04 #@! TF.GenerationSoftware,KiCad,Pcbnew,5.0.2+dfsg1-1~bpo9+1*
G04 #@! TF.CreationDate,2020-07-27T21:19:22+01:00*
G04 #@! TF.ProjectId,gbc_outline_screen,6762635f-6f75-4746-9c69-6e655f736372,rev?*
G04 #@! TF.SameCoordinates,Original*
G04 #@! TF.FileFunction,Legend,Top*
G04 #@! TF.FilePolarity,Positive*
%FSLAX46Y46*%
G04 Gerber Fmt 4.6, Leading zero omitted, Abs format (unit mm)*
G04 Created by KiCad (PCBNEW 5.0.2+dfsg1-1~bpo9+1) date Mon 27 Jul 2020 21:19:22 BST*
%MOMM*%
%LPD*%
G01*
G04 APERTURE LIST*
%ADD10C,0.300000*%
%ADD11C,0.150000*%
%ADD12C,0.200000*%
%ADD13C,0.125000*%
G04 APERTURE END LIST*
D10*
X112884994Y-84497680D02*
X112956422Y-84569108D01*
X113027851Y-84783394D01*
X113027851Y-84926251D01*
X112956422Y-85140537D01*
X112813565Y-85283394D01*
X112670708Y-85354822D01*
X112384994Y-85426251D01*
X112170708Y-85426251D01*
X111884994Y-85354822D01*
X111742137Y-85283394D01*
X111599280Y-85140537D01*
X111527851Y-84926251D01*
X111527851Y-84783394D01*
X111599280Y-84569108D01*
X111670708Y-84497680D01*
X111527851Y-83569108D02*
X111527851Y-83283394D01*
X111599280Y-83140537D01*
X111742137Y-82997680D01*
X112027851Y-82926251D01*
X112527851Y-82926251D01*
X112813565Y-82997680D01*
X112956422Y-83140537D01*
X113027851Y-83283394D01*
X113027851Y-83569108D01*
X112956422Y-83711965D01*
X112813565Y-83854822D01*
X112527851Y-83926251D01*
X112027851Y-83926251D01*
X111742137Y-83854822D01*
X111599280Y-83711965D01*
X111527851Y-83569108D01*
X113027851Y-82283394D02*
X111527851Y-82283394D01*
X112599280Y-81783394D01*
X111527851Y-81283394D01*
X113027851Y-81283394D01*
X112027851Y-79426251D02*
X113527851Y-79426251D01*
X112099280Y-79426251D02*
X112027851Y-79283394D01*
X112027851Y-78997680D01*
X112099280Y-78854822D01*
X112170708Y-78783394D01*
X112313565Y-78711965D01*
X112742137Y-78711965D01*
X112884994Y-78783394D01*
X112956422Y-78854822D01*
X113027851Y-78997680D01*
X113027851Y-79283394D01*
X112956422Y-79426251D01*
X113027851Y-77854822D02*
X112956422Y-77997680D01*
X112884994Y-78069108D01*
X112742137Y-78140537D01*
X112313565Y-78140537D01*
X112170708Y-78069108D01*
X112099280Y-77997680D01*
X112027851Y-77854822D01*
X112027851Y-77640537D01*
X112099280Y-77497680D01*
X112170708Y-77426251D01*
X112313565Y-77354822D01*
X112742137Y-77354822D01*
X112884994Y-77426251D01*
X112956422Y-77497680D01*
X113027851Y-77640537D01*
X113027851Y-77854822D01*
X113027851Y-76711965D02*
X112027851Y-76711965D01*
X112313565Y-76711965D02*
X112170708Y-76640537D01*
X112099280Y-76569108D01*
X112027851Y-76426251D01*
X112027851Y-76283394D01*
X112027851Y-75997680D02*
X112027851Y-75426251D01*
X111527851Y-75783394D02*
X112813565Y-75783394D01*
X112956422Y-75711965D01*
X113027851Y-75569108D01*
X113027851Y-75426251D01*
D11*
X187665360Y-46837600D02*
X187665360Y-120162320D01*
X109565440Y-46842680D02*
X109565440Y-120167400D01*
X109560360Y-120167400D02*
X187665360Y-120162320D01*
X113873280Y-46842680D02*
X109567980Y-46842680D01*
D12*
X188092080Y-89743280D02*
X187660280Y-89743280D01*
X188092080Y-75849480D02*
X188092080Y-89743280D01*
X187685680Y-75849480D02*
X188092080Y-75849480D01*
X183977280Y-46842680D02*
X187685680Y-46842680D01*
D10*
X143675280Y-46044894D02*
X143603851Y-46116322D01*
X143389565Y-46187751D01*
X143246708Y-46187751D01*
X143032422Y-46116322D01*
X142889565Y-45973465D01*
X142818137Y-45830608D01*
X142746708Y-45544894D01*
X142746708Y-45330608D01*
X142818137Y-45044894D01*
X142889565Y-44902037D01*
X143032422Y-44759180D01*
X143246708Y-44687751D01*
X143389565Y-44687751D01*
X143603851Y-44759180D01*
X143675280Y-44830608D01*
X144960994Y-46187751D02*
X144960994Y-45402037D01*
X144889565Y-45259180D01*
X144746708Y-45187751D01*
X144460994Y-45187751D01*
X144318137Y-45259180D01*
X144960994Y-46116322D02*
X144818137Y-46187751D01*
X144460994Y-46187751D01*
X144318137Y-46116322D01*
X144246708Y-45973465D01*
X144246708Y-45830608D01*
X144318137Y-45687751D01*
X144460994Y-45616322D01*
X144818137Y-45616322D01*
X144960994Y-45544894D01*
X145603851Y-46116322D02*
X145746708Y-46187751D01*
X146032422Y-46187751D01*
X146175280Y-46116322D01*
X146246708Y-45973465D01*
X146246708Y-45902037D01*
X146175280Y-45759180D01*
X146032422Y-45687751D01*
X145818137Y-45687751D01*
X145675280Y-45616322D01*
X145603851Y-45473465D01*
X145603851Y-45402037D01*
X145675280Y-45259180D01*
X145818137Y-45187751D01*
X146032422Y-45187751D01*
X146175280Y-45259180D01*
X147460994Y-46116322D02*
X147318137Y-46187751D01*
X147032422Y-46187751D01*
X146889565Y-46116322D01*
X146818137Y-45973465D01*
X146818137Y-45402037D01*
X146889565Y-45259180D01*
X147032422Y-45187751D01*
X147318137Y-45187751D01*
X147460994Y-45259180D01*
X147532422Y-45402037D01*
X147532422Y-45544894D01*
X146818137Y-45687751D01*
X149889565Y-46116322D02*
X149746708Y-46187751D01*
X149460994Y-46187751D01*
X149318137Y-46116322D01*
X149246708Y-45973465D01*
X149246708Y-45402037D01*
X149318137Y-45259180D01*
X149460994Y-45187751D01*
X149746708Y-45187751D01*
X149889565Y-45259180D01*
X149960994Y-45402037D01*
X149960994Y-45544894D01*
X149246708Y-45687751D01*
X151246708Y-46187751D02*
X151246708Y-44687751D01*
X151246708Y-46116322D02*
X151103851Y-46187751D01*
X150818137Y-46187751D01*
X150675280Y-46116322D01*
X150603851Y-46044894D01*
X150532422Y-45902037D01*
X150532422Y-45473465D01*
X150603851Y-45330608D01*
X150675280Y-45259180D01*
X150818137Y-45187751D01*
X151103851Y-45187751D01*
X151246708Y-45259180D01*
X152603851Y-45187751D02*
X152603851Y-46402037D01*
X152532422Y-46544894D01*
X152460994Y-46616322D01*
X152318137Y-46687751D01*
X152103851Y-46687751D01*
X151960994Y-46616322D01*
X152603851Y-46116322D02*
X152460994Y-46187751D01*
X152175280Y-46187751D01*
X152032422Y-46116322D01*
X151960994Y-46044894D01*
X151889565Y-45902037D01*
X151889565Y-45473465D01*
X151960994Y-45330608D01*
X152032422Y-45259180D01*
X152175280Y-45187751D01*
X152460994Y-45187751D01*
X152603851Y-45259180D01*
X153889565Y-46116322D02*
X153746708Y-46187751D01*
X153460994Y-46187751D01*
X153318137Y-46116322D01*
X153246708Y-45973465D01*
X153246708Y-45402037D01*
X153318137Y-45259180D01*
X153460994Y-45187751D01*
X153746708Y-45187751D01*
X153889565Y-45259180D01*
X153960994Y-45402037D01*
X153960994Y-45544894D01*
X153246708Y-45687751D01*
D11*
X113873280Y-46842680D02*
X113873280Y-58018680D01*
X183977280Y-46842680D02*
X113873280Y-46842680D01*
X183977280Y-55351680D02*
X183977280Y-46842680D01*
D12*
X183215280Y-83228180D02*
X183977280Y-83228180D01*
X113873280Y-94658180D02*
X114635280Y-94658180D01*
X113873280Y-80624680D02*
X114635280Y-80624680D01*
D10*
X111527851Y-100134394D02*
X113027851Y-99634394D01*
X111527851Y-99134394D01*
X113027851Y-98420108D02*
X112956422Y-98562965D01*
X112884994Y-98634394D01*
X112742137Y-98705822D01*
X112313565Y-98705822D01*
X112170708Y-98634394D01*
X112099280Y-98562965D01*
X112027851Y-98420108D01*
X112027851Y-98205822D01*
X112099280Y-98062965D01*
X112170708Y-97991537D01*
X112313565Y-97920108D01*
X112742137Y-97920108D01*
X112884994Y-97991537D01*
X112956422Y-98062965D01*
X113027851Y-98205822D01*
X113027851Y-98420108D01*
X113027851Y-97062965D02*
X112956422Y-97205822D01*
X112813565Y-97277251D01*
X111527851Y-97277251D01*
X112027851Y-95491537D02*
X113027851Y-95205822D01*
X112313565Y-94920108D01*
X113027851Y-94634394D01*
X112027851Y-94348680D01*
X113027851Y-93777251D02*
X111527851Y-93777251D01*
X113027851Y-93134394D02*
X112242137Y-93134394D01*
X112099280Y-93205822D01*
X112027851Y-93348680D01*
X112027851Y-93562965D01*
X112099280Y-93705822D01*
X112170708Y-93777251D01*
X112956422Y-91848680D02*
X113027851Y-91991537D01*
X113027851Y-92277251D01*
X112956422Y-92420108D01*
X112813565Y-92491537D01*
X112242137Y-92491537D01*
X112099280Y-92420108D01*
X112027851Y-92277251D01*
X112027851Y-91991537D01*
X112099280Y-91848680D01*
X112242137Y-91777251D01*
X112384994Y-91777251D01*
X112527851Y-92491537D01*
X112956422Y-90562965D02*
X113027851Y-90705822D01*
X113027851Y-90991537D01*
X112956422Y-91134394D01*
X112813565Y-91205822D01*
X112242137Y-91205822D01*
X112099280Y-91134394D01*
X112027851Y-90991537D01*
X112027851Y-90705822D01*
X112099280Y-90562965D01*
X112242137Y-90491537D01*
X112384994Y-90491537D01*
X112527851Y-91205822D01*
X113027851Y-89634394D02*
X112956422Y-89777251D01*
X112813565Y-89848680D01*
X111527851Y-89848680D01*
X186433851Y-90073394D02*
X184933851Y-90073394D01*
X184933851Y-89501965D01*
X185005280Y-89359108D01*
X185076708Y-89287680D01*
X185219565Y-89216251D01*
X185433851Y-89216251D01*
X185576708Y-89287680D01*
X185648137Y-89359108D01*
X185719565Y-89501965D01*
X185719565Y-90073394D01*
X186433851Y-88359108D02*
X186362422Y-88501965D01*
X186290994Y-88573394D01*
X186148137Y-88644822D01*
X185719565Y-88644822D01*
X185576708Y-88573394D01*
X185505280Y-88501965D01*
X185433851Y-88359108D01*
X185433851Y-88144822D01*
X185505280Y-88001965D01*
X185576708Y-87930537D01*
X185719565Y-87859108D01*
X186148137Y-87859108D01*
X186290994Y-87930537D01*
X186362422Y-88001965D01*
X186433851Y-88144822D01*
X186433851Y-88359108D01*
X185433851Y-87359108D02*
X186433851Y-87073394D01*
X185719565Y-86787680D01*
X186433851Y-86501965D01*
X185433851Y-86216251D01*
X186362422Y-85073394D02*
X186433851Y-85216251D01*
X186433851Y-85501965D01*
X186362422Y-85644822D01*
X186219565Y-85716251D01*
X185648137Y-85716251D01*
X185505280Y-85644822D01*
X185433851Y-85501965D01*
X185433851Y-85216251D01*
X185505280Y-85073394D01*
X185648137Y-85001965D01*
X185790994Y-85001965D01*
X185933851Y-85716251D01*
X186433851Y-84359108D02*
X185433851Y-84359108D01*
X185719565Y-84359108D02*
X185576708Y-84287680D01*
X185505280Y-84216251D01*
X185433851Y-84073394D01*
X185433851Y-83930537D01*
X186362422Y-82359108D02*
X186433851Y-82216251D01*
X186433851Y-81930537D01*
X186362422Y-81787680D01*
X186219565Y-81716251D01*
X186148137Y-81716251D01*
X186005280Y-81787680D01*
X185933851Y-81930537D01*
X185933851Y-82144822D01*
X185862422Y-82287680D01*
X185719565Y-82359108D01*
X185648137Y-82359108D01*
X185505280Y-82287680D01*
X185433851Y-82144822D01*
X185433851Y-81930537D01*
X185505280Y-81787680D01*
X185433851Y-81216251D02*
X186433851Y-80930537D01*
X185719565Y-80644822D01*
X186433851Y-80359108D01*
X185433851Y-80073394D01*
X186433851Y-79501965D02*
X185433851Y-79501965D01*
X184933851Y-79501965D02*
X185005280Y-79573394D01*
X185076708Y-79501965D01*
X185005280Y-79430537D01*
X184933851Y-79501965D01*
X185076708Y-79501965D01*
X185433851Y-79001965D02*
X185433851Y-78430537D01*
X184933851Y-78787680D02*
X186219565Y-78787680D01*
X186362422Y-78716251D01*
X186433851Y-78573394D01*
X186433851Y-78430537D01*
X186362422Y-77287680D02*
X186433851Y-77430537D01*
X186433851Y-77716251D01*
X186362422Y-77859108D01*
X186290994Y-77930537D01*
X186148137Y-78001965D01*
X185719565Y-78001965D01*
X185576708Y-77930537D01*
X185505280Y-77859108D01*
X185433851Y-77716251D01*
X185433851Y-77430537D01*
X185505280Y-77287680D01*
X186433851Y-76644822D02*
X184933851Y-76644822D01*
X186433851Y-76001965D02*
X185648137Y-76001965D01*
X185505280Y-76073394D01*
X185433851Y-76216251D01*
X185433851Y-76430537D01*
X185505280Y-76573394D01*
X185576708Y-76644822D01*
D12*
X183215280Y-76179680D02*
X183977280Y-76179680D01*
X183215280Y-90276680D02*
X183977280Y-90276680D01*
X183215280Y-76179680D02*
X183215280Y-90276680D01*
X114635280Y-89895680D02*
X113873280Y-89895680D01*
X114635280Y-99420680D02*
X113873280Y-99420680D01*
X114635280Y-89895680D02*
X114635280Y-99420680D01*
X114635280Y-85831680D02*
X113873280Y-85831680D01*
X114635280Y-75417680D02*
X114635280Y-85831680D01*
X113873280Y-75417680D02*
X114635280Y-75417680D01*
X171785280Y-59796680D02*
X127081280Y-59796680D01*
X171785280Y-100436680D02*
X171785280Y-59796680D01*
X127081280Y-100436680D02*
X127081280Y-59796680D01*
X127081280Y-100436680D02*
X171785280Y-100436680D01*
D11*
G04 #@! TO.C,U1*
X134213600Y-101506020D02*
X178790600Y-101506020D01*
X134213600Y-101506020D02*
X118592600Y-101506020D01*
X118592600Y-101506020D02*
X118592600Y-59024520D01*
X118592600Y-59024520D02*
X178790600Y-59024520D01*
X178790600Y-59024520D02*
X178790600Y-80106520D01*
X178790600Y-101506020D02*
X178790600Y-80106520D01*
X133896100Y-80678020D02*
X132753100Y-80678020D01*
X132753100Y-80678020D02*
X132753100Y-79852520D01*
X132753100Y-79852520D02*
X133896100Y-79852520D01*
X137579100Y-81440020D02*
X138658600Y-81440020D01*
X138658600Y-80678020D02*
X138658600Y-79852520D01*
X137579100Y-80678020D02*
X138658600Y-80678020D01*
X138658600Y-79852520D02*
X137579100Y-79852520D01*
X137579100Y-83853020D02*
X138658600Y-83853020D01*
X138658600Y-83853020D02*
X138658600Y-81440020D01*
X133896100Y-81440020D02*
X132753100Y-81440020D01*
X132753100Y-81440020D02*
X132753100Y-83853020D01*
X132753100Y-83853020D02*
X133896100Y-83853020D01*
X125831600Y-59024520D02*
X125831600Y-101506020D01*
G04 #@! TO.C,REF\002A\002A*
X117983017Y-106151680D02*
G75*
G03X117983017Y-106151680I-1696737J0D01*
G01*
X183375317Y-61953140D02*
G75*
G03X183375317Y-61953140I-1696737J0D01*
G01*
X117970317Y-62969140D02*
G75*
G03X117970317Y-62969140I-1696737J0D01*
G01*
X183375317Y-106149140D02*
G75*
G03X183375317Y-106149140I-1696737J0D01*
G01*
G04 #@! TO.C,U5*
X161584640Y-102339140D02*
X179618640Y-102339140D01*
X179618640Y-102339140D02*
X179618640Y-129072640D01*
X179618640Y-129072640D02*
X161648140Y-129072640D01*
X161648140Y-129072640D02*
X161584640Y-129072640D01*
X161584640Y-129072640D02*
X161584640Y-102339140D01*
G04 #@! TO.C,U1*
X130871980Y-80995424D02*
X131681504Y-80995424D01*
X131776742Y-80947805D01*
X131824361Y-80900186D01*
X131871980Y-80804948D01*
X131871980Y-80614472D01*
X131824361Y-80519234D01*
X131776742Y-80471615D01*
X131681504Y-80423996D01*
X130871980Y-80423996D01*
X131871980Y-79423996D02*
X131871980Y-79995424D01*
X131871980Y-79709710D02*
X130871980Y-79709710D01*
X131014838Y-79804948D01*
X131110076Y-79900186D01*
X131157695Y-79995424D01*
D13*
X134820790Y-71759462D02*
X134820790Y-72045177D01*
X134820790Y-71902320D02*
X134320790Y-71902320D01*
X134392219Y-71949939D01*
X134439838Y-71997558D01*
X134463647Y-72045177D01*
X134820790Y-88761558D02*
X134820790Y-89047272D01*
X134820790Y-88904415D02*
X134320790Y-88904415D01*
X134392219Y-88952034D01*
X134439838Y-88999653D01*
X134463647Y-89047272D01*
X134535076Y-88475843D02*
X134511266Y-88523462D01*
X134487457Y-88547272D01*
X134439838Y-88571081D01*
X134416028Y-88571081D01*
X134368409Y-88547272D01*
X134344600Y-88523462D01*
X134320790Y-88475843D01*
X134320790Y-88380605D01*
X134344600Y-88332986D01*
X134368409Y-88309177D01*
X134416028Y-88285367D01*
X134439838Y-88285367D01*
X134487457Y-88309177D01*
X134511266Y-88332986D01*
X134535076Y-88380605D01*
X134535076Y-88475843D01*
X134558885Y-88523462D01*
X134582695Y-88547272D01*
X134630314Y-88571081D01*
X134725552Y-88571081D01*
X134773171Y-88547272D01*
X134796980Y-88523462D01*
X134820790Y-88475843D01*
X134820790Y-88380605D01*
X134796980Y-88332986D01*
X134773171Y-88309177D01*
X134725552Y-88285367D01*
X134630314Y-88285367D01*
X134582695Y-88309177D01*
X134558885Y-88332986D01*
X134535076Y-88380605D01*
D11*
X137979171Y-80423996D02*
X138512504Y-80233520D01*
X137979171Y-80043043D01*
X138322004Y-83160805D02*
X138322004Y-83541758D01*
X137522004Y-83541758D01*
X137902957Y-82894139D02*
X137902957Y-82627472D01*
X138322004Y-82513186D02*
X138322004Y-82894139D01*
X137522004Y-82894139D01*
X137522004Y-82513186D01*
X138322004Y-82170329D02*
X137522004Y-82170329D01*
X137522004Y-81979853D01*
X137560100Y-81865567D01*
X137636290Y-81789377D01*
X137712480Y-81751281D01*
X137864861Y-81713186D01*
X137979147Y-81713186D01*
X138131528Y-81751281D01*
X138207719Y-81789377D01*
X138283909Y-81865567D01*
X138322004Y-81979853D01*
X138322004Y-82170329D01*
X133750004Y-83160805D02*
X133750004Y-83541758D01*
X132950004Y-83541758D01*
X133330957Y-82894139D02*
X133330957Y-82627472D01*
X133750004Y-82513186D02*
X133750004Y-82894139D01*
X132950004Y-82894139D01*
X132950004Y-82513186D01*
X133750004Y-82170329D02*
X132950004Y-82170329D01*
X132950004Y-81979853D01*
X132988100Y-81865567D01*
X133064290Y-81789377D01*
X133140480Y-81751281D01*
X133292861Y-81713186D01*
X133407147Y-81713186D01*
X133559528Y-81751281D01*
X133635719Y-81789377D01*
X133711909Y-81865567D01*
X133750004Y-81979853D01*
X133750004Y-82170329D01*
X133216671Y-80423996D02*
X133750004Y-80233520D01*
X133216671Y-80043043D01*
X137587100Y-78765115D02*
X137539480Y-78860353D01*
X137539480Y-79003210D01*
X137587100Y-79146067D01*
X137682338Y-79241305D01*
X137777576Y-79288924D01*
X137968052Y-79336543D01*
X138110909Y-79336543D01*
X138301385Y-79288924D01*
X138396623Y-79241305D01*
X138491861Y-79146067D01*
X138539480Y-79003210D01*
X138539480Y-78907972D01*
X138491861Y-78765115D01*
X138444242Y-78717496D01*
X138110909Y-78717496D01*
X138110909Y-78907972D01*
X132761100Y-78765115D02*
X132713480Y-78860353D01*
X132713480Y-79003210D01*
X132761100Y-79146067D01*
X132856338Y-79241305D01*
X132951576Y-79288924D01*
X133142052Y-79336543D01*
X133284909Y-79336543D01*
X133475385Y-79288924D01*
X133570623Y-79241305D01*
X133665861Y-79146067D01*
X133713480Y-79003210D01*
X133713480Y-78907972D01*
X133665861Y-78765115D01*
X133618242Y-78717496D01*
X133284909Y-78717496D01*
X133284909Y-78907972D01*
X137650600Y-73177115D02*
X137602980Y-73272353D01*
X137602980Y-73415210D01*
X137650600Y-73558067D01*
X137745838Y-73653305D01*
X137841076Y-73700924D01*
X138031552Y-73748543D01*
X138174409Y-73748543D01*
X138364885Y-73700924D01*
X138460123Y-73653305D01*
X138555361Y-73558067D01*
X138602980Y-73415210D01*
X138602980Y-73319972D01*
X138555361Y-73177115D01*
X138507742Y-73129496D01*
X138174409Y-73129496D01*
X138174409Y-73319972D01*
X132761100Y-73177115D02*
X132713480Y-73272353D01*
X132713480Y-73415210D01*
X132761100Y-73558067D01*
X132856338Y-73653305D01*
X132951576Y-73700924D01*
X133142052Y-73748543D01*
X133284909Y-73748543D01*
X133475385Y-73700924D01*
X133570623Y-73653305D01*
X133665861Y-73558067D01*
X133713480Y-73415210D01*
X133713480Y-73319972D01*
X133665861Y-73177115D01*
X133618242Y-73129496D01*
X133284909Y-73129496D01*
X133284909Y-73319972D01*
G04 #@! TO.C,U2*
X174076407Y-93126868D02*
X174838312Y-93126868D01*
X176611327Y-93126868D02*
X177373232Y-93126868D01*
X176992280Y-93507820D02*
X176992280Y-92745916D01*
G04 #@! TD*
M02*
