G04 #@! TF.GenerationSoftware,KiCad,Pcbnew,5.0.2+dfsg1-1~bpo9+1*
G04 #@! TF.CreationDate,2020-07-27T21:19:22+01:00*
G04 #@! TF.ProjectId,gbc_outline_screen,6762635f-6f75-4746-9c69-6e655f736372,rev?*
G04 #@! TF.SameCoordinates,Original*
G04 #@! TF.FileFunction,Copper,L2,Bot*
G04 #@! TF.FilePolarity,Positive*
%FSLAX46Y46*%
G04 Gerber Fmt 4.6, Leading zero omitted, Abs format (unit mm)*
G04 Created by KiCad (PCBNEW 5.0.2+dfsg1-1~bpo9+1) date Mon 27 Jul 2020 21:19:22 BST*
%MOMM*%
%LPD*%
G01*
G04 APERTURE LIST*
G04 #@! TA.AperFunction,Conductor*
%ADD10C,0.100000*%
G04 #@! TD*
G04 #@! TA.AperFunction,SMDPad,CuDef*
%ADD11C,1.600000*%
G04 #@! TD*
G04 #@! TA.AperFunction,SMDPad,CuDef*
%ADD12R,1.000000X0.520000*%
G04 #@! TD*
G04 #@! TA.AperFunction,SMDPad,CuDef*
%ADD13R,1.000000X0.600000*%
G04 #@! TD*
G04 #@! TA.AperFunction,ComponentPad*
%ADD14C,1.500000*%
G04 #@! TD*
G04 #@! TA.AperFunction,SMDPad,CuDef*
%ADD15C,1.425000*%
G04 #@! TD*
G04 #@! TA.AperFunction,ComponentPad*
%ADD16C,2.800000*%
G04 #@! TD*
G04 #@! TA.AperFunction,SMDPad,CuDef*
%ADD17R,4.500000X1.000000*%
G04 #@! TD*
G04 #@! TA.AperFunction,ComponentPad*
%ADD18C,1.800000*%
G04 #@! TD*
G04 #@! TA.AperFunction,ComponentPad*
%ADD19C,1.600000*%
G04 #@! TD*
G04 #@! TA.AperFunction,ViaPad*
%ADD20C,0.800000*%
G04 #@! TD*
G04 #@! TA.AperFunction,Conductor*
%ADD21C,0.250000*%
G04 #@! TD*
G04 APERTURE END LIST*
D10*
G04 #@! TO.N,Net-(J1-Pad1)*
G04 #@! TO.C,J1*
G36*
X134602007Y-61589406D02*
X134640836Y-61595166D01*
X134678914Y-61604704D01*
X134715873Y-61617928D01*
X134751359Y-61634711D01*
X134785028Y-61654892D01*
X134816557Y-61678276D01*
X134845643Y-61704637D01*
X134872004Y-61733723D01*
X134895388Y-61765252D01*
X134915569Y-61798921D01*
X134932352Y-61834407D01*
X134945576Y-61871366D01*
X134955114Y-61909444D01*
X134960874Y-61948273D01*
X134962800Y-61987480D01*
X134962800Y-62787480D01*
X134960874Y-62826687D01*
X134955114Y-62865516D01*
X134945576Y-62903594D01*
X134932352Y-62940553D01*
X134915569Y-62976039D01*
X134895388Y-63009708D01*
X134872004Y-63041237D01*
X134845643Y-63070323D01*
X134816557Y-63096684D01*
X134785028Y-63120068D01*
X134751359Y-63140249D01*
X134715873Y-63157032D01*
X134678914Y-63170256D01*
X134640836Y-63179794D01*
X134602007Y-63185554D01*
X134562800Y-63187480D01*
X133762800Y-63187480D01*
X133723593Y-63185554D01*
X133684764Y-63179794D01*
X133646686Y-63170256D01*
X133609727Y-63157032D01*
X133574241Y-63140249D01*
X133540572Y-63120068D01*
X133509043Y-63096684D01*
X133479957Y-63070323D01*
X133453596Y-63041237D01*
X133430212Y-63009708D01*
X133410031Y-62976039D01*
X133393248Y-62940553D01*
X133380024Y-62903594D01*
X133370486Y-62865516D01*
X133364726Y-62826687D01*
X133362800Y-62787480D01*
X133362800Y-61987480D01*
X133364726Y-61948273D01*
X133370486Y-61909444D01*
X133380024Y-61871366D01*
X133393248Y-61834407D01*
X133410031Y-61798921D01*
X133430212Y-61765252D01*
X133453596Y-61733723D01*
X133479957Y-61704637D01*
X133509043Y-61678276D01*
X133540572Y-61654892D01*
X133574241Y-61634711D01*
X133609727Y-61617928D01*
X133646686Y-61604704D01*
X133684764Y-61595166D01*
X133723593Y-61589406D01*
X133762800Y-61587480D01*
X134562800Y-61587480D01*
X134602007Y-61589406D01*
X134602007Y-61589406D01*
G37*
D11*
G04 #@! TD*
G04 #@! TO.P,J1,1*
G04 #@! TO.N,Net-(J1-Pad1)*
X134162800Y-62387480D03*
D10*
G04 #@! TO.N,Net-(J1-Pad2)*
G04 #@! TO.C,J1*
G36*
X132062007Y-61589406D02*
X132100836Y-61595166D01*
X132138914Y-61604704D01*
X132175873Y-61617928D01*
X132211359Y-61634711D01*
X132245028Y-61654892D01*
X132276557Y-61678276D01*
X132305643Y-61704637D01*
X132332004Y-61733723D01*
X132355388Y-61765252D01*
X132375569Y-61798921D01*
X132392352Y-61834407D01*
X132405576Y-61871366D01*
X132415114Y-61909444D01*
X132420874Y-61948273D01*
X132422800Y-61987480D01*
X132422800Y-62787480D01*
X132420874Y-62826687D01*
X132415114Y-62865516D01*
X132405576Y-62903594D01*
X132392352Y-62940553D01*
X132375569Y-62976039D01*
X132355388Y-63009708D01*
X132332004Y-63041237D01*
X132305643Y-63070323D01*
X132276557Y-63096684D01*
X132245028Y-63120068D01*
X132211359Y-63140249D01*
X132175873Y-63157032D01*
X132138914Y-63170256D01*
X132100836Y-63179794D01*
X132062007Y-63185554D01*
X132022800Y-63187480D01*
X131222800Y-63187480D01*
X131183593Y-63185554D01*
X131144764Y-63179794D01*
X131106686Y-63170256D01*
X131069727Y-63157032D01*
X131034241Y-63140249D01*
X131000572Y-63120068D01*
X130969043Y-63096684D01*
X130939957Y-63070323D01*
X130913596Y-63041237D01*
X130890212Y-63009708D01*
X130870031Y-62976039D01*
X130853248Y-62940553D01*
X130840024Y-62903594D01*
X130830486Y-62865516D01*
X130824726Y-62826687D01*
X130822800Y-62787480D01*
X130822800Y-61987480D01*
X130824726Y-61948273D01*
X130830486Y-61909444D01*
X130840024Y-61871366D01*
X130853248Y-61834407D01*
X130870031Y-61798921D01*
X130890212Y-61765252D01*
X130913596Y-61733723D01*
X130939957Y-61704637D01*
X130969043Y-61678276D01*
X131000572Y-61654892D01*
X131034241Y-61634711D01*
X131069727Y-61617928D01*
X131106686Y-61604704D01*
X131144764Y-61595166D01*
X131183593Y-61589406D01*
X131222800Y-61587480D01*
X132022800Y-61587480D01*
X132062007Y-61589406D01*
X132062007Y-61589406D01*
G37*
D11*
G04 #@! TD*
G04 #@! TO.P,J1,2*
G04 #@! TO.N,Net-(J1-Pad2)*
X131622800Y-62387480D03*
D10*
G04 #@! TO.N,Net-(J1-Pad3)*
G04 #@! TO.C,J1*
G36*
X134602007Y-64129406D02*
X134640836Y-64135166D01*
X134678914Y-64144704D01*
X134715873Y-64157928D01*
X134751359Y-64174711D01*
X134785028Y-64194892D01*
X134816557Y-64218276D01*
X134845643Y-64244637D01*
X134872004Y-64273723D01*
X134895388Y-64305252D01*
X134915569Y-64338921D01*
X134932352Y-64374407D01*
X134945576Y-64411366D01*
X134955114Y-64449444D01*
X134960874Y-64488273D01*
X134962800Y-64527480D01*
X134962800Y-65327480D01*
X134960874Y-65366687D01*
X134955114Y-65405516D01*
X134945576Y-65443594D01*
X134932352Y-65480553D01*
X134915569Y-65516039D01*
X134895388Y-65549708D01*
X134872004Y-65581237D01*
X134845643Y-65610323D01*
X134816557Y-65636684D01*
X134785028Y-65660068D01*
X134751359Y-65680249D01*
X134715873Y-65697032D01*
X134678914Y-65710256D01*
X134640836Y-65719794D01*
X134602007Y-65725554D01*
X134562800Y-65727480D01*
X133762800Y-65727480D01*
X133723593Y-65725554D01*
X133684764Y-65719794D01*
X133646686Y-65710256D01*
X133609727Y-65697032D01*
X133574241Y-65680249D01*
X133540572Y-65660068D01*
X133509043Y-65636684D01*
X133479957Y-65610323D01*
X133453596Y-65581237D01*
X133430212Y-65549708D01*
X133410031Y-65516039D01*
X133393248Y-65480553D01*
X133380024Y-65443594D01*
X133370486Y-65405516D01*
X133364726Y-65366687D01*
X133362800Y-65327480D01*
X133362800Y-64527480D01*
X133364726Y-64488273D01*
X133370486Y-64449444D01*
X133380024Y-64411366D01*
X133393248Y-64374407D01*
X133410031Y-64338921D01*
X133430212Y-64305252D01*
X133453596Y-64273723D01*
X133479957Y-64244637D01*
X133509043Y-64218276D01*
X133540572Y-64194892D01*
X133574241Y-64174711D01*
X133609727Y-64157928D01*
X133646686Y-64144704D01*
X133684764Y-64135166D01*
X133723593Y-64129406D01*
X133762800Y-64127480D01*
X134562800Y-64127480D01*
X134602007Y-64129406D01*
X134602007Y-64129406D01*
G37*
D11*
G04 #@! TD*
G04 #@! TO.P,J1,3*
G04 #@! TO.N,Net-(J1-Pad3)*
X134162800Y-64927480D03*
D10*
G04 #@! TO.N,Net-(J1-Pad4)*
G04 #@! TO.C,J1*
G36*
X132062007Y-64129406D02*
X132100836Y-64135166D01*
X132138914Y-64144704D01*
X132175873Y-64157928D01*
X132211359Y-64174711D01*
X132245028Y-64194892D01*
X132276557Y-64218276D01*
X132305643Y-64244637D01*
X132332004Y-64273723D01*
X132355388Y-64305252D01*
X132375569Y-64338921D01*
X132392352Y-64374407D01*
X132405576Y-64411366D01*
X132415114Y-64449444D01*
X132420874Y-64488273D01*
X132422800Y-64527480D01*
X132422800Y-65327480D01*
X132420874Y-65366687D01*
X132415114Y-65405516D01*
X132405576Y-65443594D01*
X132392352Y-65480553D01*
X132375569Y-65516039D01*
X132355388Y-65549708D01*
X132332004Y-65581237D01*
X132305643Y-65610323D01*
X132276557Y-65636684D01*
X132245028Y-65660068D01*
X132211359Y-65680249D01*
X132175873Y-65697032D01*
X132138914Y-65710256D01*
X132100836Y-65719794D01*
X132062007Y-65725554D01*
X132022800Y-65727480D01*
X131222800Y-65727480D01*
X131183593Y-65725554D01*
X131144764Y-65719794D01*
X131106686Y-65710256D01*
X131069727Y-65697032D01*
X131034241Y-65680249D01*
X131000572Y-65660068D01*
X130969043Y-65636684D01*
X130939957Y-65610323D01*
X130913596Y-65581237D01*
X130890212Y-65549708D01*
X130870031Y-65516039D01*
X130853248Y-65480553D01*
X130840024Y-65443594D01*
X130830486Y-65405516D01*
X130824726Y-65366687D01*
X130822800Y-65327480D01*
X130822800Y-64527480D01*
X130824726Y-64488273D01*
X130830486Y-64449444D01*
X130840024Y-64411366D01*
X130853248Y-64374407D01*
X130870031Y-64338921D01*
X130890212Y-64305252D01*
X130913596Y-64273723D01*
X130939957Y-64244637D01*
X130969043Y-64218276D01*
X131000572Y-64194892D01*
X131034241Y-64174711D01*
X131069727Y-64157928D01*
X131106686Y-64144704D01*
X131144764Y-64135166D01*
X131183593Y-64129406D01*
X131222800Y-64127480D01*
X132022800Y-64127480D01*
X132062007Y-64129406D01*
X132062007Y-64129406D01*
G37*
D11*
G04 #@! TD*
G04 #@! TO.P,J1,4*
G04 #@! TO.N,Net-(J1-Pad4)*
X131622800Y-64927480D03*
D10*
G04 #@! TO.N,Net-(J1-Pad5)*
G04 #@! TO.C,J1*
G36*
X134602007Y-66669406D02*
X134640836Y-66675166D01*
X134678914Y-66684704D01*
X134715873Y-66697928D01*
X134751359Y-66714711D01*
X134785028Y-66734892D01*
X134816557Y-66758276D01*
X134845643Y-66784637D01*
X134872004Y-66813723D01*
X134895388Y-66845252D01*
X134915569Y-66878921D01*
X134932352Y-66914407D01*
X134945576Y-66951366D01*
X134955114Y-66989444D01*
X134960874Y-67028273D01*
X134962800Y-67067480D01*
X134962800Y-67867480D01*
X134960874Y-67906687D01*
X134955114Y-67945516D01*
X134945576Y-67983594D01*
X134932352Y-68020553D01*
X134915569Y-68056039D01*
X134895388Y-68089708D01*
X134872004Y-68121237D01*
X134845643Y-68150323D01*
X134816557Y-68176684D01*
X134785028Y-68200068D01*
X134751359Y-68220249D01*
X134715873Y-68237032D01*
X134678914Y-68250256D01*
X134640836Y-68259794D01*
X134602007Y-68265554D01*
X134562800Y-68267480D01*
X133762800Y-68267480D01*
X133723593Y-68265554D01*
X133684764Y-68259794D01*
X133646686Y-68250256D01*
X133609727Y-68237032D01*
X133574241Y-68220249D01*
X133540572Y-68200068D01*
X133509043Y-68176684D01*
X133479957Y-68150323D01*
X133453596Y-68121237D01*
X133430212Y-68089708D01*
X133410031Y-68056039D01*
X133393248Y-68020553D01*
X133380024Y-67983594D01*
X133370486Y-67945516D01*
X133364726Y-67906687D01*
X133362800Y-67867480D01*
X133362800Y-67067480D01*
X133364726Y-67028273D01*
X133370486Y-66989444D01*
X133380024Y-66951366D01*
X133393248Y-66914407D01*
X133410031Y-66878921D01*
X133430212Y-66845252D01*
X133453596Y-66813723D01*
X133479957Y-66784637D01*
X133509043Y-66758276D01*
X133540572Y-66734892D01*
X133574241Y-66714711D01*
X133609727Y-66697928D01*
X133646686Y-66684704D01*
X133684764Y-66675166D01*
X133723593Y-66669406D01*
X133762800Y-66667480D01*
X134562800Y-66667480D01*
X134602007Y-66669406D01*
X134602007Y-66669406D01*
G37*
D11*
G04 #@! TD*
G04 #@! TO.P,J1,5*
G04 #@! TO.N,Net-(J1-Pad5)*
X134162800Y-67467480D03*
D10*
G04 #@! TO.N,Net-(J1-Pad34)*
G04 #@! TO.C,J1*
G36*
X132062007Y-66669406D02*
X132100836Y-66675166D01*
X132138914Y-66684704D01*
X132175873Y-66697928D01*
X132211359Y-66714711D01*
X132245028Y-66734892D01*
X132276557Y-66758276D01*
X132305643Y-66784637D01*
X132332004Y-66813723D01*
X132355388Y-66845252D01*
X132375569Y-66878921D01*
X132392352Y-66914407D01*
X132405576Y-66951366D01*
X132415114Y-66989444D01*
X132420874Y-67028273D01*
X132422800Y-67067480D01*
X132422800Y-67867480D01*
X132420874Y-67906687D01*
X132415114Y-67945516D01*
X132405576Y-67983594D01*
X132392352Y-68020553D01*
X132375569Y-68056039D01*
X132355388Y-68089708D01*
X132332004Y-68121237D01*
X132305643Y-68150323D01*
X132276557Y-68176684D01*
X132245028Y-68200068D01*
X132211359Y-68220249D01*
X132175873Y-68237032D01*
X132138914Y-68250256D01*
X132100836Y-68259794D01*
X132062007Y-68265554D01*
X132022800Y-68267480D01*
X131222800Y-68267480D01*
X131183593Y-68265554D01*
X131144764Y-68259794D01*
X131106686Y-68250256D01*
X131069727Y-68237032D01*
X131034241Y-68220249D01*
X131000572Y-68200068D01*
X130969043Y-68176684D01*
X130939957Y-68150323D01*
X130913596Y-68121237D01*
X130890212Y-68089708D01*
X130870031Y-68056039D01*
X130853248Y-68020553D01*
X130840024Y-67983594D01*
X130830486Y-67945516D01*
X130824726Y-67906687D01*
X130822800Y-67867480D01*
X130822800Y-67067480D01*
X130824726Y-67028273D01*
X130830486Y-66989444D01*
X130840024Y-66951366D01*
X130853248Y-66914407D01*
X130870031Y-66878921D01*
X130890212Y-66845252D01*
X130913596Y-66813723D01*
X130939957Y-66784637D01*
X130969043Y-66758276D01*
X131000572Y-66734892D01*
X131034241Y-66714711D01*
X131069727Y-66697928D01*
X131106686Y-66684704D01*
X131144764Y-66675166D01*
X131183593Y-66669406D01*
X131222800Y-66667480D01*
X132022800Y-66667480D01*
X132062007Y-66669406D01*
X132062007Y-66669406D01*
G37*
D11*
G04 #@! TD*
G04 #@! TO.P,J1,6*
G04 #@! TO.N,Net-(J1-Pad34)*
X131622800Y-67467480D03*
D10*
G04 #@! TO.N,Net-(J1-Pad7)*
G04 #@! TO.C,J1*
G36*
X134602007Y-69209406D02*
X134640836Y-69215166D01*
X134678914Y-69224704D01*
X134715873Y-69237928D01*
X134751359Y-69254711D01*
X134785028Y-69274892D01*
X134816557Y-69298276D01*
X134845643Y-69324637D01*
X134872004Y-69353723D01*
X134895388Y-69385252D01*
X134915569Y-69418921D01*
X134932352Y-69454407D01*
X134945576Y-69491366D01*
X134955114Y-69529444D01*
X134960874Y-69568273D01*
X134962800Y-69607480D01*
X134962800Y-70407480D01*
X134960874Y-70446687D01*
X134955114Y-70485516D01*
X134945576Y-70523594D01*
X134932352Y-70560553D01*
X134915569Y-70596039D01*
X134895388Y-70629708D01*
X134872004Y-70661237D01*
X134845643Y-70690323D01*
X134816557Y-70716684D01*
X134785028Y-70740068D01*
X134751359Y-70760249D01*
X134715873Y-70777032D01*
X134678914Y-70790256D01*
X134640836Y-70799794D01*
X134602007Y-70805554D01*
X134562800Y-70807480D01*
X133762800Y-70807480D01*
X133723593Y-70805554D01*
X133684764Y-70799794D01*
X133646686Y-70790256D01*
X133609727Y-70777032D01*
X133574241Y-70760249D01*
X133540572Y-70740068D01*
X133509043Y-70716684D01*
X133479957Y-70690323D01*
X133453596Y-70661237D01*
X133430212Y-70629708D01*
X133410031Y-70596039D01*
X133393248Y-70560553D01*
X133380024Y-70523594D01*
X133370486Y-70485516D01*
X133364726Y-70446687D01*
X133362800Y-70407480D01*
X133362800Y-69607480D01*
X133364726Y-69568273D01*
X133370486Y-69529444D01*
X133380024Y-69491366D01*
X133393248Y-69454407D01*
X133410031Y-69418921D01*
X133430212Y-69385252D01*
X133453596Y-69353723D01*
X133479957Y-69324637D01*
X133509043Y-69298276D01*
X133540572Y-69274892D01*
X133574241Y-69254711D01*
X133609727Y-69237928D01*
X133646686Y-69224704D01*
X133684764Y-69215166D01*
X133723593Y-69209406D01*
X133762800Y-69207480D01*
X134562800Y-69207480D01*
X134602007Y-69209406D01*
X134602007Y-69209406D01*
G37*
D11*
G04 #@! TD*
G04 #@! TO.P,J1,7*
G04 #@! TO.N,Net-(J1-Pad7)*
X134162800Y-70007480D03*
D10*
G04 #@! TO.N,Net-(J1-Pad8)*
G04 #@! TO.C,J1*
G36*
X132062007Y-69209406D02*
X132100836Y-69215166D01*
X132138914Y-69224704D01*
X132175873Y-69237928D01*
X132211359Y-69254711D01*
X132245028Y-69274892D01*
X132276557Y-69298276D01*
X132305643Y-69324637D01*
X132332004Y-69353723D01*
X132355388Y-69385252D01*
X132375569Y-69418921D01*
X132392352Y-69454407D01*
X132405576Y-69491366D01*
X132415114Y-69529444D01*
X132420874Y-69568273D01*
X132422800Y-69607480D01*
X132422800Y-70407480D01*
X132420874Y-70446687D01*
X132415114Y-70485516D01*
X132405576Y-70523594D01*
X132392352Y-70560553D01*
X132375569Y-70596039D01*
X132355388Y-70629708D01*
X132332004Y-70661237D01*
X132305643Y-70690323D01*
X132276557Y-70716684D01*
X132245028Y-70740068D01*
X132211359Y-70760249D01*
X132175873Y-70777032D01*
X132138914Y-70790256D01*
X132100836Y-70799794D01*
X132062007Y-70805554D01*
X132022800Y-70807480D01*
X131222800Y-70807480D01*
X131183593Y-70805554D01*
X131144764Y-70799794D01*
X131106686Y-70790256D01*
X131069727Y-70777032D01*
X131034241Y-70760249D01*
X131000572Y-70740068D01*
X130969043Y-70716684D01*
X130939957Y-70690323D01*
X130913596Y-70661237D01*
X130890212Y-70629708D01*
X130870031Y-70596039D01*
X130853248Y-70560553D01*
X130840024Y-70523594D01*
X130830486Y-70485516D01*
X130824726Y-70446687D01*
X130822800Y-70407480D01*
X130822800Y-69607480D01*
X130824726Y-69568273D01*
X130830486Y-69529444D01*
X130840024Y-69491366D01*
X130853248Y-69454407D01*
X130870031Y-69418921D01*
X130890212Y-69385252D01*
X130913596Y-69353723D01*
X130939957Y-69324637D01*
X130969043Y-69298276D01*
X131000572Y-69274892D01*
X131034241Y-69254711D01*
X131069727Y-69237928D01*
X131106686Y-69224704D01*
X131144764Y-69215166D01*
X131183593Y-69209406D01*
X131222800Y-69207480D01*
X132022800Y-69207480D01*
X132062007Y-69209406D01*
X132062007Y-69209406D01*
G37*
D11*
G04 #@! TD*
G04 #@! TO.P,J1,8*
G04 #@! TO.N,Net-(J1-Pad8)*
X131622800Y-70007480D03*
D10*
G04 #@! TO.N,Net-(J1-Pad9)*
G04 #@! TO.C,J1*
G36*
X134602007Y-71749406D02*
X134640836Y-71755166D01*
X134678914Y-71764704D01*
X134715873Y-71777928D01*
X134751359Y-71794711D01*
X134785028Y-71814892D01*
X134816557Y-71838276D01*
X134845643Y-71864637D01*
X134872004Y-71893723D01*
X134895388Y-71925252D01*
X134915569Y-71958921D01*
X134932352Y-71994407D01*
X134945576Y-72031366D01*
X134955114Y-72069444D01*
X134960874Y-72108273D01*
X134962800Y-72147480D01*
X134962800Y-72947480D01*
X134960874Y-72986687D01*
X134955114Y-73025516D01*
X134945576Y-73063594D01*
X134932352Y-73100553D01*
X134915569Y-73136039D01*
X134895388Y-73169708D01*
X134872004Y-73201237D01*
X134845643Y-73230323D01*
X134816557Y-73256684D01*
X134785028Y-73280068D01*
X134751359Y-73300249D01*
X134715873Y-73317032D01*
X134678914Y-73330256D01*
X134640836Y-73339794D01*
X134602007Y-73345554D01*
X134562800Y-73347480D01*
X133762800Y-73347480D01*
X133723593Y-73345554D01*
X133684764Y-73339794D01*
X133646686Y-73330256D01*
X133609727Y-73317032D01*
X133574241Y-73300249D01*
X133540572Y-73280068D01*
X133509043Y-73256684D01*
X133479957Y-73230323D01*
X133453596Y-73201237D01*
X133430212Y-73169708D01*
X133410031Y-73136039D01*
X133393248Y-73100553D01*
X133380024Y-73063594D01*
X133370486Y-73025516D01*
X133364726Y-72986687D01*
X133362800Y-72947480D01*
X133362800Y-72147480D01*
X133364726Y-72108273D01*
X133370486Y-72069444D01*
X133380024Y-72031366D01*
X133393248Y-71994407D01*
X133410031Y-71958921D01*
X133430212Y-71925252D01*
X133453596Y-71893723D01*
X133479957Y-71864637D01*
X133509043Y-71838276D01*
X133540572Y-71814892D01*
X133574241Y-71794711D01*
X133609727Y-71777928D01*
X133646686Y-71764704D01*
X133684764Y-71755166D01*
X133723593Y-71749406D01*
X133762800Y-71747480D01*
X134562800Y-71747480D01*
X134602007Y-71749406D01*
X134602007Y-71749406D01*
G37*
D11*
G04 #@! TD*
G04 #@! TO.P,J1,9*
G04 #@! TO.N,Net-(J1-Pad9)*
X134162800Y-72547480D03*
D10*
G04 #@! TO.N,Net-(J1-Pad10)*
G04 #@! TO.C,J1*
G36*
X132062007Y-71749406D02*
X132100836Y-71755166D01*
X132138914Y-71764704D01*
X132175873Y-71777928D01*
X132211359Y-71794711D01*
X132245028Y-71814892D01*
X132276557Y-71838276D01*
X132305643Y-71864637D01*
X132332004Y-71893723D01*
X132355388Y-71925252D01*
X132375569Y-71958921D01*
X132392352Y-71994407D01*
X132405576Y-72031366D01*
X132415114Y-72069444D01*
X132420874Y-72108273D01*
X132422800Y-72147480D01*
X132422800Y-72947480D01*
X132420874Y-72986687D01*
X132415114Y-73025516D01*
X132405576Y-73063594D01*
X132392352Y-73100553D01*
X132375569Y-73136039D01*
X132355388Y-73169708D01*
X132332004Y-73201237D01*
X132305643Y-73230323D01*
X132276557Y-73256684D01*
X132245028Y-73280068D01*
X132211359Y-73300249D01*
X132175873Y-73317032D01*
X132138914Y-73330256D01*
X132100836Y-73339794D01*
X132062007Y-73345554D01*
X132022800Y-73347480D01*
X131222800Y-73347480D01*
X131183593Y-73345554D01*
X131144764Y-73339794D01*
X131106686Y-73330256D01*
X131069727Y-73317032D01*
X131034241Y-73300249D01*
X131000572Y-73280068D01*
X130969043Y-73256684D01*
X130939957Y-73230323D01*
X130913596Y-73201237D01*
X130890212Y-73169708D01*
X130870031Y-73136039D01*
X130853248Y-73100553D01*
X130840024Y-73063594D01*
X130830486Y-73025516D01*
X130824726Y-72986687D01*
X130822800Y-72947480D01*
X130822800Y-72147480D01*
X130824726Y-72108273D01*
X130830486Y-72069444D01*
X130840024Y-72031366D01*
X130853248Y-71994407D01*
X130870031Y-71958921D01*
X130890212Y-71925252D01*
X130913596Y-71893723D01*
X130939957Y-71864637D01*
X130969043Y-71838276D01*
X131000572Y-71814892D01*
X131034241Y-71794711D01*
X131069727Y-71777928D01*
X131106686Y-71764704D01*
X131144764Y-71755166D01*
X131183593Y-71749406D01*
X131222800Y-71747480D01*
X132022800Y-71747480D01*
X132062007Y-71749406D01*
X132062007Y-71749406D01*
G37*
D11*
G04 #@! TD*
G04 #@! TO.P,J1,10*
G04 #@! TO.N,Net-(J1-Pad10)*
X131622800Y-72547480D03*
D10*
G04 #@! TO.N,Net-(J1-Pad11)*
G04 #@! TO.C,J1*
G36*
X134602007Y-74289406D02*
X134640836Y-74295166D01*
X134678914Y-74304704D01*
X134715873Y-74317928D01*
X134751359Y-74334711D01*
X134785028Y-74354892D01*
X134816557Y-74378276D01*
X134845643Y-74404637D01*
X134872004Y-74433723D01*
X134895388Y-74465252D01*
X134915569Y-74498921D01*
X134932352Y-74534407D01*
X134945576Y-74571366D01*
X134955114Y-74609444D01*
X134960874Y-74648273D01*
X134962800Y-74687480D01*
X134962800Y-75487480D01*
X134960874Y-75526687D01*
X134955114Y-75565516D01*
X134945576Y-75603594D01*
X134932352Y-75640553D01*
X134915569Y-75676039D01*
X134895388Y-75709708D01*
X134872004Y-75741237D01*
X134845643Y-75770323D01*
X134816557Y-75796684D01*
X134785028Y-75820068D01*
X134751359Y-75840249D01*
X134715873Y-75857032D01*
X134678914Y-75870256D01*
X134640836Y-75879794D01*
X134602007Y-75885554D01*
X134562800Y-75887480D01*
X133762800Y-75887480D01*
X133723593Y-75885554D01*
X133684764Y-75879794D01*
X133646686Y-75870256D01*
X133609727Y-75857032D01*
X133574241Y-75840249D01*
X133540572Y-75820068D01*
X133509043Y-75796684D01*
X133479957Y-75770323D01*
X133453596Y-75741237D01*
X133430212Y-75709708D01*
X133410031Y-75676039D01*
X133393248Y-75640553D01*
X133380024Y-75603594D01*
X133370486Y-75565516D01*
X133364726Y-75526687D01*
X133362800Y-75487480D01*
X133362800Y-74687480D01*
X133364726Y-74648273D01*
X133370486Y-74609444D01*
X133380024Y-74571366D01*
X133393248Y-74534407D01*
X133410031Y-74498921D01*
X133430212Y-74465252D01*
X133453596Y-74433723D01*
X133479957Y-74404637D01*
X133509043Y-74378276D01*
X133540572Y-74354892D01*
X133574241Y-74334711D01*
X133609727Y-74317928D01*
X133646686Y-74304704D01*
X133684764Y-74295166D01*
X133723593Y-74289406D01*
X133762800Y-74287480D01*
X134562800Y-74287480D01*
X134602007Y-74289406D01*
X134602007Y-74289406D01*
G37*
D11*
G04 #@! TD*
G04 #@! TO.P,J1,11*
G04 #@! TO.N,Net-(J1-Pad11)*
X134162800Y-75087480D03*
D10*
G04 #@! TO.N,Net-(J1-Pad12)*
G04 #@! TO.C,J1*
G36*
X132062007Y-74289406D02*
X132100836Y-74295166D01*
X132138914Y-74304704D01*
X132175873Y-74317928D01*
X132211359Y-74334711D01*
X132245028Y-74354892D01*
X132276557Y-74378276D01*
X132305643Y-74404637D01*
X132332004Y-74433723D01*
X132355388Y-74465252D01*
X132375569Y-74498921D01*
X132392352Y-74534407D01*
X132405576Y-74571366D01*
X132415114Y-74609444D01*
X132420874Y-74648273D01*
X132422800Y-74687480D01*
X132422800Y-75487480D01*
X132420874Y-75526687D01*
X132415114Y-75565516D01*
X132405576Y-75603594D01*
X132392352Y-75640553D01*
X132375569Y-75676039D01*
X132355388Y-75709708D01*
X132332004Y-75741237D01*
X132305643Y-75770323D01*
X132276557Y-75796684D01*
X132245028Y-75820068D01*
X132211359Y-75840249D01*
X132175873Y-75857032D01*
X132138914Y-75870256D01*
X132100836Y-75879794D01*
X132062007Y-75885554D01*
X132022800Y-75887480D01*
X131222800Y-75887480D01*
X131183593Y-75885554D01*
X131144764Y-75879794D01*
X131106686Y-75870256D01*
X131069727Y-75857032D01*
X131034241Y-75840249D01*
X131000572Y-75820068D01*
X130969043Y-75796684D01*
X130939957Y-75770323D01*
X130913596Y-75741237D01*
X130890212Y-75709708D01*
X130870031Y-75676039D01*
X130853248Y-75640553D01*
X130840024Y-75603594D01*
X130830486Y-75565516D01*
X130824726Y-75526687D01*
X130822800Y-75487480D01*
X130822800Y-74687480D01*
X130824726Y-74648273D01*
X130830486Y-74609444D01*
X130840024Y-74571366D01*
X130853248Y-74534407D01*
X130870031Y-74498921D01*
X130890212Y-74465252D01*
X130913596Y-74433723D01*
X130939957Y-74404637D01*
X130969043Y-74378276D01*
X131000572Y-74354892D01*
X131034241Y-74334711D01*
X131069727Y-74317928D01*
X131106686Y-74304704D01*
X131144764Y-74295166D01*
X131183593Y-74289406D01*
X131222800Y-74287480D01*
X132022800Y-74287480D01*
X132062007Y-74289406D01*
X132062007Y-74289406D01*
G37*
D11*
G04 #@! TD*
G04 #@! TO.P,J1,12*
G04 #@! TO.N,Net-(J1-Pad12)*
X131622800Y-75087480D03*
D10*
G04 #@! TO.N,Net-(J1-Pad13)*
G04 #@! TO.C,J1*
G36*
X134602007Y-76829406D02*
X134640836Y-76835166D01*
X134678914Y-76844704D01*
X134715873Y-76857928D01*
X134751359Y-76874711D01*
X134785028Y-76894892D01*
X134816557Y-76918276D01*
X134845643Y-76944637D01*
X134872004Y-76973723D01*
X134895388Y-77005252D01*
X134915569Y-77038921D01*
X134932352Y-77074407D01*
X134945576Y-77111366D01*
X134955114Y-77149444D01*
X134960874Y-77188273D01*
X134962800Y-77227480D01*
X134962800Y-78027480D01*
X134960874Y-78066687D01*
X134955114Y-78105516D01*
X134945576Y-78143594D01*
X134932352Y-78180553D01*
X134915569Y-78216039D01*
X134895388Y-78249708D01*
X134872004Y-78281237D01*
X134845643Y-78310323D01*
X134816557Y-78336684D01*
X134785028Y-78360068D01*
X134751359Y-78380249D01*
X134715873Y-78397032D01*
X134678914Y-78410256D01*
X134640836Y-78419794D01*
X134602007Y-78425554D01*
X134562800Y-78427480D01*
X133762800Y-78427480D01*
X133723593Y-78425554D01*
X133684764Y-78419794D01*
X133646686Y-78410256D01*
X133609727Y-78397032D01*
X133574241Y-78380249D01*
X133540572Y-78360068D01*
X133509043Y-78336684D01*
X133479957Y-78310323D01*
X133453596Y-78281237D01*
X133430212Y-78249708D01*
X133410031Y-78216039D01*
X133393248Y-78180553D01*
X133380024Y-78143594D01*
X133370486Y-78105516D01*
X133364726Y-78066687D01*
X133362800Y-78027480D01*
X133362800Y-77227480D01*
X133364726Y-77188273D01*
X133370486Y-77149444D01*
X133380024Y-77111366D01*
X133393248Y-77074407D01*
X133410031Y-77038921D01*
X133430212Y-77005252D01*
X133453596Y-76973723D01*
X133479957Y-76944637D01*
X133509043Y-76918276D01*
X133540572Y-76894892D01*
X133574241Y-76874711D01*
X133609727Y-76857928D01*
X133646686Y-76844704D01*
X133684764Y-76835166D01*
X133723593Y-76829406D01*
X133762800Y-76827480D01*
X134562800Y-76827480D01*
X134602007Y-76829406D01*
X134602007Y-76829406D01*
G37*
D11*
G04 #@! TD*
G04 #@! TO.P,J1,13*
G04 #@! TO.N,Net-(J1-Pad13)*
X134162800Y-77627480D03*
D10*
G04 #@! TO.N,Net-(J1-Pad14)*
G04 #@! TO.C,J1*
G36*
X132062007Y-76829406D02*
X132100836Y-76835166D01*
X132138914Y-76844704D01*
X132175873Y-76857928D01*
X132211359Y-76874711D01*
X132245028Y-76894892D01*
X132276557Y-76918276D01*
X132305643Y-76944637D01*
X132332004Y-76973723D01*
X132355388Y-77005252D01*
X132375569Y-77038921D01*
X132392352Y-77074407D01*
X132405576Y-77111366D01*
X132415114Y-77149444D01*
X132420874Y-77188273D01*
X132422800Y-77227480D01*
X132422800Y-78027480D01*
X132420874Y-78066687D01*
X132415114Y-78105516D01*
X132405576Y-78143594D01*
X132392352Y-78180553D01*
X132375569Y-78216039D01*
X132355388Y-78249708D01*
X132332004Y-78281237D01*
X132305643Y-78310323D01*
X132276557Y-78336684D01*
X132245028Y-78360068D01*
X132211359Y-78380249D01*
X132175873Y-78397032D01*
X132138914Y-78410256D01*
X132100836Y-78419794D01*
X132062007Y-78425554D01*
X132022800Y-78427480D01*
X131222800Y-78427480D01*
X131183593Y-78425554D01*
X131144764Y-78419794D01*
X131106686Y-78410256D01*
X131069727Y-78397032D01*
X131034241Y-78380249D01*
X131000572Y-78360068D01*
X130969043Y-78336684D01*
X130939957Y-78310323D01*
X130913596Y-78281237D01*
X130890212Y-78249708D01*
X130870031Y-78216039D01*
X130853248Y-78180553D01*
X130840024Y-78143594D01*
X130830486Y-78105516D01*
X130824726Y-78066687D01*
X130822800Y-78027480D01*
X130822800Y-77227480D01*
X130824726Y-77188273D01*
X130830486Y-77149444D01*
X130840024Y-77111366D01*
X130853248Y-77074407D01*
X130870031Y-77038921D01*
X130890212Y-77005252D01*
X130913596Y-76973723D01*
X130939957Y-76944637D01*
X130969043Y-76918276D01*
X131000572Y-76894892D01*
X131034241Y-76874711D01*
X131069727Y-76857928D01*
X131106686Y-76844704D01*
X131144764Y-76835166D01*
X131183593Y-76829406D01*
X131222800Y-76827480D01*
X132022800Y-76827480D01*
X132062007Y-76829406D01*
X132062007Y-76829406D01*
G37*
D11*
G04 #@! TD*
G04 #@! TO.P,J1,14*
G04 #@! TO.N,Net-(J1-Pad14)*
X131622800Y-77627480D03*
D10*
G04 #@! TO.N,Net-(J1-Pad15)*
G04 #@! TO.C,J1*
G36*
X134602007Y-79369406D02*
X134640836Y-79375166D01*
X134678914Y-79384704D01*
X134715873Y-79397928D01*
X134751359Y-79414711D01*
X134785028Y-79434892D01*
X134816557Y-79458276D01*
X134845643Y-79484637D01*
X134872004Y-79513723D01*
X134895388Y-79545252D01*
X134915569Y-79578921D01*
X134932352Y-79614407D01*
X134945576Y-79651366D01*
X134955114Y-79689444D01*
X134960874Y-79728273D01*
X134962800Y-79767480D01*
X134962800Y-80567480D01*
X134960874Y-80606687D01*
X134955114Y-80645516D01*
X134945576Y-80683594D01*
X134932352Y-80720553D01*
X134915569Y-80756039D01*
X134895388Y-80789708D01*
X134872004Y-80821237D01*
X134845643Y-80850323D01*
X134816557Y-80876684D01*
X134785028Y-80900068D01*
X134751359Y-80920249D01*
X134715873Y-80937032D01*
X134678914Y-80950256D01*
X134640836Y-80959794D01*
X134602007Y-80965554D01*
X134562800Y-80967480D01*
X133762800Y-80967480D01*
X133723593Y-80965554D01*
X133684764Y-80959794D01*
X133646686Y-80950256D01*
X133609727Y-80937032D01*
X133574241Y-80920249D01*
X133540572Y-80900068D01*
X133509043Y-80876684D01*
X133479957Y-80850323D01*
X133453596Y-80821237D01*
X133430212Y-80789708D01*
X133410031Y-80756039D01*
X133393248Y-80720553D01*
X133380024Y-80683594D01*
X133370486Y-80645516D01*
X133364726Y-80606687D01*
X133362800Y-80567480D01*
X133362800Y-79767480D01*
X133364726Y-79728273D01*
X133370486Y-79689444D01*
X133380024Y-79651366D01*
X133393248Y-79614407D01*
X133410031Y-79578921D01*
X133430212Y-79545252D01*
X133453596Y-79513723D01*
X133479957Y-79484637D01*
X133509043Y-79458276D01*
X133540572Y-79434892D01*
X133574241Y-79414711D01*
X133609727Y-79397928D01*
X133646686Y-79384704D01*
X133684764Y-79375166D01*
X133723593Y-79369406D01*
X133762800Y-79367480D01*
X134562800Y-79367480D01*
X134602007Y-79369406D01*
X134602007Y-79369406D01*
G37*
D11*
G04 #@! TD*
G04 #@! TO.P,J1,15*
G04 #@! TO.N,Net-(J1-Pad15)*
X134162800Y-80167480D03*
D10*
G04 #@! TO.N,Net-(J1-Pad16)*
G04 #@! TO.C,J1*
G36*
X132062007Y-79369406D02*
X132100836Y-79375166D01*
X132138914Y-79384704D01*
X132175873Y-79397928D01*
X132211359Y-79414711D01*
X132245028Y-79434892D01*
X132276557Y-79458276D01*
X132305643Y-79484637D01*
X132332004Y-79513723D01*
X132355388Y-79545252D01*
X132375569Y-79578921D01*
X132392352Y-79614407D01*
X132405576Y-79651366D01*
X132415114Y-79689444D01*
X132420874Y-79728273D01*
X132422800Y-79767480D01*
X132422800Y-80567480D01*
X132420874Y-80606687D01*
X132415114Y-80645516D01*
X132405576Y-80683594D01*
X132392352Y-80720553D01*
X132375569Y-80756039D01*
X132355388Y-80789708D01*
X132332004Y-80821237D01*
X132305643Y-80850323D01*
X132276557Y-80876684D01*
X132245028Y-80900068D01*
X132211359Y-80920249D01*
X132175873Y-80937032D01*
X132138914Y-80950256D01*
X132100836Y-80959794D01*
X132062007Y-80965554D01*
X132022800Y-80967480D01*
X131222800Y-80967480D01*
X131183593Y-80965554D01*
X131144764Y-80959794D01*
X131106686Y-80950256D01*
X131069727Y-80937032D01*
X131034241Y-80920249D01*
X131000572Y-80900068D01*
X130969043Y-80876684D01*
X130939957Y-80850323D01*
X130913596Y-80821237D01*
X130890212Y-80789708D01*
X130870031Y-80756039D01*
X130853248Y-80720553D01*
X130840024Y-80683594D01*
X130830486Y-80645516D01*
X130824726Y-80606687D01*
X130822800Y-80567480D01*
X130822800Y-79767480D01*
X130824726Y-79728273D01*
X130830486Y-79689444D01*
X130840024Y-79651366D01*
X130853248Y-79614407D01*
X130870031Y-79578921D01*
X130890212Y-79545252D01*
X130913596Y-79513723D01*
X130939957Y-79484637D01*
X130969043Y-79458276D01*
X131000572Y-79434892D01*
X131034241Y-79414711D01*
X131069727Y-79397928D01*
X131106686Y-79384704D01*
X131144764Y-79375166D01*
X131183593Y-79369406D01*
X131222800Y-79367480D01*
X132022800Y-79367480D01*
X132062007Y-79369406D01*
X132062007Y-79369406D01*
G37*
D11*
G04 #@! TD*
G04 #@! TO.P,J1,16*
G04 #@! TO.N,Net-(J1-Pad16)*
X131622800Y-80167480D03*
D10*
G04 #@! TO.N,Net-(J1-Pad17)*
G04 #@! TO.C,J1*
G36*
X134602007Y-81909406D02*
X134640836Y-81915166D01*
X134678914Y-81924704D01*
X134715873Y-81937928D01*
X134751359Y-81954711D01*
X134785028Y-81974892D01*
X134816557Y-81998276D01*
X134845643Y-82024637D01*
X134872004Y-82053723D01*
X134895388Y-82085252D01*
X134915569Y-82118921D01*
X134932352Y-82154407D01*
X134945576Y-82191366D01*
X134955114Y-82229444D01*
X134960874Y-82268273D01*
X134962800Y-82307480D01*
X134962800Y-83107480D01*
X134960874Y-83146687D01*
X134955114Y-83185516D01*
X134945576Y-83223594D01*
X134932352Y-83260553D01*
X134915569Y-83296039D01*
X134895388Y-83329708D01*
X134872004Y-83361237D01*
X134845643Y-83390323D01*
X134816557Y-83416684D01*
X134785028Y-83440068D01*
X134751359Y-83460249D01*
X134715873Y-83477032D01*
X134678914Y-83490256D01*
X134640836Y-83499794D01*
X134602007Y-83505554D01*
X134562800Y-83507480D01*
X133762800Y-83507480D01*
X133723593Y-83505554D01*
X133684764Y-83499794D01*
X133646686Y-83490256D01*
X133609727Y-83477032D01*
X133574241Y-83460249D01*
X133540572Y-83440068D01*
X133509043Y-83416684D01*
X133479957Y-83390323D01*
X133453596Y-83361237D01*
X133430212Y-83329708D01*
X133410031Y-83296039D01*
X133393248Y-83260553D01*
X133380024Y-83223594D01*
X133370486Y-83185516D01*
X133364726Y-83146687D01*
X133362800Y-83107480D01*
X133362800Y-82307480D01*
X133364726Y-82268273D01*
X133370486Y-82229444D01*
X133380024Y-82191366D01*
X133393248Y-82154407D01*
X133410031Y-82118921D01*
X133430212Y-82085252D01*
X133453596Y-82053723D01*
X133479957Y-82024637D01*
X133509043Y-81998276D01*
X133540572Y-81974892D01*
X133574241Y-81954711D01*
X133609727Y-81937928D01*
X133646686Y-81924704D01*
X133684764Y-81915166D01*
X133723593Y-81909406D01*
X133762800Y-81907480D01*
X134562800Y-81907480D01*
X134602007Y-81909406D01*
X134602007Y-81909406D01*
G37*
D11*
G04 #@! TD*
G04 #@! TO.P,J1,17*
G04 #@! TO.N,Net-(J1-Pad17)*
X134162800Y-82707480D03*
D10*
G04 #@! TO.N,Net-(J1-Pad18)*
G04 #@! TO.C,J1*
G36*
X132062007Y-81909406D02*
X132100836Y-81915166D01*
X132138914Y-81924704D01*
X132175873Y-81937928D01*
X132211359Y-81954711D01*
X132245028Y-81974892D01*
X132276557Y-81998276D01*
X132305643Y-82024637D01*
X132332004Y-82053723D01*
X132355388Y-82085252D01*
X132375569Y-82118921D01*
X132392352Y-82154407D01*
X132405576Y-82191366D01*
X132415114Y-82229444D01*
X132420874Y-82268273D01*
X132422800Y-82307480D01*
X132422800Y-83107480D01*
X132420874Y-83146687D01*
X132415114Y-83185516D01*
X132405576Y-83223594D01*
X132392352Y-83260553D01*
X132375569Y-83296039D01*
X132355388Y-83329708D01*
X132332004Y-83361237D01*
X132305643Y-83390323D01*
X132276557Y-83416684D01*
X132245028Y-83440068D01*
X132211359Y-83460249D01*
X132175873Y-83477032D01*
X132138914Y-83490256D01*
X132100836Y-83499794D01*
X132062007Y-83505554D01*
X132022800Y-83507480D01*
X131222800Y-83507480D01*
X131183593Y-83505554D01*
X131144764Y-83499794D01*
X131106686Y-83490256D01*
X131069727Y-83477032D01*
X131034241Y-83460249D01*
X131000572Y-83440068D01*
X130969043Y-83416684D01*
X130939957Y-83390323D01*
X130913596Y-83361237D01*
X130890212Y-83329708D01*
X130870031Y-83296039D01*
X130853248Y-83260553D01*
X130840024Y-83223594D01*
X130830486Y-83185516D01*
X130824726Y-83146687D01*
X130822800Y-83107480D01*
X130822800Y-82307480D01*
X130824726Y-82268273D01*
X130830486Y-82229444D01*
X130840024Y-82191366D01*
X130853248Y-82154407D01*
X130870031Y-82118921D01*
X130890212Y-82085252D01*
X130913596Y-82053723D01*
X130939957Y-82024637D01*
X130969043Y-81998276D01*
X131000572Y-81974892D01*
X131034241Y-81954711D01*
X131069727Y-81937928D01*
X131106686Y-81924704D01*
X131144764Y-81915166D01*
X131183593Y-81909406D01*
X131222800Y-81907480D01*
X132022800Y-81907480D01*
X132062007Y-81909406D01*
X132062007Y-81909406D01*
G37*
D11*
G04 #@! TD*
G04 #@! TO.P,J1,18*
G04 #@! TO.N,Net-(J1-Pad18)*
X131622800Y-82707480D03*
D10*
G04 #@! TO.N,Net-(J1-Pad19)*
G04 #@! TO.C,J1*
G36*
X134602007Y-84449406D02*
X134640836Y-84455166D01*
X134678914Y-84464704D01*
X134715873Y-84477928D01*
X134751359Y-84494711D01*
X134785028Y-84514892D01*
X134816557Y-84538276D01*
X134845643Y-84564637D01*
X134872004Y-84593723D01*
X134895388Y-84625252D01*
X134915569Y-84658921D01*
X134932352Y-84694407D01*
X134945576Y-84731366D01*
X134955114Y-84769444D01*
X134960874Y-84808273D01*
X134962800Y-84847480D01*
X134962800Y-85647480D01*
X134960874Y-85686687D01*
X134955114Y-85725516D01*
X134945576Y-85763594D01*
X134932352Y-85800553D01*
X134915569Y-85836039D01*
X134895388Y-85869708D01*
X134872004Y-85901237D01*
X134845643Y-85930323D01*
X134816557Y-85956684D01*
X134785028Y-85980068D01*
X134751359Y-86000249D01*
X134715873Y-86017032D01*
X134678914Y-86030256D01*
X134640836Y-86039794D01*
X134602007Y-86045554D01*
X134562800Y-86047480D01*
X133762800Y-86047480D01*
X133723593Y-86045554D01*
X133684764Y-86039794D01*
X133646686Y-86030256D01*
X133609727Y-86017032D01*
X133574241Y-86000249D01*
X133540572Y-85980068D01*
X133509043Y-85956684D01*
X133479957Y-85930323D01*
X133453596Y-85901237D01*
X133430212Y-85869708D01*
X133410031Y-85836039D01*
X133393248Y-85800553D01*
X133380024Y-85763594D01*
X133370486Y-85725516D01*
X133364726Y-85686687D01*
X133362800Y-85647480D01*
X133362800Y-84847480D01*
X133364726Y-84808273D01*
X133370486Y-84769444D01*
X133380024Y-84731366D01*
X133393248Y-84694407D01*
X133410031Y-84658921D01*
X133430212Y-84625252D01*
X133453596Y-84593723D01*
X133479957Y-84564637D01*
X133509043Y-84538276D01*
X133540572Y-84514892D01*
X133574241Y-84494711D01*
X133609727Y-84477928D01*
X133646686Y-84464704D01*
X133684764Y-84455166D01*
X133723593Y-84449406D01*
X133762800Y-84447480D01*
X134562800Y-84447480D01*
X134602007Y-84449406D01*
X134602007Y-84449406D01*
G37*
D11*
G04 #@! TD*
G04 #@! TO.P,J1,19*
G04 #@! TO.N,Net-(J1-Pad19)*
X134162800Y-85247480D03*
D10*
G04 #@! TO.N,Net-(J1-Pad20)*
G04 #@! TO.C,J1*
G36*
X132062007Y-84449406D02*
X132100836Y-84455166D01*
X132138914Y-84464704D01*
X132175873Y-84477928D01*
X132211359Y-84494711D01*
X132245028Y-84514892D01*
X132276557Y-84538276D01*
X132305643Y-84564637D01*
X132332004Y-84593723D01*
X132355388Y-84625252D01*
X132375569Y-84658921D01*
X132392352Y-84694407D01*
X132405576Y-84731366D01*
X132415114Y-84769444D01*
X132420874Y-84808273D01*
X132422800Y-84847480D01*
X132422800Y-85647480D01*
X132420874Y-85686687D01*
X132415114Y-85725516D01*
X132405576Y-85763594D01*
X132392352Y-85800553D01*
X132375569Y-85836039D01*
X132355388Y-85869708D01*
X132332004Y-85901237D01*
X132305643Y-85930323D01*
X132276557Y-85956684D01*
X132245028Y-85980068D01*
X132211359Y-86000249D01*
X132175873Y-86017032D01*
X132138914Y-86030256D01*
X132100836Y-86039794D01*
X132062007Y-86045554D01*
X132022800Y-86047480D01*
X131222800Y-86047480D01*
X131183593Y-86045554D01*
X131144764Y-86039794D01*
X131106686Y-86030256D01*
X131069727Y-86017032D01*
X131034241Y-86000249D01*
X131000572Y-85980068D01*
X130969043Y-85956684D01*
X130939957Y-85930323D01*
X130913596Y-85901237D01*
X130890212Y-85869708D01*
X130870031Y-85836039D01*
X130853248Y-85800553D01*
X130840024Y-85763594D01*
X130830486Y-85725516D01*
X130824726Y-85686687D01*
X130822800Y-85647480D01*
X130822800Y-84847480D01*
X130824726Y-84808273D01*
X130830486Y-84769444D01*
X130840024Y-84731366D01*
X130853248Y-84694407D01*
X130870031Y-84658921D01*
X130890212Y-84625252D01*
X130913596Y-84593723D01*
X130939957Y-84564637D01*
X130969043Y-84538276D01*
X131000572Y-84514892D01*
X131034241Y-84494711D01*
X131069727Y-84477928D01*
X131106686Y-84464704D01*
X131144764Y-84455166D01*
X131183593Y-84449406D01*
X131222800Y-84447480D01*
X132022800Y-84447480D01*
X132062007Y-84449406D01*
X132062007Y-84449406D01*
G37*
D11*
G04 #@! TD*
G04 #@! TO.P,J1,20*
G04 #@! TO.N,Net-(J1-Pad20)*
X131622800Y-85247480D03*
D10*
G04 #@! TO.N,Net-(J1-Pad21)*
G04 #@! TO.C,J1*
G36*
X134602007Y-86989406D02*
X134640836Y-86995166D01*
X134678914Y-87004704D01*
X134715873Y-87017928D01*
X134751359Y-87034711D01*
X134785028Y-87054892D01*
X134816557Y-87078276D01*
X134845643Y-87104637D01*
X134872004Y-87133723D01*
X134895388Y-87165252D01*
X134915569Y-87198921D01*
X134932352Y-87234407D01*
X134945576Y-87271366D01*
X134955114Y-87309444D01*
X134960874Y-87348273D01*
X134962800Y-87387480D01*
X134962800Y-88187480D01*
X134960874Y-88226687D01*
X134955114Y-88265516D01*
X134945576Y-88303594D01*
X134932352Y-88340553D01*
X134915569Y-88376039D01*
X134895388Y-88409708D01*
X134872004Y-88441237D01*
X134845643Y-88470323D01*
X134816557Y-88496684D01*
X134785028Y-88520068D01*
X134751359Y-88540249D01*
X134715873Y-88557032D01*
X134678914Y-88570256D01*
X134640836Y-88579794D01*
X134602007Y-88585554D01*
X134562800Y-88587480D01*
X133762800Y-88587480D01*
X133723593Y-88585554D01*
X133684764Y-88579794D01*
X133646686Y-88570256D01*
X133609727Y-88557032D01*
X133574241Y-88540249D01*
X133540572Y-88520068D01*
X133509043Y-88496684D01*
X133479957Y-88470323D01*
X133453596Y-88441237D01*
X133430212Y-88409708D01*
X133410031Y-88376039D01*
X133393248Y-88340553D01*
X133380024Y-88303594D01*
X133370486Y-88265516D01*
X133364726Y-88226687D01*
X133362800Y-88187480D01*
X133362800Y-87387480D01*
X133364726Y-87348273D01*
X133370486Y-87309444D01*
X133380024Y-87271366D01*
X133393248Y-87234407D01*
X133410031Y-87198921D01*
X133430212Y-87165252D01*
X133453596Y-87133723D01*
X133479957Y-87104637D01*
X133509043Y-87078276D01*
X133540572Y-87054892D01*
X133574241Y-87034711D01*
X133609727Y-87017928D01*
X133646686Y-87004704D01*
X133684764Y-86995166D01*
X133723593Y-86989406D01*
X133762800Y-86987480D01*
X134562800Y-86987480D01*
X134602007Y-86989406D01*
X134602007Y-86989406D01*
G37*
D11*
G04 #@! TD*
G04 #@! TO.P,J1,21*
G04 #@! TO.N,Net-(J1-Pad21)*
X134162800Y-87787480D03*
D10*
G04 #@! TO.N,Net-(J1-Pad22)*
G04 #@! TO.C,J1*
G36*
X132062007Y-86989406D02*
X132100836Y-86995166D01*
X132138914Y-87004704D01*
X132175873Y-87017928D01*
X132211359Y-87034711D01*
X132245028Y-87054892D01*
X132276557Y-87078276D01*
X132305643Y-87104637D01*
X132332004Y-87133723D01*
X132355388Y-87165252D01*
X132375569Y-87198921D01*
X132392352Y-87234407D01*
X132405576Y-87271366D01*
X132415114Y-87309444D01*
X132420874Y-87348273D01*
X132422800Y-87387480D01*
X132422800Y-88187480D01*
X132420874Y-88226687D01*
X132415114Y-88265516D01*
X132405576Y-88303594D01*
X132392352Y-88340553D01*
X132375569Y-88376039D01*
X132355388Y-88409708D01*
X132332004Y-88441237D01*
X132305643Y-88470323D01*
X132276557Y-88496684D01*
X132245028Y-88520068D01*
X132211359Y-88540249D01*
X132175873Y-88557032D01*
X132138914Y-88570256D01*
X132100836Y-88579794D01*
X132062007Y-88585554D01*
X132022800Y-88587480D01*
X131222800Y-88587480D01*
X131183593Y-88585554D01*
X131144764Y-88579794D01*
X131106686Y-88570256D01*
X131069727Y-88557032D01*
X131034241Y-88540249D01*
X131000572Y-88520068D01*
X130969043Y-88496684D01*
X130939957Y-88470323D01*
X130913596Y-88441237D01*
X130890212Y-88409708D01*
X130870031Y-88376039D01*
X130853248Y-88340553D01*
X130840024Y-88303594D01*
X130830486Y-88265516D01*
X130824726Y-88226687D01*
X130822800Y-88187480D01*
X130822800Y-87387480D01*
X130824726Y-87348273D01*
X130830486Y-87309444D01*
X130840024Y-87271366D01*
X130853248Y-87234407D01*
X130870031Y-87198921D01*
X130890212Y-87165252D01*
X130913596Y-87133723D01*
X130939957Y-87104637D01*
X130969043Y-87078276D01*
X131000572Y-87054892D01*
X131034241Y-87034711D01*
X131069727Y-87017928D01*
X131106686Y-87004704D01*
X131144764Y-86995166D01*
X131183593Y-86989406D01*
X131222800Y-86987480D01*
X132022800Y-86987480D01*
X132062007Y-86989406D01*
X132062007Y-86989406D01*
G37*
D11*
G04 #@! TD*
G04 #@! TO.P,J1,22*
G04 #@! TO.N,Net-(J1-Pad22)*
X131622800Y-87787480D03*
D10*
G04 #@! TO.N,Net-(J1-Pad23)*
G04 #@! TO.C,J1*
G36*
X134602007Y-89529406D02*
X134640836Y-89535166D01*
X134678914Y-89544704D01*
X134715873Y-89557928D01*
X134751359Y-89574711D01*
X134785028Y-89594892D01*
X134816557Y-89618276D01*
X134845643Y-89644637D01*
X134872004Y-89673723D01*
X134895388Y-89705252D01*
X134915569Y-89738921D01*
X134932352Y-89774407D01*
X134945576Y-89811366D01*
X134955114Y-89849444D01*
X134960874Y-89888273D01*
X134962800Y-89927480D01*
X134962800Y-90727480D01*
X134960874Y-90766687D01*
X134955114Y-90805516D01*
X134945576Y-90843594D01*
X134932352Y-90880553D01*
X134915569Y-90916039D01*
X134895388Y-90949708D01*
X134872004Y-90981237D01*
X134845643Y-91010323D01*
X134816557Y-91036684D01*
X134785028Y-91060068D01*
X134751359Y-91080249D01*
X134715873Y-91097032D01*
X134678914Y-91110256D01*
X134640836Y-91119794D01*
X134602007Y-91125554D01*
X134562800Y-91127480D01*
X133762800Y-91127480D01*
X133723593Y-91125554D01*
X133684764Y-91119794D01*
X133646686Y-91110256D01*
X133609727Y-91097032D01*
X133574241Y-91080249D01*
X133540572Y-91060068D01*
X133509043Y-91036684D01*
X133479957Y-91010323D01*
X133453596Y-90981237D01*
X133430212Y-90949708D01*
X133410031Y-90916039D01*
X133393248Y-90880553D01*
X133380024Y-90843594D01*
X133370486Y-90805516D01*
X133364726Y-90766687D01*
X133362800Y-90727480D01*
X133362800Y-89927480D01*
X133364726Y-89888273D01*
X133370486Y-89849444D01*
X133380024Y-89811366D01*
X133393248Y-89774407D01*
X133410031Y-89738921D01*
X133430212Y-89705252D01*
X133453596Y-89673723D01*
X133479957Y-89644637D01*
X133509043Y-89618276D01*
X133540572Y-89594892D01*
X133574241Y-89574711D01*
X133609727Y-89557928D01*
X133646686Y-89544704D01*
X133684764Y-89535166D01*
X133723593Y-89529406D01*
X133762800Y-89527480D01*
X134562800Y-89527480D01*
X134602007Y-89529406D01*
X134602007Y-89529406D01*
G37*
D11*
G04 #@! TD*
G04 #@! TO.P,J1,23*
G04 #@! TO.N,Net-(J1-Pad23)*
X134162800Y-90327480D03*
D10*
G04 #@! TO.N,Net-(J1-Pad24)*
G04 #@! TO.C,J1*
G36*
X132062007Y-89529406D02*
X132100836Y-89535166D01*
X132138914Y-89544704D01*
X132175873Y-89557928D01*
X132211359Y-89574711D01*
X132245028Y-89594892D01*
X132276557Y-89618276D01*
X132305643Y-89644637D01*
X132332004Y-89673723D01*
X132355388Y-89705252D01*
X132375569Y-89738921D01*
X132392352Y-89774407D01*
X132405576Y-89811366D01*
X132415114Y-89849444D01*
X132420874Y-89888273D01*
X132422800Y-89927480D01*
X132422800Y-90727480D01*
X132420874Y-90766687D01*
X132415114Y-90805516D01*
X132405576Y-90843594D01*
X132392352Y-90880553D01*
X132375569Y-90916039D01*
X132355388Y-90949708D01*
X132332004Y-90981237D01*
X132305643Y-91010323D01*
X132276557Y-91036684D01*
X132245028Y-91060068D01*
X132211359Y-91080249D01*
X132175873Y-91097032D01*
X132138914Y-91110256D01*
X132100836Y-91119794D01*
X132062007Y-91125554D01*
X132022800Y-91127480D01*
X131222800Y-91127480D01*
X131183593Y-91125554D01*
X131144764Y-91119794D01*
X131106686Y-91110256D01*
X131069727Y-91097032D01*
X131034241Y-91080249D01*
X131000572Y-91060068D01*
X130969043Y-91036684D01*
X130939957Y-91010323D01*
X130913596Y-90981237D01*
X130890212Y-90949708D01*
X130870031Y-90916039D01*
X130853248Y-90880553D01*
X130840024Y-90843594D01*
X130830486Y-90805516D01*
X130824726Y-90766687D01*
X130822800Y-90727480D01*
X130822800Y-89927480D01*
X130824726Y-89888273D01*
X130830486Y-89849444D01*
X130840024Y-89811366D01*
X130853248Y-89774407D01*
X130870031Y-89738921D01*
X130890212Y-89705252D01*
X130913596Y-89673723D01*
X130939957Y-89644637D01*
X130969043Y-89618276D01*
X131000572Y-89594892D01*
X131034241Y-89574711D01*
X131069727Y-89557928D01*
X131106686Y-89544704D01*
X131144764Y-89535166D01*
X131183593Y-89529406D01*
X131222800Y-89527480D01*
X132022800Y-89527480D01*
X132062007Y-89529406D01*
X132062007Y-89529406D01*
G37*
D11*
G04 #@! TD*
G04 #@! TO.P,J1,24*
G04 #@! TO.N,Net-(J1-Pad24)*
X131622800Y-90327480D03*
D10*
G04 #@! TO.N,Net-(J1-Pad25)*
G04 #@! TO.C,J1*
G36*
X134602007Y-92069406D02*
X134640836Y-92075166D01*
X134678914Y-92084704D01*
X134715873Y-92097928D01*
X134751359Y-92114711D01*
X134785028Y-92134892D01*
X134816557Y-92158276D01*
X134845643Y-92184637D01*
X134872004Y-92213723D01*
X134895388Y-92245252D01*
X134915569Y-92278921D01*
X134932352Y-92314407D01*
X134945576Y-92351366D01*
X134955114Y-92389444D01*
X134960874Y-92428273D01*
X134962800Y-92467480D01*
X134962800Y-93267480D01*
X134960874Y-93306687D01*
X134955114Y-93345516D01*
X134945576Y-93383594D01*
X134932352Y-93420553D01*
X134915569Y-93456039D01*
X134895388Y-93489708D01*
X134872004Y-93521237D01*
X134845643Y-93550323D01*
X134816557Y-93576684D01*
X134785028Y-93600068D01*
X134751359Y-93620249D01*
X134715873Y-93637032D01*
X134678914Y-93650256D01*
X134640836Y-93659794D01*
X134602007Y-93665554D01*
X134562800Y-93667480D01*
X133762800Y-93667480D01*
X133723593Y-93665554D01*
X133684764Y-93659794D01*
X133646686Y-93650256D01*
X133609727Y-93637032D01*
X133574241Y-93620249D01*
X133540572Y-93600068D01*
X133509043Y-93576684D01*
X133479957Y-93550323D01*
X133453596Y-93521237D01*
X133430212Y-93489708D01*
X133410031Y-93456039D01*
X133393248Y-93420553D01*
X133380024Y-93383594D01*
X133370486Y-93345516D01*
X133364726Y-93306687D01*
X133362800Y-93267480D01*
X133362800Y-92467480D01*
X133364726Y-92428273D01*
X133370486Y-92389444D01*
X133380024Y-92351366D01*
X133393248Y-92314407D01*
X133410031Y-92278921D01*
X133430212Y-92245252D01*
X133453596Y-92213723D01*
X133479957Y-92184637D01*
X133509043Y-92158276D01*
X133540572Y-92134892D01*
X133574241Y-92114711D01*
X133609727Y-92097928D01*
X133646686Y-92084704D01*
X133684764Y-92075166D01*
X133723593Y-92069406D01*
X133762800Y-92067480D01*
X134562800Y-92067480D01*
X134602007Y-92069406D01*
X134602007Y-92069406D01*
G37*
D11*
G04 #@! TD*
G04 #@! TO.P,J1,25*
G04 #@! TO.N,Net-(J1-Pad25)*
X134162800Y-92867480D03*
D10*
G04 #@! TO.N,Net-(J1-Pad26)*
G04 #@! TO.C,J1*
G36*
X132062007Y-92069406D02*
X132100836Y-92075166D01*
X132138914Y-92084704D01*
X132175873Y-92097928D01*
X132211359Y-92114711D01*
X132245028Y-92134892D01*
X132276557Y-92158276D01*
X132305643Y-92184637D01*
X132332004Y-92213723D01*
X132355388Y-92245252D01*
X132375569Y-92278921D01*
X132392352Y-92314407D01*
X132405576Y-92351366D01*
X132415114Y-92389444D01*
X132420874Y-92428273D01*
X132422800Y-92467480D01*
X132422800Y-93267480D01*
X132420874Y-93306687D01*
X132415114Y-93345516D01*
X132405576Y-93383594D01*
X132392352Y-93420553D01*
X132375569Y-93456039D01*
X132355388Y-93489708D01*
X132332004Y-93521237D01*
X132305643Y-93550323D01*
X132276557Y-93576684D01*
X132245028Y-93600068D01*
X132211359Y-93620249D01*
X132175873Y-93637032D01*
X132138914Y-93650256D01*
X132100836Y-93659794D01*
X132062007Y-93665554D01*
X132022800Y-93667480D01*
X131222800Y-93667480D01*
X131183593Y-93665554D01*
X131144764Y-93659794D01*
X131106686Y-93650256D01*
X131069727Y-93637032D01*
X131034241Y-93620249D01*
X131000572Y-93600068D01*
X130969043Y-93576684D01*
X130939957Y-93550323D01*
X130913596Y-93521237D01*
X130890212Y-93489708D01*
X130870031Y-93456039D01*
X130853248Y-93420553D01*
X130840024Y-93383594D01*
X130830486Y-93345516D01*
X130824726Y-93306687D01*
X130822800Y-93267480D01*
X130822800Y-92467480D01*
X130824726Y-92428273D01*
X130830486Y-92389444D01*
X130840024Y-92351366D01*
X130853248Y-92314407D01*
X130870031Y-92278921D01*
X130890212Y-92245252D01*
X130913596Y-92213723D01*
X130939957Y-92184637D01*
X130969043Y-92158276D01*
X131000572Y-92134892D01*
X131034241Y-92114711D01*
X131069727Y-92097928D01*
X131106686Y-92084704D01*
X131144764Y-92075166D01*
X131183593Y-92069406D01*
X131222800Y-92067480D01*
X132022800Y-92067480D01*
X132062007Y-92069406D01*
X132062007Y-92069406D01*
G37*
D11*
G04 #@! TD*
G04 #@! TO.P,J1,26*
G04 #@! TO.N,Net-(J1-Pad26)*
X131622800Y-92867480D03*
D10*
G04 #@! TO.N,Net-(J1-Pad27)*
G04 #@! TO.C,J1*
G36*
X134602007Y-94609406D02*
X134640836Y-94615166D01*
X134678914Y-94624704D01*
X134715873Y-94637928D01*
X134751359Y-94654711D01*
X134785028Y-94674892D01*
X134816557Y-94698276D01*
X134845643Y-94724637D01*
X134872004Y-94753723D01*
X134895388Y-94785252D01*
X134915569Y-94818921D01*
X134932352Y-94854407D01*
X134945576Y-94891366D01*
X134955114Y-94929444D01*
X134960874Y-94968273D01*
X134962800Y-95007480D01*
X134962800Y-95807480D01*
X134960874Y-95846687D01*
X134955114Y-95885516D01*
X134945576Y-95923594D01*
X134932352Y-95960553D01*
X134915569Y-95996039D01*
X134895388Y-96029708D01*
X134872004Y-96061237D01*
X134845643Y-96090323D01*
X134816557Y-96116684D01*
X134785028Y-96140068D01*
X134751359Y-96160249D01*
X134715873Y-96177032D01*
X134678914Y-96190256D01*
X134640836Y-96199794D01*
X134602007Y-96205554D01*
X134562800Y-96207480D01*
X133762800Y-96207480D01*
X133723593Y-96205554D01*
X133684764Y-96199794D01*
X133646686Y-96190256D01*
X133609727Y-96177032D01*
X133574241Y-96160249D01*
X133540572Y-96140068D01*
X133509043Y-96116684D01*
X133479957Y-96090323D01*
X133453596Y-96061237D01*
X133430212Y-96029708D01*
X133410031Y-95996039D01*
X133393248Y-95960553D01*
X133380024Y-95923594D01*
X133370486Y-95885516D01*
X133364726Y-95846687D01*
X133362800Y-95807480D01*
X133362800Y-95007480D01*
X133364726Y-94968273D01*
X133370486Y-94929444D01*
X133380024Y-94891366D01*
X133393248Y-94854407D01*
X133410031Y-94818921D01*
X133430212Y-94785252D01*
X133453596Y-94753723D01*
X133479957Y-94724637D01*
X133509043Y-94698276D01*
X133540572Y-94674892D01*
X133574241Y-94654711D01*
X133609727Y-94637928D01*
X133646686Y-94624704D01*
X133684764Y-94615166D01*
X133723593Y-94609406D01*
X133762800Y-94607480D01*
X134562800Y-94607480D01*
X134602007Y-94609406D01*
X134602007Y-94609406D01*
G37*
D11*
G04 #@! TD*
G04 #@! TO.P,J1,27*
G04 #@! TO.N,Net-(J1-Pad27)*
X134162800Y-95407480D03*
D10*
G04 #@! TO.N,Net-(J1-Pad28)*
G04 #@! TO.C,J1*
G36*
X132062007Y-94609406D02*
X132100836Y-94615166D01*
X132138914Y-94624704D01*
X132175873Y-94637928D01*
X132211359Y-94654711D01*
X132245028Y-94674892D01*
X132276557Y-94698276D01*
X132305643Y-94724637D01*
X132332004Y-94753723D01*
X132355388Y-94785252D01*
X132375569Y-94818921D01*
X132392352Y-94854407D01*
X132405576Y-94891366D01*
X132415114Y-94929444D01*
X132420874Y-94968273D01*
X132422800Y-95007480D01*
X132422800Y-95807480D01*
X132420874Y-95846687D01*
X132415114Y-95885516D01*
X132405576Y-95923594D01*
X132392352Y-95960553D01*
X132375569Y-95996039D01*
X132355388Y-96029708D01*
X132332004Y-96061237D01*
X132305643Y-96090323D01*
X132276557Y-96116684D01*
X132245028Y-96140068D01*
X132211359Y-96160249D01*
X132175873Y-96177032D01*
X132138914Y-96190256D01*
X132100836Y-96199794D01*
X132062007Y-96205554D01*
X132022800Y-96207480D01*
X131222800Y-96207480D01*
X131183593Y-96205554D01*
X131144764Y-96199794D01*
X131106686Y-96190256D01*
X131069727Y-96177032D01*
X131034241Y-96160249D01*
X131000572Y-96140068D01*
X130969043Y-96116684D01*
X130939957Y-96090323D01*
X130913596Y-96061237D01*
X130890212Y-96029708D01*
X130870031Y-95996039D01*
X130853248Y-95960553D01*
X130840024Y-95923594D01*
X130830486Y-95885516D01*
X130824726Y-95846687D01*
X130822800Y-95807480D01*
X130822800Y-95007480D01*
X130824726Y-94968273D01*
X130830486Y-94929444D01*
X130840024Y-94891366D01*
X130853248Y-94854407D01*
X130870031Y-94818921D01*
X130890212Y-94785252D01*
X130913596Y-94753723D01*
X130939957Y-94724637D01*
X130969043Y-94698276D01*
X131000572Y-94674892D01*
X131034241Y-94654711D01*
X131069727Y-94637928D01*
X131106686Y-94624704D01*
X131144764Y-94615166D01*
X131183593Y-94609406D01*
X131222800Y-94607480D01*
X132022800Y-94607480D01*
X132062007Y-94609406D01*
X132062007Y-94609406D01*
G37*
D11*
G04 #@! TD*
G04 #@! TO.P,J1,28*
G04 #@! TO.N,Net-(J1-Pad28)*
X131622800Y-95407480D03*
D10*
G04 #@! TO.N,Net-(J1-Pad29)*
G04 #@! TO.C,J1*
G36*
X134602007Y-97149406D02*
X134640836Y-97155166D01*
X134678914Y-97164704D01*
X134715873Y-97177928D01*
X134751359Y-97194711D01*
X134785028Y-97214892D01*
X134816557Y-97238276D01*
X134845643Y-97264637D01*
X134872004Y-97293723D01*
X134895388Y-97325252D01*
X134915569Y-97358921D01*
X134932352Y-97394407D01*
X134945576Y-97431366D01*
X134955114Y-97469444D01*
X134960874Y-97508273D01*
X134962800Y-97547480D01*
X134962800Y-98347480D01*
X134960874Y-98386687D01*
X134955114Y-98425516D01*
X134945576Y-98463594D01*
X134932352Y-98500553D01*
X134915569Y-98536039D01*
X134895388Y-98569708D01*
X134872004Y-98601237D01*
X134845643Y-98630323D01*
X134816557Y-98656684D01*
X134785028Y-98680068D01*
X134751359Y-98700249D01*
X134715873Y-98717032D01*
X134678914Y-98730256D01*
X134640836Y-98739794D01*
X134602007Y-98745554D01*
X134562800Y-98747480D01*
X133762800Y-98747480D01*
X133723593Y-98745554D01*
X133684764Y-98739794D01*
X133646686Y-98730256D01*
X133609727Y-98717032D01*
X133574241Y-98700249D01*
X133540572Y-98680068D01*
X133509043Y-98656684D01*
X133479957Y-98630323D01*
X133453596Y-98601237D01*
X133430212Y-98569708D01*
X133410031Y-98536039D01*
X133393248Y-98500553D01*
X133380024Y-98463594D01*
X133370486Y-98425516D01*
X133364726Y-98386687D01*
X133362800Y-98347480D01*
X133362800Y-97547480D01*
X133364726Y-97508273D01*
X133370486Y-97469444D01*
X133380024Y-97431366D01*
X133393248Y-97394407D01*
X133410031Y-97358921D01*
X133430212Y-97325252D01*
X133453596Y-97293723D01*
X133479957Y-97264637D01*
X133509043Y-97238276D01*
X133540572Y-97214892D01*
X133574241Y-97194711D01*
X133609727Y-97177928D01*
X133646686Y-97164704D01*
X133684764Y-97155166D01*
X133723593Y-97149406D01*
X133762800Y-97147480D01*
X134562800Y-97147480D01*
X134602007Y-97149406D01*
X134602007Y-97149406D01*
G37*
D11*
G04 #@! TD*
G04 #@! TO.P,J1,29*
G04 #@! TO.N,Net-(J1-Pad29)*
X134162800Y-97947480D03*
D10*
G04 #@! TO.N,Net-(J1-Pad30)*
G04 #@! TO.C,J1*
G36*
X132062007Y-97149406D02*
X132100836Y-97155166D01*
X132138914Y-97164704D01*
X132175873Y-97177928D01*
X132211359Y-97194711D01*
X132245028Y-97214892D01*
X132276557Y-97238276D01*
X132305643Y-97264637D01*
X132332004Y-97293723D01*
X132355388Y-97325252D01*
X132375569Y-97358921D01*
X132392352Y-97394407D01*
X132405576Y-97431366D01*
X132415114Y-97469444D01*
X132420874Y-97508273D01*
X132422800Y-97547480D01*
X132422800Y-98347480D01*
X132420874Y-98386687D01*
X132415114Y-98425516D01*
X132405576Y-98463594D01*
X132392352Y-98500553D01*
X132375569Y-98536039D01*
X132355388Y-98569708D01*
X132332004Y-98601237D01*
X132305643Y-98630323D01*
X132276557Y-98656684D01*
X132245028Y-98680068D01*
X132211359Y-98700249D01*
X132175873Y-98717032D01*
X132138914Y-98730256D01*
X132100836Y-98739794D01*
X132062007Y-98745554D01*
X132022800Y-98747480D01*
X131222800Y-98747480D01*
X131183593Y-98745554D01*
X131144764Y-98739794D01*
X131106686Y-98730256D01*
X131069727Y-98717032D01*
X131034241Y-98700249D01*
X131000572Y-98680068D01*
X130969043Y-98656684D01*
X130939957Y-98630323D01*
X130913596Y-98601237D01*
X130890212Y-98569708D01*
X130870031Y-98536039D01*
X130853248Y-98500553D01*
X130840024Y-98463594D01*
X130830486Y-98425516D01*
X130824726Y-98386687D01*
X130822800Y-98347480D01*
X130822800Y-97547480D01*
X130824726Y-97508273D01*
X130830486Y-97469444D01*
X130840024Y-97431366D01*
X130853248Y-97394407D01*
X130870031Y-97358921D01*
X130890212Y-97325252D01*
X130913596Y-97293723D01*
X130939957Y-97264637D01*
X130969043Y-97238276D01*
X131000572Y-97214892D01*
X131034241Y-97194711D01*
X131069727Y-97177928D01*
X131106686Y-97164704D01*
X131144764Y-97155166D01*
X131183593Y-97149406D01*
X131222800Y-97147480D01*
X132022800Y-97147480D01*
X132062007Y-97149406D01*
X132062007Y-97149406D01*
G37*
D11*
G04 #@! TD*
G04 #@! TO.P,J1,30*
G04 #@! TO.N,Net-(J1-Pad30)*
X131622800Y-97947480D03*
D10*
G04 #@! TO.N,Net-(J1-Pad31)*
G04 #@! TO.C,J1*
G36*
X134602007Y-99689406D02*
X134640836Y-99695166D01*
X134678914Y-99704704D01*
X134715873Y-99717928D01*
X134751359Y-99734711D01*
X134785028Y-99754892D01*
X134816557Y-99778276D01*
X134845643Y-99804637D01*
X134872004Y-99833723D01*
X134895388Y-99865252D01*
X134915569Y-99898921D01*
X134932352Y-99934407D01*
X134945576Y-99971366D01*
X134955114Y-100009444D01*
X134960874Y-100048273D01*
X134962800Y-100087480D01*
X134962800Y-100887480D01*
X134960874Y-100926687D01*
X134955114Y-100965516D01*
X134945576Y-101003594D01*
X134932352Y-101040553D01*
X134915569Y-101076039D01*
X134895388Y-101109708D01*
X134872004Y-101141237D01*
X134845643Y-101170323D01*
X134816557Y-101196684D01*
X134785028Y-101220068D01*
X134751359Y-101240249D01*
X134715873Y-101257032D01*
X134678914Y-101270256D01*
X134640836Y-101279794D01*
X134602007Y-101285554D01*
X134562800Y-101287480D01*
X133762800Y-101287480D01*
X133723593Y-101285554D01*
X133684764Y-101279794D01*
X133646686Y-101270256D01*
X133609727Y-101257032D01*
X133574241Y-101240249D01*
X133540572Y-101220068D01*
X133509043Y-101196684D01*
X133479957Y-101170323D01*
X133453596Y-101141237D01*
X133430212Y-101109708D01*
X133410031Y-101076039D01*
X133393248Y-101040553D01*
X133380024Y-101003594D01*
X133370486Y-100965516D01*
X133364726Y-100926687D01*
X133362800Y-100887480D01*
X133362800Y-100087480D01*
X133364726Y-100048273D01*
X133370486Y-100009444D01*
X133380024Y-99971366D01*
X133393248Y-99934407D01*
X133410031Y-99898921D01*
X133430212Y-99865252D01*
X133453596Y-99833723D01*
X133479957Y-99804637D01*
X133509043Y-99778276D01*
X133540572Y-99754892D01*
X133574241Y-99734711D01*
X133609727Y-99717928D01*
X133646686Y-99704704D01*
X133684764Y-99695166D01*
X133723593Y-99689406D01*
X133762800Y-99687480D01*
X134562800Y-99687480D01*
X134602007Y-99689406D01*
X134602007Y-99689406D01*
G37*
D11*
G04 #@! TD*
G04 #@! TO.P,J1,31*
G04 #@! TO.N,Net-(J1-Pad31)*
X134162800Y-100487480D03*
D10*
G04 #@! TO.N,Net-(J1-Pad32)*
G04 #@! TO.C,J1*
G36*
X132062007Y-99689406D02*
X132100836Y-99695166D01*
X132138914Y-99704704D01*
X132175873Y-99717928D01*
X132211359Y-99734711D01*
X132245028Y-99754892D01*
X132276557Y-99778276D01*
X132305643Y-99804637D01*
X132332004Y-99833723D01*
X132355388Y-99865252D01*
X132375569Y-99898921D01*
X132392352Y-99934407D01*
X132405576Y-99971366D01*
X132415114Y-100009444D01*
X132420874Y-100048273D01*
X132422800Y-100087480D01*
X132422800Y-100887480D01*
X132420874Y-100926687D01*
X132415114Y-100965516D01*
X132405576Y-101003594D01*
X132392352Y-101040553D01*
X132375569Y-101076039D01*
X132355388Y-101109708D01*
X132332004Y-101141237D01*
X132305643Y-101170323D01*
X132276557Y-101196684D01*
X132245028Y-101220068D01*
X132211359Y-101240249D01*
X132175873Y-101257032D01*
X132138914Y-101270256D01*
X132100836Y-101279794D01*
X132062007Y-101285554D01*
X132022800Y-101287480D01*
X131222800Y-101287480D01*
X131183593Y-101285554D01*
X131144764Y-101279794D01*
X131106686Y-101270256D01*
X131069727Y-101257032D01*
X131034241Y-101240249D01*
X131000572Y-101220068D01*
X130969043Y-101196684D01*
X130939957Y-101170323D01*
X130913596Y-101141237D01*
X130890212Y-101109708D01*
X130870031Y-101076039D01*
X130853248Y-101040553D01*
X130840024Y-101003594D01*
X130830486Y-100965516D01*
X130824726Y-100926687D01*
X130822800Y-100887480D01*
X130822800Y-100087480D01*
X130824726Y-100048273D01*
X130830486Y-100009444D01*
X130840024Y-99971366D01*
X130853248Y-99934407D01*
X130870031Y-99898921D01*
X130890212Y-99865252D01*
X130913596Y-99833723D01*
X130939957Y-99804637D01*
X130969043Y-99778276D01*
X131000572Y-99754892D01*
X131034241Y-99734711D01*
X131069727Y-99717928D01*
X131106686Y-99704704D01*
X131144764Y-99695166D01*
X131183593Y-99689406D01*
X131222800Y-99687480D01*
X132022800Y-99687480D01*
X132062007Y-99689406D01*
X132062007Y-99689406D01*
G37*
D11*
G04 #@! TD*
G04 #@! TO.P,J1,32*
G04 #@! TO.N,Net-(J1-Pad32)*
X131622800Y-100487480D03*
D10*
G04 #@! TO.N,Net-(J1-Pad33)*
G04 #@! TO.C,J1*
G36*
X134602007Y-102229406D02*
X134640836Y-102235166D01*
X134678914Y-102244704D01*
X134715873Y-102257928D01*
X134751359Y-102274711D01*
X134785028Y-102294892D01*
X134816557Y-102318276D01*
X134845643Y-102344637D01*
X134872004Y-102373723D01*
X134895388Y-102405252D01*
X134915569Y-102438921D01*
X134932352Y-102474407D01*
X134945576Y-102511366D01*
X134955114Y-102549444D01*
X134960874Y-102588273D01*
X134962800Y-102627480D01*
X134962800Y-103427480D01*
X134960874Y-103466687D01*
X134955114Y-103505516D01*
X134945576Y-103543594D01*
X134932352Y-103580553D01*
X134915569Y-103616039D01*
X134895388Y-103649708D01*
X134872004Y-103681237D01*
X134845643Y-103710323D01*
X134816557Y-103736684D01*
X134785028Y-103760068D01*
X134751359Y-103780249D01*
X134715873Y-103797032D01*
X134678914Y-103810256D01*
X134640836Y-103819794D01*
X134602007Y-103825554D01*
X134562800Y-103827480D01*
X133762800Y-103827480D01*
X133723593Y-103825554D01*
X133684764Y-103819794D01*
X133646686Y-103810256D01*
X133609727Y-103797032D01*
X133574241Y-103780249D01*
X133540572Y-103760068D01*
X133509043Y-103736684D01*
X133479957Y-103710323D01*
X133453596Y-103681237D01*
X133430212Y-103649708D01*
X133410031Y-103616039D01*
X133393248Y-103580553D01*
X133380024Y-103543594D01*
X133370486Y-103505516D01*
X133364726Y-103466687D01*
X133362800Y-103427480D01*
X133362800Y-102627480D01*
X133364726Y-102588273D01*
X133370486Y-102549444D01*
X133380024Y-102511366D01*
X133393248Y-102474407D01*
X133410031Y-102438921D01*
X133430212Y-102405252D01*
X133453596Y-102373723D01*
X133479957Y-102344637D01*
X133509043Y-102318276D01*
X133540572Y-102294892D01*
X133574241Y-102274711D01*
X133609727Y-102257928D01*
X133646686Y-102244704D01*
X133684764Y-102235166D01*
X133723593Y-102229406D01*
X133762800Y-102227480D01*
X134562800Y-102227480D01*
X134602007Y-102229406D01*
X134602007Y-102229406D01*
G37*
D11*
G04 #@! TD*
G04 #@! TO.P,J1,33*
G04 #@! TO.N,Net-(J1-Pad33)*
X134162800Y-103027480D03*
D10*
G04 #@! TO.N,Net-(J1-Pad34)*
G04 #@! TO.C,J1*
G36*
X132062007Y-102229406D02*
X132100836Y-102235166D01*
X132138914Y-102244704D01*
X132175873Y-102257928D01*
X132211359Y-102274711D01*
X132245028Y-102294892D01*
X132276557Y-102318276D01*
X132305643Y-102344637D01*
X132332004Y-102373723D01*
X132355388Y-102405252D01*
X132375569Y-102438921D01*
X132392352Y-102474407D01*
X132405576Y-102511366D01*
X132415114Y-102549444D01*
X132420874Y-102588273D01*
X132422800Y-102627480D01*
X132422800Y-103427480D01*
X132420874Y-103466687D01*
X132415114Y-103505516D01*
X132405576Y-103543594D01*
X132392352Y-103580553D01*
X132375569Y-103616039D01*
X132355388Y-103649708D01*
X132332004Y-103681237D01*
X132305643Y-103710323D01*
X132276557Y-103736684D01*
X132245028Y-103760068D01*
X132211359Y-103780249D01*
X132175873Y-103797032D01*
X132138914Y-103810256D01*
X132100836Y-103819794D01*
X132062007Y-103825554D01*
X132022800Y-103827480D01*
X131222800Y-103827480D01*
X131183593Y-103825554D01*
X131144764Y-103819794D01*
X131106686Y-103810256D01*
X131069727Y-103797032D01*
X131034241Y-103780249D01*
X131000572Y-103760068D01*
X130969043Y-103736684D01*
X130939957Y-103710323D01*
X130913596Y-103681237D01*
X130890212Y-103649708D01*
X130870031Y-103616039D01*
X130853248Y-103580553D01*
X130840024Y-103543594D01*
X130830486Y-103505516D01*
X130824726Y-103466687D01*
X130822800Y-103427480D01*
X130822800Y-102627480D01*
X130824726Y-102588273D01*
X130830486Y-102549444D01*
X130840024Y-102511366D01*
X130853248Y-102474407D01*
X130870031Y-102438921D01*
X130890212Y-102405252D01*
X130913596Y-102373723D01*
X130939957Y-102344637D01*
X130969043Y-102318276D01*
X131000572Y-102294892D01*
X131034241Y-102274711D01*
X131069727Y-102257928D01*
X131106686Y-102244704D01*
X131144764Y-102235166D01*
X131183593Y-102229406D01*
X131222800Y-102227480D01*
X132022800Y-102227480D01*
X132062007Y-102229406D01*
X132062007Y-102229406D01*
G37*
D11*
G04 #@! TD*
G04 #@! TO.P,J1,34*
G04 #@! TO.N,Net-(J1-Pad34)*
X131622800Y-103027480D03*
D10*
G04 #@! TO.N,Net-(J1-Pad35)*
G04 #@! TO.C,J1*
G36*
X134602007Y-104769406D02*
X134640836Y-104775166D01*
X134678914Y-104784704D01*
X134715873Y-104797928D01*
X134751359Y-104814711D01*
X134785028Y-104834892D01*
X134816557Y-104858276D01*
X134845643Y-104884637D01*
X134872004Y-104913723D01*
X134895388Y-104945252D01*
X134915569Y-104978921D01*
X134932352Y-105014407D01*
X134945576Y-105051366D01*
X134955114Y-105089444D01*
X134960874Y-105128273D01*
X134962800Y-105167480D01*
X134962800Y-105967480D01*
X134960874Y-106006687D01*
X134955114Y-106045516D01*
X134945576Y-106083594D01*
X134932352Y-106120553D01*
X134915569Y-106156039D01*
X134895388Y-106189708D01*
X134872004Y-106221237D01*
X134845643Y-106250323D01*
X134816557Y-106276684D01*
X134785028Y-106300068D01*
X134751359Y-106320249D01*
X134715873Y-106337032D01*
X134678914Y-106350256D01*
X134640836Y-106359794D01*
X134602007Y-106365554D01*
X134562800Y-106367480D01*
X133762800Y-106367480D01*
X133723593Y-106365554D01*
X133684764Y-106359794D01*
X133646686Y-106350256D01*
X133609727Y-106337032D01*
X133574241Y-106320249D01*
X133540572Y-106300068D01*
X133509043Y-106276684D01*
X133479957Y-106250323D01*
X133453596Y-106221237D01*
X133430212Y-106189708D01*
X133410031Y-106156039D01*
X133393248Y-106120553D01*
X133380024Y-106083594D01*
X133370486Y-106045516D01*
X133364726Y-106006687D01*
X133362800Y-105967480D01*
X133362800Y-105167480D01*
X133364726Y-105128273D01*
X133370486Y-105089444D01*
X133380024Y-105051366D01*
X133393248Y-105014407D01*
X133410031Y-104978921D01*
X133430212Y-104945252D01*
X133453596Y-104913723D01*
X133479957Y-104884637D01*
X133509043Y-104858276D01*
X133540572Y-104834892D01*
X133574241Y-104814711D01*
X133609727Y-104797928D01*
X133646686Y-104784704D01*
X133684764Y-104775166D01*
X133723593Y-104769406D01*
X133762800Y-104767480D01*
X134562800Y-104767480D01*
X134602007Y-104769406D01*
X134602007Y-104769406D01*
G37*
D11*
G04 #@! TD*
G04 #@! TO.P,J1,35*
G04 #@! TO.N,Net-(J1-Pad35)*
X134162800Y-105567480D03*
D10*
G04 #@! TO.N,Net-(J1-Pad36)*
G04 #@! TO.C,J1*
G36*
X132062007Y-104769406D02*
X132100836Y-104775166D01*
X132138914Y-104784704D01*
X132175873Y-104797928D01*
X132211359Y-104814711D01*
X132245028Y-104834892D01*
X132276557Y-104858276D01*
X132305643Y-104884637D01*
X132332004Y-104913723D01*
X132355388Y-104945252D01*
X132375569Y-104978921D01*
X132392352Y-105014407D01*
X132405576Y-105051366D01*
X132415114Y-105089444D01*
X132420874Y-105128273D01*
X132422800Y-105167480D01*
X132422800Y-105967480D01*
X132420874Y-106006687D01*
X132415114Y-106045516D01*
X132405576Y-106083594D01*
X132392352Y-106120553D01*
X132375569Y-106156039D01*
X132355388Y-106189708D01*
X132332004Y-106221237D01*
X132305643Y-106250323D01*
X132276557Y-106276684D01*
X132245028Y-106300068D01*
X132211359Y-106320249D01*
X132175873Y-106337032D01*
X132138914Y-106350256D01*
X132100836Y-106359794D01*
X132062007Y-106365554D01*
X132022800Y-106367480D01*
X131222800Y-106367480D01*
X131183593Y-106365554D01*
X131144764Y-106359794D01*
X131106686Y-106350256D01*
X131069727Y-106337032D01*
X131034241Y-106320249D01*
X131000572Y-106300068D01*
X130969043Y-106276684D01*
X130939957Y-106250323D01*
X130913596Y-106221237D01*
X130890212Y-106189708D01*
X130870031Y-106156039D01*
X130853248Y-106120553D01*
X130840024Y-106083594D01*
X130830486Y-106045516D01*
X130824726Y-106006687D01*
X130822800Y-105967480D01*
X130822800Y-105167480D01*
X130824726Y-105128273D01*
X130830486Y-105089444D01*
X130840024Y-105051366D01*
X130853248Y-105014407D01*
X130870031Y-104978921D01*
X130890212Y-104945252D01*
X130913596Y-104913723D01*
X130939957Y-104884637D01*
X130969043Y-104858276D01*
X131000572Y-104834892D01*
X131034241Y-104814711D01*
X131069727Y-104797928D01*
X131106686Y-104784704D01*
X131144764Y-104775166D01*
X131183593Y-104769406D01*
X131222800Y-104767480D01*
X132022800Y-104767480D01*
X132062007Y-104769406D01*
X132062007Y-104769406D01*
G37*
D11*
G04 #@! TD*
G04 #@! TO.P,J1,36*
G04 #@! TO.N,Net-(J1-Pad36)*
X131622800Y-105567480D03*
D10*
G04 #@! TO.N,Net-(J1-Pad37)*
G04 #@! TO.C,J1*
G36*
X134602007Y-107309406D02*
X134640836Y-107315166D01*
X134678914Y-107324704D01*
X134715873Y-107337928D01*
X134751359Y-107354711D01*
X134785028Y-107374892D01*
X134816557Y-107398276D01*
X134845643Y-107424637D01*
X134872004Y-107453723D01*
X134895388Y-107485252D01*
X134915569Y-107518921D01*
X134932352Y-107554407D01*
X134945576Y-107591366D01*
X134955114Y-107629444D01*
X134960874Y-107668273D01*
X134962800Y-107707480D01*
X134962800Y-108507480D01*
X134960874Y-108546687D01*
X134955114Y-108585516D01*
X134945576Y-108623594D01*
X134932352Y-108660553D01*
X134915569Y-108696039D01*
X134895388Y-108729708D01*
X134872004Y-108761237D01*
X134845643Y-108790323D01*
X134816557Y-108816684D01*
X134785028Y-108840068D01*
X134751359Y-108860249D01*
X134715873Y-108877032D01*
X134678914Y-108890256D01*
X134640836Y-108899794D01*
X134602007Y-108905554D01*
X134562800Y-108907480D01*
X133762800Y-108907480D01*
X133723593Y-108905554D01*
X133684764Y-108899794D01*
X133646686Y-108890256D01*
X133609727Y-108877032D01*
X133574241Y-108860249D01*
X133540572Y-108840068D01*
X133509043Y-108816684D01*
X133479957Y-108790323D01*
X133453596Y-108761237D01*
X133430212Y-108729708D01*
X133410031Y-108696039D01*
X133393248Y-108660553D01*
X133380024Y-108623594D01*
X133370486Y-108585516D01*
X133364726Y-108546687D01*
X133362800Y-108507480D01*
X133362800Y-107707480D01*
X133364726Y-107668273D01*
X133370486Y-107629444D01*
X133380024Y-107591366D01*
X133393248Y-107554407D01*
X133410031Y-107518921D01*
X133430212Y-107485252D01*
X133453596Y-107453723D01*
X133479957Y-107424637D01*
X133509043Y-107398276D01*
X133540572Y-107374892D01*
X133574241Y-107354711D01*
X133609727Y-107337928D01*
X133646686Y-107324704D01*
X133684764Y-107315166D01*
X133723593Y-107309406D01*
X133762800Y-107307480D01*
X134562800Y-107307480D01*
X134602007Y-107309406D01*
X134602007Y-107309406D01*
G37*
D11*
G04 #@! TD*
G04 #@! TO.P,J1,37*
G04 #@! TO.N,Net-(J1-Pad37)*
X134162800Y-108107480D03*
D10*
G04 #@! TO.N,Net-(J1-Pad38)*
G04 #@! TO.C,J1*
G36*
X132062007Y-107309406D02*
X132100836Y-107315166D01*
X132138914Y-107324704D01*
X132175873Y-107337928D01*
X132211359Y-107354711D01*
X132245028Y-107374892D01*
X132276557Y-107398276D01*
X132305643Y-107424637D01*
X132332004Y-107453723D01*
X132355388Y-107485252D01*
X132375569Y-107518921D01*
X132392352Y-107554407D01*
X132405576Y-107591366D01*
X132415114Y-107629444D01*
X132420874Y-107668273D01*
X132422800Y-107707480D01*
X132422800Y-108507480D01*
X132420874Y-108546687D01*
X132415114Y-108585516D01*
X132405576Y-108623594D01*
X132392352Y-108660553D01*
X132375569Y-108696039D01*
X132355388Y-108729708D01*
X132332004Y-108761237D01*
X132305643Y-108790323D01*
X132276557Y-108816684D01*
X132245028Y-108840068D01*
X132211359Y-108860249D01*
X132175873Y-108877032D01*
X132138914Y-108890256D01*
X132100836Y-108899794D01*
X132062007Y-108905554D01*
X132022800Y-108907480D01*
X131222800Y-108907480D01*
X131183593Y-108905554D01*
X131144764Y-108899794D01*
X131106686Y-108890256D01*
X131069727Y-108877032D01*
X131034241Y-108860249D01*
X131000572Y-108840068D01*
X130969043Y-108816684D01*
X130939957Y-108790323D01*
X130913596Y-108761237D01*
X130890212Y-108729708D01*
X130870031Y-108696039D01*
X130853248Y-108660553D01*
X130840024Y-108623594D01*
X130830486Y-108585516D01*
X130824726Y-108546687D01*
X130822800Y-108507480D01*
X130822800Y-107707480D01*
X130824726Y-107668273D01*
X130830486Y-107629444D01*
X130840024Y-107591366D01*
X130853248Y-107554407D01*
X130870031Y-107518921D01*
X130890212Y-107485252D01*
X130913596Y-107453723D01*
X130939957Y-107424637D01*
X130969043Y-107398276D01*
X131000572Y-107374892D01*
X131034241Y-107354711D01*
X131069727Y-107337928D01*
X131106686Y-107324704D01*
X131144764Y-107315166D01*
X131183593Y-107309406D01*
X131222800Y-107307480D01*
X132022800Y-107307480D01*
X132062007Y-107309406D01*
X132062007Y-107309406D01*
G37*
D11*
G04 #@! TD*
G04 #@! TO.P,J1,38*
G04 #@! TO.N,Net-(J1-Pad38)*
X131622800Y-108107480D03*
D10*
G04 #@! TO.N,Net-(J1-Pad39)*
G04 #@! TO.C,J1*
G36*
X134602007Y-109849406D02*
X134640836Y-109855166D01*
X134678914Y-109864704D01*
X134715873Y-109877928D01*
X134751359Y-109894711D01*
X134785028Y-109914892D01*
X134816557Y-109938276D01*
X134845643Y-109964637D01*
X134872004Y-109993723D01*
X134895388Y-110025252D01*
X134915569Y-110058921D01*
X134932352Y-110094407D01*
X134945576Y-110131366D01*
X134955114Y-110169444D01*
X134960874Y-110208273D01*
X134962800Y-110247480D01*
X134962800Y-111047480D01*
X134960874Y-111086687D01*
X134955114Y-111125516D01*
X134945576Y-111163594D01*
X134932352Y-111200553D01*
X134915569Y-111236039D01*
X134895388Y-111269708D01*
X134872004Y-111301237D01*
X134845643Y-111330323D01*
X134816557Y-111356684D01*
X134785028Y-111380068D01*
X134751359Y-111400249D01*
X134715873Y-111417032D01*
X134678914Y-111430256D01*
X134640836Y-111439794D01*
X134602007Y-111445554D01*
X134562800Y-111447480D01*
X133762800Y-111447480D01*
X133723593Y-111445554D01*
X133684764Y-111439794D01*
X133646686Y-111430256D01*
X133609727Y-111417032D01*
X133574241Y-111400249D01*
X133540572Y-111380068D01*
X133509043Y-111356684D01*
X133479957Y-111330323D01*
X133453596Y-111301237D01*
X133430212Y-111269708D01*
X133410031Y-111236039D01*
X133393248Y-111200553D01*
X133380024Y-111163594D01*
X133370486Y-111125516D01*
X133364726Y-111086687D01*
X133362800Y-111047480D01*
X133362800Y-110247480D01*
X133364726Y-110208273D01*
X133370486Y-110169444D01*
X133380024Y-110131366D01*
X133393248Y-110094407D01*
X133410031Y-110058921D01*
X133430212Y-110025252D01*
X133453596Y-109993723D01*
X133479957Y-109964637D01*
X133509043Y-109938276D01*
X133540572Y-109914892D01*
X133574241Y-109894711D01*
X133609727Y-109877928D01*
X133646686Y-109864704D01*
X133684764Y-109855166D01*
X133723593Y-109849406D01*
X133762800Y-109847480D01*
X134562800Y-109847480D01*
X134602007Y-109849406D01*
X134602007Y-109849406D01*
G37*
D11*
G04 #@! TD*
G04 #@! TO.P,J1,39*
G04 #@! TO.N,Net-(J1-Pad39)*
X134162800Y-110647480D03*
D10*
G04 #@! TO.N,Net-(J1-Pad40)*
G04 #@! TO.C,J1*
G36*
X132062007Y-109849406D02*
X132100836Y-109855166D01*
X132138914Y-109864704D01*
X132175873Y-109877928D01*
X132211359Y-109894711D01*
X132245028Y-109914892D01*
X132276557Y-109938276D01*
X132305643Y-109964637D01*
X132332004Y-109993723D01*
X132355388Y-110025252D01*
X132375569Y-110058921D01*
X132392352Y-110094407D01*
X132405576Y-110131366D01*
X132415114Y-110169444D01*
X132420874Y-110208273D01*
X132422800Y-110247480D01*
X132422800Y-111047480D01*
X132420874Y-111086687D01*
X132415114Y-111125516D01*
X132405576Y-111163594D01*
X132392352Y-111200553D01*
X132375569Y-111236039D01*
X132355388Y-111269708D01*
X132332004Y-111301237D01*
X132305643Y-111330323D01*
X132276557Y-111356684D01*
X132245028Y-111380068D01*
X132211359Y-111400249D01*
X132175873Y-111417032D01*
X132138914Y-111430256D01*
X132100836Y-111439794D01*
X132062007Y-111445554D01*
X132022800Y-111447480D01*
X131222800Y-111447480D01*
X131183593Y-111445554D01*
X131144764Y-111439794D01*
X131106686Y-111430256D01*
X131069727Y-111417032D01*
X131034241Y-111400249D01*
X131000572Y-111380068D01*
X130969043Y-111356684D01*
X130939957Y-111330323D01*
X130913596Y-111301237D01*
X130890212Y-111269708D01*
X130870031Y-111236039D01*
X130853248Y-111200553D01*
X130840024Y-111163594D01*
X130830486Y-111125516D01*
X130824726Y-111086687D01*
X130822800Y-111047480D01*
X130822800Y-110247480D01*
X130824726Y-110208273D01*
X130830486Y-110169444D01*
X130840024Y-110131366D01*
X130853248Y-110094407D01*
X130870031Y-110058921D01*
X130890212Y-110025252D01*
X130913596Y-109993723D01*
X130939957Y-109964637D01*
X130969043Y-109938276D01*
X131000572Y-109914892D01*
X131034241Y-109894711D01*
X131069727Y-109877928D01*
X131106686Y-109864704D01*
X131144764Y-109855166D01*
X131183593Y-109849406D01*
X131222800Y-109847480D01*
X132022800Y-109847480D01*
X132062007Y-109849406D01*
X132062007Y-109849406D01*
G37*
D11*
G04 #@! TD*
G04 #@! TO.P,J1,40*
G04 #@! TO.N,Net-(J1-Pad40)*
X131622800Y-110647480D03*
D12*
G04 #@! TO.P,U7,3*
G04 #@! TO.N,Net-(R2-Pad2)*
X120233440Y-80101440D03*
G04 #@! TO.P,U7,4*
G04 #@! TO.N,Net-(R3-Pad2)*
X120233440Y-81117440D03*
G04 #@! TO.P,U7,2*
G04 #@! TO.N,Net-(U5-Pad1)*
X120233440Y-82133440D03*
X120233440Y-79085440D03*
D13*
G04 #@! TO.P,U7,1*
G04 #@! TO.N,Net-(R2-Pad1)*
X120233440Y-83365340D03*
X120233440Y-77853540D03*
D14*
X120233440Y-84927440D03*
X120233440Y-76291440D03*
X116436140Y-76291440D03*
X116436140Y-84927440D03*
G04 #@! TD*
D10*
G04 #@! TO.N,Net-(R2-Pad1)*
G04 #@! TO.C,R2*
G36*
X119663804Y-71191084D02*
X119688073Y-71194684D01*
X119711871Y-71200645D01*
X119734971Y-71208910D01*
X119757149Y-71219400D01*
X119778193Y-71232013D01*
X119797898Y-71246627D01*
X119816077Y-71263103D01*
X119832553Y-71281282D01*
X119847167Y-71300987D01*
X119859780Y-71322031D01*
X119870270Y-71344209D01*
X119878535Y-71367309D01*
X119884496Y-71391107D01*
X119888096Y-71415376D01*
X119889300Y-71439880D01*
X119889300Y-72689880D01*
X119888096Y-72714384D01*
X119884496Y-72738653D01*
X119878535Y-72762451D01*
X119870270Y-72785551D01*
X119859780Y-72807729D01*
X119847167Y-72828773D01*
X119832553Y-72848478D01*
X119816077Y-72866657D01*
X119797898Y-72883133D01*
X119778193Y-72897747D01*
X119757149Y-72910360D01*
X119734971Y-72920850D01*
X119711871Y-72929115D01*
X119688073Y-72935076D01*
X119663804Y-72938676D01*
X119639300Y-72939880D01*
X118714300Y-72939880D01*
X118689796Y-72938676D01*
X118665527Y-72935076D01*
X118641729Y-72929115D01*
X118618629Y-72920850D01*
X118596451Y-72910360D01*
X118575407Y-72897747D01*
X118555702Y-72883133D01*
X118537523Y-72866657D01*
X118521047Y-72848478D01*
X118506433Y-72828773D01*
X118493820Y-72807729D01*
X118483330Y-72785551D01*
X118475065Y-72762451D01*
X118469104Y-72738653D01*
X118465504Y-72714384D01*
X118464300Y-72689880D01*
X118464300Y-71439880D01*
X118465504Y-71415376D01*
X118469104Y-71391107D01*
X118475065Y-71367309D01*
X118483330Y-71344209D01*
X118493820Y-71322031D01*
X118506433Y-71300987D01*
X118521047Y-71281282D01*
X118537523Y-71263103D01*
X118555702Y-71246627D01*
X118575407Y-71232013D01*
X118596451Y-71219400D01*
X118618629Y-71208910D01*
X118641729Y-71200645D01*
X118665527Y-71194684D01*
X118689796Y-71191084D01*
X118714300Y-71189880D01*
X119639300Y-71189880D01*
X119663804Y-71191084D01*
X119663804Y-71191084D01*
G37*
D15*
G04 #@! TD*
G04 #@! TO.P,R2,1*
G04 #@! TO.N,Net-(R2-Pad1)*
X119176800Y-72064880D03*
D10*
G04 #@! TO.N,Net-(R2-Pad2)*
G04 #@! TO.C,R2*
G36*
X122638804Y-71191084D02*
X122663073Y-71194684D01*
X122686871Y-71200645D01*
X122709971Y-71208910D01*
X122732149Y-71219400D01*
X122753193Y-71232013D01*
X122772898Y-71246627D01*
X122791077Y-71263103D01*
X122807553Y-71281282D01*
X122822167Y-71300987D01*
X122834780Y-71322031D01*
X122845270Y-71344209D01*
X122853535Y-71367309D01*
X122859496Y-71391107D01*
X122863096Y-71415376D01*
X122864300Y-71439880D01*
X122864300Y-72689880D01*
X122863096Y-72714384D01*
X122859496Y-72738653D01*
X122853535Y-72762451D01*
X122845270Y-72785551D01*
X122834780Y-72807729D01*
X122822167Y-72828773D01*
X122807553Y-72848478D01*
X122791077Y-72866657D01*
X122772898Y-72883133D01*
X122753193Y-72897747D01*
X122732149Y-72910360D01*
X122709971Y-72920850D01*
X122686871Y-72929115D01*
X122663073Y-72935076D01*
X122638804Y-72938676D01*
X122614300Y-72939880D01*
X121689300Y-72939880D01*
X121664796Y-72938676D01*
X121640527Y-72935076D01*
X121616729Y-72929115D01*
X121593629Y-72920850D01*
X121571451Y-72910360D01*
X121550407Y-72897747D01*
X121530702Y-72883133D01*
X121512523Y-72866657D01*
X121496047Y-72848478D01*
X121481433Y-72828773D01*
X121468820Y-72807729D01*
X121458330Y-72785551D01*
X121450065Y-72762451D01*
X121444104Y-72738653D01*
X121440504Y-72714384D01*
X121439300Y-72689880D01*
X121439300Y-71439880D01*
X121440504Y-71415376D01*
X121444104Y-71391107D01*
X121450065Y-71367309D01*
X121458330Y-71344209D01*
X121468820Y-71322031D01*
X121481433Y-71300987D01*
X121496047Y-71281282D01*
X121512523Y-71263103D01*
X121530702Y-71246627D01*
X121550407Y-71232013D01*
X121571451Y-71219400D01*
X121593629Y-71208910D01*
X121616729Y-71200645D01*
X121640527Y-71194684D01*
X121664796Y-71191084D01*
X121689300Y-71189880D01*
X122614300Y-71189880D01*
X122638804Y-71191084D01*
X122638804Y-71191084D01*
G37*
D15*
G04 #@! TD*
G04 #@! TO.P,R2,2*
G04 #@! TO.N,Net-(R2-Pad2)*
X122151800Y-72064880D03*
D16*
G04 #@! TO.P,REF\002A\002A,1*
G04 #@! TO.N,N/C*
X116286280Y-106151680D03*
G04 #@! TD*
G04 #@! TO.P,REF\002A\002A,1*
G04 #@! TO.N,N/C*
X181678580Y-61953140D03*
G04 #@! TD*
G04 #@! TO.P,REF\002A\002A,1*
G04 #@! TO.N,N/C*
X116273580Y-62969140D03*
G04 #@! TD*
G04 #@! TO.P,REF\002A\002A,1*
G04 #@! TO.N,N/C*
X181678580Y-106149140D03*
G04 #@! TD*
D17*
G04 #@! TO.P,SW1,2*
G04 #@! TO.N,Net-(J1-Pad2)*
X174040800Y-83139280D03*
G04 #@! TO.P,SW1,3*
G04 #@! TO.N,Net-(SW1-Pad3)*
X174040800Y-80599280D03*
G04 #@! TO.P,SW1,1*
G04 #@! TO.N,Net-(SW1-Pad1)*
X174040800Y-85679280D03*
G04 #@! TD*
D10*
G04 #@! TO.N,Net-(J1-Pad34)*
G04 #@! TO.C,R1*
G36*
X128040664Y-72547384D02*
X128064933Y-72550984D01*
X128088731Y-72556945D01*
X128111831Y-72565210D01*
X128134009Y-72575700D01*
X128155053Y-72588313D01*
X128174758Y-72602927D01*
X128192937Y-72619403D01*
X128209413Y-72637582D01*
X128224027Y-72657287D01*
X128236640Y-72678331D01*
X128247130Y-72700509D01*
X128255395Y-72723609D01*
X128261356Y-72747407D01*
X128264956Y-72771676D01*
X128266160Y-72796180D01*
X128266160Y-73721180D01*
X128264956Y-73745684D01*
X128261356Y-73769953D01*
X128255395Y-73793751D01*
X128247130Y-73816851D01*
X128236640Y-73839029D01*
X128224027Y-73860073D01*
X128209413Y-73879778D01*
X128192937Y-73897957D01*
X128174758Y-73914433D01*
X128155053Y-73929047D01*
X128134009Y-73941660D01*
X128111831Y-73952150D01*
X128088731Y-73960415D01*
X128064933Y-73966376D01*
X128040664Y-73969976D01*
X128016160Y-73971180D01*
X126766160Y-73971180D01*
X126741656Y-73969976D01*
X126717387Y-73966376D01*
X126693589Y-73960415D01*
X126670489Y-73952150D01*
X126648311Y-73941660D01*
X126627267Y-73929047D01*
X126607562Y-73914433D01*
X126589383Y-73897957D01*
X126572907Y-73879778D01*
X126558293Y-73860073D01*
X126545680Y-73839029D01*
X126535190Y-73816851D01*
X126526925Y-73793751D01*
X126520964Y-73769953D01*
X126517364Y-73745684D01*
X126516160Y-73721180D01*
X126516160Y-72796180D01*
X126517364Y-72771676D01*
X126520964Y-72747407D01*
X126526925Y-72723609D01*
X126535190Y-72700509D01*
X126545680Y-72678331D01*
X126558293Y-72657287D01*
X126572907Y-72637582D01*
X126589383Y-72619403D01*
X126607562Y-72602927D01*
X126627267Y-72588313D01*
X126648311Y-72575700D01*
X126670489Y-72565210D01*
X126693589Y-72556945D01*
X126717387Y-72550984D01*
X126741656Y-72547384D01*
X126766160Y-72546180D01*
X128016160Y-72546180D01*
X128040664Y-72547384D01*
X128040664Y-72547384D01*
G37*
D15*
G04 #@! TD*
G04 #@! TO.P,R1,1*
G04 #@! TO.N,Net-(J1-Pad34)*
X127391160Y-73258680D03*
D10*
G04 #@! TO.N,Net-(R1-Pad2)*
G04 #@! TO.C,R1*
G36*
X128040664Y-75522384D02*
X128064933Y-75525984D01*
X128088731Y-75531945D01*
X128111831Y-75540210D01*
X128134009Y-75550700D01*
X128155053Y-75563313D01*
X128174758Y-75577927D01*
X128192937Y-75594403D01*
X128209413Y-75612582D01*
X128224027Y-75632287D01*
X128236640Y-75653331D01*
X128247130Y-75675509D01*
X128255395Y-75698609D01*
X128261356Y-75722407D01*
X128264956Y-75746676D01*
X128266160Y-75771180D01*
X128266160Y-76696180D01*
X128264956Y-76720684D01*
X128261356Y-76744953D01*
X128255395Y-76768751D01*
X128247130Y-76791851D01*
X128236640Y-76814029D01*
X128224027Y-76835073D01*
X128209413Y-76854778D01*
X128192937Y-76872957D01*
X128174758Y-76889433D01*
X128155053Y-76904047D01*
X128134009Y-76916660D01*
X128111831Y-76927150D01*
X128088731Y-76935415D01*
X128064933Y-76941376D01*
X128040664Y-76944976D01*
X128016160Y-76946180D01*
X126766160Y-76946180D01*
X126741656Y-76944976D01*
X126717387Y-76941376D01*
X126693589Y-76935415D01*
X126670489Y-76927150D01*
X126648311Y-76916660D01*
X126627267Y-76904047D01*
X126607562Y-76889433D01*
X126589383Y-76872957D01*
X126572907Y-76854778D01*
X126558293Y-76835073D01*
X126545680Y-76814029D01*
X126535190Y-76791851D01*
X126526925Y-76768751D01*
X126520964Y-76744953D01*
X126517364Y-76720684D01*
X126516160Y-76696180D01*
X126516160Y-75771180D01*
X126517364Y-75746676D01*
X126520964Y-75722407D01*
X126526925Y-75698609D01*
X126535190Y-75675509D01*
X126545680Y-75653331D01*
X126558293Y-75632287D01*
X126572907Y-75612582D01*
X126589383Y-75594403D01*
X126607562Y-75577927D01*
X126627267Y-75563313D01*
X126648311Y-75550700D01*
X126670489Y-75540210D01*
X126693589Y-75531945D01*
X126717387Y-75525984D01*
X126741656Y-75522384D01*
X126766160Y-75521180D01*
X128016160Y-75521180D01*
X128040664Y-75522384D01*
X128040664Y-75522384D01*
G37*
D15*
G04 #@! TD*
G04 #@! TO.P,R1,2*
G04 #@! TO.N,Net-(R1-Pad2)*
X127391160Y-76233680D03*
D10*
G04 #@! TO.N,Net-(J1-Pad12)*
G04 #@! TO.C,U3*
G36*
X162577567Y-56387486D02*
X162616396Y-56393246D01*
X162654474Y-56402784D01*
X162691433Y-56416008D01*
X162726919Y-56432791D01*
X162760588Y-56452972D01*
X162792117Y-56476356D01*
X162821203Y-56502717D01*
X162847564Y-56531803D01*
X162870948Y-56563332D01*
X162891129Y-56597001D01*
X162907912Y-56632487D01*
X162921136Y-56669446D01*
X162930674Y-56707524D01*
X162936434Y-56746353D01*
X162938360Y-56785560D01*
X162938360Y-57585560D01*
X162936434Y-57624767D01*
X162930674Y-57663596D01*
X162921136Y-57701674D01*
X162907912Y-57738633D01*
X162891129Y-57774119D01*
X162870948Y-57807788D01*
X162847564Y-57839317D01*
X162821203Y-57868403D01*
X162792117Y-57894764D01*
X162760588Y-57918148D01*
X162726919Y-57938329D01*
X162691433Y-57955112D01*
X162654474Y-57968336D01*
X162616396Y-57977874D01*
X162577567Y-57983634D01*
X162538360Y-57985560D01*
X161738360Y-57985560D01*
X161699153Y-57983634D01*
X161660324Y-57977874D01*
X161622246Y-57968336D01*
X161585287Y-57955112D01*
X161549801Y-57938329D01*
X161516132Y-57918148D01*
X161484603Y-57894764D01*
X161455517Y-57868403D01*
X161429156Y-57839317D01*
X161405772Y-57807788D01*
X161385591Y-57774119D01*
X161368808Y-57738633D01*
X161355584Y-57701674D01*
X161346046Y-57663596D01*
X161340286Y-57624767D01*
X161338360Y-57585560D01*
X161338360Y-56785560D01*
X161340286Y-56746353D01*
X161346046Y-56707524D01*
X161355584Y-56669446D01*
X161368808Y-56632487D01*
X161385591Y-56597001D01*
X161405772Y-56563332D01*
X161429156Y-56531803D01*
X161455517Y-56502717D01*
X161484603Y-56476356D01*
X161516132Y-56452972D01*
X161549801Y-56432791D01*
X161585287Y-56416008D01*
X161622246Y-56402784D01*
X161660324Y-56393246D01*
X161699153Y-56387486D01*
X161738360Y-56385560D01*
X162538360Y-56385560D01*
X162577567Y-56387486D01*
X162577567Y-56387486D01*
G37*
D11*
G04 #@! TD*
G04 #@! TO.P,U3,1*
G04 #@! TO.N,Net-(J1-Pad12)*
X162138360Y-57185560D03*
D10*
G04 #@! TO.N,Net-(J1-Pad34)*
G04 #@! TO.C,U3*
G36*
X165117567Y-56387486D02*
X165156396Y-56393246D01*
X165194474Y-56402784D01*
X165231433Y-56416008D01*
X165266919Y-56432791D01*
X165300588Y-56452972D01*
X165332117Y-56476356D01*
X165361203Y-56502717D01*
X165387564Y-56531803D01*
X165410948Y-56563332D01*
X165431129Y-56597001D01*
X165447912Y-56632487D01*
X165461136Y-56669446D01*
X165470674Y-56707524D01*
X165476434Y-56746353D01*
X165478360Y-56785560D01*
X165478360Y-57585560D01*
X165476434Y-57624767D01*
X165470674Y-57663596D01*
X165461136Y-57701674D01*
X165447912Y-57738633D01*
X165431129Y-57774119D01*
X165410948Y-57807788D01*
X165387564Y-57839317D01*
X165361203Y-57868403D01*
X165332117Y-57894764D01*
X165300588Y-57918148D01*
X165266919Y-57938329D01*
X165231433Y-57955112D01*
X165194474Y-57968336D01*
X165156396Y-57977874D01*
X165117567Y-57983634D01*
X165078360Y-57985560D01*
X164278360Y-57985560D01*
X164239153Y-57983634D01*
X164200324Y-57977874D01*
X164162246Y-57968336D01*
X164125287Y-57955112D01*
X164089801Y-57938329D01*
X164056132Y-57918148D01*
X164024603Y-57894764D01*
X163995517Y-57868403D01*
X163969156Y-57839317D01*
X163945772Y-57807788D01*
X163925591Y-57774119D01*
X163908808Y-57738633D01*
X163895584Y-57701674D01*
X163886046Y-57663596D01*
X163880286Y-57624767D01*
X163878360Y-57585560D01*
X163878360Y-56785560D01*
X163880286Y-56746353D01*
X163886046Y-56707524D01*
X163895584Y-56669446D01*
X163908808Y-56632487D01*
X163925591Y-56597001D01*
X163945772Y-56563332D01*
X163969156Y-56531803D01*
X163995517Y-56502717D01*
X164024603Y-56476356D01*
X164056132Y-56452972D01*
X164089801Y-56432791D01*
X164125287Y-56416008D01*
X164162246Y-56402784D01*
X164200324Y-56393246D01*
X164239153Y-56387486D01*
X164278360Y-56385560D01*
X165078360Y-56385560D01*
X165117567Y-56387486D01*
X165117567Y-56387486D01*
G37*
D11*
G04 #@! TD*
G04 #@! TO.P,U3,2*
G04 #@! TO.N,Net-(J1-Pad34)*
X164678360Y-57185560D03*
D10*
G04 #@! TO.N,Net-(J1-Pad33)*
G04 #@! TO.C,U3*
G36*
X167657567Y-56387486D02*
X167696396Y-56393246D01*
X167734474Y-56402784D01*
X167771433Y-56416008D01*
X167806919Y-56432791D01*
X167840588Y-56452972D01*
X167872117Y-56476356D01*
X167901203Y-56502717D01*
X167927564Y-56531803D01*
X167950948Y-56563332D01*
X167971129Y-56597001D01*
X167987912Y-56632487D01*
X168001136Y-56669446D01*
X168010674Y-56707524D01*
X168016434Y-56746353D01*
X168018360Y-56785560D01*
X168018360Y-57585560D01*
X168016434Y-57624767D01*
X168010674Y-57663596D01*
X168001136Y-57701674D01*
X167987912Y-57738633D01*
X167971129Y-57774119D01*
X167950948Y-57807788D01*
X167927564Y-57839317D01*
X167901203Y-57868403D01*
X167872117Y-57894764D01*
X167840588Y-57918148D01*
X167806919Y-57938329D01*
X167771433Y-57955112D01*
X167734474Y-57968336D01*
X167696396Y-57977874D01*
X167657567Y-57983634D01*
X167618360Y-57985560D01*
X166818360Y-57985560D01*
X166779153Y-57983634D01*
X166740324Y-57977874D01*
X166702246Y-57968336D01*
X166665287Y-57955112D01*
X166629801Y-57938329D01*
X166596132Y-57918148D01*
X166564603Y-57894764D01*
X166535517Y-57868403D01*
X166509156Y-57839317D01*
X166485772Y-57807788D01*
X166465591Y-57774119D01*
X166448808Y-57738633D01*
X166435584Y-57701674D01*
X166426046Y-57663596D01*
X166420286Y-57624767D01*
X166418360Y-57585560D01*
X166418360Y-56785560D01*
X166420286Y-56746353D01*
X166426046Y-56707524D01*
X166435584Y-56669446D01*
X166448808Y-56632487D01*
X166465591Y-56597001D01*
X166485772Y-56563332D01*
X166509156Y-56531803D01*
X166535517Y-56502717D01*
X166564603Y-56476356D01*
X166596132Y-56452972D01*
X166629801Y-56432791D01*
X166665287Y-56416008D01*
X166702246Y-56402784D01*
X166740324Y-56393246D01*
X166779153Y-56387486D01*
X166818360Y-56385560D01*
X167618360Y-56385560D01*
X167657567Y-56387486D01*
X167657567Y-56387486D01*
G37*
D11*
G04 #@! TD*
G04 #@! TO.P,U3,3*
G04 #@! TO.N,Net-(J1-Pad33)*
X167218360Y-57185560D03*
D10*
G04 #@! TO.N,Net-(J1-Pad2)*
G04 #@! TO.C,U3*
G36*
X175277567Y-56387486D02*
X175316396Y-56393246D01*
X175354474Y-56402784D01*
X175391433Y-56416008D01*
X175426919Y-56432791D01*
X175460588Y-56452972D01*
X175492117Y-56476356D01*
X175521203Y-56502717D01*
X175547564Y-56531803D01*
X175570948Y-56563332D01*
X175591129Y-56597001D01*
X175607912Y-56632487D01*
X175621136Y-56669446D01*
X175630674Y-56707524D01*
X175636434Y-56746353D01*
X175638360Y-56785560D01*
X175638360Y-57585560D01*
X175636434Y-57624767D01*
X175630674Y-57663596D01*
X175621136Y-57701674D01*
X175607912Y-57738633D01*
X175591129Y-57774119D01*
X175570948Y-57807788D01*
X175547564Y-57839317D01*
X175521203Y-57868403D01*
X175492117Y-57894764D01*
X175460588Y-57918148D01*
X175426919Y-57938329D01*
X175391433Y-57955112D01*
X175354474Y-57968336D01*
X175316396Y-57977874D01*
X175277567Y-57983634D01*
X175238360Y-57985560D01*
X174438360Y-57985560D01*
X174399153Y-57983634D01*
X174360324Y-57977874D01*
X174322246Y-57968336D01*
X174285287Y-57955112D01*
X174249801Y-57938329D01*
X174216132Y-57918148D01*
X174184603Y-57894764D01*
X174155517Y-57868403D01*
X174129156Y-57839317D01*
X174105772Y-57807788D01*
X174085591Y-57774119D01*
X174068808Y-57738633D01*
X174055584Y-57701674D01*
X174046046Y-57663596D01*
X174040286Y-57624767D01*
X174038360Y-57585560D01*
X174038360Y-56785560D01*
X174040286Y-56746353D01*
X174046046Y-56707524D01*
X174055584Y-56669446D01*
X174068808Y-56632487D01*
X174085591Y-56597001D01*
X174105772Y-56563332D01*
X174129156Y-56531803D01*
X174155517Y-56502717D01*
X174184603Y-56476356D01*
X174216132Y-56452972D01*
X174249801Y-56432791D01*
X174285287Y-56416008D01*
X174322246Y-56402784D01*
X174360324Y-56393246D01*
X174399153Y-56387486D01*
X174438360Y-56385560D01*
X175238360Y-56385560D01*
X175277567Y-56387486D01*
X175277567Y-56387486D01*
G37*
D11*
G04 #@! TD*
G04 #@! TO.P,U3,4*
G04 #@! TO.N,Net-(J1-Pad2)*
X174838360Y-57185560D03*
D10*
G04 #@! TO.N,Net-(J1-Pad34)*
G04 #@! TO.C,U3*
G36*
X177817567Y-56387486D02*
X177856396Y-56393246D01*
X177894474Y-56402784D01*
X177931433Y-56416008D01*
X177966919Y-56432791D01*
X178000588Y-56452972D01*
X178032117Y-56476356D01*
X178061203Y-56502717D01*
X178087564Y-56531803D01*
X178110948Y-56563332D01*
X178131129Y-56597001D01*
X178147912Y-56632487D01*
X178161136Y-56669446D01*
X178170674Y-56707524D01*
X178176434Y-56746353D01*
X178178360Y-56785560D01*
X178178360Y-57585560D01*
X178176434Y-57624767D01*
X178170674Y-57663596D01*
X178161136Y-57701674D01*
X178147912Y-57738633D01*
X178131129Y-57774119D01*
X178110948Y-57807788D01*
X178087564Y-57839317D01*
X178061203Y-57868403D01*
X178032117Y-57894764D01*
X178000588Y-57918148D01*
X177966919Y-57938329D01*
X177931433Y-57955112D01*
X177894474Y-57968336D01*
X177856396Y-57977874D01*
X177817567Y-57983634D01*
X177778360Y-57985560D01*
X176978360Y-57985560D01*
X176939153Y-57983634D01*
X176900324Y-57977874D01*
X176862246Y-57968336D01*
X176825287Y-57955112D01*
X176789801Y-57938329D01*
X176756132Y-57918148D01*
X176724603Y-57894764D01*
X176695517Y-57868403D01*
X176669156Y-57839317D01*
X176645772Y-57807788D01*
X176625591Y-57774119D01*
X176608808Y-57738633D01*
X176595584Y-57701674D01*
X176586046Y-57663596D01*
X176580286Y-57624767D01*
X176578360Y-57585560D01*
X176578360Y-56785560D01*
X176580286Y-56746353D01*
X176586046Y-56707524D01*
X176595584Y-56669446D01*
X176608808Y-56632487D01*
X176625591Y-56597001D01*
X176645772Y-56563332D01*
X176669156Y-56531803D01*
X176695517Y-56502717D01*
X176724603Y-56476356D01*
X176756132Y-56452972D01*
X176789801Y-56432791D01*
X176825287Y-56416008D01*
X176862246Y-56402784D01*
X176900324Y-56393246D01*
X176939153Y-56387486D01*
X176978360Y-56385560D01*
X177778360Y-56385560D01*
X177817567Y-56387486D01*
X177817567Y-56387486D01*
G37*
D11*
G04 #@! TD*
G04 #@! TO.P,U3,5*
G04 #@! TO.N,Net-(J1-Pad34)*
X177378360Y-57185560D03*
D10*
G04 #@! TO.N,Net-(J1-Pad34)*
G04 #@! TO.C,U3*
G36*
X162577567Y-75234286D02*
X162616396Y-75240046D01*
X162654474Y-75249584D01*
X162691433Y-75262808D01*
X162726919Y-75279591D01*
X162760588Y-75299772D01*
X162792117Y-75323156D01*
X162821203Y-75349517D01*
X162847564Y-75378603D01*
X162870948Y-75410132D01*
X162891129Y-75443801D01*
X162907912Y-75479287D01*
X162921136Y-75516246D01*
X162930674Y-75554324D01*
X162936434Y-75593153D01*
X162938360Y-75632360D01*
X162938360Y-76432360D01*
X162936434Y-76471567D01*
X162930674Y-76510396D01*
X162921136Y-76548474D01*
X162907912Y-76585433D01*
X162891129Y-76620919D01*
X162870948Y-76654588D01*
X162847564Y-76686117D01*
X162821203Y-76715203D01*
X162792117Y-76741564D01*
X162760588Y-76764948D01*
X162726919Y-76785129D01*
X162691433Y-76801912D01*
X162654474Y-76815136D01*
X162616396Y-76824674D01*
X162577567Y-76830434D01*
X162538360Y-76832360D01*
X161738360Y-76832360D01*
X161699153Y-76830434D01*
X161660324Y-76824674D01*
X161622246Y-76815136D01*
X161585287Y-76801912D01*
X161549801Y-76785129D01*
X161516132Y-76764948D01*
X161484603Y-76741564D01*
X161455517Y-76715203D01*
X161429156Y-76686117D01*
X161405772Y-76654588D01*
X161385591Y-76620919D01*
X161368808Y-76585433D01*
X161355584Y-76548474D01*
X161346046Y-76510396D01*
X161340286Y-76471567D01*
X161338360Y-76432360D01*
X161338360Y-75632360D01*
X161340286Y-75593153D01*
X161346046Y-75554324D01*
X161355584Y-75516246D01*
X161368808Y-75479287D01*
X161385591Y-75443801D01*
X161405772Y-75410132D01*
X161429156Y-75378603D01*
X161455517Y-75349517D01*
X161484603Y-75323156D01*
X161516132Y-75299772D01*
X161549801Y-75279591D01*
X161585287Y-75262808D01*
X161622246Y-75249584D01*
X161660324Y-75240046D01*
X161699153Y-75234286D01*
X161738360Y-75232360D01*
X162538360Y-75232360D01*
X162577567Y-75234286D01*
X162577567Y-75234286D01*
G37*
D11*
G04 #@! TD*
G04 #@! TO.P,U3,6*
G04 #@! TO.N,Net-(J1-Pad34)*
X162138360Y-76032360D03*
D10*
G04 #@! TO.N,Net-(U3-Pad7)*
G04 #@! TO.C,U3*
G36*
X165079467Y-75196186D02*
X165118296Y-75201946D01*
X165156374Y-75211484D01*
X165193333Y-75224708D01*
X165228819Y-75241491D01*
X165262488Y-75261672D01*
X165294017Y-75285056D01*
X165323103Y-75311417D01*
X165349464Y-75340503D01*
X165372848Y-75372032D01*
X165393029Y-75405701D01*
X165409812Y-75441187D01*
X165423036Y-75478146D01*
X165432574Y-75516224D01*
X165438334Y-75555053D01*
X165440260Y-75594260D01*
X165440260Y-76394260D01*
X165438334Y-76433467D01*
X165432574Y-76472296D01*
X165423036Y-76510374D01*
X165409812Y-76547333D01*
X165393029Y-76582819D01*
X165372848Y-76616488D01*
X165349464Y-76648017D01*
X165323103Y-76677103D01*
X165294017Y-76703464D01*
X165262488Y-76726848D01*
X165228819Y-76747029D01*
X165193333Y-76763812D01*
X165156374Y-76777036D01*
X165118296Y-76786574D01*
X165079467Y-76792334D01*
X165040260Y-76794260D01*
X164240260Y-76794260D01*
X164201053Y-76792334D01*
X164162224Y-76786574D01*
X164124146Y-76777036D01*
X164087187Y-76763812D01*
X164051701Y-76747029D01*
X164018032Y-76726848D01*
X163986503Y-76703464D01*
X163957417Y-76677103D01*
X163931056Y-76648017D01*
X163907672Y-76616488D01*
X163887491Y-76582819D01*
X163870708Y-76547333D01*
X163857484Y-76510374D01*
X163847946Y-76472296D01*
X163842186Y-76433467D01*
X163840260Y-76394260D01*
X163840260Y-75594260D01*
X163842186Y-75555053D01*
X163847946Y-75516224D01*
X163857484Y-75478146D01*
X163870708Y-75441187D01*
X163887491Y-75405701D01*
X163907672Y-75372032D01*
X163931056Y-75340503D01*
X163957417Y-75311417D01*
X163986503Y-75285056D01*
X164018032Y-75261672D01*
X164051701Y-75241491D01*
X164087187Y-75224708D01*
X164124146Y-75211484D01*
X164162224Y-75201946D01*
X164201053Y-75196186D01*
X164240260Y-75194260D01*
X165040260Y-75194260D01*
X165079467Y-75196186D01*
X165079467Y-75196186D01*
G37*
D11*
G04 #@! TD*
G04 #@! TO.P,U3,7*
G04 #@! TO.N,Net-(U3-Pad7)*
X164640260Y-75994260D03*
D10*
G04 #@! TO.N,Net-(U3-Pad8)*
G04 #@! TO.C,U3*
G36*
X175277567Y-75196186D02*
X175316396Y-75201946D01*
X175354474Y-75211484D01*
X175391433Y-75224708D01*
X175426919Y-75241491D01*
X175460588Y-75261672D01*
X175492117Y-75285056D01*
X175521203Y-75311417D01*
X175547564Y-75340503D01*
X175570948Y-75372032D01*
X175591129Y-75405701D01*
X175607912Y-75441187D01*
X175621136Y-75478146D01*
X175630674Y-75516224D01*
X175636434Y-75555053D01*
X175638360Y-75594260D01*
X175638360Y-76394260D01*
X175636434Y-76433467D01*
X175630674Y-76472296D01*
X175621136Y-76510374D01*
X175607912Y-76547333D01*
X175591129Y-76582819D01*
X175570948Y-76616488D01*
X175547564Y-76648017D01*
X175521203Y-76677103D01*
X175492117Y-76703464D01*
X175460588Y-76726848D01*
X175426919Y-76747029D01*
X175391433Y-76763812D01*
X175354474Y-76777036D01*
X175316396Y-76786574D01*
X175277567Y-76792334D01*
X175238360Y-76794260D01*
X174438360Y-76794260D01*
X174399153Y-76792334D01*
X174360324Y-76786574D01*
X174322246Y-76777036D01*
X174285287Y-76763812D01*
X174249801Y-76747029D01*
X174216132Y-76726848D01*
X174184603Y-76703464D01*
X174155517Y-76677103D01*
X174129156Y-76648017D01*
X174105772Y-76616488D01*
X174085591Y-76582819D01*
X174068808Y-76547333D01*
X174055584Y-76510374D01*
X174046046Y-76472296D01*
X174040286Y-76433467D01*
X174038360Y-76394260D01*
X174038360Y-75594260D01*
X174040286Y-75555053D01*
X174046046Y-75516224D01*
X174055584Y-75478146D01*
X174068808Y-75441187D01*
X174085591Y-75405701D01*
X174105772Y-75372032D01*
X174129156Y-75340503D01*
X174155517Y-75311417D01*
X174184603Y-75285056D01*
X174216132Y-75261672D01*
X174249801Y-75241491D01*
X174285287Y-75224708D01*
X174322246Y-75211484D01*
X174360324Y-75201946D01*
X174399153Y-75196186D01*
X174438360Y-75194260D01*
X175238360Y-75194260D01*
X175277567Y-75196186D01*
X175277567Y-75196186D01*
G37*
D11*
G04 #@! TD*
G04 #@! TO.P,U3,8*
G04 #@! TO.N,Net-(U3-Pad8)*
X174838360Y-75994260D03*
D10*
G04 #@! TO.N,Net-(J1-Pad34)*
G04 #@! TO.C,U3*
G36*
X177817567Y-75196186D02*
X177856396Y-75201946D01*
X177894474Y-75211484D01*
X177931433Y-75224708D01*
X177966919Y-75241491D01*
X178000588Y-75261672D01*
X178032117Y-75285056D01*
X178061203Y-75311417D01*
X178087564Y-75340503D01*
X178110948Y-75372032D01*
X178131129Y-75405701D01*
X178147912Y-75441187D01*
X178161136Y-75478146D01*
X178170674Y-75516224D01*
X178176434Y-75555053D01*
X178178360Y-75594260D01*
X178178360Y-76394260D01*
X178176434Y-76433467D01*
X178170674Y-76472296D01*
X178161136Y-76510374D01*
X178147912Y-76547333D01*
X178131129Y-76582819D01*
X178110948Y-76616488D01*
X178087564Y-76648017D01*
X178061203Y-76677103D01*
X178032117Y-76703464D01*
X178000588Y-76726848D01*
X177966919Y-76747029D01*
X177931433Y-76763812D01*
X177894474Y-76777036D01*
X177856396Y-76786574D01*
X177817567Y-76792334D01*
X177778360Y-76794260D01*
X176978360Y-76794260D01*
X176939153Y-76792334D01*
X176900324Y-76786574D01*
X176862246Y-76777036D01*
X176825287Y-76763812D01*
X176789801Y-76747029D01*
X176756132Y-76726848D01*
X176724603Y-76703464D01*
X176695517Y-76677103D01*
X176669156Y-76648017D01*
X176645772Y-76616488D01*
X176625591Y-76582819D01*
X176608808Y-76547333D01*
X176595584Y-76510374D01*
X176586046Y-76472296D01*
X176580286Y-76433467D01*
X176578360Y-76394260D01*
X176578360Y-75594260D01*
X176580286Y-75555053D01*
X176586046Y-75516224D01*
X176595584Y-75478146D01*
X176608808Y-75441187D01*
X176625591Y-75405701D01*
X176645772Y-75372032D01*
X176669156Y-75340503D01*
X176695517Y-75311417D01*
X176724603Y-75285056D01*
X176756132Y-75261672D01*
X176789801Y-75241491D01*
X176825287Y-75224708D01*
X176862246Y-75211484D01*
X176900324Y-75201946D01*
X176939153Y-75196186D01*
X176978360Y-75194260D01*
X177778360Y-75194260D01*
X177817567Y-75196186D01*
X177817567Y-75196186D01*
G37*
D11*
G04 #@! TD*
G04 #@! TO.P,U3,9*
G04 #@! TO.N,Net-(J1-Pad34)*
X177378360Y-75994260D03*
D14*
G04 #@! TO.P,U4,1*
G04 #@! TO.N,Net-(J1-Pad34)*
X126329440Y-90820240D03*
G04 #@! TO.P,U4,2*
G04 #@! TO.N,Net-(U3-Pad7)*
X126329440Y-92826840D03*
G04 #@! TO.P,U4,3*
G04 #@! TO.N,Net-(U3-Pad8)*
X126329440Y-94833440D03*
G04 #@! TO.P,U4,4*
G04 #@! TO.N,Net-(U4-Pad4)*
X126329440Y-96840040D03*
G04 #@! TO.P,U4,5*
G04 #@! TO.N,Net-(U4-Pad5)*
X126329440Y-98846640D03*
D18*
G04 #@! TO.P,U4,6*
G04 #@! TO.N,N/C*
X115204240Y-100002340D03*
G04 #@! TO.P,U4,7*
X115216940Y-89664540D03*
G04 #@! TD*
D19*
G04 #@! TO.P,U2,1*
G04 #@! TO.N,Net-(U2-Pad1)*
X174457360Y-94538800D03*
G04 #@! TO.P,U2,2*
G04 #@! TO.N,Net-(U2-Pad2)*
X176997360Y-94538800D03*
G04 #@! TD*
D10*
G04 #@! TO.N,Net-(R3-Pad2)*
G04 #@! TO.C,R3*
G36*
X122838804Y-67269324D02*
X122863073Y-67272924D01*
X122886871Y-67278885D01*
X122909971Y-67287150D01*
X122932149Y-67297640D01*
X122953193Y-67310253D01*
X122972898Y-67324867D01*
X122991077Y-67341343D01*
X123007553Y-67359522D01*
X123022167Y-67379227D01*
X123034780Y-67400271D01*
X123045270Y-67422449D01*
X123053535Y-67445549D01*
X123059496Y-67469347D01*
X123063096Y-67493616D01*
X123064300Y-67518120D01*
X123064300Y-68768120D01*
X123063096Y-68792624D01*
X123059496Y-68816893D01*
X123053535Y-68840691D01*
X123045270Y-68863791D01*
X123034780Y-68885969D01*
X123022167Y-68907013D01*
X123007553Y-68926718D01*
X122991077Y-68944897D01*
X122972898Y-68961373D01*
X122953193Y-68975987D01*
X122932149Y-68988600D01*
X122909971Y-68999090D01*
X122886871Y-69007355D01*
X122863073Y-69013316D01*
X122838804Y-69016916D01*
X122814300Y-69018120D01*
X121889300Y-69018120D01*
X121864796Y-69016916D01*
X121840527Y-69013316D01*
X121816729Y-69007355D01*
X121793629Y-68999090D01*
X121771451Y-68988600D01*
X121750407Y-68975987D01*
X121730702Y-68961373D01*
X121712523Y-68944897D01*
X121696047Y-68926718D01*
X121681433Y-68907013D01*
X121668820Y-68885969D01*
X121658330Y-68863791D01*
X121650065Y-68840691D01*
X121644104Y-68816893D01*
X121640504Y-68792624D01*
X121639300Y-68768120D01*
X121639300Y-67518120D01*
X121640504Y-67493616D01*
X121644104Y-67469347D01*
X121650065Y-67445549D01*
X121658330Y-67422449D01*
X121668820Y-67400271D01*
X121681433Y-67379227D01*
X121696047Y-67359522D01*
X121712523Y-67341343D01*
X121730702Y-67324867D01*
X121750407Y-67310253D01*
X121771451Y-67297640D01*
X121793629Y-67287150D01*
X121816729Y-67278885D01*
X121840527Y-67272924D01*
X121864796Y-67269324D01*
X121889300Y-67268120D01*
X122814300Y-67268120D01*
X122838804Y-67269324D01*
X122838804Y-67269324D01*
G37*
D15*
G04 #@! TD*
G04 #@! TO.P,R3,2*
G04 #@! TO.N,Net-(R3-Pad2)*
X122351800Y-68143120D03*
D10*
G04 #@! TO.N,Net-(R2-Pad1)*
G04 #@! TO.C,R3*
G36*
X119863804Y-67269324D02*
X119888073Y-67272924D01*
X119911871Y-67278885D01*
X119934971Y-67287150D01*
X119957149Y-67297640D01*
X119978193Y-67310253D01*
X119997898Y-67324867D01*
X120016077Y-67341343D01*
X120032553Y-67359522D01*
X120047167Y-67379227D01*
X120059780Y-67400271D01*
X120070270Y-67422449D01*
X120078535Y-67445549D01*
X120084496Y-67469347D01*
X120088096Y-67493616D01*
X120089300Y-67518120D01*
X120089300Y-68768120D01*
X120088096Y-68792624D01*
X120084496Y-68816893D01*
X120078535Y-68840691D01*
X120070270Y-68863791D01*
X120059780Y-68885969D01*
X120047167Y-68907013D01*
X120032553Y-68926718D01*
X120016077Y-68944897D01*
X119997898Y-68961373D01*
X119978193Y-68975987D01*
X119957149Y-68988600D01*
X119934971Y-68999090D01*
X119911871Y-69007355D01*
X119888073Y-69013316D01*
X119863804Y-69016916D01*
X119839300Y-69018120D01*
X118914300Y-69018120D01*
X118889796Y-69016916D01*
X118865527Y-69013316D01*
X118841729Y-69007355D01*
X118818629Y-68999090D01*
X118796451Y-68988600D01*
X118775407Y-68975987D01*
X118755702Y-68961373D01*
X118737523Y-68944897D01*
X118721047Y-68926718D01*
X118706433Y-68907013D01*
X118693820Y-68885969D01*
X118683330Y-68863791D01*
X118675065Y-68840691D01*
X118669104Y-68816893D01*
X118665504Y-68792624D01*
X118664300Y-68768120D01*
X118664300Y-67518120D01*
X118665504Y-67493616D01*
X118669104Y-67469347D01*
X118675065Y-67445549D01*
X118683330Y-67422449D01*
X118693820Y-67400271D01*
X118706433Y-67379227D01*
X118721047Y-67359522D01*
X118737523Y-67341343D01*
X118755702Y-67324867D01*
X118775407Y-67310253D01*
X118796451Y-67297640D01*
X118818629Y-67287150D01*
X118841729Y-67278885D01*
X118865527Y-67272924D01*
X118889796Y-67269324D01*
X118914300Y-67268120D01*
X119839300Y-67268120D01*
X119863804Y-67269324D01*
X119863804Y-67269324D01*
G37*
D15*
G04 #@! TD*
G04 #@! TO.P,R3,1*
G04 #@! TO.N,Net-(R2-Pad1)*
X119376800Y-68143120D03*
D20*
G04 #@! TO.N,Net-(J1-Pad1)*
X129270760Y-78816200D03*
G04 #@! TO.N,Net-(J1-Pad7)*
X138912600Y-68798440D03*
G04 #@! TO.N,Net-(J1-Pad12)*
X153217880Y-66227960D03*
X161025840Y-59994800D03*
G04 #@! TO.N,Net-(J1-Pad13)*
X132953760Y-76169520D03*
G04 #@! TO.N,Net-(J1-Pad16)*
X139715240Y-71470520D03*
G04 #@! TO.N,Net-(J1-Pad18)*
X149656800Y-78592680D03*
G04 #@! TO.N,Net-(J1-Pad19)*
X139166600Y-80462120D03*
G04 #@! TO.N,Net-(J1-Pad22)*
X143758920Y-80624680D03*
G04 #@! TO.N,Net-(J1-Pad23)*
X143291560Y-86004400D03*
G04 #@! TO.N,Net-(J1-Pad24)*
X137601960Y-89646760D03*
G04 #@! TO.N,Net-(J1-Pad29)*
X136052560Y-97632520D03*
G04 #@! TO.N,Net-(J1-Pad32)*
X150747560Y-98130360D03*
G04 #@! TO.N,Net-(J1-Pad33)*
X169351960Y-57363360D03*
X154863800Y-97652840D03*
G04 #@! TO.N,Net-(J1-Pad34)*
X153436320Y-99227640D03*
X164525960Y-59187080D03*
X144658080Y-91389200D03*
X127431800Y-71353680D03*
X129910840Y-102285800D03*
X130022600Y-68193920D03*
G04 #@! TO.N,Net-(J1-Pad35)*
X140985240Y-109479080D03*
G04 #@! TO.N,Net-(J1-Pad37)*
X138765280Y-110408720D03*
G04 #@! TO.N,Net-(J1-Pad38)*
X129504440Y-108493560D03*
G04 #@! TO.N,Net-(SW1-Pad3)*
X169504360Y-80746600D03*
G04 #@! TO.N,Net-(R1-Pad2)*
X128447800Y-80497680D03*
G04 #@! TO.N,Net-(U4-Pad4)*
X126583440Y-105008680D03*
X156265880Y-112842040D03*
G04 #@! TO.N,Net-(U4-Pad5)*
X158821120Y-111434880D03*
G04 #@! TO.N,Net-(U5-Pad1)*
X167065960Y-112821720D03*
G04 #@! TO.N,Net-(R2-Pad1)*
X175503840Y-107513120D03*
G04 #@! TD*
D21*
G04 #@! TO.N,Net-(J1-Pad1)*
X136306560Y-64531240D02*
X134162800Y-62387480D01*
X136306560Y-65405000D02*
X136306560Y-64531240D01*
X129270760Y-78816200D02*
X129270760Y-67345560D01*
X129270760Y-67345560D02*
X130563830Y-66052490D01*
X130563830Y-66052490D02*
X135659070Y-66052490D01*
X135659070Y-66052490D02*
X136306560Y-65405000D01*
G04 #@! TO.N,Net-(J1-Pad2)*
X174084807Y-57939113D02*
X174084807Y-61291913D01*
X174838360Y-57185560D02*
X174084807Y-57939113D01*
X174084807Y-61291913D02*
X171709080Y-63667640D01*
X180228240Y-72329040D02*
X171566840Y-63667640D01*
X180228240Y-76575920D02*
X180228240Y-72329040D01*
X169799000Y-77490320D02*
X179313840Y-77490320D01*
X167253920Y-80035400D02*
X169799000Y-77490320D01*
X167253920Y-82616040D02*
X167253920Y-80035400D01*
X179313840Y-77490320D02*
X180228240Y-76575920D01*
X171709080Y-63667640D02*
X171566840Y-63667640D01*
X174040800Y-83139280D02*
X167777160Y-83139280D01*
X167777160Y-83139280D02*
X167253920Y-82616040D01*
X142454962Y-63667640D02*
X171566840Y-63667640D01*
X131622800Y-62387480D02*
X131622800Y-58928000D01*
X131622800Y-58928000D02*
X134274560Y-56276240D01*
X137353040Y-57114440D02*
X137353040Y-58565718D01*
X134274560Y-56276240D02*
X136514840Y-56276240D01*
X137353040Y-58565718D02*
X142454962Y-63667640D01*
X136514840Y-56276240D02*
X137353040Y-57114440D01*
G04 #@! TO.N,Net-(J1-Pad7)*
X137703560Y-70007480D02*
X138912600Y-68798440D01*
X134162800Y-70007480D02*
X137703560Y-70007480D01*
G04 #@! TO.N,Net-(J1-Pad12)*
X145483370Y-73962470D02*
X153217880Y-66227960D01*
X132747810Y-73962470D02*
X145483370Y-73962470D01*
X131622800Y-75087480D02*
X132747810Y-73962470D01*
X161025840Y-58298080D02*
X162138360Y-57185560D01*
X161025840Y-59994800D02*
X161025840Y-58298080D01*
G04 #@! TO.N,Net-(J1-Pad13)*
X132953760Y-76418440D02*
X134162800Y-77627480D01*
X132953760Y-76169520D02*
X132953760Y-76418440D01*
G04 #@! TO.N,Net-(J1-Pad16)*
X130869247Y-79413927D02*
X130869247Y-79098967D01*
X131622800Y-80167480D02*
X130869247Y-79413927D01*
X130869247Y-79098967D02*
X130058160Y-78287880D01*
X130058160Y-78287880D02*
X130058160Y-71785480D01*
X139667190Y-71422470D02*
X139715240Y-71470520D01*
X130421170Y-71422470D02*
X139667190Y-71422470D01*
X130058160Y-71785480D02*
X130421170Y-71422470D01*
G04 #@! TO.N,Net-(J1-Pad18)*
X149656800Y-78592680D02*
X148740070Y-79509410D01*
X132852160Y-81478120D02*
X136672320Y-81478120D01*
X131622800Y-82707480D02*
X132852160Y-81478120D01*
X136672320Y-81478120D02*
X138521440Y-79629000D01*
X138521440Y-79629000D02*
X138521440Y-79509410D01*
X148740070Y-79509410D02*
X138521440Y-79509410D01*
G04 #@! TO.N,Net-(J1-Pad19)*
X138948160Y-80462120D02*
X139166600Y-80462120D01*
X134162800Y-85247480D02*
X138948160Y-80462120D01*
G04 #@! TO.N,Net-(J1-Pad22)*
X133037790Y-86372490D02*
X140297110Y-86372490D01*
X131622800Y-87787480D02*
X133037790Y-86372490D01*
X143758920Y-82910680D02*
X143758920Y-80624680D01*
X140297110Y-86372490D02*
X143758920Y-82910680D01*
G04 #@! TO.N,Net-(J1-Pad23)*
X142891561Y-86404399D02*
X142891561Y-86724439D01*
X143291560Y-86004400D02*
X142891561Y-86404399D01*
X135107081Y-90371761D02*
X135062800Y-90327480D01*
X139244239Y-90371761D02*
X135107081Y-90371761D01*
X135062800Y-90327480D02*
X134162800Y-90327480D01*
X142891561Y-86724439D02*
X139244239Y-90371761D01*
G04 #@! TO.N,Net-(J1-Pad24)*
X137601960Y-89646760D02*
X136997440Y-89042240D01*
X132908040Y-89042240D02*
X133847840Y-89042240D01*
X131622800Y-90327480D02*
X132908040Y-89042240D01*
X136997440Y-89042240D02*
X133847840Y-89042240D01*
G04 #@! TO.N,Net-(J1-Pad29)*
X135737600Y-97947480D02*
X136052560Y-97632520D01*
X134162800Y-97947480D02*
X135737600Y-97947480D01*
G04 #@! TO.N,Net-(J1-Pad32)*
X131622800Y-100487480D02*
X132913120Y-99197160D01*
X149680760Y-99197160D02*
X150747560Y-98130360D01*
X132913120Y-99197160D02*
X149680760Y-99197160D01*
G04 #@! TO.N,Net-(J1-Pad33)*
X169174160Y-57185560D02*
X169351960Y-57363360D01*
X167218360Y-57185560D02*
X169174160Y-57185560D01*
X154863800Y-97652840D02*
X152450800Y-97652840D01*
X152450800Y-97652840D02*
X151399240Y-98704400D01*
X135062800Y-103027480D02*
X135271080Y-102819200D01*
X134162800Y-103027480D02*
X135062800Y-103027480D01*
X147284440Y-102819200D02*
X151399240Y-98704400D01*
X135271080Y-102819200D02*
X147284440Y-102819200D01*
G04 #@! TO.N,Net-(J1-Pad34)*
X164525960Y-57337960D02*
X164678360Y-57185560D01*
X164525960Y-59187080D02*
X164525960Y-57337960D01*
X177378360Y-56285560D02*
X177378360Y-57185560D01*
X164525960Y-59187080D02*
X168915080Y-59187080D01*
X168915080Y-59187080D02*
X172350470Y-55751690D01*
X172350470Y-55751690D02*
X176844490Y-55751690D01*
X176844490Y-55751690D02*
X177378360Y-56285560D01*
X158074360Y-76032360D02*
X162138360Y-76032360D01*
X157652720Y-78394560D02*
X157652720Y-76454000D01*
X144658080Y-91389200D02*
X157652720Y-78394560D01*
X177378360Y-75994260D02*
X173403260Y-72019160D01*
X162087560Y-72019160D02*
X157866080Y-76240640D01*
X173403260Y-72019160D02*
X162087560Y-72019160D01*
X157866080Y-76240640D02*
X158074360Y-76032360D01*
X157652720Y-76454000D02*
X157866080Y-76240640D01*
X127391160Y-71394320D02*
X127431800Y-71353680D01*
X127391160Y-73258680D02*
X127391160Y-71394320D01*
X131622800Y-103027480D02*
X132887720Y-104292400D01*
X148371560Y-104292400D02*
X153436320Y-99227640D01*
X132887720Y-104292400D02*
X148371560Y-104292400D01*
X130881120Y-102285800D02*
X131622800Y-103027480D01*
X129910840Y-102285800D02*
X130881120Y-102285800D01*
X130896360Y-68193920D02*
X131622800Y-67467480D01*
X130022600Y-68193920D02*
X130896360Y-68193920D01*
G04 #@! TO.N,Net-(J1-Pad35)*
X135062800Y-105567480D02*
X137338640Y-107843320D01*
X134162800Y-105567480D02*
X135062800Y-105567480D01*
X139349480Y-107843320D02*
X140985240Y-109479080D01*
X137338640Y-107843320D02*
X139349480Y-107843320D01*
G04 #@! TO.N,Net-(J1-Pad37)*
X135062800Y-108107480D02*
X136602040Y-109646720D01*
X134162800Y-108107480D02*
X135062800Y-108107480D01*
X138003280Y-109646720D02*
X138765280Y-110408720D01*
X136602040Y-109646720D02*
X138003280Y-109646720D01*
G04 #@! TO.N,Net-(J1-Pad38)*
X129890520Y-108107480D02*
X129504440Y-108493560D01*
X131622800Y-108107480D02*
X129890520Y-108107480D01*
G04 #@! TO.N,Net-(SW1-Pad3)*
X173893480Y-80746600D02*
X174040800Y-80599280D01*
X169504360Y-80746600D02*
X173893480Y-80746600D01*
G04 #@! TO.N,Net-(R1-Pad2)*
X127391160Y-77046180D02*
X127853440Y-77508460D01*
X127391160Y-76233680D02*
X127391160Y-77046180D01*
X127853440Y-79903320D02*
X128447800Y-80497680D01*
X127853440Y-77508460D02*
X127853440Y-79903320D01*
G04 #@! TO.N,Net-(U3-Pad7)*
X164640260Y-75994260D02*
X148285200Y-92349320D01*
X126329440Y-92826840D02*
X127660400Y-91495880D01*
X142250160Y-91495880D02*
X143103600Y-92349320D01*
X127660400Y-91495880D02*
X142250160Y-91495880D01*
X148285200Y-92349320D02*
X143103600Y-92349320D01*
G04 #@! TO.N,Net-(U3-Pad8)*
X174838360Y-75994260D02*
X169202100Y-75994260D01*
X127079439Y-94083441D02*
X136548559Y-94083441D01*
X126329440Y-94833440D02*
X127079439Y-94083441D01*
X137342880Y-93289120D02*
X151907240Y-93289120D01*
X136548559Y-94083441D02*
X137342880Y-93289120D01*
X169202100Y-75994260D02*
X151907240Y-93289120D01*
G04 #@! TO.N,Net-(U4-Pad4)*
X126583440Y-105008680D02*
X126583440Y-109661960D01*
X126583440Y-109661960D02*
X129763520Y-112842040D01*
X129763520Y-112842040D02*
X156265880Y-112842040D01*
G04 #@! TO.N,Net-(U4-Pad5)*
X128391920Y-100909120D02*
X126329440Y-98846640D01*
X128391920Y-104759760D02*
X128391920Y-100909120D01*
X126329440Y-98846640D02*
X126329440Y-101427280D01*
X126329440Y-101427280D02*
X127589280Y-102687120D01*
X127589280Y-102687120D02*
X127589280Y-108940600D01*
X130925401Y-112117039D02*
X155324641Y-112117039D01*
X130845560Y-112196880D02*
X130925401Y-112117039D01*
X156006800Y-111434880D02*
X158821120Y-111434880D01*
X155324641Y-112117039D02*
X156006800Y-111434880D01*
X128295400Y-109646720D02*
X130845560Y-112196880D01*
X128391920Y-109550200D02*
X128295400Y-109646720D01*
X128391920Y-104759760D02*
X128391920Y-109550200D01*
X127589280Y-108940600D02*
X128295400Y-109646720D01*
G04 #@! TO.N,Net-(U5-Pad1)*
X119993440Y-79085440D02*
X119983280Y-79095600D01*
X120233440Y-79085440D02*
X119993440Y-79085440D01*
X119983280Y-79095600D02*
X118516400Y-79095600D01*
X118516400Y-79095600D02*
X118160800Y-79451200D01*
X118160800Y-79451200D02*
X118160800Y-81777840D01*
X118516400Y-82133440D02*
X120233440Y-82133440D01*
X118160800Y-81777840D02*
X118516400Y-82133440D01*
X123311920Y-112074960D02*
X123311920Y-84461920D01*
X167065960Y-112821720D02*
X166500275Y-112821720D01*
X120983440Y-82133440D02*
X120233440Y-82133440D01*
X166500275Y-112821720D02*
X165392835Y-113929160D01*
X165392835Y-113929160D02*
X125166120Y-113929160D01*
X123311920Y-84461920D02*
X120983440Y-82133440D01*
X125166120Y-113929160D02*
X123311920Y-112074960D01*
G04 #@! TO.N,Net-(R2-Pad1)*
X120983440Y-83365340D02*
X122118120Y-84500020D01*
X120233440Y-83365340D02*
X120983440Y-83365340D01*
X122118120Y-84500020D02*
X122118120Y-114838480D01*
X173961630Y-109055330D02*
X175503840Y-107513120D01*
X168178480Y-114838480D02*
X173961630Y-109055330D01*
X122118120Y-114838480D02*
X168178480Y-114838480D01*
X120233440Y-76291440D02*
X116436140Y-76291440D01*
X119483441Y-85677439D02*
X120233440Y-84927440D01*
X117186139Y-85677439D02*
X119483441Y-85677439D01*
X116436140Y-84927440D02*
X117186139Y-85677439D01*
X119176800Y-73039880D02*
X117672760Y-74543920D01*
X119176800Y-72064880D02*
X119176800Y-73039880D01*
X117672760Y-74543920D02*
X115717320Y-74543920D01*
X115717320Y-74543920D02*
X114924840Y-75336400D01*
X119376800Y-68143120D02*
X114754000Y-72765920D01*
X114754000Y-75165560D02*
X114924840Y-75336400D01*
X119483440Y-77853540D02*
X119480900Y-77856080D01*
X120233440Y-77853540D02*
X119483440Y-77853540D01*
X114754000Y-76547320D02*
X114754000Y-74914760D01*
X116062760Y-77856080D02*
X114754000Y-76547320D01*
X114754000Y-74914760D02*
X114754000Y-75165560D01*
X114754000Y-72765920D02*
X114754000Y-74914760D01*
X116062760Y-77856080D02*
X116062760Y-82123280D01*
X117304820Y-83365340D02*
X120233440Y-83365340D01*
X116062760Y-82123280D02*
X117304820Y-83365340D01*
X118116921Y-84177441D02*
X117304820Y-83365340D01*
X119483441Y-84177441D02*
X118116921Y-84177441D01*
X120233440Y-84927440D02*
X119483441Y-84177441D01*
X118668800Y-77856080D02*
X117657880Y-77856080D01*
X120233440Y-76291440D02*
X118668800Y-77856080D01*
X117657880Y-77856080D02*
X116062760Y-77856080D01*
X119480900Y-77856080D02*
X117657880Y-77856080D01*
G04 #@! TO.N,Net-(R2-Pad2)*
X122151800Y-73039880D02*
X122151800Y-72064880D01*
X122151800Y-78933080D02*
X122151800Y-73039880D01*
X120983440Y-80101440D02*
X122151800Y-78933080D01*
X120233440Y-80101440D02*
X120983440Y-80101440D01*
G04 #@! TO.N,Net-(R3-Pad2)*
X120983440Y-81117440D02*
X125247400Y-76853480D01*
X120233440Y-81117440D02*
X120983440Y-81117440D01*
X125247400Y-71038720D02*
X122351800Y-68143120D01*
X125247400Y-76853480D02*
X125247400Y-71038720D01*
G04 #@! TD*
M02*
