G04 #@! TF.GenerationSoftware,KiCad,Pcbnew,5.0.2+dfsg1-1~bpo9+1*
G04 #@! TF.CreationDate,2020-07-02T14:44:30+01:00*
G04 #@! TF.ProjectId,gbc_outline_basic,6762635f-6f75-4746-9c69-6e655f626173,rev?*
G04 #@! TF.SameCoordinates,Original*
G04 #@! TF.FileFunction,Legend,Bot*
G04 #@! TF.FilePolarity,Positive*
%FSLAX46Y46*%
G04 Gerber Fmt 4.6, Leading zero omitted, Abs format (unit mm)*
G04 Created by KiCad (PCBNEW 5.0.2+dfsg1-1~bpo9+1) date Thu 02 Jul 2020 14:44:30 BST*
%MOMM*%
%LPD*%
G01*
G04 APERTURE LIST*
%ADD10C,0.300000*%
%ADD11C,0.150000*%
G04 APERTURE END LIST*
D10*
X88935200Y-155693680D02*
X89078057Y-155622251D01*
X89292342Y-155622251D01*
X89506628Y-155693680D01*
X89649485Y-155836537D01*
X89720914Y-155979394D01*
X89792342Y-156265108D01*
X89792342Y-156479394D01*
X89720914Y-156765108D01*
X89649485Y-156907965D01*
X89506628Y-157050822D01*
X89292342Y-157122251D01*
X89149485Y-157122251D01*
X88935200Y-157050822D01*
X88863771Y-156979394D01*
X88863771Y-156479394D01*
X89149485Y-156479394D01*
X87720914Y-156336537D02*
X87506628Y-156407965D01*
X87435200Y-156479394D01*
X87363771Y-156622251D01*
X87363771Y-156836537D01*
X87435200Y-156979394D01*
X87506628Y-157050822D01*
X87649485Y-157122251D01*
X88220914Y-157122251D01*
X88220914Y-155622251D01*
X87720914Y-155622251D01*
X87578057Y-155693680D01*
X87506628Y-155765108D01*
X87435200Y-155907965D01*
X87435200Y-156050822D01*
X87506628Y-156193680D01*
X87578057Y-156265108D01*
X87720914Y-156336537D01*
X88220914Y-156336537D01*
X85863771Y-156979394D02*
X85935200Y-157050822D01*
X86149485Y-157122251D01*
X86292342Y-157122251D01*
X86506628Y-157050822D01*
X86649485Y-156907965D01*
X86720914Y-156765108D01*
X86792342Y-156479394D01*
X86792342Y-156265108D01*
X86720914Y-155979394D01*
X86649485Y-155836537D01*
X86506628Y-155693680D01*
X86292342Y-155622251D01*
X86149485Y-155622251D01*
X85935200Y-155693680D01*
X85863771Y-155765108D01*
X85578057Y-157265108D02*
X84435200Y-157265108D01*
X83578057Y-156336537D02*
X83363771Y-156407965D01*
X83292342Y-156479394D01*
X83220914Y-156622251D01*
X83220914Y-156836537D01*
X83292342Y-156979394D01*
X83363771Y-157050822D01*
X83506628Y-157122251D01*
X84078057Y-157122251D01*
X84078057Y-155622251D01*
X83578057Y-155622251D01*
X83435200Y-155693680D01*
X83363771Y-155765108D01*
X83292342Y-155907965D01*
X83292342Y-156050822D01*
X83363771Y-156193680D01*
X83435200Y-156265108D01*
X83578057Y-156336537D01*
X84078057Y-156336537D01*
X81935200Y-156122251D02*
X81935200Y-157122251D01*
X82578057Y-156122251D02*
X82578057Y-156907965D01*
X82506628Y-157050822D01*
X82363771Y-157122251D01*
X82149485Y-157122251D01*
X82006628Y-157050822D01*
X81935200Y-156979394D01*
X81435200Y-156122251D02*
X80863771Y-156122251D01*
X81220914Y-155622251D02*
X81220914Y-156907965D01*
X81149485Y-157050822D01*
X81006628Y-157122251D01*
X80863771Y-157122251D01*
X80578057Y-156122251D02*
X80006628Y-156122251D01*
X80363771Y-155622251D02*
X80363771Y-156907965D01*
X80292342Y-157050822D01*
X80149485Y-157122251D01*
X80006628Y-157122251D01*
X79292342Y-157122251D02*
X79435200Y-157050822D01*
X79506628Y-156979394D01*
X79578057Y-156836537D01*
X79578057Y-156407965D01*
X79506628Y-156265108D01*
X79435200Y-156193680D01*
X79292342Y-156122251D01*
X79078057Y-156122251D01*
X78935200Y-156193680D01*
X78863771Y-156265108D01*
X78792342Y-156407965D01*
X78792342Y-156836537D01*
X78863771Y-156979394D01*
X78935200Y-157050822D01*
X79078057Y-157122251D01*
X79292342Y-157122251D01*
X78149485Y-156122251D02*
X78149485Y-157122251D01*
X78149485Y-156265108D02*
X78078057Y-156193680D01*
X77935200Y-156122251D01*
X77720914Y-156122251D01*
X77578057Y-156193680D01*
X77506628Y-156336537D01*
X77506628Y-157122251D01*
X76863771Y-157050822D02*
X76720914Y-157122251D01*
X76435200Y-157122251D01*
X76292342Y-157050822D01*
X76220914Y-156907965D01*
X76220914Y-156836537D01*
X76292342Y-156693680D01*
X76435200Y-156622251D01*
X76649485Y-156622251D01*
X76792342Y-156550822D01*
X76863771Y-156407965D01*
X76863771Y-156336537D01*
X76792342Y-156193680D01*
X76649485Y-156122251D01*
X76435200Y-156122251D01*
X76292342Y-156193680D01*
X75935200Y-157265108D02*
X74792342Y-157265108D01*
X74506628Y-157050822D02*
X74292342Y-157122251D01*
X73935200Y-157122251D01*
X73792342Y-157050822D01*
X73720914Y-156979394D01*
X73649485Y-156836537D01*
X73649485Y-156693680D01*
X73720914Y-156550822D01*
X73792342Y-156479394D01*
X73935200Y-156407965D01*
X74220914Y-156336537D01*
X74363771Y-156265108D01*
X74435200Y-156193680D01*
X74506628Y-156050822D01*
X74506628Y-155907965D01*
X74435200Y-155765108D01*
X74363771Y-155693680D01*
X74220914Y-155622251D01*
X73863771Y-155622251D01*
X73649485Y-155693680D01*
X72792342Y-157122251D02*
X72935200Y-157050822D01*
X73006628Y-156979394D01*
X73078057Y-156836537D01*
X73078057Y-156407965D01*
X73006628Y-156265108D01*
X72935200Y-156193680D01*
X72792342Y-156122251D01*
X72578057Y-156122251D01*
X72435200Y-156193680D01*
X72363771Y-156265108D01*
X72292342Y-156407965D01*
X72292342Y-156836537D01*
X72363771Y-156979394D01*
X72435200Y-157050822D01*
X72578057Y-157122251D01*
X72792342Y-157122251D01*
X71006628Y-156122251D02*
X71006628Y-157122251D01*
X71649485Y-156122251D02*
X71649485Y-156907965D01*
X71578057Y-157050822D01*
X71435200Y-157122251D01*
X71220914Y-157122251D01*
X71078057Y-157050822D01*
X71006628Y-156979394D01*
X70292342Y-156122251D02*
X70292342Y-157122251D01*
X70292342Y-156265108D02*
X70220914Y-156193680D01*
X70078057Y-156122251D01*
X69863771Y-156122251D01*
X69720914Y-156193680D01*
X69649485Y-156336537D01*
X69649485Y-157122251D01*
X68292342Y-157122251D02*
X68292342Y-155622251D01*
X68292342Y-157050822D02*
X68435200Y-157122251D01*
X68720914Y-157122251D01*
X68863771Y-157050822D01*
X68935200Y-156979394D01*
X69006628Y-156836537D01*
X69006628Y-156407965D01*
X68935200Y-156265108D01*
X68863771Y-156193680D01*
X68720914Y-156122251D01*
X68435200Y-156122251D01*
X68292342Y-156193680D01*
X88723988Y-153288537D02*
X89223988Y-153288537D01*
X89223988Y-154074251D02*
X89223988Y-152574251D01*
X88509702Y-152574251D01*
X87295417Y-154074251D02*
X87295417Y-153288537D01*
X87366845Y-153145680D01*
X87509702Y-153074251D01*
X87795417Y-153074251D01*
X87938274Y-153145680D01*
X87295417Y-154002822D02*
X87438274Y-154074251D01*
X87795417Y-154074251D01*
X87938274Y-154002822D01*
X88009702Y-153859965D01*
X88009702Y-153717108D01*
X87938274Y-153574251D01*
X87795417Y-153502822D01*
X87438274Y-153502822D01*
X87295417Y-153431394D01*
X85938274Y-154002822D02*
X86081131Y-154074251D01*
X86366845Y-154074251D01*
X86509702Y-154002822D01*
X86581131Y-153931394D01*
X86652559Y-153788537D01*
X86652559Y-153359965D01*
X86581131Y-153217108D01*
X86509702Y-153145680D01*
X86366845Y-153074251D01*
X86081131Y-153074251D01*
X85938274Y-153145680D01*
X84723988Y-154002822D02*
X84866845Y-154074251D01*
X85152559Y-154074251D01*
X85295417Y-154002822D01*
X85366845Y-153859965D01*
X85366845Y-153288537D01*
X85295417Y-153145680D01*
X85152559Y-153074251D01*
X84866845Y-153074251D01*
X84723988Y-153145680D01*
X84652559Y-153288537D01*
X84652559Y-153431394D01*
X85366845Y-153574251D01*
X83795417Y-154074251D02*
X83938274Y-154002822D01*
X84009702Y-153859965D01*
X84009702Y-152574251D01*
X82652559Y-154002822D02*
X82795417Y-154074251D01*
X83081131Y-154074251D01*
X83223988Y-154002822D01*
X83295417Y-153859965D01*
X83295417Y-153288537D01*
X83223988Y-153145680D01*
X83081131Y-153074251D01*
X82795417Y-153074251D01*
X82652559Y-153145680D01*
X82581131Y-153288537D01*
X82581131Y-153431394D01*
X83295417Y-153574251D01*
X82009702Y-154002822D02*
X81866845Y-154074251D01*
X81581131Y-154074251D01*
X81438274Y-154002822D01*
X81366845Y-153859965D01*
X81366845Y-153788537D01*
X81438274Y-153645680D01*
X81581131Y-153574251D01*
X81795417Y-153574251D01*
X81938274Y-153502822D01*
X82009702Y-153359965D01*
X82009702Y-153288537D01*
X81938274Y-153145680D01*
X81795417Y-153074251D01*
X81581131Y-153074251D01*
X81438274Y-153145680D01*
X80795417Y-154002822D02*
X80652559Y-154074251D01*
X80366845Y-154074251D01*
X80223988Y-154002822D01*
X80152559Y-153859965D01*
X80152559Y-153788537D01*
X80223988Y-153645680D01*
X80366845Y-153574251D01*
X80581131Y-153574251D01*
X80723988Y-153502822D01*
X80795417Y-153359965D01*
X80795417Y-153288537D01*
X80723988Y-153145680D01*
X80581131Y-153074251D01*
X80366845Y-153074251D01*
X80223988Y-153145680D01*
X79723988Y-153074251D02*
X79152559Y-153074251D01*
X79509702Y-152574251D02*
X79509702Y-153859965D01*
X79438274Y-154002822D01*
X79295417Y-154074251D01*
X79152559Y-154074251D01*
X78081131Y-154002822D02*
X78223988Y-154074251D01*
X78509702Y-154074251D01*
X78652559Y-154002822D01*
X78723988Y-153859965D01*
X78723988Y-153288537D01*
X78652559Y-153145680D01*
X78509702Y-153074251D01*
X78223988Y-153074251D01*
X78081131Y-153145680D01*
X78009702Y-153288537D01*
X78009702Y-153431394D01*
X78723988Y-153574251D01*
X76723988Y-154002822D02*
X76866845Y-154074251D01*
X77152559Y-154074251D01*
X77295417Y-154002822D01*
X77366845Y-153931394D01*
X77438274Y-153788537D01*
X77438274Y-153359965D01*
X77366845Y-153217108D01*
X77295417Y-153145680D01*
X77152559Y-153074251D01*
X76866845Y-153074251D01*
X76723988Y-153145680D01*
X76081131Y-154074251D02*
X76081131Y-152574251D01*
X75438274Y-154074251D02*
X75438274Y-153288537D01*
X75509702Y-153145680D01*
X75652559Y-153074251D01*
X75866845Y-153074251D01*
X76009702Y-153145680D01*
X76081131Y-153217108D01*
X73652559Y-152717108D02*
X73581131Y-152645680D01*
X73438274Y-152574251D01*
X73081131Y-152574251D01*
X72938274Y-152645680D01*
X72866845Y-152717108D01*
X72795417Y-152859965D01*
X72795417Y-153002822D01*
X72866845Y-153217108D01*
X73723988Y-154074251D01*
X72795417Y-154074251D01*
X71866845Y-152574251D02*
X71723988Y-152574251D01*
X71581131Y-152645680D01*
X71509702Y-152717108D01*
X71438274Y-152859965D01*
X71366845Y-153145680D01*
X71366845Y-153502822D01*
X71438274Y-153788537D01*
X71509702Y-153931394D01*
X71581131Y-154002822D01*
X71723988Y-154074251D01*
X71866845Y-154074251D01*
X72009702Y-154002822D01*
X72081131Y-153931394D01*
X72152559Y-153788537D01*
X72223988Y-153502822D01*
X72223988Y-153145680D01*
X72152559Y-152859965D01*
X72081131Y-152717108D01*
X72009702Y-152645680D01*
X71866845Y-152574251D01*
X70795417Y-152717108D02*
X70723988Y-152645680D01*
X70581131Y-152574251D01*
X70223988Y-152574251D01*
X70081131Y-152645680D01*
X70009702Y-152717108D01*
X69938274Y-152859965D01*
X69938274Y-153002822D01*
X70009702Y-153217108D01*
X70866845Y-154074251D01*
X69938274Y-154074251D01*
X69009702Y-152574251D02*
X68866845Y-152574251D01*
X68723988Y-152645680D01*
X68652559Y-152717108D01*
X68581131Y-152859965D01*
X68509702Y-153145680D01*
X68509702Y-153502822D01*
X68581131Y-153788537D01*
X68652559Y-153931394D01*
X68723988Y-154002822D01*
X68866845Y-154074251D01*
X69009702Y-154074251D01*
X69152559Y-154002822D01*
X69223988Y-153931394D01*
X69295417Y-153788537D01*
X69366845Y-153502822D01*
X69366845Y-153145680D01*
X69295417Y-152859965D01*
X69223988Y-152717108D01*
X69152559Y-152645680D01*
X69009702Y-152574251D01*
D11*
G04 #@! TO.C,U1*
X98645980Y-153553160D02*
X110710980Y-153553160D01*
X110710980Y-153553160D02*
X110710980Y-165224460D01*
X110710980Y-165224460D02*
X98645980Y-165224460D01*
X98645980Y-165224460D02*
X98645980Y-153553160D01*
X101287580Y-165224460D02*
X101287580Y-168704260D01*
X101287580Y-168704260D02*
X108069380Y-168704260D01*
X108069380Y-168704260D02*
X108069380Y-165224460D01*
G04 #@! TD*
M02*
