G04 #@! TF.GenerationSoftware,KiCad,Pcbnew,5.0.2+dfsg1-1~bpo9+1*
G04 #@! TF.CreationDate,2020-09-22T18:59:10+01:00*
G04 #@! TF.ProjectId,gbc_outline_buttons_sound_new,6762635f-6f75-4746-9c69-6e655f627574,rev?*
G04 #@! TF.SameCoordinates,Original*
G04 #@! TF.FileFunction,Copper,L1,Top*
G04 #@! TF.FilePolarity,Positive*
%FSLAX46Y46*%
G04 Gerber Fmt 4.6, Leading zero omitted, Abs format (unit mm)*
G04 Created by KiCad (PCBNEW 5.0.2+dfsg1-1~bpo9+1) date Tue 22 Sep 2020 18:59:10 BST*
%MOMM*%
%LPD*%
G01*
G04 APERTURE LIST*
G04 #@! TA.AperFunction,SMDPad,CuDef*
%ADD10R,0.500000X5.000000*%
G04 #@! TD*
G04 #@! TA.AperFunction,SMDPad,CuDef*
%ADD11R,3.000000X7.000000*%
G04 #@! TD*
G04 #@! TA.AperFunction,ComponentPad*
%ADD12C,2.800000*%
G04 #@! TD*
G04 #@! TA.AperFunction,ComponentPad*
%ADD13C,3.300000*%
G04 #@! TD*
G04 #@! TA.AperFunction,SMDPad,CuDef*
%ADD14R,1.524000X3.000000*%
G04 #@! TD*
G04 #@! TA.AperFunction,ComponentPad*
%ADD15C,1.900000*%
G04 #@! TD*
G04 #@! TA.AperFunction,ViaPad*
%ADD16C,0.800000*%
G04 #@! TD*
G04 #@! TA.AperFunction,Conductor*
%ADD17C,0.250000*%
G04 #@! TD*
G04 APERTURE END LIST*
D10*
G04 #@! TO.P,SW3,2*
G04 #@! TO.N,Net-(LS1-Pad2)*
X69712840Y-124566680D03*
G04 #@! TO.P,SW3,1*
G04 #@! TO.N,Net-(SW3-Pad1)*
X68707000Y-124566680D03*
D11*
G04 #@! TO.P,SW3,2*
G04 #@! TO.N,Net-(LS1-Pad2)*
X66456560Y-124566680D03*
G04 #@! TO.P,SW3,1*
G04 #@! TO.N,Net-(SW3-Pad1)*
X71963280Y-124566680D03*
G04 #@! TD*
D12*
G04 #@! TO.P,REF\002A\002A,1*
G04 #@! TO.N,N/C*
X113017300Y-141348460D03*
G04 #@! TD*
G04 #@! TO.P,REF\002A\002A,1*
G04 #@! TO.N,N/C*
X131940300Y-133601460D03*
G04 #@! TD*
G04 #@! TO.P,REF\002A\002A,1*
G04 #@! TO.N,N/C*
X115684300Y-119631460D03*
G04 #@! TD*
G04 #@! TO.P,REF\002A\002A,1*
G04 #@! TO.N,N/C*
X93713300Y-126616460D03*
G04 #@! TD*
G04 #@! TO.P,REF\002A\002A,1*
G04 #@! TO.N,N/C*
X88315800Y-134490460D03*
G04 #@! TD*
G04 #@! TO.P,REF\002A\002A,1*
G04 #@! TO.N,N/C*
X66535300Y-138300460D03*
G04 #@! TD*
D13*
G04 #@! TO.P,REF\002A\002A,*
G04 #@! TO.N,*
X121285000Y-130810000D03*
G04 #@! TD*
D12*
G04 #@! TO.P,REF\002A\002A,1*
G04 #@! TO.N,N/C*
X86360000Y-140462000D03*
G04 #@! TD*
D14*
G04 #@! TO.P,LS1,1*
G04 #@! TO.N,Net-(LS1-Pad1)*
X132544820Y-153769060D03*
G04 #@! TO.P,LS1,2*
G04 #@! TO.N,Net-(LS1-Pad2)*
X115844320Y-153769060D03*
G04 #@! TD*
D15*
G04 #@! TO.P,U1,1*
G04 #@! TO.N,Net-(LS1-Pad2)*
X104678480Y-162392360D03*
G04 #@! TO.P,U1,4*
G04 #@! TO.N,Net-(LS2-Pad1)*
X102138480Y-157312360D03*
G04 #@! TO.P,U1,5*
G04 #@! TO.N,Net-(U1-Pad5)*
X99598480Y-157312360D03*
G04 #@! TO.P,U1,3*
G04 #@! TO.N,Net-(LS1-Pad1)*
X107218480Y-157312360D03*
G04 #@! TO.P,U1,2*
G04 #@! TO.N,Net-(U1-Pad2)*
X109758480Y-157312360D03*
G04 #@! TD*
D14*
G04 #@! TO.P,U2,7*
G04 #@! TO.N,Net-(SW6-Pad1)*
X100416360Y-114533680D03*
G04 #@! TO.P,U2,6*
G04 #@! TO.N,Net-(SW7-Pad1)*
X97876360Y-114533680D03*
G04 #@! TO.P,U2,5*
G04 #@! TO.N,Net-(SW8-Pad1)*
X95336360Y-114533680D03*
G04 #@! TO.P,U2,4*
G04 #@! TO.N,Net-(SW4-Pad1)*
X92796360Y-114538760D03*
G04 #@! TO.P,U2,3*
G04 #@! TO.N,Net-(SW3-Pad1)*
X90256360Y-114538760D03*
G04 #@! TO.P,U2,8*
G04 #@! TO.N,Net-(SW5-Pad1)*
X102956360Y-114533680D03*
G04 #@! TO.P,U2,9*
G04 #@! TO.N,Net-(LS1-Pad2)*
X105496360Y-114533680D03*
G04 #@! TO.P,U2,11*
G04 #@! TO.N,Net-(U1-Pad2)*
X110576360Y-114533680D03*
G04 #@! TO.P,U2,10*
G04 #@! TO.N,Net-(U1-Pad5)*
X108036360Y-114533680D03*
G04 #@! TO.P,U2,2*
G04 #@! TO.N,Net-(SW2-Pad1)*
X87716360Y-114533680D03*
G04 #@! TO.P,U2,1*
G04 #@! TO.N,Net-(SW1-Pad1)*
X85176360Y-114538760D03*
G04 #@! TD*
D10*
G04 #@! TO.P,SW1,2*
G04 #@! TO.N,Net-(LS1-Pad2)*
X77467460Y-116812060D03*
G04 #@! TO.P,SW1,1*
G04 #@! TO.N,Net-(SW1-Pad1)*
X76461620Y-116812060D03*
D11*
G04 #@! TO.P,SW1,2*
G04 #@! TO.N,Net-(LS1-Pad2)*
X74211180Y-116812060D03*
G04 #@! TO.P,SW1,1*
G04 #@! TO.N,Net-(SW1-Pad1)*
X79717900Y-116812060D03*
G04 #@! TD*
D10*
G04 #@! TO.P,SW4,2*
G04 #@! TO.N,Net-(LS1-Pad2)*
X84957920Y-124559060D03*
G04 #@! TO.P,SW4,1*
G04 #@! TO.N,Net-(SW4-Pad1)*
X83952080Y-124559060D03*
D11*
G04 #@! TO.P,SW4,2*
G04 #@! TO.N,Net-(LS1-Pad2)*
X81701640Y-124559060D03*
G04 #@! TO.P,SW4,1*
G04 #@! TO.N,Net-(SW4-Pad1)*
X87208360Y-124559060D03*
G04 #@! TD*
D10*
G04 #@! TO.P,SW2,2*
G04 #@! TO.N,Net-(LS1-Pad2)*
X77464920Y-132184140D03*
G04 #@! TO.P,SW2,1*
G04 #@! TO.N,Net-(SW2-Pad1)*
X76459080Y-132184140D03*
D11*
G04 #@! TO.P,SW2,2*
G04 #@! TO.N,Net-(LS1-Pad2)*
X74208640Y-132184140D03*
G04 #@! TO.P,SW2,1*
G04 #@! TO.N,Net-(SW2-Pad1)*
X79715360Y-132184140D03*
G04 #@! TD*
D10*
G04 #@! TO.P,SW6,2*
G04 #@! TO.N,Net-(LS1-Pad2)*
X113154460Y-126855220D03*
G04 #@! TO.P,SW6,1*
G04 #@! TO.N,Net-(SW6-Pad1)*
X112148620Y-126855220D03*
D11*
G04 #@! TO.P,SW6,2*
G04 #@! TO.N,Net-(LS1-Pad2)*
X109898180Y-126855220D03*
G04 #@! TO.P,SW6,1*
G04 #@! TO.N,Net-(SW6-Pad1)*
X115404900Y-126855220D03*
G04 #@! TD*
D10*
G04 #@! TO.P,SW5,2*
G04 #@! TO.N,Net-(LS1-Pad2)*
X127251460Y-122148600D03*
G04 #@! TO.P,SW5,1*
G04 #@! TO.N,Net-(SW5-Pad1)*
X126245620Y-122148600D03*
D11*
G04 #@! TO.P,SW5,2*
G04 #@! TO.N,Net-(LS1-Pad2)*
X123995180Y-122148600D03*
G04 #@! TO.P,SW5,1*
G04 #@! TO.N,Net-(SW5-Pad1)*
X129501900Y-122148600D03*
G04 #@! TD*
D10*
G04 #@! TO.P,SW8,2*
G04 #@! TO.N,Net-(LS1-Pad2)*
X94223840Y-146908520D03*
G04 #@! TO.P,SW8,1*
G04 #@! TO.N,Net-(SW8-Pad1)*
X93218000Y-146908520D03*
D11*
G04 #@! TO.P,SW8,2*
G04 #@! TO.N,Net-(LS1-Pad2)*
X90967560Y-146908520D03*
G04 #@! TO.P,SW8,1*
G04 #@! TO.N,Net-(SW8-Pad1)*
X96474280Y-146908520D03*
G04 #@! TD*
D10*
G04 #@! TO.P,SW7,2*
G04 #@! TO.N,Net-(LS1-Pad2)*
X105653840Y-146916140D03*
G04 #@! TO.P,SW7,1*
G04 #@! TO.N,Net-(SW7-Pad1)*
X104648000Y-146916140D03*
D11*
G04 #@! TO.P,SW7,2*
G04 #@! TO.N,Net-(LS1-Pad2)*
X102397560Y-146916140D03*
G04 #@! TO.P,SW7,1*
G04 #@! TO.N,Net-(SW7-Pad1)*
X107904280Y-146916140D03*
G04 #@! TD*
D14*
G04 #@! TO.P,LS2,1*
G04 #@! TO.N,Net-(LS2-Pad1)*
X84731860Y-153047700D03*
G04 #@! TO.P,LS2,2*
G04 #@! TO.N,Net-(LS1-Pad2)*
X68031360Y-153047700D03*
G04 #@! TD*
D16*
G04 #@! TO.N,Net-(LS1-Pad2)*
X106819700Y-117480080D03*
X77635100Y-126184660D03*
X107904280Y-132745480D03*
X94396560Y-139148820D03*
X114061240Y-158272480D03*
X89590880Y-164932360D03*
G04 #@! TO.N,Net-(SW4-Pad1)*
X95077280Y-118841520D03*
X89268300Y-119819420D03*
G04 #@! TD*
D17*
G04 #@! TO.N,Net-(SW1-Pad1)*
X79717900Y-114812060D02*
X78387960Y-113482120D01*
X79717900Y-116812060D02*
X79717900Y-114812060D01*
X81991200Y-114538760D02*
X79717900Y-116812060D01*
X85176360Y-114538760D02*
X81991200Y-114538760D01*
X79717900Y-118812060D02*
X77967900Y-120562060D01*
X77967900Y-120562060D02*
X77095040Y-120562060D01*
X79717900Y-116812060D02*
X79717900Y-118812060D01*
X76461620Y-119928640D02*
X76461620Y-116812060D01*
X77095040Y-120562060D02*
X76461620Y-119928640D01*
G04 #@! TO.N,Net-(LS1-Pad1)*
X107218480Y-157312360D02*
X112369600Y-162463480D01*
X112369600Y-162463480D02*
X127365760Y-162463480D01*
X132544820Y-157284420D02*
X132544820Y-153769060D01*
X127365760Y-162463480D02*
X132544820Y-157284420D01*
G04 #@! TO.N,Net-(LS1-Pad2)*
X106819700Y-116595020D02*
X106819700Y-117480080D01*
X105496360Y-115271680D02*
X106819700Y-116595020D01*
X105496360Y-114533680D02*
X105496360Y-115271680D01*
X77635100Y-126184660D02*
X74211180Y-122760740D01*
X74191099Y-120741679D02*
X74211180Y-120761760D01*
X66456560Y-124566680D02*
X66456560Y-122566680D01*
X68281561Y-120741679D02*
X74191099Y-120741679D01*
X66456560Y-122566680D02*
X68281561Y-120741679D01*
X74211180Y-122760740D02*
X74211180Y-120761760D01*
X74211180Y-120761760D02*
X74211180Y-116812060D01*
X79260700Y-124559060D02*
X77635100Y-126184660D01*
X81701640Y-124559060D02*
X79260700Y-124559060D01*
X77635100Y-126750345D02*
X77635100Y-126184660D01*
X77635100Y-126757680D02*
X77635100Y-126750345D01*
X74208640Y-130184140D02*
X77635100Y-126757680D01*
X74208640Y-132184140D02*
X74208640Y-130184140D01*
X109898180Y-130751580D02*
X109898180Y-126855220D01*
X107904280Y-132745480D02*
X109898180Y-130751580D01*
X123995180Y-118398600D02*
X124636840Y-117756940D01*
X123995180Y-122148600D02*
X123995180Y-118398600D01*
X131064000Y-117756940D02*
X132214620Y-118907560D01*
X132214620Y-118907560D02*
X132214620Y-126149100D01*
X132214620Y-126149100D02*
X122928380Y-135435340D01*
X110594140Y-135435340D02*
X107904280Y-132745480D01*
X122928380Y-135435340D02*
X110594140Y-135435340D01*
X104678480Y-162392360D02*
X97022920Y-162392360D01*
X97022920Y-162392360D02*
X86299040Y-151668480D01*
X86299040Y-151668480D02*
X86299040Y-145082260D01*
X92232480Y-139148820D02*
X94396560Y-139148820D01*
X86299040Y-145082260D02*
X92232480Y-139148820D01*
X89217560Y-146908520D02*
X87391300Y-145082260D01*
X87391300Y-145082260D02*
X86299040Y-145082260D01*
X90967560Y-146908520D02*
X89217560Y-146908520D01*
X100647560Y-146916140D02*
X99646740Y-147916960D01*
X102397560Y-146916140D02*
X100647560Y-146916140D01*
X99646740Y-147916960D02*
X99646740Y-150449280D01*
X98427540Y-151668480D02*
X86299040Y-151668480D01*
X99646740Y-150449280D02*
X98427540Y-151668480D01*
X115844320Y-156489400D02*
X114061240Y-158272480D01*
X115844320Y-153769060D02*
X115844320Y-156489400D01*
X77706220Y-153047700D02*
X89590880Y-164932360D01*
X68031360Y-153047700D02*
X77706220Y-153047700D01*
X74211180Y-114812060D02*
X75416660Y-113606580D01*
X74211180Y-116812060D02*
X74211180Y-114812060D01*
X77467460Y-114562060D02*
X77467460Y-116812060D01*
X76511980Y-113606580D02*
X77467460Y-114562060D01*
X75416660Y-113606580D02*
X76511980Y-113606580D01*
X66456560Y-126566680D02*
X68434200Y-128544320D01*
X66456560Y-124566680D02*
X66456560Y-126566680D01*
X68434200Y-128544320D02*
X69479160Y-128544320D01*
X69712840Y-128310640D02*
X69712840Y-124566680D01*
X69479160Y-128544320D02*
X69712840Y-128310640D01*
X74208640Y-135934140D02*
X74713140Y-136438640D01*
X74208640Y-132184140D02*
X74208640Y-135934140D01*
X74713140Y-136438640D02*
X76979780Y-136438640D01*
X77464920Y-135953500D02*
X77464920Y-132184140D01*
X76979780Y-136438640D02*
X77464920Y-135953500D01*
X81701640Y-126559060D02*
X83481160Y-128338580D01*
X81701640Y-124559060D02*
X81701640Y-126559060D01*
X83481160Y-128338580D02*
X84701380Y-128338580D01*
X84957920Y-128082040D02*
X84957920Y-124559060D01*
X84701380Y-128338580D02*
X84957920Y-128082040D01*
X109898180Y-128855220D02*
X111662460Y-130619500D01*
X109898180Y-126855220D02*
X109898180Y-128855220D01*
X111662460Y-130619500D02*
X112750600Y-130619500D01*
X113154460Y-130215640D02*
X113154460Y-126855220D01*
X112750600Y-130619500D02*
X113154460Y-130215640D01*
X125811280Y-117756940D02*
X127251460Y-119197120D01*
X124636840Y-117756940D02*
X125811280Y-117756940D01*
X127251460Y-119197120D02*
X127251460Y-122148600D01*
X125811280Y-117756940D02*
X131064000Y-117756940D01*
X90967560Y-143158520D02*
X91449200Y-142676880D01*
X90967560Y-146908520D02*
X90967560Y-143158520D01*
X91449200Y-142676880D02*
X93545660Y-142676880D01*
X94223840Y-143355060D02*
X94223840Y-146908520D01*
X93545660Y-142676880D02*
X94223840Y-143355060D01*
X102397560Y-150666140D02*
X102625200Y-150893780D01*
X102397560Y-146916140D02*
X102397560Y-150666140D01*
X105653840Y-149166140D02*
X105653840Y-146916140D01*
X103926200Y-150893780D02*
X105653840Y-149166140D01*
X102625200Y-150893780D02*
X103926200Y-150893780D01*
G04 #@! TO.N,Net-(U1-Pad5)*
X113322100Y-118036340D02*
X110801020Y-118036340D01*
X114795300Y-116563140D02*
X113322100Y-118036340D01*
X132984240Y-117203220D02*
X132344160Y-116563140D01*
X106461560Y-154139900D02*
X116055140Y-144546320D01*
X102770940Y-154139900D02*
X106461560Y-154139900D01*
X99598480Y-157312360D02*
X102770940Y-154139900D01*
X108036360Y-115271680D02*
X108036360Y-114533680D01*
X121086880Y-136347200D02*
X123479560Y-136347200D01*
X123479560Y-136347200D02*
X132984240Y-126842520D01*
X116055140Y-144546320D02*
X116055140Y-141378940D01*
X116055140Y-141378940D02*
X121086880Y-136347200D01*
X132984240Y-126842520D02*
X132984240Y-117203220D01*
X110801020Y-118036340D02*
X108036360Y-115271680D01*
X132344160Y-116563140D02*
X114795300Y-116563140D01*
G04 #@! TO.N,Net-(SW2-Pad1)*
X87716360Y-116283680D02*
X90987880Y-119555200D01*
X87716360Y-114533680D02*
X87716360Y-116283680D01*
X81465360Y-132184140D02*
X79715360Y-132184140D01*
X85168282Y-132184140D02*
X81465360Y-132184140D01*
X90987880Y-126364542D02*
X85168282Y-132184140D01*
X90987880Y-119555200D02*
X90987880Y-126364542D01*
X79715360Y-130184140D02*
X77951080Y-128419860D01*
X79715360Y-132184140D02*
X79715360Y-130184140D01*
X77951080Y-128419860D02*
X77106780Y-128419860D01*
X76459080Y-129067560D02*
X76459080Y-132184140D01*
X77106780Y-128419860D02*
X76459080Y-129067560D01*
G04 #@! TO.N,Net-(SW3-Pad1)*
X90256360Y-116288760D02*
X96479360Y-122511760D01*
X90256360Y-114538760D02*
X90256360Y-116288760D01*
X96479360Y-122511760D02*
X96479360Y-133156960D01*
X96479360Y-133156960D02*
X91902280Y-137734040D01*
X91902280Y-137734040D02*
X72953880Y-137734040D01*
X71963280Y-136743440D02*
X71963280Y-124566680D01*
X72953880Y-137734040D02*
X71963280Y-136743440D01*
X71963280Y-123482118D02*
X69888082Y-121406920D01*
X71963280Y-124566680D02*
X71963280Y-123482118D01*
X68707000Y-122316680D02*
X68707000Y-124566680D01*
X69616760Y-121406920D02*
X68707000Y-122316680D01*
X69888082Y-121406920D02*
X69616760Y-121406920D01*
G04 #@! TO.N,Net-(SW4-Pad1)*
X92796360Y-116560600D02*
X95077280Y-118841520D01*
X92796360Y-114538760D02*
X92796360Y-116560600D01*
X87208360Y-120809060D02*
X87208360Y-124559060D01*
X88198000Y-119819420D02*
X87208360Y-120809060D01*
X89268300Y-119819420D02*
X88198000Y-119819420D01*
X87208360Y-120809060D02*
X86668300Y-120269000D01*
X86668300Y-120269000D02*
X84648040Y-120269000D01*
X83952080Y-120964960D02*
X83952080Y-124559060D01*
X84648040Y-120269000D02*
X83952080Y-120964960D01*
G04 #@! TO.N,Net-(SW5-Pad1)*
X102956360Y-115271680D02*
X107143420Y-119458740D01*
X102956360Y-114533680D02*
X102956360Y-115271680D01*
X107143420Y-119458740D02*
X112288320Y-119458740D01*
X112288320Y-119458740D02*
X114965480Y-122135900D01*
X114965480Y-122135900D02*
X117640100Y-122135900D01*
X117640100Y-122135900D02*
X122585480Y-127081280D01*
X126569220Y-127081280D02*
X129501900Y-124148600D01*
X129501900Y-124148600D02*
X129501900Y-122148600D01*
X122585480Y-127081280D02*
X126569220Y-127081280D01*
X126569220Y-125222200D02*
X126569220Y-127081280D01*
X126245620Y-124898600D02*
X126569220Y-125222200D01*
X126245620Y-122148600D02*
X126245620Y-124898600D01*
G04 #@! TO.N,Net-(SW6-Pad1)*
X100416360Y-115271680D02*
X107046900Y-121902220D01*
X100416360Y-114533680D02*
X100416360Y-115271680D01*
X112451900Y-121902220D02*
X115404900Y-124855220D01*
X107046900Y-121902220D02*
X112451900Y-121902220D01*
X115404900Y-124855220D02*
X115404900Y-126855220D01*
X113654900Y-123105220D02*
X115404900Y-124855220D01*
X113148620Y-123105220D02*
X113654900Y-123105220D01*
X112148620Y-124105220D02*
X113148620Y-123105220D01*
X112148620Y-126855220D02*
X112148620Y-124105220D01*
G04 #@! TO.N,Net-(SW7-Pad1)*
X97876360Y-116283680D02*
X103502460Y-121909780D01*
X97876360Y-114533680D02*
X97876360Y-116283680D01*
X103502460Y-121909780D02*
X103502460Y-138386820D01*
X107904280Y-142788640D02*
X107904280Y-146916140D01*
X104648000Y-143169640D02*
X106466640Y-141351000D01*
X104648000Y-146916140D02*
X104648000Y-143169640D01*
X106466640Y-141351000D02*
X107904280Y-142788640D01*
X103502460Y-138386820D02*
X106466640Y-141351000D01*
G04 #@! TO.N,Net-(SW8-Pad1)*
X95336360Y-116283680D02*
X97797620Y-118744940D01*
X95336360Y-114533680D02*
X95336360Y-116283680D01*
X96474280Y-143158520D02*
X96474280Y-146908520D01*
X97797620Y-141835180D02*
X96474280Y-143158520D01*
X97797620Y-118744940D02*
X97797620Y-141835180D01*
X96474280Y-148908520D02*
X96474280Y-146908520D01*
X94724280Y-150658520D02*
X96474280Y-148908520D01*
X93218000Y-149658520D02*
X94218000Y-150658520D01*
X94218000Y-150658520D02*
X94724280Y-150658520D01*
X93218000Y-146908520D02*
X93218000Y-149658520D01*
G04 #@! TO.N,Net-(U1-Pad2)*
X109758480Y-151479390D02*
X133764020Y-127473850D01*
X109758480Y-157312360D02*
X109758480Y-151479390D01*
X133764020Y-127473850D02*
X133764020Y-116222780D01*
X132074920Y-114533680D02*
X110576360Y-114533680D01*
X133764020Y-116222780D02*
X132074920Y-114533680D01*
G04 #@! TO.N,Net-(LS2-Pad1)*
X102138480Y-157312360D02*
X103604060Y-157312360D01*
X103604060Y-157312360D02*
X107221020Y-160929320D01*
X107221020Y-160929320D02*
X107221020Y-162250120D01*
X107221020Y-162250120D02*
X105369360Y-164101780D01*
X105369360Y-164101780D02*
X89453720Y-164101780D01*
X84731860Y-159379920D02*
X84731860Y-153047700D01*
X89453720Y-164101780D02*
X84731860Y-159379920D01*
G04 #@! TD*
M02*
