G04 #@! TF.GenerationSoftware,KiCad,Pcbnew,5.0.2+dfsg1-1~bpo9+1*
G04 #@! TF.CreationDate,2020-09-22T18:59:10+01:00*
G04 #@! TF.ProjectId,gbc_outline_buttons_sound_new,6762635f-6f75-4746-9c69-6e655f627574,rev?*
G04 #@! TF.SameCoordinates,Original*
G04 #@! TF.FileFunction,Copper,L2,Bot*
G04 #@! TF.FilePolarity,Positive*
%FSLAX46Y46*%
G04 Gerber Fmt 4.6, Leading zero omitted, Abs format (unit mm)*
G04 Created by KiCad (PCBNEW 5.0.2+dfsg1-1~bpo9+1) date Tue 22 Sep 2020 18:59:10 BST*
%MOMM*%
%LPD*%
G01*
G04 APERTURE LIST*
G04 #@! TA.AperFunction,ComponentPad*
%ADD10C,2.800000*%
G04 #@! TD*
G04 #@! TA.AperFunction,ComponentPad*
%ADD11C,3.300000*%
G04 #@! TD*
G04 #@! TA.AperFunction,ComponentPad*
%ADD12C,1.900000*%
G04 #@! TD*
G04 #@! TA.AperFunction,ViaPad*
%ADD13C,0.800000*%
G04 #@! TD*
G04 #@! TA.AperFunction,Conductor*
%ADD14C,0.250000*%
G04 #@! TD*
G04 APERTURE END LIST*
D10*
G04 #@! TO.P,REF\002A\002A,1*
G04 #@! TO.N,N/C*
X113017300Y-141348460D03*
G04 #@! TD*
G04 #@! TO.P,REF\002A\002A,1*
G04 #@! TO.N,N/C*
X131940300Y-133601460D03*
G04 #@! TD*
G04 #@! TO.P,REF\002A\002A,1*
G04 #@! TO.N,N/C*
X115684300Y-119631460D03*
G04 #@! TD*
G04 #@! TO.P,REF\002A\002A,1*
G04 #@! TO.N,N/C*
X93713300Y-126616460D03*
G04 #@! TD*
G04 #@! TO.P,REF\002A\002A,1*
G04 #@! TO.N,N/C*
X88315800Y-134490460D03*
G04 #@! TD*
G04 #@! TO.P,REF\002A\002A,1*
G04 #@! TO.N,N/C*
X66535300Y-138300460D03*
G04 #@! TD*
D11*
G04 #@! TO.P,REF\002A\002A,*
G04 #@! TO.N,*
X121285000Y-130810000D03*
G04 #@! TD*
D10*
G04 #@! TO.P,REF\002A\002A,1*
G04 #@! TO.N,N/C*
X86360000Y-140462000D03*
G04 #@! TD*
D12*
G04 #@! TO.P,U1,1*
G04 #@! TO.N,Net-(LS1-Pad2)*
X104678480Y-162392360D03*
G04 #@! TO.P,U1,4*
G04 #@! TO.N,Net-(LS2-Pad1)*
X102138480Y-157312360D03*
G04 #@! TO.P,U1,5*
G04 #@! TO.N,Net-(U1-Pad5)*
X99598480Y-157312360D03*
G04 #@! TO.P,U1,3*
G04 #@! TO.N,Net-(LS1-Pad1)*
X107218480Y-157312360D03*
G04 #@! TO.P,U1,2*
G04 #@! TO.N,Net-(U1-Pad2)*
X109758480Y-157312360D03*
G04 #@! TD*
D13*
G04 #@! TO.N,Net-(LS1-Pad2)*
X106819700Y-117480080D03*
X77635100Y-126184660D03*
X107904280Y-132745480D03*
X94396560Y-139148820D03*
X114061240Y-158272480D03*
X89590880Y-164932360D03*
G04 #@! TO.N,Net-(SW4-Pad1)*
X95077280Y-118841520D03*
X89268300Y-119819420D03*
G04 #@! TD*
D14*
G04 #@! TO.N,Net-(LS1-Pad2)*
X106819700Y-117480080D02*
X106819700Y-118760240D01*
X82732880Y-131282440D02*
X77635100Y-126184660D01*
X94297500Y-131282440D02*
X82732880Y-131282440D01*
X106819700Y-118760240D02*
X104043480Y-121536460D01*
X104043480Y-121536460D02*
X94297500Y-131282440D01*
X106819700Y-131660900D02*
X107904280Y-132745480D01*
X106819700Y-118760240D02*
X106819700Y-131660900D01*
X94396560Y-131381500D02*
X94297500Y-131282440D01*
X94396560Y-139148820D02*
X94396560Y-131381500D01*
X109941360Y-162392360D02*
X104678480Y-162392360D01*
X114061240Y-158272480D02*
X109941360Y-162392360D01*
X103728481Y-163342359D02*
X104678480Y-162392360D01*
X101738481Y-165332359D02*
X103728481Y-163342359D01*
X89990879Y-165332359D02*
X101738481Y-165332359D01*
X89590880Y-164932360D02*
X89990879Y-165332359D01*
G04 #@! TO.N,Net-(SW4-Pad1)*
X94099380Y-119819420D02*
X89268300Y-119819420D01*
X95077280Y-118841520D02*
X94099380Y-119819420D01*
G04 #@! TD*
M02*
