M48
METRIC,TZ
T1C0.400
T2C1.300
T3C2.200
T4C3.200
%
G90
G05
T1
X77635Y-126185
X89268Y-119819
X89591Y-164932
X94397Y-139149
X95077Y-118842
X106820Y-117480
X107904Y-132745
X114061Y-158272
T2
X99598Y-157312
X102138Y-157312
X104678Y-162392
X107218Y-157312
X109758Y-157312
T3
X86360Y-140462
X93713Y-126616
X66535Y-138300
X115684Y-119631
X131940Y-133601
X88316Y-134490
X113017Y-141348
T4
X121285Y-130810
T0
M30
