G04 #@! TF.GenerationSoftware,KiCad,Pcbnew,5.0.2+dfsg1-1~bpo9+1*
G04 #@! TF.CreationDate,2020-09-22T18:59:10+01:00*
G04 #@! TF.ProjectId,gbc_outline_buttons_sound_new,6762635f-6f75-4746-9c69-6e655f627574,rev?*
G04 #@! TF.SameCoordinates,Original*
G04 #@! TF.FileFunction,Legend,Bot*
G04 #@! TF.FilePolarity,Positive*
%FSLAX46Y46*%
G04 Gerber Fmt 4.6, Leading zero omitted, Abs format (unit mm)*
G04 Created by KiCad (PCBNEW 5.0.2+dfsg1-1~bpo9+1) date Tue 22 Sep 2020 18:59:10 BST*
%MOMM*%
%LPD*%
G01*
G04 APERTURE LIST*
%ADD10C,0.300000*%
%ADD11C,0.150000*%
G04 APERTURE END LIST*
D10*
X95574760Y-161876040D02*
X95717617Y-161804611D01*
X95931902Y-161804611D01*
X96146188Y-161876040D01*
X96289045Y-162018897D01*
X96360474Y-162161754D01*
X96431902Y-162447468D01*
X96431902Y-162661754D01*
X96360474Y-162947468D01*
X96289045Y-163090325D01*
X96146188Y-163233182D01*
X95931902Y-163304611D01*
X95789045Y-163304611D01*
X95574760Y-163233182D01*
X95503331Y-163161754D01*
X95503331Y-162661754D01*
X95789045Y-162661754D01*
X94360474Y-162518897D02*
X94146188Y-162590325D01*
X94074760Y-162661754D01*
X94003331Y-162804611D01*
X94003331Y-163018897D01*
X94074760Y-163161754D01*
X94146188Y-163233182D01*
X94289045Y-163304611D01*
X94860474Y-163304611D01*
X94860474Y-161804611D01*
X94360474Y-161804611D01*
X94217617Y-161876040D01*
X94146188Y-161947468D01*
X94074760Y-162090325D01*
X94074760Y-162233182D01*
X94146188Y-162376040D01*
X94217617Y-162447468D01*
X94360474Y-162518897D01*
X94860474Y-162518897D01*
X92503331Y-163161754D02*
X92574760Y-163233182D01*
X92789045Y-163304611D01*
X92931902Y-163304611D01*
X93146188Y-163233182D01*
X93289045Y-163090325D01*
X93360474Y-162947468D01*
X93431902Y-162661754D01*
X93431902Y-162447468D01*
X93360474Y-162161754D01*
X93289045Y-162018897D01*
X93146188Y-161876040D01*
X92931902Y-161804611D01*
X92789045Y-161804611D01*
X92574760Y-161876040D01*
X92503331Y-161947468D01*
X92217617Y-163447468D02*
X91074760Y-163447468D01*
X90217617Y-162518897D02*
X90003331Y-162590325D01*
X89931902Y-162661754D01*
X89860474Y-162804611D01*
X89860474Y-163018897D01*
X89931902Y-163161754D01*
X90003331Y-163233182D01*
X90146188Y-163304611D01*
X90717617Y-163304611D01*
X90717617Y-161804611D01*
X90217617Y-161804611D01*
X90074760Y-161876040D01*
X90003331Y-161947468D01*
X89931902Y-162090325D01*
X89931902Y-162233182D01*
X90003331Y-162376040D01*
X90074760Y-162447468D01*
X90217617Y-162518897D01*
X90717617Y-162518897D01*
X88574760Y-162304611D02*
X88574760Y-163304611D01*
X89217617Y-162304611D02*
X89217617Y-163090325D01*
X89146188Y-163233182D01*
X89003331Y-163304611D01*
X88789045Y-163304611D01*
X88646188Y-163233182D01*
X88574760Y-163161754D01*
X88074760Y-162304611D02*
X87503331Y-162304611D01*
X87860474Y-161804611D02*
X87860474Y-163090325D01*
X87789045Y-163233182D01*
X87646188Y-163304611D01*
X87503331Y-163304611D01*
X87217617Y-162304611D02*
X86646188Y-162304611D01*
X87003331Y-161804611D02*
X87003331Y-163090325D01*
X86931902Y-163233182D01*
X86789045Y-163304611D01*
X86646188Y-163304611D01*
X85931902Y-163304611D02*
X86074760Y-163233182D01*
X86146188Y-163161754D01*
X86217617Y-163018897D01*
X86217617Y-162590325D01*
X86146188Y-162447468D01*
X86074760Y-162376040D01*
X85931902Y-162304611D01*
X85717617Y-162304611D01*
X85574760Y-162376040D01*
X85503331Y-162447468D01*
X85431902Y-162590325D01*
X85431902Y-163018897D01*
X85503331Y-163161754D01*
X85574760Y-163233182D01*
X85717617Y-163304611D01*
X85931902Y-163304611D01*
X84789045Y-162304611D02*
X84789045Y-163304611D01*
X84789045Y-162447468D02*
X84717617Y-162376040D01*
X84574760Y-162304611D01*
X84360474Y-162304611D01*
X84217617Y-162376040D01*
X84146188Y-162518897D01*
X84146188Y-163304611D01*
X83503331Y-163233182D02*
X83360474Y-163304611D01*
X83074760Y-163304611D01*
X82931902Y-163233182D01*
X82860474Y-163090325D01*
X82860474Y-163018897D01*
X82931902Y-162876040D01*
X83074760Y-162804611D01*
X83289045Y-162804611D01*
X83431902Y-162733182D01*
X83503331Y-162590325D01*
X83503331Y-162518897D01*
X83431902Y-162376040D01*
X83289045Y-162304611D01*
X83074760Y-162304611D01*
X82931902Y-162376040D01*
X82574760Y-163447468D02*
X81431902Y-163447468D01*
X81146188Y-163233182D02*
X80931902Y-163304611D01*
X80574760Y-163304611D01*
X80431902Y-163233182D01*
X80360474Y-163161754D01*
X80289045Y-163018897D01*
X80289045Y-162876040D01*
X80360474Y-162733182D01*
X80431902Y-162661754D01*
X80574760Y-162590325D01*
X80860474Y-162518897D01*
X81003331Y-162447468D01*
X81074760Y-162376040D01*
X81146188Y-162233182D01*
X81146188Y-162090325D01*
X81074760Y-161947468D01*
X81003331Y-161876040D01*
X80860474Y-161804611D01*
X80503331Y-161804611D01*
X80289045Y-161876040D01*
X79431902Y-163304611D02*
X79574760Y-163233182D01*
X79646188Y-163161754D01*
X79717617Y-163018897D01*
X79717617Y-162590325D01*
X79646188Y-162447468D01*
X79574760Y-162376040D01*
X79431902Y-162304611D01*
X79217617Y-162304611D01*
X79074760Y-162376040D01*
X79003331Y-162447468D01*
X78931902Y-162590325D01*
X78931902Y-163018897D01*
X79003331Y-163161754D01*
X79074760Y-163233182D01*
X79217617Y-163304611D01*
X79431902Y-163304611D01*
X77646188Y-162304611D02*
X77646188Y-163304611D01*
X78289045Y-162304611D02*
X78289045Y-163090325D01*
X78217617Y-163233182D01*
X78074760Y-163304611D01*
X77860474Y-163304611D01*
X77717617Y-163233182D01*
X77646188Y-163161754D01*
X76931902Y-162304611D02*
X76931902Y-163304611D01*
X76931902Y-162447468D02*
X76860474Y-162376040D01*
X76717617Y-162304611D01*
X76503331Y-162304611D01*
X76360474Y-162376040D01*
X76289045Y-162518897D01*
X76289045Y-163304611D01*
X74931902Y-163304611D02*
X74931902Y-161804611D01*
X74931902Y-163233182D02*
X75074760Y-163304611D01*
X75360474Y-163304611D01*
X75503331Y-163233182D01*
X75574760Y-163161754D01*
X75646188Y-163018897D01*
X75646188Y-162590325D01*
X75574760Y-162447468D01*
X75503331Y-162376040D01*
X75360474Y-162304611D01*
X75074760Y-162304611D01*
X74931902Y-162376040D01*
X95363548Y-159470897D02*
X95863548Y-159470897D01*
X95863548Y-160256611D02*
X95863548Y-158756611D01*
X95149262Y-158756611D01*
X93934977Y-160256611D02*
X93934977Y-159470897D01*
X94006405Y-159328040D01*
X94149262Y-159256611D01*
X94434977Y-159256611D01*
X94577834Y-159328040D01*
X93934977Y-160185182D02*
X94077834Y-160256611D01*
X94434977Y-160256611D01*
X94577834Y-160185182D01*
X94649262Y-160042325D01*
X94649262Y-159899468D01*
X94577834Y-159756611D01*
X94434977Y-159685182D01*
X94077834Y-159685182D01*
X93934977Y-159613754D01*
X92577834Y-160185182D02*
X92720691Y-160256611D01*
X93006405Y-160256611D01*
X93149262Y-160185182D01*
X93220691Y-160113754D01*
X93292119Y-159970897D01*
X93292119Y-159542325D01*
X93220691Y-159399468D01*
X93149262Y-159328040D01*
X93006405Y-159256611D01*
X92720691Y-159256611D01*
X92577834Y-159328040D01*
X91363548Y-160185182D02*
X91506405Y-160256611D01*
X91792119Y-160256611D01*
X91934977Y-160185182D01*
X92006405Y-160042325D01*
X92006405Y-159470897D01*
X91934977Y-159328040D01*
X91792119Y-159256611D01*
X91506405Y-159256611D01*
X91363548Y-159328040D01*
X91292119Y-159470897D01*
X91292119Y-159613754D01*
X92006405Y-159756611D01*
X90434977Y-160256611D02*
X90577834Y-160185182D01*
X90649262Y-160042325D01*
X90649262Y-158756611D01*
X89292119Y-160185182D02*
X89434977Y-160256611D01*
X89720691Y-160256611D01*
X89863548Y-160185182D01*
X89934977Y-160042325D01*
X89934977Y-159470897D01*
X89863548Y-159328040D01*
X89720691Y-159256611D01*
X89434977Y-159256611D01*
X89292119Y-159328040D01*
X89220691Y-159470897D01*
X89220691Y-159613754D01*
X89934977Y-159756611D01*
X88649262Y-160185182D02*
X88506405Y-160256611D01*
X88220691Y-160256611D01*
X88077834Y-160185182D01*
X88006405Y-160042325D01*
X88006405Y-159970897D01*
X88077834Y-159828040D01*
X88220691Y-159756611D01*
X88434977Y-159756611D01*
X88577834Y-159685182D01*
X88649262Y-159542325D01*
X88649262Y-159470897D01*
X88577834Y-159328040D01*
X88434977Y-159256611D01*
X88220691Y-159256611D01*
X88077834Y-159328040D01*
X87434977Y-160185182D02*
X87292119Y-160256611D01*
X87006405Y-160256611D01*
X86863548Y-160185182D01*
X86792119Y-160042325D01*
X86792119Y-159970897D01*
X86863548Y-159828040D01*
X87006405Y-159756611D01*
X87220691Y-159756611D01*
X87363548Y-159685182D01*
X87434977Y-159542325D01*
X87434977Y-159470897D01*
X87363548Y-159328040D01*
X87220691Y-159256611D01*
X87006405Y-159256611D01*
X86863548Y-159328040D01*
X86363548Y-159256611D02*
X85792119Y-159256611D01*
X86149262Y-158756611D02*
X86149262Y-160042325D01*
X86077834Y-160185182D01*
X85934977Y-160256611D01*
X85792119Y-160256611D01*
X84720691Y-160185182D02*
X84863548Y-160256611D01*
X85149262Y-160256611D01*
X85292119Y-160185182D01*
X85363548Y-160042325D01*
X85363548Y-159470897D01*
X85292119Y-159328040D01*
X85149262Y-159256611D01*
X84863548Y-159256611D01*
X84720691Y-159328040D01*
X84649262Y-159470897D01*
X84649262Y-159613754D01*
X85363548Y-159756611D01*
X83363548Y-160185182D02*
X83506405Y-160256611D01*
X83792119Y-160256611D01*
X83934977Y-160185182D01*
X84006405Y-160113754D01*
X84077834Y-159970897D01*
X84077834Y-159542325D01*
X84006405Y-159399468D01*
X83934977Y-159328040D01*
X83792119Y-159256611D01*
X83506405Y-159256611D01*
X83363548Y-159328040D01*
X82720691Y-160256611D02*
X82720691Y-158756611D01*
X82077834Y-160256611D02*
X82077834Y-159470897D01*
X82149262Y-159328040D01*
X82292119Y-159256611D01*
X82506405Y-159256611D01*
X82649262Y-159328040D01*
X82720691Y-159399468D01*
X80292119Y-158899468D02*
X80220691Y-158828040D01*
X80077834Y-158756611D01*
X79720691Y-158756611D01*
X79577834Y-158828040D01*
X79506405Y-158899468D01*
X79434977Y-159042325D01*
X79434977Y-159185182D01*
X79506405Y-159399468D01*
X80363548Y-160256611D01*
X79434977Y-160256611D01*
X78506405Y-158756611D02*
X78363548Y-158756611D01*
X78220691Y-158828040D01*
X78149262Y-158899468D01*
X78077834Y-159042325D01*
X78006405Y-159328040D01*
X78006405Y-159685182D01*
X78077834Y-159970897D01*
X78149262Y-160113754D01*
X78220691Y-160185182D01*
X78363548Y-160256611D01*
X78506405Y-160256611D01*
X78649262Y-160185182D01*
X78720691Y-160113754D01*
X78792119Y-159970897D01*
X78863548Y-159685182D01*
X78863548Y-159328040D01*
X78792119Y-159042325D01*
X78720691Y-158899468D01*
X78649262Y-158828040D01*
X78506405Y-158756611D01*
X77434977Y-158899468D02*
X77363548Y-158828040D01*
X77220691Y-158756611D01*
X76863548Y-158756611D01*
X76720691Y-158828040D01*
X76649262Y-158899468D01*
X76577834Y-159042325D01*
X76577834Y-159185182D01*
X76649262Y-159399468D01*
X77506405Y-160256611D01*
X76577834Y-160256611D01*
X75649262Y-158756611D02*
X75506405Y-158756611D01*
X75363548Y-158828040D01*
X75292119Y-158899468D01*
X75220691Y-159042325D01*
X75149262Y-159328040D01*
X75149262Y-159685182D01*
X75220691Y-159970897D01*
X75292119Y-160113754D01*
X75363548Y-160185182D01*
X75506405Y-160256611D01*
X75649262Y-160256611D01*
X75792119Y-160185182D01*
X75863548Y-160113754D01*
X75934977Y-159970897D01*
X76006405Y-159685182D01*
X76006405Y-159328040D01*
X75934977Y-159042325D01*
X75863548Y-158899468D01*
X75792119Y-158828040D01*
X75649262Y-158756611D01*
D11*
G04 #@! TO.C,U1*
X98645980Y-153553160D02*
X110710980Y-153553160D01*
X110710980Y-153553160D02*
X110710980Y-165224460D01*
X110710980Y-165224460D02*
X98645980Y-165224460D01*
X98645980Y-165224460D02*
X98645980Y-153553160D01*
X101287580Y-165224460D02*
X101287580Y-168704260D01*
X101287580Y-168704260D02*
X108069380Y-168704260D01*
X108069380Y-168704260D02*
X108069380Y-165224460D01*
G04 #@! TD*
M02*
