G04 #@! TF.GenerationSoftware,KiCad,Pcbnew,5.0.2+dfsg1-1~bpo9+1*
G04 #@! TF.CreationDate,2020-07-27T21:19:22+01:00*
G04 #@! TF.ProjectId,gbc_outline_screen,6762635f-6f75-4746-9c69-6e655f736372,rev?*
G04 #@! TF.SameCoordinates,Original*
G04 #@! TF.FileFunction,Copper,L1,Top*
G04 #@! TF.FilePolarity,Positive*
%FSLAX46Y46*%
G04 Gerber Fmt 4.6, Leading zero omitted, Abs format (unit mm)*
G04 Created by KiCad (PCBNEW 5.0.2+dfsg1-1~bpo9+1) date Mon 27 Jul 2020 21:19:22 BST*
%MOMM*%
%LPD*%
G01*
G04 APERTURE LIST*
G04 #@! TA.AperFunction,SMDPad,CuDef*
%ADD10R,3.000000X0.400000*%
G04 #@! TD*
G04 #@! TA.AperFunction,ComponentPad*
%ADD11C,1.500000*%
G04 #@! TD*
G04 #@! TA.AperFunction,ComponentPad*
%ADD12C,2.800000*%
G04 #@! TD*
G04 #@! TA.AperFunction,ComponentPad*
%ADD13C,1.800000*%
G04 #@! TD*
G04 #@! TA.AperFunction,ComponentPad*
%ADD14C,1.600000*%
G04 #@! TD*
G04 #@! TA.AperFunction,Conductor*
%ADD15C,0.100000*%
G04 #@! TD*
G04 #@! TA.AperFunction,SMDPad,CuDef*
%ADD16C,1.600000*%
G04 #@! TD*
G04 #@! TA.AperFunction,SMDPad,CuDef*
%ADD17R,1.524000X3.000000*%
G04 #@! TD*
G04 #@! TA.AperFunction,ViaPad*
%ADD18C,0.800000*%
G04 #@! TD*
G04 #@! TA.AperFunction,Conductor*
%ADD19C,0.250000*%
G04 #@! TD*
G04 APERTURE END LIST*
D10*
G04 #@! TO.P,U1,1*
G04 #@! TO.N,Net-(J1-Pad34)*
X135737600Y-73439020D03*
G04 #@! TO.P,U1,2*
G04 #@! TO.N,Net-(J1-Pad13)*
X135737600Y-74239120D03*
G04 #@! TO.P,U1,3*
G04 #@! TO.N,Net-(J1-Pad23)*
X135737600Y-75039220D03*
G04 #@! TO.P,U1,4*
G04 #@! TO.N,Net-(J1-Pad22)*
X135737600Y-75839320D03*
G04 #@! TO.P,U1,5*
G04 #@! TO.N,Net-(J1-Pad24)*
X135737600Y-76639420D03*
G04 #@! TO.P,U1,6*
G04 #@! TO.N,Net-(J1-Pad19)*
X135737600Y-77439520D03*
G04 #@! TO.P,U1,7*
G04 #@! TO.N,Net-(U1-Pad7)*
X135737600Y-78239620D03*
G04 #@! TO.P,U1,8*
G04 #@! TO.N,Net-(J1-Pad34)*
X135737600Y-79039720D03*
G04 #@! TO.P,U1,9*
G04 #@! TO.N,Net-(J1-Pad1)*
X135737600Y-79839820D03*
G04 #@! TO.P,U1,10*
X135737600Y-80639920D03*
G04 #@! TO.P,U1,11*
G04 #@! TO.N,Net-(R1-Pad2)*
X135737600Y-81440020D03*
G04 #@! TO.P,U1,12*
X135737600Y-82240120D03*
G04 #@! TO.P,U1,13*
X135737600Y-83040220D03*
G04 #@! TO.P,U1,14*
X135737600Y-83840320D03*
G04 #@! TO.P,U1,15*
G04 #@! TO.N,Net-(U1-Pad15)*
X135737600Y-84640420D03*
G04 #@! TO.P,U1,16*
G04 #@! TO.N,Net-(U1-Pad16)*
X135737600Y-85440520D03*
G04 #@! TO.P,U1,17*
G04 #@! TO.N,Net-(U1-Pad17)*
X135737600Y-86240620D03*
G04 #@! TO.P,U1,18*
G04 #@! TO.N,Net-(U1-Pad18)*
X135737600Y-87040720D03*
G04 #@! TD*
D11*
G04 #@! TO.P,U7,1*
G04 #@! TO.N,Net-(R2-Pad1)*
X120233440Y-84927440D03*
X120233440Y-76291440D03*
X116436140Y-76291440D03*
X116436140Y-84927440D03*
G04 #@! TD*
D12*
G04 #@! TO.P,REF\002A\002A,1*
G04 #@! TO.N,N/C*
X116286280Y-106151680D03*
G04 #@! TD*
G04 #@! TO.P,REF\002A\002A,1*
G04 #@! TO.N,N/C*
X181678580Y-61953140D03*
G04 #@! TD*
G04 #@! TO.P,REF\002A\002A,1*
G04 #@! TO.N,N/C*
X116273580Y-62969140D03*
G04 #@! TD*
G04 #@! TO.P,REF\002A\002A,1*
G04 #@! TO.N,N/C*
X181678580Y-106149140D03*
G04 #@! TD*
D11*
G04 #@! TO.P,U4,1*
G04 #@! TO.N,Net-(J1-Pad34)*
X126329440Y-90820240D03*
G04 #@! TO.P,U4,2*
G04 #@! TO.N,Net-(U3-Pad7)*
X126329440Y-92826840D03*
G04 #@! TO.P,U4,3*
G04 #@! TO.N,Net-(U3-Pad8)*
X126329440Y-94833440D03*
G04 #@! TO.P,U4,4*
G04 #@! TO.N,Net-(U4-Pad4)*
X126329440Y-96840040D03*
G04 #@! TO.P,U4,5*
G04 #@! TO.N,Net-(U4-Pad5)*
X126329440Y-98846640D03*
D13*
G04 #@! TO.P,U4,6*
G04 #@! TO.N,N/C*
X115204240Y-100002340D03*
G04 #@! TO.P,U4,7*
X115216940Y-89664540D03*
G04 #@! TD*
D14*
G04 #@! TO.P,U2,1*
G04 #@! TO.N,Net-(U2-Pad1)*
X174457360Y-94538800D03*
G04 #@! TO.P,U2,2*
G04 #@! TO.N,Net-(U2-Pad2)*
X176997360Y-94538800D03*
G04 #@! TD*
D15*
G04 #@! TO.N,Net-(U5-Pad1)*
G04 #@! TO.C,U5*
G36*
X178660847Y-102874566D02*
X178699676Y-102880326D01*
X178737754Y-102889864D01*
X178774713Y-102903088D01*
X178810199Y-102919871D01*
X178843868Y-102940052D01*
X178875397Y-102963436D01*
X178904483Y-102989797D01*
X178930844Y-103018883D01*
X178954228Y-103050412D01*
X178974409Y-103084081D01*
X178991192Y-103119567D01*
X179004416Y-103156526D01*
X179013954Y-103194604D01*
X179019714Y-103233433D01*
X179021640Y-103272640D01*
X179021640Y-104072640D01*
X179019714Y-104111847D01*
X179013954Y-104150676D01*
X179004416Y-104188754D01*
X178991192Y-104225713D01*
X178974409Y-104261199D01*
X178954228Y-104294868D01*
X178930844Y-104326397D01*
X178904483Y-104355483D01*
X178875397Y-104381844D01*
X178843868Y-104405228D01*
X178810199Y-104425409D01*
X178774713Y-104442192D01*
X178737754Y-104455416D01*
X178699676Y-104464954D01*
X178660847Y-104470714D01*
X178621640Y-104472640D01*
X177821640Y-104472640D01*
X177782433Y-104470714D01*
X177743604Y-104464954D01*
X177705526Y-104455416D01*
X177668567Y-104442192D01*
X177633081Y-104425409D01*
X177599412Y-104405228D01*
X177567883Y-104381844D01*
X177538797Y-104355483D01*
X177512436Y-104326397D01*
X177489052Y-104294868D01*
X177468871Y-104261199D01*
X177452088Y-104225713D01*
X177438864Y-104188754D01*
X177429326Y-104150676D01*
X177423566Y-104111847D01*
X177421640Y-104072640D01*
X177421640Y-103272640D01*
X177423566Y-103233433D01*
X177429326Y-103194604D01*
X177438864Y-103156526D01*
X177452088Y-103119567D01*
X177468871Y-103084081D01*
X177489052Y-103050412D01*
X177512436Y-103018883D01*
X177538797Y-102989797D01*
X177567883Y-102963436D01*
X177599412Y-102940052D01*
X177633081Y-102919871D01*
X177668567Y-102903088D01*
X177705526Y-102889864D01*
X177743604Y-102880326D01*
X177782433Y-102874566D01*
X177821640Y-102872640D01*
X178621640Y-102872640D01*
X178660847Y-102874566D01*
X178660847Y-102874566D01*
G37*
D16*
G04 #@! TD*
G04 #@! TO.P,U5,1*
G04 #@! TO.N,Net-(U5-Pad1)*
X178221640Y-103672640D03*
D15*
G04 #@! TO.N,Net-(R2-Pad1)*
G04 #@! TO.C,U5*
G36*
X176120847Y-102874566D02*
X176159676Y-102880326D01*
X176197754Y-102889864D01*
X176234713Y-102903088D01*
X176270199Y-102919871D01*
X176303868Y-102940052D01*
X176335397Y-102963436D01*
X176364483Y-102989797D01*
X176390844Y-103018883D01*
X176414228Y-103050412D01*
X176434409Y-103084081D01*
X176451192Y-103119567D01*
X176464416Y-103156526D01*
X176473954Y-103194604D01*
X176479714Y-103233433D01*
X176481640Y-103272640D01*
X176481640Y-104072640D01*
X176479714Y-104111847D01*
X176473954Y-104150676D01*
X176464416Y-104188754D01*
X176451192Y-104225713D01*
X176434409Y-104261199D01*
X176414228Y-104294868D01*
X176390844Y-104326397D01*
X176364483Y-104355483D01*
X176335397Y-104381844D01*
X176303868Y-104405228D01*
X176270199Y-104425409D01*
X176234713Y-104442192D01*
X176197754Y-104455416D01*
X176159676Y-104464954D01*
X176120847Y-104470714D01*
X176081640Y-104472640D01*
X175281640Y-104472640D01*
X175242433Y-104470714D01*
X175203604Y-104464954D01*
X175165526Y-104455416D01*
X175128567Y-104442192D01*
X175093081Y-104425409D01*
X175059412Y-104405228D01*
X175027883Y-104381844D01*
X174998797Y-104355483D01*
X174972436Y-104326397D01*
X174949052Y-104294868D01*
X174928871Y-104261199D01*
X174912088Y-104225713D01*
X174898864Y-104188754D01*
X174889326Y-104150676D01*
X174883566Y-104111847D01*
X174881640Y-104072640D01*
X174881640Y-103272640D01*
X174883566Y-103233433D01*
X174889326Y-103194604D01*
X174898864Y-103156526D01*
X174912088Y-103119567D01*
X174928871Y-103084081D01*
X174949052Y-103050412D01*
X174972436Y-103018883D01*
X174998797Y-102989797D01*
X175027883Y-102963436D01*
X175059412Y-102940052D01*
X175093081Y-102919871D01*
X175128567Y-102903088D01*
X175165526Y-102889864D01*
X175203604Y-102880326D01*
X175242433Y-102874566D01*
X175281640Y-102872640D01*
X176081640Y-102872640D01*
X176120847Y-102874566D01*
X176120847Y-102874566D01*
G37*
D16*
G04 #@! TD*
G04 #@! TO.P,U5,2*
G04 #@! TO.N,Net-(R2-Pad1)*
X175681640Y-103672640D03*
D15*
G04 #@! TO.N,Net-(U2-Pad2)*
G04 #@! TO.C,U5*
G36*
X173580847Y-102874566D02*
X173619676Y-102880326D01*
X173657754Y-102889864D01*
X173694713Y-102903088D01*
X173730199Y-102919871D01*
X173763868Y-102940052D01*
X173795397Y-102963436D01*
X173824483Y-102989797D01*
X173850844Y-103018883D01*
X173874228Y-103050412D01*
X173894409Y-103084081D01*
X173911192Y-103119567D01*
X173924416Y-103156526D01*
X173933954Y-103194604D01*
X173939714Y-103233433D01*
X173941640Y-103272640D01*
X173941640Y-104072640D01*
X173939714Y-104111847D01*
X173933954Y-104150676D01*
X173924416Y-104188754D01*
X173911192Y-104225713D01*
X173894409Y-104261199D01*
X173874228Y-104294868D01*
X173850844Y-104326397D01*
X173824483Y-104355483D01*
X173795397Y-104381844D01*
X173763868Y-104405228D01*
X173730199Y-104425409D01*
X173694713Y-104442192D01*
X173657754Y-104455416D01*
X173619676Y-104464954D01*
X173580847Y-104470714D01*
X173541640Y-104472640D01*
X172741640Y-104472640D01*
X172702433Y-104470714D01*
X172663604Y-104464954D01*
X172625526Y-104455416D01*
X172588567Y-104442192D01*
X172553081Y-104425409D01*
X172519412Y-104405228D01*
X172487883Y-104381844D01*
X172458797Y-104355483D01*
X172432436Y-104326397D01*
X172409052Y-104294868D01*
X172388871Y-104261199D01*
X172372088Y-104225713D01*
X172358864Y-104188754D01*
X172349326Y-104150676D01*
X172343566Y-104111847D01*
X172341640Y-104072640D01*
X172341640Y-103272640D01*
X172343566Y-103233433D01*
X172349326Y-103194604D01*
X172358864Y-103156526D01*
X172372088Y-103119567D01*
X172388871Y-103084081D01*
X172409052Y-103050412D01*
X172432436Y-103018883D01*
X172458797Y-102989797D01*
X172487883Y-102963436D01*
X172519412Y-102940052D01*
X172553081Y-102919871D01*
X172588567Y-102903088D01*
X172625526Y-102889864D01*
X172663604Y-102880326D01*
X172702433Y-102874566D01*
X172741640Y-102872640D01*
X173541640Y-102872640D01*
X173580847Y-102874566D01*
X173580847Y-102874566D01*
G37*
D16*
G04 #@! TD*
G04 #@! TO.P,U5,3*
G04 #@! TO.N,Net-(U2-Pad2)*
X173141640Y-103672640D03*
D15*
G04 #@! TO.N,Net-(U2-Pad1)*
G04 #@! TO.C,U5*
G36*
X171040847Y-102874566D02*
X171079676Y-102880326D01*
X171117754Y-102889864D01*
X171154713Y-102903088D01*
X171190199Y-102919871D01*
X171223868Y-102940052D01*
X171255397Y-102963436D01*
X171284483Y-102989797D01*
X171310844Y-103018883D01*
X171334228Y-103050412D01*
X171354409Y-103084081D01*
X171371192Y-103119567D01*
X171384416Y-103156526D01*
X171393954Y-103194604D01*
X171399714Y-103233433D01*
X171401640Y-103272640D01*
X171401640Y-104072640D01*
X171399714Y-104111847D01*
X171393954Y-104150676D01*
X171384416Y-104188754D01*
X171371192Y-104225713D01*
X171354409Y-104261199D01*
X171334228Y-104294868D01*
X171310844Y-104326397D01*
X171284483Y-104355483D01*
X171255397Y-104381844D01*
X171223868Y-104405228D01*
X171190199Y-104425409D01*
X171154713Y-104442192D01*
X171117754Y-104455416D01*
X171079676Y-104464954D01*
X171040847Y-104470714D01*
X171001640Y-104472640D01*
X170201640Y-104472640D01*
X170162433Y-104470714D01*
X170123604Y-104464954D01*
X170085526Y-104455416D01*
X170048567Y-104442192D01*
X170013081Y-104425409D01*
X169979412Y-104405228D01*
X169947883Y-104381844D01*
X169918797Y-104355483D01*
X169892436Y-104326397D01*
X169869052Y-104294868D01*
X169848871Y-104261199D01*
X169832088Y-104225713D01*
X169818864Y-104188754D01*
X169809326Y-104150676D01*
X169803566Y-104111847D01*
X169801640Y-104072640D01*
X169801640Y-103272640D01*
X169803566Y-103233433D01*
X169809326Y-103194604D01*
X169818864Y-103156526D01*
X169832088Y-103119567D01*
X169848871Y-103084081D01*
X169869052Y-103050412D01*
X169892436Y-103018883D01*
X169918797Y-102989797D01*
X169947883Y-102963436D01*
X169979412Y-102940052D01*
X170013081Y-102919871D01*
X170048567Y-102903088D01*
X170085526Y-102889864D01*
X170123604Y-102880326D01*
X170162433Y-102874566D01*
X170201640Y-102872640D01*
X171001640Y-102872640D01*
X171040847Y-102874566D01*
X171040847Y-102874566D01*
G37*
D16*
G04 #@! TD*
G04 #@! TO.P,U5,4*
G04 #@! TO.N,Net-(U2-Pad1)*
X170601640Y-103672640D03*
D15*
G04 #@! TO.N,Net-(J1-Pad34)*
G04 #@! TO.C,U5*
G36*
X168500847Y-102874566D02*
X168539676Y-102880326D01*
X168577754Y-102889864D01*
X168614713Y-102903088D01*
X168650199Y-102919871D01*
X168683868Y-102940052D01*
X168715397Y-102963436D01*
X168744483Y-102989797D01*
X168770844Y-103018883D01*
X168794228Y-103050412D01*
X168814409Y-103084081D01*
X168831192Y-103119567D01*
X168844416Y-103156526D01*
X168853954Y-103194604D01*
X168859714Y-103233433D01*
X168861640Y-103272640D01*
X168861640Y-104072640D01*
X168859714Y-104111847D01*
X168853954Y-104150676D01*
X168844416Y-104188754D01*
X168831192Y-104225713D01*
X168814409Y-104261199D01*
X168794228Y-104294868D01*
X168770844Y-104326397D01*
X168744483Y-104355483D01*
X168715397Y-104381844D01*
X168683868Y-104405228D01*
X168650199Y-104425409D01*
X168614713Y-104442192D01*
X168577754Y-104455416D01*
X168539676Y-104464954D01*
X168500847Y-104470714D01*
X168461640Y-104472640D01*
X167661640Y-104472640D01*
X167622433Y-104470714D01*
X167583604Y-104464954D01*
X167545526Y-104455416D01*
X167508567Y-104442192D01*
X167473081Y-104425409D01*
X167439412Y-104405228D01*
X167407883Y-104381844D01*
X167378797Y-104355483D01*
X167352436Y-104326397D01*
X167329052Y-104294868D01*
X167308871Y-104261199D01*
X167292088Y-104225713D01*
X167278864Y-104188754D01*
X167269326Y-104150676D01*
X167263566Y-104111847D01*
X167261640Y-104072640D01*
X167261640Y-103272640D01*
X167263566Y-103233433D01*
X167269326Y-103194604D01*
X167278864Y-103156526D01*
X167292088Y-103119567D01*
X167308871Y-103084081D01*
X167329052Y-103050412D01*
X167352436Y-103018883D01*
X167378797Y-102989797D01*
X167407883Y-102963436D01*
X167439412Y-102940052D01*
X167473081Y-102919871D01*
X167508567Y-102903088D01*
X167545526Y-102889864D01*
X167583604Y-102880326D01*
X167622433Y-102874566D01*
X167661640Y-102872640D01*
X168461640Y-102872640D01*
X168500847Y-102874566D01*
X168500847Y-102874566D01*
G37*
D16*
G04 #@! TD*
G04 #@! TO.P,U5,5*
G04 #@! TO.N,Net-(J1-Pad34)*
X168061640Y-103672640D03*
D15*
G04 #@! TO.N,Net-(SW1-Pad3)*
G04 #@! TO.C,U5*
G36*
X165960847Y-102874566D02*
X165999676Y-102880326D01*
X166037754Y-102889864D01*
X166074713Y-102903088D01*
X166110199Y-102919871D01*
X166143868Y-102940052D01*
X166175397Y-102963436D01*
X166204483Y-102989797D01*
X166230844Y-103018883D01*
X166254228Y-103050412D01*
X166274409Y-103084081D01*
X166291192Y-103119567D01*
X166304416Y-103156526D01*
X166313954Y-103194604D01*
X166319714Y-103233433D01*
X166321640Y-103272640D01*
X166321640Y-104072640D01*
X166319714Y-104111847D01*
X166313954Y-104150676D01*
X166304416Y-104188754D01*
X166291192Y-104225713D01*
X166274409Y-104261199D01*
X166254228Y-104294868D01*
X166230844Y-104326397D01*
X166204483Y-104355483D01*
X166175397Y-104381844D01*
X166143868Y-104405228D01*
X166110199Y-104425409D01*
X166074713Y-104442192D01*
X166037754Y-104455416D01*
X165999676Y-104464954D01*
X165960847Y-104470714D01*
X165921640Y-104472640D01*
X165121640Y-104472640D01*
X165082433Y-104470714D01*
X165043604Y-104464954D01*
X165005526Y-104455416D01*
X164968567Y-104442192D01*
X164933081Y-104425409D01*
X164899412Y-104405228D01*
X164867883Y-104381844D01*
X164838797Y-104355483D01*
X164812436Y-104326397D01*
X164789052Y-104294868D01*
X164768871Y-104261199D01*
X164752088Y-104225713D01*
X164738864Y-104188754D01*
X164729326Y-104150676D01*
X164723566Y-104111847D01*
X164721640Y-104072640D01*
X164721640Y-103272640D01*
X164723566Y-103233433D01*
X164729326Y-103194604D01*
X164738864Y-103156526D01*
X164752088Y-103119567D01*
X164768871Y-103084081D01*
X164789052Y-103050412D01*
X164812436Y-103018883D01*
X164838797Y-102989797D01*
X164867883Y-102963436D01*
X164899412Y-102940052D01*
X164933081Y-102919871D01*
X164968567Y-102903088D01*
X165005526Y-102889864D01*
X165043604Y-102880326D01*
X165082433Y-102874566D01*
X165121640Y-102872640D01*
X165921640Y-102872640D01*
X165960847Y-102874566D01*
X165960847Y-102874566D01*
G37*
D16*
G04 #@! TD*
G04 #@! TO.P,U5,6*
G04 #@! TO.N,Net-(SW1-Pad3)*
X165521640Y-103672640D03*
D15*
G04 #@! TO.N,Net-(U5-Pad7)*
G04 #@! TO.C,U5*
G36*
X163420847Y-102874566D02*
X163459676Y-102880326D01*
X163497754Y-102889864D01*
X163534713Y-102903088D01*
X163570199Y-102919871D01*
X163603868Y-102940052D01*
X163635397Y-102963436D01*
X163664483Y-102989797D01*
X163690844Y-103018883D01*
X163714228Y-103050412D01*
X163734409Y-103084081D01*
X163751192Y-103119567D01*
X163764416Y-103156526D01*
X163773954Y-103194604D01*
X163779714Y-103233433D01*
X163781640Y-103272640D01*
X163781640Y-104072640D01*
X163779714Y-104111847D01*
X163773954Y-104150676D01*
X163764416Y-104188754D01*
X163751192Y-104225713D01*
X163734409Y-104261199D01*
X163714228Y-104294868D01*
X163690844Y-104326397D01*
X163664483Y-104355483D01*
X163635397Y-104381844D01*
X163603868Y-104405228D01*
X163570199Y-104425409D01*
X163534713Y-104442192D01*
X163497754Y-104455416D01*
X163459676Y-104464954D01*
X163420847Y-104470714D01*
X163381640Y-104472640D01*
X162581640Y-104472640D01*
X162542433Y-104470714D01*
X162503604Y-104464954D01*
X162465526Y-104455416D01*
X162428567Y-104442192D01*
X162393081Y-104425409D01*
X162359412Y-104405228D01*
X162327883Y-104381844D01*
X162298797Y-104355483D01*
X162272436Y-104326397D01*
X162249052Y-104294868D01*
X162228871Y-104261199D01*
X162212088Y-104225713D01*
X162198864Y-104188754D01*
X162189326Y-104150676D01*
X162183566Y-104111847D01*
X162181640Y-104072640D01*
X162181640Y-103272640D01*
X162183566Y-103233433D01*
X162189326Y-103194604D01*
X162198864Y-103156526D01*
X162212088Y-103119567D01*
X162228871Y-103084081D01*
X162249052Y-103050412D01*
X162272436Y-103018883D01*
X162298797Y-102989797D01*
X162327883Y-102963436D01*
X162359412Y-102940052D01*
X162393081Y-102919871D01*
X162428567Y-102903088D01*
X162465526Y-102889864D01*
X162503604Y-102880326D01*
X162542433Y-102874566D01*
X162581640Y-102872640D01*
X163381640Y-102872640D01*
X163420847Y-102874566D01*
X163420847Y-102874566D01*
G37*
D16*
G04 #@! TD*
G04 #@! TO.P,U5,7*
G04 #@! TO.N,Net-(U5-Pad7)*
X162981640Y-103672640D03*
D17*
G04 #@! TO.P,U6,7*
G04 #@! TO.N,Net-(J1-Pad18)*
X150022560Y-118353840D03*
G04 #@! TO.P,U6,6*
G04 #@! TO.N,Net-(J1-Pad7)*
X147482560Y-118353840D03*
G04 #@! TO.P,U6,5*
G04 #@! TO.N,Net-(J1-Pad16)*
X144942560Y-118353840D03*
G04 #@! TO.P,U6,4*
G04 #@! TO.N,Net-(J1-Pad35)*
X142402560Y-118358920D03*
G04 #@! TO.P,U6,3*
G04 #@! TO.N,Net-(J1-Pad37)*
X139862560Y-118358920D03*
G04 #@! TO.P,U6,8*
G04 #@! TO.N,Net-(J1-Pad32)*
X152562560Y-118353840D03*
G04 #@! TO.P,U6,9*
G04 #@! TO.N,Net-(J1-Pad34)*
X155102560Y-118353840D03*
G04 #@! TO.P,U6,11*
G04 #@! TO.N,Net-(U4-Pad5)*
X160182560Y-118353840D03*
G04 #@! TO.P,U6,10*
G04 #@! TO.N,Net-(U4-Pad4)*
X157642560Y-118353840D03*
G04 #@! TO.P,U6,2*
G04 #@! TO.N,Net-(J1-Pad29)*
X137322560Y-118353840D03*
G04 #@! TO.P,U6,1*
G04 #@! TO.N,Net-(J1-Pad38)*
X134782560Y-118358920D03*
G04 #@! TD*
D18*
G04 #@! TO.N,Net-(J1-Pad1)*
X129270760Y-78816200D03*
G04 #@! TO.N,Net-(J1-Pad7)*
X138912600Y-68798440D03*
G04 #@! TO.N,Net-(J1-Pad12)*
X153217880Y-66227960D03*
X161025840Y-59994800D03*
G04 #@! TO.N,Net-(J1-Pad13)*
X132953760Y-76169520D03*
G04 #@! TO.N,Net-(J1-Pad16)*
X139715240Y-71470520D03*
G04 #@! TO.N,Net-(J1-Pad18)*
X149656800Y-78592680D03*
G04 #@! TO.N,Net-(J1-Pad19)*
X139166600Y-80462120D03*
G04 #@! TO.N,Net-(J1-Pad22)*
X143758920Y-80624680D03*
G04 #@! TO.N,Net-(J1-Pad23)*
X143291560Y-86004400D03*
G04 #@! TO.N,Net-(J1-Pad24)*
X137601960Y-89646760D03*
G04 #@! TO.N,Net-(J1-Pad29)*
X136052560Y-97632520D03*
G04 #@! TO.N,Net-(J1-Pad32)*
X150747560Y-98130360D03*
G04 #@! TO.N,Net-(J1-Pad33)*
X169351960Y-57363360D03*
X154863800Y-97652840D03*
G04 #@! TO.N,Net-(J1-Pad34)*
X153436320Y-99227640D03*
X164525960Y-59187080D03*
X144658080Y-91389200D03*
X127431800Y-71353680D03*
X129910840Y-102285800D03*
X130022600Y-68193920D03*
G04 #@! TO.N,Net-(J1-Pad35)*
X140985240Y-109479080D03*
G04 #@! TO.N,Net-(J1-Pad37)*
X138765280Y-110408720D03*
G04 #@! TO.N,Net-(J1-Pad38)*
X129504440Y-108493560D03*
G04 #@! TO.N,Net-(SW1-Pad3)*
X169504360Y-80746600D03*
G04 #@! TO.N,Net-(R1-Pad2)*
X128447800Y-80497680D03*
G04 #@! TO.N,Net-(U4-Pad4)*
X126583440Y-105008680D03*
X156265880Y-112842040D03*
G04 #@! TO.N,Net-(U4-Pad5)*
X158821120Y-111434880D03*
G04 #@! TO.N,Net-(U5-Pad1)*
X167065960Y-112821720D03*
G04 #@! TO.N,Net-(R2-Pad1)*
X175503840Y-107513120D03*
G04 #@! TD*
D19*
G04 #@! TO.N,Net-(J1-Pad1)*
X134073960Y-80685640D02*
X133230680Y-79842360D01*
X135823960Y-80685640D02*
X134073960Y-80685640D01*
X130296920Y-79842360D02*
X129270760Y-78816200D01*
X133111240Y-79842360D02*
X130296920Y-79842360D01*
X133154420Y-79885540D02*
X133111240Y-79842360D01*
X135823960Y-79885540D02*
X133154420Y-79885540D01*
X133230680Y-79842360D02*
X133111240Y-79842360D01*
G04 #@! TO.N,Net-(J1-Pad7)*
X147482560Y-117615840D02*
X148021040Y-117077360D01*
X147482560Y-118353840D02*
X147482560Y-117615840D01*
X148021040Y-117077360D02*
X148021040Y-76305240D01*
X140114241Y-68398441D02*
X140280560Y-68564760D01*
X138912600Y-68798440D02*
X139312599Y-68398441D01*
X139312599Y-68398441D02*
X140114241Y-68398441D01*
X148021040Y-76305240D02*
X140280560Y-68564760D01*
G04 #@! TO.N,Net-(J1-Pad12)*
X159451040Y-59994800D02*
X161025840Y-59994800D01*
X153217880Y-66227960D02*
X159451040Y-59994800D01*
G04 #@! TO.N,Net-(J1-Pad13)*
X132953760Y-75272960D02*
X132953760Y-76169520D01*
X133987600Y-74239120D02*
X132953760Y-75272960D01*
X135737600Y-74239120D02*
X133987600Y-74239120D01*
G04 #@! TO.N,Net-(J1-Pad16)*
X144942560Y-116603840D02*
X146745960Y-114800440D01*
X144942560Y-118353840D02*
X144942560Y-116603840D01*
X146745960Y-114800440D02*
X146745960Y-76753720D01*
X141862759Y-71870519D02*
X142346680Y-72354440D01*
X140115239Y-71870519D02*
X141862759Y-71870519D01*
X139715240Y-71470520D02*
X140115239Y-71870519D01*
X146745960Y-76753720D02*
X142346680Y-72354440D01*
G04 #@! TO.N,Net-(J1-Pad18)*
X150022560Y-78958440D02*
X149656800Y-78592680D01*
X150022560Y-118353840D02*
X150022560Y-78958440D01*
G04 #@! TO.N,Net-(J1-Pad19)*
X139166600Y-79077880D02*
X139166600Y-80462120D01*
X137573960Y-77485240D02*
X139166600Y-79077880D01*
X135823960Y-77485240D02*
X137573960Y-77485240D01*
G04 #@! TO.N,Net-(J1-Pad22)*
X141325600Y-75839320D02*
X135737600Y-75839320D01*
X143758920Y-80624680D02*
X143758920Y-79221190D01*
X143758920Y-79221190D02*
X143418560Y-78880830D01*
X143418560Y-78880830D02*
X143418560Y-77932280D01*
X143418560Y-77932280D02*
X141325600Y-75839320D01*
G04 #@! TO.N,Net-(J1-Pad23)*
X137573960Y-75084940D02*
X137815260Y-75326240D01*
X135823960Y-75084940D02*
X137573960Y-75084940D01*
X137815260Y-75326240D02*
X142763240Y-75326240D01*
X142763240Y-75326240D02*
X145044160Y-77607160D01*
X145044160Y-84251800D02*
X143291560Y-86004400D01*
X145044160Y-77607160D02*
X145044160Y-84251800D01*
G04 #@! TO.N,Net-(J1-Pad24)*
X137573960Y-76685140D02*
X137860980Y-76972160D01*
X135823960Y-76685140D02*
X137573960Y-76685140D01*
X137860980Y-76972160D02*
X140873480Y-76972160D01*
X140873480Y-76972160D02*
X142707360Y-78806040D01*
X142707360Y-78806040D02*
X142707360Y-82834480D01*
X137601960Y-87939880D02*
X137601960Y-89646760D01*
X142707360Y-82834480D02*
X137601960Y-87939880D01*
G04 #@! TO.N,Net-(J1-Pad29)*
X136452559Y-97232521D02*
X136805721Y-97232521D01*
X136805721Y-97232521D02*
X137322560Y-97749360D01*
X136052560Y-97632520D02*
X136452559Y-97232521D01*
X137322560Y-118353840D02*
X137322560Y-97749360D01*
G04 #@! TO.N,Net-(J1-Pad32)*
X152562560Y-116603840D02*
X151902160Y-115943440D01*
X152562560Y-118353840D02*
X152562560Y-116603840D01*
X150747560Y-98130360D02*
X151561800Y-98130360D01*
X151561800Y-98130360D02*
X151902160Y-98470720D01*
X151902160Y-115943440D02*
X151902160Y-98470720D01*
G04 #@! TO.N,Net-(J1-Pad33)*
X154863800Y-71851520D02*
X154863800Y-97652840D01*
X169351960Y-57363360D02*
X154863800Y-71851520D01*
G04 #@! TO.N,Net-(J1-Pad34)*
X135823960Y-79085440D02*
X131739640Y-79085440D01*
X134073960Y-73484740D02*
X133233220Y-72644000D01*
X135823960Y-73484740D02*
X134073960Y-73484740D01*
X130053080Y-72644000D02*
X128371600Y-70962520D01*
X133233220Y-72644000D02*
X130053080Y-72644000D01*
X131739640Y-79085440D02*
X131739640Y-79054960D01*
X130053080Y-77368400D02*
X130053080Y-72644000D01*
X131739640Y-79054960D02*
X130053080Y-77368400D01*
X155102560Y-100893880D02*
X153436320Y-99227640D01*
X155102560Y-118353840D02*
X155102560Y-100893880D01*
X153436320Y-99227640D02*
X153436320Y-69239090D01*
X153436320Y-69239090D02*
X139948920Y-55751690D01*
X139948920Y-55751690D02*
X129663230Y-55751690D01*
X129663230Y-55751690D02*
X128148080Y-57266840D01*
X128148080Y-57266840D02*
X128148080Y-61630560D01*
X154473950Y-69239090D02*
X164525960Y-59187080D01*
X153436320Y-69239090D02*
X154473950Y-69239090D01*
X128391920Y-90825320D02*
X129733040Y-90825320D01*
X129733040Y-90825320D02*
X130743960Y-89814400D01*
X130743960Y-89814400D02*
X136027160Y-89814400D01*
X136027160Y-89814400D02*
X137546080Y-91333320D01*
X144602200Y-91333320D02*
X144658080Y-91389200D01*
X137546080Y-91333320D02*
X144602200Y-91333320D01*
X128141679Y-70953681D02*
X128371600Y-70723760D01*
X127831799Y-70953681D02*
X128141679Y-70953681D01*
X127431800Y-71353680D02*
X127831799Y-70953681D01*
X128371600Y-70962520D02*
X128371600Y-70723760D01*
X128371600Y-70723760D02*
X128371600Y-69250560D01*
X167308087Y-104426193D02*
X166932167Y-104426193D01*
X168061640Y-103672640D02*
X167308087Y-104426193D01*
X166932167Y-104426193D02*
X166156640Y-105201720D01*
X159410400Y-105201720D02*
X155102560Y-100893880D01*
X166156640Y-105201720D02*
X159410400Y-105201720D01*
X128386840Y-90820240D02*
X126329440Y-90820240D01*
X128391920Y-90825320D02*
X128386840Y-90820240D01*
X129428240Y-91861640D02*
X128391920Y-90825320D01*
X129428240Y-91861640D02*
X129428240Y-101803200D01*
X129428240Y-101803200D02*
X129910840Y-102285800D01*
X128965960Y-69250560D02*
X130022600Y-68193920D01*
X128371600Y-69250560D02*
X128965960Y-69250560D01*
X128148080Y-69027040D02*
X128371600Y-69250560D01*
X128148080Y-61630560D02*
X128148080Y-69027040D01*
G04 #@! TO.N,Net-(J1-Pad35)*
X141532559Y-109879079D02*
X142402560Y-110749080D01*
X142402560Y-118358920D02*
X142402560Y-110749080D01*
X141385239Y-109879079D02*
X141532559Y-109879079D01*
X140985240Y-109479080D02*
X141385239Y-109879079D01*
G04 #@! TO.N,Net-(J1-Pad37)*
X139429439Y-110808719D02*
X139862560Y-111241840D01*
X139165279Y-110808719D02*
X139429439Y-110808719D01*
X138765280Y-110408720D02*
X139165279Y-110808719D01*
X139862560Y-118358920D02*
X139862560Y-111241840D01*
G04 #@! TO.N,Net-(J1-Pad38)*
X133770560Y-118358920D02*
X128554480Y-113142840D01*
X134782560Y-118358920D02*
X133770560Y-118358920D01*
X128554480Y-109443520D02*
X128554480Y-110347760D01*
X129504440Y-108493560D02*
X128554480Y-109443520D01*
X128554480Y-113142840D02*
X128554480Y-110347760D01*
G04 #@! TO.N,Net-(SW1-Pad3)*
X165521640Y-84729320D02*
X169504360Y-80746600D01*
X165521640Y-103672640D02*
X165521640Y-84729320D01*
G04 #@! TO.N,Net-(R1-Pad2)*
X134073960Y-82285840D02*
X134063800Y-82296000D01*
X135823960Y-82285840D02*
X134073960Y-82285840D01*
X132270500Y-82296000D02*
X131460240Y-81485740D01*
X135823960Y-81485740D02*
X131460240Y-81485740D01*
X134073960Y-83085940D02*
X134071420Y-83083400D01*
X135823960Y-83085940D02*
X134073960Y-83085940D01*
X133141720Y-83083400D02*
X132354320Y-82296000D01*
X134071420Y-83083400D02*
X133141720Y-83083400D01*
X132354320Y-82296000D02*
X132270500Y-82296000D01*
X134063800Y-82296000D02*
X132354320Y-82296000D01*
X134073960Y-83886040D02*
X134063800Y-83896200D01*
X135823960Y-83886040D02*
X134073960Y-83886040D01*
X133954520Y-83896200D02*
X133141720Y-83083400D01*
X134063800Y-83896200D02*
X133954520Y-83896200D01*
X129343099Y-80897679D02*
X129931160Y-81485740D01*
X128847799Y-80897679D02*
X129343099Y-80897679D01*
X128447800Y-80497680D02*
X128847799Y-80897679D01*
X131460240Y-81485740D02*
X129931160Y-81485740D01*
G04 #@! TO.N,Net-(U4-Pad4)*
X126183441Y-104608681D02*
X126183441Y-102978001D01*
X126583440Y-105008680D02*
X126183441Y-104608681D01*
X126183441Y-102978001D02*
X123555760Y-100350320D01*
X123555760Y-99613720D02*
X126329440Y-96840040D01*
X123555760Y-100350320D02*
X123555760Y-99613720D01*
X157214519Y-113242039D02*
X157642560Y-113670080D01*
X156665879Y-113242039D02*
X157214519Y-113242039D01*
X156265880Y-112842040D02*
X156665879Y-113242039D01*
X157642560Y-118353840D02*
X157642560Y-113670080D01*
G04 #@! TO.N,Net-(U4-Pad5)*
X160182560Y-116603840D02*
X160187640Y-116598760D01*
X160182560Y-118353840D02*
X160182560Y-116603840D01*
X159566559Y-111834879D02*
X160187640Y-112455960D01*
X159221119Y-111834879D02*
X159566559Y-111834879D01*
X158821120Y-111434880D02*
X159221119Y-111834879D01*
X160187640Y-116598760D02*
X160187640Y-112455960D01*
G04 #@! TO.N,Net-(U2-Pad1)*
X170601640Y-98394520D02*
X170601640Y-103672640D01*
X174457360Y-94538800D02*
X170601640Y-98394520D01*
G04 #@! TO.N,Net-(U2-Pad2)*
X176197361Y-96182079D02*
X173141640Y-99237800D01*
X173141640Y-99237800D02*
X173141640Y-103672640D01*
X176197361Y-95338799D02*
X176197361Y-96182079D01*
X176997360Y-94538800D02*
X176197361Y-95338799D01*
G04 #@! TO.N,Net-(U5-Pad1)*
X178221640Y-111302800D02*
X178221640Y-103672640D01*
X176702720Y-112821720D02*
X178221640Y-111302800D01*
X167065960Y-112821720D02*
X176702720Y-112821720D01*
G04 #@! TO.N,Net-(R2-Pad1)*
X175503840Y-103850440D02*
X175681640Y-103672640D01*
X175503840Y-107513120D02*
X175503840Y-103850440D01*
G04 #@! TD*
M02*
