G04 #@! TF.GenerationSoftware,KiCad,Pcbnew,5.0.2+dfsg1-1~bpo9+1*
G04 #@! TF.CreationDate,2020-07-27T21:19:22+01:00*
G04 #@! TF.ProjectId,gbc_outline_screen,6762635f-6f75-4746-9c69-6e655f736372,rev?*
G04 #@! TF.SameCoordinates,Original*
G04 #@! TF.FileFunction,Legend,Bot*
G04 #@! TF.FilePolarity,Positive*
%FSLAX46Y46*%
G04 Gerber Fmt 4.6, Leading zero omitted, Abs format (unit mm)*
G04 Created by KiCad (PCBNEW 5.0.2+dfsg1-1~bpo9+1) date Mon 27 Jul 2020 21:19:22 BST*
%MOMM*%
%LPD*%
G01*
G04 APERTURE LIST*
%ADD10C,0.150000*%
%ADD11C,0.120000*%
G04 APERTURE END LIST*
D10*
G04 #@! TO.C,J1*
X129336800Y-111663480D02*
X129336800Y-61371480D01*
X129336800Y-119029480D02*
X129336800Y-111663480D01*
X129336800Y-119029480D02*
X159308800Y-119029480D01*
X129336800Y-54005480D02*
X129336800Y-61371480D01*
X129336800Y-54005480D02*
X159308800Y-54005480D01*
X159308800Y-54005480D02*
X159308800Y-119029480D01*
X159308800Y-72420480D02*
X151688800Y-72420480D01*
X151688800Y-72420480D02*
X151688800Y-61244480D01*
X151688800Y-61244480D02*
X159308800Y-61244480D01*
X159308800Y-103789480D02*
X153720800Y-103789480D01*
X153720800Y-103789480D02*
X153720800Y-111536480D01*
X153720800Y-111536480D02*
X159308800Y-111536480D01*
X159308800Y-91851480D02*
X153720800Y-91851480D01*
X153720800Y-91851480D02*
X153720800Y-99852480D01*
X153720800Y-99852480D02*
X159308800Y-99852480D01*
X157911800Y-57434480D02*
G75*
G03X157911800Y-57434480I-2159000J0D01*
G01*
X135051800Y-57434480D02*
G75*
G03X135051800Y-57434480I-2159000J0D01*
G01*
X135051800Y-115600480D02*
G75*
G03X135051800Y-115600480I-2159000J0D01*
G01*
X157911800Y-115600480D02*
G75*
G03X157911800Y-115600480I-2159000J0D01*
G01*
X147942300Y-51528980D02*
X136893300Y-51528980D01*
X136893300Y-51528980D02*
X136893300Y-54005480D01*
X147942300Y-51528980D02*
X147942300Y-54005480D01*
X135686800Y-119981980D02*
X152704800Y-119981980D01*
X152704800Y-119981980D02*
X152704800Y-119029480D01*
X135686800Y-119981980D02*
X135686800Y-119029480D01*
G04 #@! TO.C,U7*
X113832640Y-75529440D02*
X113832640Y-85689440D01*
D11*
G04 #@! TO.C,R2*
X120062236Y-72974880D02*
X121266364Y-72974880D01*
X120062236Y-71154880D02*
X121266364Y-71154880D01*
D10*
G04 #@! TO.C,SW1*
X179892960Y-87640160D02*
X176281080Y-87640160D01*
X176281080Y-87640160D02*
X176291240Y-87640160D01*
X179903120Y-78638400D02*
X176291240Y-78638400D01*
X176291240Y-78638400D02*
X176291240Y-87645240D01*
X179903120Y-78638400D02*
X179903120Y-87645240D01*
X179892960Y-85135720D02*
X182895240Y-85140800D01*
X179913280Y-81142840D02*
X182915560Y-81147920D01*
X182910480Y-81147920D02*
X182910480Y-85135720D01*
X179908200Y-83134200D02*
X182910480Y-83139280D01*
D11*
G04 #@! TO.C,R1*
X126481160Y-74144116D02*
X126481160Y-75348244D01*
X128301160Y-74144116D02*
X128301160Y-75348244D01*
D10*
G04 #@! TO.C,U3*
X160830260Y-55877460D02*
X160830260Y-77581760D01*
X160830260Y-77581760D02*
X179067460Y-77581760D01*
X179067460Y-77581760D02*
X179067460Y-55877460D01*
X179067460Y-55877460D02*
X160830260Y-55877460D01*
G04 #@! TO.C,U4*
X124139036Y-94820740D02*
G75*
G03X124139036Y-94820740I-6962948J0D01*
G01*
D11*
G04 #@! TO.C,R3*
X120262236Y-67233120D02*
X121466364Y-67233120D01*
X120262236Y-69053120D02*
X121466364Y-69053120D01*
G04 #@! TO.C,J1*
D10*
X158364180Y-65237241D02*
X157364180Y-65237241D01*
X157840371Y-65237241D02*
X157840371Y-65808670D01*
X158364180Y-65808670D02*
X157364180Y-65808670D01*
X158364180Y-66284860D02*
X157364180Y-66284860D01*
X157364180Y-66522956D01*
X157411800Y-66665813D01*
X157507038Y-66761051D01*
X157602276Y-66808670D01*
X157792752Y-66856289D01*
X157935609Y-66856289D01*
X158126085Y-66808670D01*
X158221323Y-66761051D01*
X158316561Y-66665813D01*
X158364180Y-66522956D01*
X158364180Y-66284860D01*
X158364180Y-67284860D02*
X157364180Y-67284860D01*
X158078466Y-67618194D01*
X157364180Y-67951527D01*
X158364180Y-67951527D01*
X158364180Y-68427718D02*
X157364180Y-68427718D01*
X157745180Y-94939289D02*
X157745180Y-95129765D01*
X157792800Y-95225003D01*
X157888038Y-95320241D01*
X158078514Y-95367860D01*
X158411847Y-95367860D01*
X158602323Y-95320241D01*
X158697561Y-95225003D01*
X158745180Y-95129765D01*
X158745180Y-94939289D01*
X158697561Y-94844051D01*
X158602323Y-94748813D01*
X158411847Y-94701194D01*
X158078514Y-94701194D01*
X157888038Y-94748813D01*
X157792800Y-94844051D01*
X157745180Y-94939289D01*
X157745180Y-95653575D02*
X157745180Y-96225003D01*
X158745180Y-95939289D02*
X157745180Y-95939289D01*
X157792800Y-97082146D02*
X157745180Y-96986908D01*
X157745180Y-96844051D01*
X157792800Y-96701194D01*
X157888038Y-96605956D01*
X157983276Y-96558337D01*
X158173752Y-96510718D01*
X158316609Y-96510718D01*
X158507085Y-96558337D01*
X158602323Y-96605956D01*
X158697561Y-96701194D01*
X158745180Y-96844051D01*
X158745180Y-96939289D01*
X158697561Y-97082146D01*
X158649942Y-97129765D01*
X158316609Y-97129765D01*
X158316609Y-96939289D01*
X158618180Y-106393146D02*
X157618180Y-106393146D01*
X157618180Y-106774099D01*
X157665800Y-106869337D01*
X157713419Y-106916956D01*
X157808657Y-106964575D01*
X157951514Y-106964575D01*
X158046752Y-106916956D01*
X158094371Y-106869337D01*
X158141990Y-106774099D01*
X158141990Y-106393146D01*
X157618180Y-107297908D02*
X158618180Y-107536003D01*
X157903895Y-107726480D01*
X158618180Y-107916956D01*
X157618180Y-108155051D01*
X158618180Y-109107432D02*
X158141990Y-108774099D01*
X158618180Y-108536003D02*
X157618180Y-108536003D01*
X157618180Y-108916956D01*
X157665800Y-109012194D01*
X157713419Y-109059813D01*
X157808657Y-109107432D01*
X157951514Y-109107432D01*
X158046752Y-109059813D01*
X158094371Y-109012194D01*
X158141990Y-108916956D01*
X158141990Y-108536003D01*
G04 #@! TO.C,U3*
X166100593Y-59466740D02*
X166576783Y-59466740D01*
X166576783Y-58466740D01*
X165148212Y-58466740D02*
X164576783Y-58466740D01*
X164862498Y-59466740D02*
X164862498Y-58466740D01*
X162910117Y-59466740D02*
X163243450Y-58990550D01*
X163481545Y-59466740D02*
X163481545Y-58466740D01*
X163100593Y-58466740D01*
X163005355Y-58514360D01*
X162957736Y-58561979D01*
X162910117Y-58657217D01*
X162910117Y-58800074D01*
X162957736Y-58895312D01*
X163005355Y-58942931D01*
X163100593Y-58990550D01*
X163481545Y-58990550D01*
X177540112Y-58996888D02*
X176778207Y-58996888D01*
X177159160Y-59377840D02*
X177159160Y-58615936D01*
X175540112Y-58996888D02*
X174778207Y-58996888D01*
X172863117Y-76408540D02*
X173339307Y-76408540D01*
X173339307Y-75408540D01*
X170815498Y-75408540D02*
X170625021Y-75408540D01*
X170529783Y-75456160D01*
X170434545Y-75551398D01*
X170386926Y-75741874D01*
X170386926Y-76075207D01*
X170434545Y-76265683D01*
X170529783Y-76360921D01*
X170625021Y-76408540D01*
X170815498Y-76408540D01*
X170910736Y-76360921D01*
X171005974Y-76265683D01*
X171053593Y-76075207D01*
X171053593Y-75741874D01*
X171005974Y-75551398D01*
X170910736Y-75456160D01*
X170815498Y-75408540D01*
X169958355Y-75408540D02*
X169958355Y-76218064D01*
X169910736Y-76313302D01*
X169863117Y-76360921D01*
X169767879Y-76408540D01*
X169577402Y-76408540D01*
X169482164Y-76360921D01*
X169434545Y-76313302D01*
X169386926Y-76218064D01*
X169386926Y-75408540D01*
X169053593Y-75408540D02*
X168482164Y-75408540D01*
X168767879Y-76408540D02*
X168767879Y-75408540D01*
X166053593Y-76408540D02*
X166386926Y-75932350D01*
X166625021Y-76408540D02*
X166625021Y-75408540D01*
X166244069Y-75408540D01*
X166148831Y-75456160D01*
X166101212Y-75503779D01*
X166053593Y-75599017D01*
X166053593Y-75741874D01*
X166101212Y-75837112D01*
X166148831Y-75884731D01*
X166244069Y-75932350D01*
X166625021Y-75932350D01*
X164776612Y-74516288D02*
X164014707Y-74516288D01*
X162776612Y-74516288D02*
X162014707Y-74516288D01*
X162395660Y-74897240D02*
X162395660Y-74135336D01*
X177502012Y-74440088D02*
X176740107Y-74440088D01*
X177121060Y-74821040D02*
X177121060Y-74059136D01*
X175502012Y-74440088D02*
X174740107Y-74440088D01*
X172996836Y-56561740D02*
X173473026Y-56561740D01*
X173520645Y-57037931D01*
X173473026Y-56990312D01*
X173377788Y-56942693D01*
X173139693Y-56942693D01*
X173044455Y-56990312D01*
X172996836Y-57037931D01*
X172949217Y-57133169D01*
X172949217Y-57371264D01*
X172996836Y-57466502D01*
X173044455Y-57514121D01*
X173139693Y-57561740D01*
X173377788Y-57561740D01*
X173473026Y-57514121D01*
X173520645Y-57466502D01*
X172663502Y-56561740D02*
X172330169Y-57561740D01*
X171996836Y-56561740D01*
G04 #@! TD*
M02*
