M48
METRIC,TZ
T1C0.400
T2C0.900
T3C1.000
T4C1.200
T5C2.200
%
G90
G05
T1
X121727Y-83002
X122890Y-113114
X126583Y-105009
X127432Y-71354
X128448Y-80498
X129271Y-78816
X129504Y-108494
X129911Y-102286
X130023Y-68194
X132954Y-76170
X136053Y-97633
X137602Y-89647
X138765Y-110409
X138913Y-68798
X139167Y-80462
X139715Y-71471
X140985Y-109479
X143292Y-86004
X143759Y-80625
X149657Y-78593
X150748Y-98130
X153436Y-99228
X156266Y-112842
X158821Y-111435
X162110Y-115286
X168054Y-81077
X173299Y-110289
T2
X126329Y-90820
X126329Y-92827
X126329Y-94833
X126329Y-96840
X126329Y-98847
T3
X174457Y-94539
X176997Y-94539
T4
X115204Y-100002
X115217Y-89665
X114978Y-76345
X114978Y-84981
X118775Y-76345
X118775Y-84981
T5
X116274Y-62969
X181679Y-106149
X181679Y-61953
X116286Y-106152
T0
M30
