G04 #@! TF.GenerationSoftware,KiCad,Pcbnew,5.0.2+dfsg1-1~bpo9+1*
G04 #@! TF.CreationDate,2020-11-02T20:14:28+00:00*
G04 #@! TF.ProjectId,gbc_outline_screen_new,6762635f-6f75-4746-9c69-6e655f736372,rev?*
G04 #@! TF.SameCoordinates,Original*
G04 #@! TF.FileFunction,Soldermask,Bot*
G04 #@! TF.FilePolarity,Negative*
%FSLAX46Y46*%
G04 Gerber Fmt 4.6, Leading zero omitted, Abs format (unit mm)*
G04 Created by KiCad (PCBNEW 5.0.2+dfsg1-1~bpo9+1) date Mon 02 Nov 2020 20:14:28 GMT*
%MOMM*%
%LPD*%
G01*
G04 APERTURE LIST*
%ADD10C,0.100000*%
G04 APERTURE END LIST*
D10*
G36*
X134721498Y-109804048D02*
X134789484Y-109824671D01*
X134852137Y-109858160D01*
X134907052Y-109903228D01*
X134952120Y-109958143D01*
X134985609Y-110020796D01*
X135006232Y-110088782D01*
X135013800Y-110165620D01*
X135013800Y-111129340D01*
X135006232Y-111206178D01*
X134985609Y-111274164D01*
X134952120Y-111336817D01*
X134907052Y-111391732D01*
X134852137Y-111436800D01*
X134789484Y-111470289D01*
X134721498Y-111490912D01*
X134644660Y-111498480D01*
X133680940Y-111498480D01*
X133604102Y-111490912D01*
X133536116Y-111470289D01*
X133473463Y-111436800D01*
X133418548Y-111391732D01*
X133373480Y-111336817D01*
X133339991Y-111274164D01*
X133319368Y-111206178D01*
X133311800Y-111129340D01*
X133311800Y-110165620D01*
X133319368Y-110088782D01*
X133339991Y-110020796D01*
X133373480Y-109958143D01*
X133418548Y-109903228D01*
X133473463Y-109858160D01*
X133536116Y-109824671D01*
X133604102Y-109804048D01*
X133680940Y-109796480D01*
X134644660Y-109796480D01*
X134721498Y-109804048D01*
X134721498Y-109804048D01*
G37*
G36*
X132181498Y-109804048D02*
X132249484Y-109824671D01*
X132312137Y-109858160D01*
X132367052Y-109903228D01*
X132412120Y-109958143D01*
X132445609Y-110020796D01*
X132466232Y-110088782D01*
X132473800Y-110165620D01*
X132473800Y-111129340D01*
X132466232Y-111206178D01*
X132445609Y-111274164D01*
X132412120Y-111336817D01*
X132367052Y-111391732D01*
X132312137Y-111436800D01*
X132249484Y-111470289D01*
X132181498Y-111490912D01*
X132104660Y-111498480D01*
X131140940Y-111498480D01*
X131064102Y-111490912D01*
X130996116Y-111470289D01*
X130933463Y-111436800D01*
X130878548Y-111391732D01*
X130833480Y-111336817D01*
X130799991Y-111274164D01*
X130779368Y-111206178D01*
X130771800Y-111129340D01*
X130771800Y-110165620D01*
X130779368Y-110088782D01*
X130799991Y-110020796D01*
X130833480Y-109958143D01*
X130878548Y-109903228D01*
X130933463Y-109858160D01*
X130996116Y-109824671D01*
X131064102Y-109804048D01*
X131140940Y-109796480D01*
X132104660Y-109796480D01*
X132181498Y-109804048D01*
X132181498Y-109804048D01*
G37*
G36*
X132181498Y-107264048D02*
X132249484Y-107284671D01*
X132312137Y-107318160D01*
X132367052Y-107363228D01*
X132412120Y-107418143D01*
X132445609Y-107480796D01*
X132466232Y-107548782D01*
X132473800Y-107625620D01*
X132473800Y-108589340D01*
X132466232Y-108666178D01*
X132445609Y-108734164D01*
X132412120Y-108796817D01*
X132367052Y-108851732D01*
X132312137Y-108896800D01*
X132249484Y-108930289D01*
X132181498Y-108950912D01*
X132104660Y-108958480D01*
X131140940Y-108958480D01*
X131064102Y-108950912D01*
X130996116Y-108930289D01*
X130933463Y-108896800D01*
X130878548Y-108851732D01*
X130833480Y-108796817D01*
X130799991Y-108734164D01*
X130779368Y-108666178D01*
X130771800Y-108589340D01*
X130771800Y-107625620D01*
X130779368Y-107548782D01*
X130799991Y-107480796D01*
X130833480Y-107418143D01*
X130878548Y-107363228D01*
X130933463Y-107318160D01*
X130996116Y-107284671D01*
X131064102Y-107264048D01*
X131140940Y-107256480D01*
X132104660Y-107256480D01*
X132181498Y-107264048D01*
X132181498Y-107264048D01*
G37*
G36*
X134721498Y-107264048D02*
X134789484Y-107284671D01*
X134852137Y-107318160D01*
X134907052Y-107363228D01*
X134952120Y-107418143D01*
X134985609Y-107480796D01*
X135006232Y-107548782D01*
X135013800Y-107625620D01*
X135013800Y-108589340D01*
X135006232Y-108666178D01*
X134985609Y-108734164D01*
X134952120Y-108796817D01*
X134907052Y-108851732D01*
X134852137Y-108896800D01*
X134789484Y-108930289D01*
X134721498Y-108950912D01*
X134644660Y-108958480D01*
X133680940Y-108958480D01*
X133604102Y-108950912D01*
X133536116Y-108930289D01*
X133473463Y-108896800D01*
X133418548Y-108851732D01*
X133373480Y-108796817D01*
X133339991Y-108734164D01*
X133319368Y-108666178D01*
X133311800Y-108589340D01*
X133311800Y-107625620D01*
X133319368Y-107548782D01*
X133339991Y-107480796D01*
X133373480Y-107418143D01*
X133418548Y-107363228D01*
X133473463Y-107318160D01*
X133536116Y-107284671D01*
X133604102Y-107264048D01*
X133680940Y-107256480D01*
X134644660Y-107256480D01*
X134721498Y-107264048D01*
X134721498Y-107264048D01*
G37*
G36*
X116709518Y-104756440D02*
X116709520Y-104756441D01*
X116709521Y-104756441D01*
X116973586Y-104865820D01*
X117033098Y-104905585D01*
X117211242Y-105024617D01*
X117413343Y-105226718D01*
X117413345Y-105226721D01*
X117572140Y-105464374D01*
X117680467Y-105725899D01*
X117681520Y-105728442D01*
X117737280Y-106008768D01*
X117737280Y-106294592D01*
X117682025Y-106572381D01*
X117681519Y-106574921D01*
X117572140Y-106838986D01*
X117572139Y-106838987D01*
X117413343Y-107076642D01*
X117211242Y-107278743D01*
X117211239Y-107278745D01*
X116973586Y-107437540D01*
X116709521Y-107546919D01*
X116709520Y-107546919D01*
X116709518Y-107546920D01*
X116429192Y-107602680D01*
X116143368Y-107602680D01*
X115863042Y-107546920D01*
X115863040Y-107546919D01*
X115863039Y-107546919D01*
X115598974Y-107437540D01*
X115361321Y-107278745D01*
X115361318Y-107278743D01*
X115159217Y-107076642D01*
X115000421Y-106838987D01*
X115000420Y-106838986D01*
X114891041Y-106574921D01*
X114890536Y-106572381D01*
X114835280Y-106294592D01*
X114835280Y-106008768D01*
X114891040Y-105728442D01*
X114892093Y-105725899D01*
X115000420Y-105464374D01*
X115159215Y-105226721D01*
X115159217Y-105226718D01*
X115361318Y-105024617D01*
X115539462Y-104905585D01*
X115598974Y-104865820D01*
X115863039Y-104756441D01*
X115863040Y-104756441D01*
X115863042Y-104756440D01*
X116143368Y-104700680D01*
X116429192Y-104700680D01*
X116709518Y-104756440D01*
X116709518Y-104756440D01*
G37*
G36*
X182101818Y-104753900D02*
X182101820Y-104753901D01*
X182101821Y-104753901D01*
X182365886Y-104863280D01*
X182539294Y-104979148D01*
X182603542Y-105022077D01*
X182805643Y-105224178D01*
X182805645Y-105224181D01*
X182964440Y-105461834D01*
X182965492Y-105464374D01*
X183073820Y-105725902D01*
X183129580Y-106006228D01*
X183129580Y-106292052D01*
X183110040Y-106390289D01*
X183073819Y-106572381D01*
X182964440Y-106836446D01*
X182962742Y-106838987D01*
X182805643Y-107074102D01*
X182603542Y-107276203D01*
X182603539Y-107276205D01*
X182365886Y-107435000D01*
X182101821Y-107544379D01*
X182101820Y-107544379D01*
X182101818Y-107544380D01*
X181821492Y-107600140D01*
X181535668Y-107600140D01*
X181255342Y-107544380D01*
X181255340Y-107544379D01*
X181255339Y-107544379D01*
X180991274Y-107435000D01*
X180753621Y-107276205D01*
X180753618Y-107276203D01*
X180551517Y-107074102D01*
X180394418Y-106838987D01*
X180392720Y-106836446D01*
X180283341Y-106572381D01*
X180247121Y-106390289D01*
X180227580Y-106292052D01*
X180227580Y-106006228D01*
X180283340Y-105725902D01*
X180391668Y-105464374D01*
X180392720Y-105461834D01*
X180551515Y-105224181D01*
X180551517Y-105224178D01*
X180753618Y-105022077D01*
X180817866Y-104979148D01*
X180991274Y-104863280D01*
X181255339Y-104753901D01*
X181255340Y-104753901D01*
X181255342Y-104753900D01*
X181535668Y-104698140D01*
X181821492Y-104698140D01*
X182101818Y-104753900D01*
X182101818Y-104753900D01*
G37*
G36*
X134721498Y-104724048D02*
X134789484Y-104744671D01*
X134852137Y-104778160D01*
X134907052Y-104823228D01*
X134952120Y-104878143D01*
X134985609Y-104940796D01*
X135006232Y-105008782D01*
X135013800Y-105085620D01*
X135013800Y-106049340D01*
X135006232Y-106126178D01*
X134985609Y-106194164D01*
X134952120Y-106256817D01*
X134907052Y-106311732D01*
X134852137Y-106356800D01*
X134789484Y-106390289D01*
X134721498Y-106410912D01*
X134644660Y-106418480D01*
X133680940Y-106418480D01*
X133604102Y-106410912D01*
X133536116Y-106390289D01*
X133473463Y-106356800D01*
X133418548Y-106311732D01*
X133373480Y-106256817D01*
X133339991Y-106194164D01*
X133319368Y-106126178D01*
X133311800Y-106049340D01*
X133311800Y-105085620D01*
X133319368Y-105008782D01*
X133339991Y-104940796D01*
X133373480Y-104878143D01*
X133418548Y-104823228D01*
X133473463Y-104778160D01*
X133536116Y-104744671D01*
X133604102Y-104724048D01*
X133680940Y-104716480D01*
X134644660Y-104716480D01*
X134721498Y-104724048D01*
X134721498Y-104724048D01*
G37*
G36*
X132181498Y-104724048D02*
X132249484Y-104744671D01*
X132312137Y-104778160D01*
X132367052Y-104823228D01*
X132412120Y-104878143D01*
X132445609Y-104940796D01*
X132466232Y-105008782D01*
X132473800Y-105085620D01*
X132473800Y-106049340D01*
X132466232Y-106126178D01*
X132445609Y-106194164D01*
X132412120Y-106256817D01*
X132367052Y-106311732D01*
X132312137Y-106356800D01*
X132249484Y-106390289D01*
X132181498Y-106410912D01*
X132104660Y-106418480D01*
X131140940Y-106418480D01*
X131064102Y-106410912D01*
X130996116Y-106390289D01*
X130933463Y-106356800D01*
X130878548Y-106311732D01*
X130833480Y-106256817D01*
X130799991Y-106194164D01*
X130779368Y-106126178D01*
X130771800Y-106049340D01*
X130771800Y-105085620D01*
X130779368Y-105008782D01*
X130799991Y-104940796D01*
X130833480Y-104878143D01*
X130878548Y-104823228D01*
X130933463Y-104778160D01*
X130996116Y-104744671D01*
X131064102Y-104724048D01*
X131140940Y-104716480D01*
X132104660Y-104716480D01*
X132181498Y-104724048D01*
X132181498Y-104724048D01*
G37*
G36*
X132181498Y-102184048D02*
X132249484Y-102204671D01*
X132312137Y-102238160D01*
X132367052Y-102283228D01*
X132412120Y-102338143D01*
X132445609Y-102400796D01*
X132466232Y-102468782D01*
X132473800Y-102545620D01*
X132473800Y-103509340D01*
X132466232Y-103586178D01*
X132445609Y-103654164D01*
X132412120Y-103716817D01*
X132367052Y-103771732D01*
X132312137Y-103816800D01*
X132249484Y-103850289D01*
X132181498Y-103870912D01*
X132104660Y-103878480D01*
X131140940Y-103878480D01*
X131064102Y-103870912D01*
X130996116Y-103850289D01*
X130933463Y-103816800D01*
X130878548Y-103771732D01*
X130833480Y-103716817D01*
X130799991Y-103654164D01*
X130779368Y-103586178D01*
X130771800Y-103509340D01*
X130771800Y-102545620D01*
X130779368Y-102468782D01*
X130799991Y-102400796D01*
X130833480Y-102338143D01*
X130878548Y-102283228D01*
X130933463Y-102238160D01*
X130996116Y-102204671D01*
X131064102Y-102184048D01*
X131140940Y-102176480D01*
X132104660Y-102176480D01*
X132181498Y-102184048D01*
X132181498Y-102184048D01*
G37*
G36*
X134721498Y-102184048D02*
X134789484Y-102204671D01*
X134852137Y-102238160D01*
X134907052Y-102283228D01*
X134952120Y-102338143D01*
X134985609Y-102400796D01*
X135006232Y-102468782D01*
X135013800Y-102545620D01*
X135013800Y-103509340D01*
X135006232Y-103586178D01*
X134985609Y-103654164D01*
X134952120Y-103716817D01*
X134907052Y-103771732D01*
X134852137Y-103816800D01*
X134789484Y-103850289D01*
X134721498Y-103870912D01*
X134644660Y-103878480D01*
X133680940Y-103878480D01*
X133604102Y-103870912D01*
X133536116Y-103850289D01*
X133473463Y-103816800D01*
X133418548Y-103771732D01*
X133373480Y-103716817D01*
X133339991Y-103654164D01*
X133319368Y-103586178D01*
X133311800Y-103509340D01*
X133311800Y-102545620D01*
X133319368Y-102468782D01*
X133339991Y-102400796D01*
X133373480Y-102338143D01*
X133418548Y-102283228D01*
X133473463Y-102238160D01*
X133536116Y-102204671D01*
X133604102Y-102184048D01*
X133680940Y-102176480D01*
X134644660Y-102176480D01*
X134721498Y-102184048D01*
X134721498Y-102184048D01*
G37*
G36*
X134721498Y-99644048D02*
X134789484Y-99664671D01*
X134852137Y-99698160D01*
X134907052Y-99743228D01*
X134952120Y-99798143D01*
X134985609Y-99860796D01*
X135006232Y-99928782D01*
X135013800Y-100005620D01*
X135013800Y-100969340D01*
X135006232Y-101046178D01*
X134985609Y-101114164D01*
X134952120Y-101176817D01*
X134907052Y-101231732D01*
X134852137Y-101276800D01*
X134789484Y-101310289D01*
X134721498Y-101330912D01*
X134644660Y-101338480D01*
X133680940Y-101338480D01*
X133604102Y-101330912D01*
X133536116Y-101310289D01*
X133473463Y-101276800D01*
X133418548Y-101231732D01*
X133373480Y-101176817D01*
X133339991Y-101114164D01*
X133319368Y-101046178D01*
X133311800Y-100969340D01*
X133311800Y-100005620D01*
X133319368Y-99928782D01*
X133339991Y-99860796D01*
X133373480Y-99798143D01*
X133418548Y-99743228D01*
X133473463Y-99698160D01*
X133536116Y-99664671D01*
X133604102Y-99644048D01*
X133680940Y-99636480D01*
X134644660Y-99636480D01*
X134721498Y-99644048D01*
X134721498Y-99644048D01*
G37*
G36*
X132181498Y-99644048D02*
X132249484Y-99664671D01*
X132312137Y-99698160D01*
X132367052Y-99743228D01*
X132412120Y-99798143D01*
X132445609Y-99860796D01*
X132466232Y-99928782D01*
X132473800Y-100005620D01*
X132473800Y-100969340D01*
X132466232Y-101046178D01*
X132445609Y-101114164D01*
X132412120Y-101176817D01*
X132367052Y-101231732D01*
X132312137Y-101276800D01*
X132249484Y-101310289D01*
X132181498Y-101330912D01*
X132104660Y-101338480D01*
X131140940Y-101338480D01*
X131064102Y-101330912D01*
X130996116Y-101310289D01*
X130933463Y-101276800D01*
X130878548Y-101231732D01*
X130833480Y-101176817D01*
X130799991Y-101114164D01*
X130779368Y-101046178D01*
X130771800Y-100969340D01*
X130771800Y-100005620D01*
X130779368Y-99928782D01*
X130799991Y-99860796D01*
X130833480Y-99798143D01*
X130878548Y-99743228D01*
X130933463Y-99698160D01*
X130996116Y-99664671D01*
X131064102Y-99644048D01*
X131140940Y-99636480D01*
X132104660Y-99636480D01*
X132181498Y-99644048D01*
X132181498Y-99644048D01*
G37*
G36*
X115481636Y-99087886D02*
X115654706Y-99159574D01*
X115810470Y-99263652D01*
X115942928Y-99396110D01*
X116047006Y-99551874D01*
X116118694Y-99724944D01*
X116155240Y-99908673D01*
X116155240Y-100096007D01*
X116118694Y-100279736D01*
X116047006Y-100452806D01*
X115942928Y-100608570D01*
X115810470Y-100741028D01*
X115654706Y-100845106D01*
X115481636Y-100916794D01*
X115297907Y-100953340D01*
X115110573Y-100953340D01*
X114926844Y-100916794D01*
X114753774Y-100845106D01*
X114598010Y-100741028D01*
X114465552Y-100608570D01*
X114361474Y-100452806D01*
X114289786Y-100279736D01*
X114253240Y-100096007D01*
X114253240Y-99908673D01*
X114289786Y-99724944D01*
X114361474Y-99551874D01*
X114465552Y-99396110D01*
X114598010Y-99263652D01*
X114753774Y-99159574D01*
X114926844Y-99087886D01*
X115110573Y-99051340D01*
X115297907Y-99051340D01*
X115481636Y-99087886D01*
X115481636Y-99087886D01*
G37*
G36*
X126563083Y-98076421D02*
X126708855Y-98136802D01*
X126840051Y-98224464D01*
X126951616Y-98336029D01*
X127039278Y-98467225D01*
X127099659Y-98612997D01*
X127130440Y-98767747D01*
X127130440Y-98925533D01*
X127099659Y-99080283D01*
X127039278Y-99226055D01*
X126951616Y-99357251D01*
X126840051Y-99468816D01*
X126708855Y-99556478D01*
X126563083Y-99616859D01*
X126408333Y-99647640D01*
X126250547Y-99647640D01*
X126095797Y-99616859D01*
X125950025Y-99556478D01*
X125818829Y-99468816D01*
X125707264Y-99357251D01*
X125619602Y-99226055D01*
X125559221Y-99080283D01*
X125528440Y-98925533D01*
X125528440Y-98767747D01*
X125559221Y-98612997D01*
X125619602Y-98467225D01*
X125707264Y-98336029D01*
X125818829Y-98224464D01*
X125950025Y-98136802D01*
X126095797Y-98076421D01*
X126250547Y-98045640D01*
X126408333Y-98045640D01*
X126563083Y-98076421D01*
X126563083Y-98076421D01*
G37*
G36*
X132181498Y-97104048D02*
X132249484Y-97124671D01*
X132312137Y-97158160D01*
X132367052Y-97203228D01*
X132412120Y-97258143D01*
X132445609Y-97320796D01*
X132466232Y-97388782D01*
X132473800Y-97465620D01*
X132473800Y-98429340D01*
X132466232Y-98506178D01*
X132445609Y-98574164D01*
X132412120Y-98636817D01*
X132367052Y-98691732D01*
X132312137Y-98736800D01*
X132249484Y-98770289D01*
X132181498Y-98790912D01*
X132104660Y-98798480D01*
X131140940Y-98798480D01*
X131064102Y-98790912D01*
X130996116Y-98770289D01*
X130933463Y-98736800D01*
X130878548Y-98691732D01*
X130833480Y-98636817D01*
X130799991Y-98574164D01*
X130779368Y-98506178D01*
X130771800Y-98429340D01*
X130771800Y-97465620D01*
X130779368Y-97388782D01*
X130799991Y-97320796D01*
X130833480Y-97258143D01*
X130878548Y-97203228D01*
X130933463Y-97158160D01*
X130996116Y-97124671D01*
X131064102Y-97104048D01*
X131140940Y-97096480D01*
X132104660Y-97096480D01*
X132181498Y-97104048D01*
X132181498Y-97104048D01*
G37*
G36*
X134721498Y-97104048D02*
X134789484Y-97124671D01*
X134852137Y-97158160D01*
X134907052Y-97203228D01*
X134952120Y-97258143D01*
X134985609Y-97320796D01*
X135006232Y-97388782D01*
X135013800Y-97465620D01*
X135013800Y-98429340D01*
X135006232Y-98506178D01*
X134985609Y-98574164D01*
X134952120Y-98636817D01*
X134907052Y-98691732D01*
X134852137Y-98736800D01*
X134789484Y-98770289D01*
X134721498Y-98790912D01*
X134644660Y-98798480D01*
X133680940Y-98798480D01*
X133604102Y-98790912D01*
X133536116Y-98770289D01*
X133473463Y-98736800D01*
X133418548Y-98691732D01*
X133373480Y-98636817D01*
X133339991Y-98574164D01*
X133319368Y-98506178D01*
X133311800Y-98429340D01*
X133311800Y-97465620D01*
X133319368Y-97388782D01*
X133339991Y-97320796D01*
X133373480Y-97258143D01*
X133418548Y-97203228D01*
X133473463Y-97158160D01*
X133536116Y-97124671D01*
X133604102Y-97104048D01*
X133680940Y-97096480D01*
X134644660Y-97096480D01*
X134721498Y-97104048D01*
X134721498Y-97104048D01*
G37*
G36*
X126563083Y-96069821D02*
X126708855Y-96130202D01*
X126840051Y-96217864D01*
X126951616Y-96329429D01*
X127039278Y-96460625D01*
X127099659Y-96606397D01*
X127130440Y-96761147D01*
X127130440Y-96918933D01*
X127099659Y-97073683D01*
X127039278Y-97219455D01*
X126951616Y-97350651D01*
X126840051Y-97462216D01*
X126708855Y-97549878D01*
X126563083Y-97610259D01*
X126408333Y-97641040D01*
X126250547Y-97641040D01*
X126095797Y-97610259D01*
X125950025Y-97549878D01*
X125818829Y-97462216D01*
X125707264Y-97350651D01*
X125619602Y-97219455D01*
X125559221Y-97073683D01*
X125528440Y-96918933D01*
X125528440Y-96761147D01*
X125559221Y-96606397D01*
X125619602Y-96460625D01*
X125707264Y-96329429D01*
X125818829Y-96217864D01*
X125950025Y-96130202D01*
X126095797Y-96069821D01*
X126250547Y-96039040D01*
X126408333Y-96039040D01*
X126563083Y-96069821D01*
X126563083Y-96069821D01*
G37*
G36*
X134721498Y-94564048D02*
X134789484Y-94584671D01*
X134852137Y-94618160D01*
X134907052Y-94663228D01*
X134952120Y-94718143D01*
X134985609Y-94780796D01*
X135006232Y-94848782D01*
X135013800Y-94925620D01*
X135013800Y-95889340D01*
X135006232Y-95966178D01*
X134985609Y-96034164D01*
X134952120Y-96096817D01*
X134907052Y-96151732D01*
X134852137Y-96196800D01*
X134789484Y-96230289D01*
X134721498Y-96250912D01*
X134644660Y-96258480D01*
X133680940Y-96258480D01*
X133604102Y-96250912D01*
X133536116Y-96230289D01*
X133473463Y-96196800D01*
X133418548Y-96151732D01*
X133373480Y-96096817D01*
X133339991Y-96034164D01*
X133319368Y-95966178D01*
X133311800Y-95889340D01*
X133311800Y-94925620D01*
X133319368Y-94848782D01*
X133339991Y-94780796D01*
X133373480Y-94718143D01*
X133418548Y-94663228D01*
X133473463Y-94618160D01*
X133536116Y-94584671D01*
X133604102Y-94564048D01*
X133680940Y-94556480D01*
X134644660Y-94556480D01*
X134721498Y-94564048D01*
X134721498Y-94564048D01*
G37*
G36*
X132181498Y-94564048D02*
X132249484Y-94584671D01*
X132312137Y-94618160D01*
X132367052Y-94663228D01*
X132412120Y-94718143D01*
X132445609Y-94780796D01*
X132466232Y-94848782D01*
X132473800Y-94925620D01*
X132473800Y-95889340D01*
X132466232Y-95966178D01*
X132445609Y-96034164D01*
X132412120Y-96096817D01*
X132367052Y-96151732D01*
X132312137Y-96196800D01*
X132249484Y-96230289D01*
X132181498Y-96250912D01*
X132104660Y-96258480D01*
X131140940Y-96258480D01*
X131064102Y-96250912D01*
X130996116Y-96230289D01*
X130933463Y-96196800D01*
X130878548Y-96151732D01*
X130833480Y-96096817D01*
X130799991Y-96034164D01*
X130779368Y-95966178D01*
X130771800Y-95889340D01*
X130771800Y-94925620D01*
X130779368Y-94848782D01*
X130799991Y-94780796D01*
X130833480Y-94718143D01*
X130878548Y-94663228D01*
X130933463Y-94618160D01*
X130996116Y-94584671D01*
X131064102Y-94564048D01*
X131140940Y-94556480D01*
X132104660Y-94556480D01*
X132181498Y-94564048D01*
X132181498Y-94564048D01*
G37*
G36*
X126563083Y-94063221D02*
X126708855Y-94123602D01*
X126840051Y-94211264D01*
X126951616Y-94322829D01*
X127039278Y-94454025D01*
X127099659Y-94599797D01*
X127130440Y-94754547D01*
X127130440Y-94912333D01*
X127099659Y-95067083D01*
X127039278Y-95212855D01*
X126951616Y-95344051D01*
X126840051Y-95455616D01*
X126708855Y-95543278D01*
X126563083Y-95603659D01*
X126408333Y-95634440D01*
X126250547Y-95634440D01*
X126095797Y-95603659D01*
X125950025Y-95543278D01*
X125818829Y-95455616D01*
X125707264Y-95344051D01*
X125619602Y-95212855D01*
X125559221Y-95067083D01*
X125528440Y-94912333D01*
X125528440Y-94754547D01*
X125559221Y-94599797D01*
X125619602Y-94454025D01*
X125707264Y-94322829D01*
X125818829Y-94211264D01*
X125950025Y-94123602D01*
X126095797Y-94063221D01*
X126250547Y-94032440D01*
X126408333Y-94032440D01*
X126563083Y-94063221D01*
X126563083Y-94063221D01*
G37*
G36*
X177245588Y-93720503D02*
X177400460Y-93784653D01*
X177539841Y-93877785D01*
X177658375Y-93996319D01*
X177751507Y-94135700D01*
X177815657Y-94290572D01*
X177848360Y-94454984D01*
X177848360Y-94622616D01*
X177815657Y-94787028D01*
X177751507Y-94941900D01*
X177658375Y-95081281D01*
X177539841Y-95199815D01*
X177400460Y-95292947D01*
X177245588Y-95357097D01*
X177081176Y-95389800D01*
X176913544Y-95389800D01*
X176749132Y-95357097D01*
X176594260Y-95292947D01*
X176454879Y-95199815D01*
X176336345Y-95081281D01*
X176243213Y-94941900D01*
X176179063Y-94787028D01*
X176146360Y-94622616D01*
X176146360Y-94454984D01*
X176179063Y-94290572D01*
X176243213Y-94135700D01*
X176336345Y-93996319D01*
X176454879Y-93877785D01*
X176594260Y-93784653D01*
X176749132Y-93720503D01*
X176913544Y-93687800D01*
X177081176Y-93687800D01*
X177245588Y-93720503D01*
X177245588Y-93720503D01*
G37*
G36*
X174705588Y-93720503D02*
X174860460Y-93784653D01*
X174999841Y-93877785D01*
X175118375Y-93996319D01*
X175211507Y-94135700D01*
X175275657Y-94290572D01*
X175308360Y-94454984D01*
X175308360Y-94622616D01*
X175275657Y-94787028D01*
X175211507Y-94941900D01*
X175118375Y-95081281D01*
X174999841Y-95199815D01*
X174860460Y-95292947D01*
X174705588Y-95357097D01*
X174541176Y-95389800D01*
X174373544Y-95389800D01*
X174209132Y-95357097D01*
X174054260Y-95292947D01*
X173914879Y-95199815D01*
X173796345Y-95081281D01*
X173703213Y-94941900D01*
X173639063Y-94787028D01*
X173606360Y-94622616D01*
X173606360Y-94454984D01*
X173639063Y-94290572D01*
X173703213Y-94135700D01*
X173796345Y-93996319D01*
X173914879Y-93877785D01*
X174054260Y-93784653D01*
X174209132Y-93720503D01*
X174373544Y-93687800D01*
X174541176Y-93687800D01*
X174705588Y-93720503D01*
X174705588Y-93720503D01*
G37*
G36*
X132181498Y-92024048D02*
X132249484Y-92044671D01*
X132312137Y-92078160D01*
X132367052Y-92123228D01*
X132412120Y-92178143D01*
X132445609Y-92240796D01*
X132466232Y-92308782D01*
X132473800Y-92385620D01*
X132473800Y-93349340D01*
X132466232Y-93426178D01*
X132445609Y-93494164D01*
X132412120Y-93556817D01*
X132367052Y-93611732D01*
X132312137Y-93656800D01*
X132249484Y-93690289D01*
X132181498Y-93710912D01*
X132104660Y-93718480D01*
X131140940Y-93718480D01*
X131064102Y-93710912D01*
X130996116Y-93690289D01*
X130933463Y-93656800D01*
X130878548Y-93611732D01*
X130833480Y-93556817D01*
X130799991Y-93494164D01*
X130779368Y-93426178D01*
X130771800Y-93349340D01*
X130771800Y-92385620D01*
X130779368Y-92308782D01*
X130799991Y-92240796D01*
X130833480Y-92178143D01*
X130878548Y-92123228D01*
X130933463Y-92078160D01*
X130996116Y-92044671D01*
X131064102Y-92024048D01*
X131140940Y-92016480D01*
X132104660Y-92016480D01*
X132181498Y-92024048D01*
X132181498Y-92024048D01*
G37*
G36*
X134721498Y-92024048D02*
X134789484Y-92044671D01*
X134852137Y-92078160D01*
X134907052Y-92123228D01*
X134952120Y-92178143D01*
X134985609Y-92240796D01*
X135006232Y-92308782D01*
X135013800Y-92385620D01*
X135013800Y-93349340D01*
X135006232Y-93426178D01*
X134985609Y-93494164D01*
X134952120Y-93556817D01*
X134907052Y-93611732D01*
X134852137Y-93656800D01*
X134789484Y-93690289D01*
X134721498Y-93710912D01*
X134644660Y-93718480D01*
X133680940Y-93718480D01*
X133604102Y-93710912D01*
X133536116Y-93690289D01*
X133473463Y-93656800D01*
X133418548Y-93611732D01*
X133373480Y-93556817D01*
X133339991Y-93494164D01*
X133319368Y-93426178D01*
X133311800Y-93349340D01*
X133311800Y-92385620D01*
X133319368Y-92308782D01*
X133339991Y-92240796D01*
X133373480Y-92178143D01*
X133418548Y-92123228D01*
X133473463Y-92078160D01*
X133536116Y-92044671D01*
X133604102Y-92024048D01*
X133680940Y-92016480D01*
X134644660Y-92016480D01*
X134721498Y-92024048D01*
X134721498Y-92024048D01*
G37*
G36*
X126563083Y-92056621D02*
X126708855Y-92117002D01*
X126840051Y-92204664D01*
X126951616Y-92316229D01*
X127039278Y-92447425D01*
X127099659Y-92593197D01*
X127130440Y-92747947D01*
X127130440Y-92905733D01*
X127099659Y-93060483D01*
X127039278Y-93206255D01*
X126951616Y-93337451D01*
X126840051Y-93449016D01*
X126708855Y-93536678D01*
X126563083Y-93597059D01*
X126408333Y-93627840D01*
X126250547Y-93627840D01*
X126095797Y-93597059D01*
X125950025Y-93536678D01*
X125818829Y-93449016D01*
X125707264Y-93337451D01*
X125619602Y-93206255D01*
X125559221Y-93060483D01*
X125528440Y-92905733D01*
X125528440Y-92747947D01*
X125559221Y-92593197D01*
X125619602Y-92447425D01*
X125707264Y-92316229D01*
X125818829Y-92204664D01*
X125950025Y-92117002D01*
X126095797Y-92056621D01*
X126250547Y-92025840D01*
X126408333Y-92025840D01*
X126563083Y-92056621D01*
X126563083Y-92056621D01*
G37*
G36*
X126563083Y-90050021D02*
X126708855Y-90110402D01*
X126840051Y-90198064D01*
X126951616Y-90309629D01*
X127039278Y-90440825D01*
X127099659Y-90586597D01*
X127130440Y-90741347D01*
X127130440Y-90899133D01*
X127099659Y-91053883D01*
X127039278Y-91199655D01*
X126951616Y-91330851D01*
X126840051Y-91442416D01*
X126708855Y-91530078D01*
X126563083Y-91590459D01*
X126408333Y-91621240D01*
X126250547Y-91621240D01*
X126095797Y-91590459D01*
X125950025Y-91530078D01*
X125818829Y-91442416D01*
X125707264Y-91330851D01*
X125619602Y-91199655D01*
X125559221Y-91053883D01*
X125528440Y-90899133D01*
X125528440Y-90741347D01*
X125559221Y-90586597D01*
X125619602Y-90440825D01*
X125707264Y-90309629D01*
X125818829Y-90198064D01*
X125950025Y-90110402D01*
X126095797Y-90050021D01*
X126250547Y-90019240D01*
X126408333Y-90019240D01*
X126563083Y-90050021D01*
X126563083Y-90050021D01*
G37*
G36*
X132181498Y-89484048D02*
X132249484Y-89504671D01*
X132312137Y-89538160D01*
X132367052Y-89583228D01*
X132412120Y-89638143D01*
X132445609Y-89700796D01*
X132466232Y-89768782D01*
X132473800Y-89845620D01*
X132473800Y-90809340D01*
X132466232Y-90886178D01*
X132445609Y-90954164D01*
X132412120Y-91016817D01*
X132367052Y-91071732D01*
X132312137Y-91116800D01*
X132249484Y-91150289D01*
X132181498Y-91170912D01*
X132104660Y-91178480D01*
X131140940Y-91178480D01*
X131064102Y-91170912D01*
X130996116Y-91150289D01*
X130933463Y-91116800D01*
X130878548Y-91071732D01*
X130833480Y-91016817D01*
X130799991Y-90954164D01*
X130779368Y-90886178D01*
X130771800Y-90809340D01*
X130771800Y-89845620D01*
X130779368Y-89768782D01*
X130799991Y-89700796D01*
X130833480Y-89638143D01*
X130878548Y-89583228D01*
X130933463Y-89538160D01*
X130996116Y-89504671D01*
X131064102Y-89484048D01*
X131140940Y-89476480D01*
X132104660Y-89476480D01*
X132181498Y-89484048D01*
X132181498Y-89484048D01*
G37*
G36*
X134721498Y-89484048D02*
X134789484Y-89504671D01*
X134852137Y-89538160D01*
X134907052Y-89583228D01*
X134952120Y-89638143D01*
X134985609Y-89700796D01*
X135006232Y-89768782D01*
X135013800Y-89845620D01*
X135013800Y-90809340D01*
X135006232Y-90886178D01*
X134985609Y-90954164D01*
X134952120Y-91016817D01*
X134907052Y-91071732D01*
X134852137Y-91116800D01*
X134789484Y-91150289D01*
X134721498Y-91170912D01*
X134644660Y-91178480D01*
X133680940Y-91178480D01*
X133604102Y-91170912D01*
X133536116Y-91150289D01*
X133473463Y-91116800D01*
X133418548Y-91071732D01*
X133373480Y-91016817D01*
X133339991Y-90954164D01*
X133319368Y-90886178D01*
X133311800Y-90809340D01*
X133311800Y-89845620D01*
X133319368Y-89768782D01*
X133339991Y-89700796D01*
X133373480Y-89638143D01*
X133418548Y-89583228D01*
X133473463Y-89538160D01*
X133536116Y-89504671D01*
X133604102Y-89484048D01*
X133680940Y-89476480D01*
X134644660Y-89476480D01*
X134721498Y-89484048D01*
X134721498Y-89484048D01*
G37*
G36*
X115494336Y-88750086D02*
X115667406Y-88821774D01*
X115823170Y-88925852D01*
X115955628Y-89058310D01*
X116059706Y-89214074D01*
X116131394Y-89387144D01*
X116167940Y-89570873D01*
X116167940Y-89758207D01*
X116131394Y-89941936D01*
X116059706Y-90115006D01*
X115955628Y-90270770D01*
X115823170Y-90403228D01*
X115667406Y-90507306D01*
X115494336Y-90578994D01*
X115310607Y-90615540D01*
X115123273Y-90615540D01*
X114939544Y-90578994D01*
X114766474Y-90507306D01*
X114610710Y-90403228D01*
X114478252Y-90270770D01*
X114374174Y-90115006D01*
X114302486Y-89941936D01*
X114265940Y-89758207D01*
X114265940Y-89570873D01*
X114302486Y-89387144D01*
X114374174Y-89214074D01*
X114478252Y-89058310D01*
X114610710Y-88925852D01*
X114766474Y-88821774D01*
X114939544Y-88750086D01*
X115123273Y-88713540D01*
X115310607Y-88713540D01*
X115494336Y-88750086D01*
X115494336Y-88750086D01*
G37*
G36*
X132181498Y-86944048D02*
X132249484Y-86964671D01*
X132312137Y-86998160D01*
X132367052Y-87043228D01*
X132412120Y-87098143D01*
X132445609Y-87160796D01*
X132466232Y-87228782D01*
X132473800Y-87305620D01*
X132473800Y-88269340D01*
X132466232Y-88346178D01*
X132445609Y-88414164D01*
X132412120Y-88476817D01*
X132367052Y-88531732D01*
X132312137Y-88576800D01*
X132249484Y-88610289D01*
X132181498Y-88630912D01*
X132104660Y-88638480D01*
X131140940Y-88638480D01*
X131064102Y-88630912D01*
X130996116Y-88610289D01*
X130933463Y-88576800D01*
X130878548Y-88531732D01*
X130833480Y-88476817D01*
X130799991Y-88414164D01*
X130779368Y-88346178D01*
X130771800Y-88269340D01*
X130771800Y-87305620D01*
X130779368Y-87228782D01*
X130799991Y-87160796D01*
X130833480Y-87098143D01*
X130878548Y-87043228D01*
X130933463Y-86998160D01*
X130996116Y-86964671D01*
X131064102Y-86944048D01*
X131140940Y-86936480D01*
X132104660Y-86936480D01*
X132181498Y-86944048D01*
X132181498Y-86944048D01*
G37*
G36*
X134721498Y-86944048D02*
X134789484Y-86964671D01*
X134852137Y-86998160D01*
X134907052Y-87043228D01*
X134952120Y-87098143D01*
X134985609Y-87160796D01*
X135006232Y-87228782D01*
X135013800Y-87305620D01*
X135013800Y-88269340D01*
X135006232Y-88346178D01*
X134985609Y-88414164D01*
X134952120Y-88476817D01*
X134907052Y-88531732D01*
X134852137Y-88576800D01*
X134789484Y-88610289D01*
X134721498Y-88630912D01*
X134644660Y-88638480D01*
X133680940Y-88638480D01*
X133604102Y-88630912D01*
X133536116Y-88610289D01*
X133473463Y-88576800D01*
X133418548Y-88531732D01*
X133373480Y-88476817D01*
X133339991Y-88414164D01*
X133319368Y-88346178D01*
X133311800Y-88269340D01*
X133311800Y-87305620D01*
X133319368Y-87228782D01*
X133339991Y-87160796D01*
X133373480Y-87098143D01*
X133418548Y-87043228D01*
X133473463Y-86998160D01*
X133536116Y-86964671D01*
X133604102Y-86944048D01*
X133680940Y-86936480D01*
X134644660Y-86936480D01*
X134721498Y-86944048D01*
X134721498Y-86944048D01*
G37*
G36*
X176341800Y-86230280D02*
X171739800Y-86230280D01*
X171739800Y-85128280D01*
X176341800Y-85128280D01*
X176341800Y-86230280D01*
X176341800Y-86230280D01*
G37*
G36*
X132181498Y-84404048D02*
X132249484Y-84424671D01*
X132312137Y-84458160D01*
X132367052Y-84503228D01*
X132412120Y-84558143D01*
X132445609Y-84620796D01*
X132466232Y-84688782D01*
X132473800Y-84765620D01*
X132473800Y-85729340D01*
X132466232Y-85806178D01*
X132445609Y-85874164D01*
X132412120Y-85936817D01*
X132367052Y-85991732D01*
X132312137Y-86036800D01*
X132249484Y-86070289D01*
X132181498Y-86090912D01*
X132104660Y-86098480D01*
X131140940Y-86098480D01*
X131064102Y-86090912D01*
X130996116Y-86070289D01*
X130933463Y-86036800D01*
X130878548Y-85991732D01*
X130833480Y-85936817D01*
X130799991Y-85874164D01*
X130779368Y-85806178D01*
X130771800Y-85729340D01*
X130771800Y-84765620D01*
X130779368Y-84688782D01*
X130799991Y-84620796D01*
X130833480Y-84558143D01*
X130878548Y-84503228D01*
X130933463Y-84458160D01*
X130996116Y-84424671D01*
X131064102Y-84404048D01*
X131140940Y-84396480D01*
X132104660Y-84396480D01*
X132181498Y-84404048D01*
X132181498Y-84404048D01*
G37*
G36*
X134721498Y-84404048D02*
X134789484Y-84424671D01*
X134852137Y-84458160D01*
X134907052Y-84503228D01*
X134952120Y-84558143D01*
X134985609Y-84620796D01*
X135006232Y-84688782D01*
X135013800Y-84765620D01*
X135013800Y-85729340D01*
X135006232Y-85806178D01*
X134985609Y-85874164D01*
X134952120Y-85936817D01*
X134907052Y-85991732D01*
X134852137Y-86036800D01*
X134789484Y-86070289D01*
X134721498Y-86090912D01*
X134644660Y-86098480D01*
X133680940Y-86098480D01*
X133604102Y-86090912D01*
X133536116Y-86070289D01*
X133473463Y-86036800D01*
X133418548Y-85991732D01*
X133373480Y-85936817D01*
X133339991Y-85874164D01*
X133319368Y-85806178D01*
X133311800Y-85729340D01*
X133311800Y-84765620D01*
X133319368Y-84688782D01*
X133339991Y-84620796D01*
X133373480Y-84558143D01*
X133418548Y-84503228D01*
X133473463Y-84458160D01*
X133536116Y-84424671D01*
X133604102Y-84404048D01*
X133680940Y-84396480D01*
X134644660Y-84396480D01*
X134721498Y-84404048D01*
X134721498Y-84404048D01*
G37*
G36*
X119009123Y-84210561D02*
X119154895Y-84270942D01*
X119286091Y-84358604D01*
X119397656Y-84470169D01*
X119485318Y-84601365D01*
X119545699Y-84747137D01*
X119576480Y-84901887D01*
X119576480Y-85059673D01*
X119545699Y-85214423D01*
X119485318Y-85360195D01*
X119397656Y-85491391D01*
X119286091Y-85602956D01*
X119154895Y-85690618D01*
X119009123Y-85750999D01*
X118854373Y-85781780D01*
X118696587Y-85781780D01*
X118541837Y-85750999D01*
X118396065Y-85690618D01*
X118264869Y-85602956D01*
X118153304Y-85491391D01*
X118065642Y-85360195D01*
X118005261Y-85214423D01*
X117974480Y-85059673D01*
X117974480Y-84901887D01*
X118005261Y-84747137D01*
X118065642Y-84601365D01*
X118153304Y-84470169D01*
X118264869Y-84358604D01*
X118396065Y-84270942D01*
X118541837Y-84210561D01*
X118696587Y-84179780D01*
X118854373Y-84179780D01*
X119009123Y-84210561D01*
X119009123Y-84210561D01*
G37*
G36*
X115211823Y-84210561D02*
X115357595Y-84270942D01*
X115488791Y-84358604D01*
X115600356Y-84470169D01*
X115688018Y-84601365D01*
X115748399Y-84747137D01*
X115779180Y-84901887D01*
X115779180Y-85059673D01*
X115748399Y-85214423D01*
X115688018Y-85360195D01*
X115600356Y-85491391D01*
X115488791Y-85602956D01*
X115357595Y-85690618D01*
X115211823Y-85750999D01*
X115057073Y-85781780D01*
X114899287Y-85781780D01*
X114744537Y-85750999D01*
X114598765Y-85690618D01*
X114467569Y-85602956D01*
X114356004Y-85491391D01*
X114268342Y-85360195D01*
X114207961Y-85214423D01*
X114177180Y-85059673D01*
X114177180Y-84901887D01*
X114207961Y-84747137D01*
X114268342Y-84601365D01*
X114356004Y-84470169D01*
X114467569Y-84358604D01*
X114598765Y-84270942D01*
X114744537Y-84210561D01*
X114899287Y-84179780D01*
X115057073Y-84179780D01*
X115211823Y-84210561D01*
X115211823Y-84210561D01*
G37*
G36*
X119326480Y-83769680D02*
X118224480Y-83769680D01*
X118224480Y-83067680D01*
X119326480Y-83067680D01*
X119326480Y-83769680D01*
X119326480Y-83769680D01*
G37*
G36*
X176341800Y-83690280D02*
X171739800Y-83690280D01*
X171739800Y-82588280D01*
X176341800Y-82588280D01*
X176341800Y-83690280D01*
X176341800Y-83690280D01*
G37*
G36*
X134721498Y-81864048D02*
X134789484Y-81884671D01*
X134852137Y-81918160D01*
X134907052Y-81963228D01*
X134952120Y-82018143D01*
X134985609Y-82080796D01*
X135006232Y-82148782D01*
X135013800Y-82225620D01*
X135013800Y-83189340D01*
X135006232Y-83266178D01*
X134985609Y-83334164D01*
X134952120Y-83396817D01*
X134907052Y-83451732D01*
X134852137Y-83496800D01*
X134789484Y-83530289D01*
X134721498Y-83550912D01*
X134644660Y-83558480D01*
X133680940Y-83558480D01*
X133604102Y-83550912D01*
X133536116Y-83530289D01*
X133473463Y-83496800D01*
X133418548Y-83451732D01*
X133373480Y-83396817D01*
X133339991Y-83334164D01*
X133319368Y-83266178D01*
X133311800Y-83189340D01*
X133311800Y-82225620D01*
X133319368Y-82148782D01*
X133339991Y-82080796D01*
X133373480Y-82018143D01*
X133418548Y-81963228D01*
X133473463Y-81918160D01*
X133536116Y-81884671D01*
X133604102Y-81864048D01*
X133680940Y-81856480D01*
X134644660Y-81856480D01*
X134721498Y-81864048D01*
X134721498Y-81864048D01*
G37*
G36*
X132181498Y-81864048D02*
X132249484Y-81884671D01*
X132312137Y-81918160D01*
X132367052Y-81963228D01*
X132412120Y-82018143D01*
X132445609Y-82080796D01*
X132466232Y-82148782D01*
X132473800Y-82225620D01*
X132473800Y-83189340D01*
X132466232Y-83266178D01*
X132445609Y-83334164D01*
X132412120Y-83396817D01*
X132367052Y-83451732D01*
X132312137Y-83496800D01*
X132249484Y-83530289D01*
X132181498Y-83550912D01*
X132104660Y-83558480D01*
X131140940Y-83558480D01*
X131064102Y-83550912D01*
X130996116Y-83530289D01*
X130933463Y-83496800D01*
X130878548Y-83451732D01*
X130833480Y-83396817D01*
X130799991Y-83334164D01*
X130779368Y-83266178D01*
X130771800Y-83189340D01*
X130771800Y-82225620D01*
X130779368Y-82148782D01*
X130799991Y-82080796D01*
X130833480Y-82018143D01*
X130878548Y-81963228D01*
X130933463Y-81918160D01*
X130996116Y-81884671D01*
X131064102Y-81864048D01*
X131140940Y-81856480D01*
X132104660Y-81856480D01*
X132181498Y-81864048D01*
X132181498Y-81864048D01*
G37*
G36*
X119326480Y-82497780D02*
X118224480Y-82497780D01*
X118224480Y-81875780D01*
X119326480Y-81875780D01*
X119326480Y-82497780D01*
X119326480Y-82497780D01*
G37*
G36*
X119326480Y-81481780D02*
X118224480Y-81481780D01*
X118224480Y-80859780D01*
X119326480Y-80859780D01*
X119326480Y-81481780D01*
X119326480Y-81481780D01*
G37*
G36*
X176341800Y-81150280D02*
X171739800Y-81150280D01*
X171739800Y-80048280D01*
X176341800Y-80048280D01*
X176341800Y-81150280D01*
X176341800Y-81150280D01*
G37*
G36*
X132181498Y-79324048D02*
X132249484Y-79344671D01*
X132312137Y-79378160D01*
X132367052Y-79423228D01*
X132412120Y-79478143D01*
X132445609Y-79540796D01*
X132466232Y-79608782D01*
X132473800Y-79685620D01*
X132473800Y-80649340D01*
X132466232Y-80726178D01*
X132445609Y-80794164D01*
X132412120Y-80856817D01*
X132367052Y-80911732D01*
X132312137Y-80956800D01*
X132249484Y-80990289D01*
X132181498Y-81010912D01*
X132104660Y-81018480D01*
X131140940Y-81018480D01*
X131064102Y-81010912D01*
X130996116Y-80990289D01*
X130933463Y-80956800D01*
X130878548Y-80911732D01*
X130833480Y-80856817D01*
X130799991Y-80794164D01*
X130779368Y-80726178D01*
X130771800Y-80649340D01*
X130771800Y-79685620D01*
X130779368Y-79608782D01*
X130799991Y-79540796D01*
X130833480Y-79478143D01*
X130878548Y-79423228D01*
X130933463Y-79378160D01*
X130996116Y-79344671D01*
X131064102Y-79324048D01*
X131140940Y-79316480D01*
X132104660Y-79316480D01*
X132181498Y-79324048D01*
X132181498Y-79324048D01*
G37*
G36*
X134721498Y-79324048D02*
X134789484Y-79344671D01*
X134852137Y-79378160D01*
X134907052Y-79423228D01*
X134952120Y-79478143D01*
X134985609Y-79540796D01*
X135006232Y-79608782D01*
X135013800Y-79685620D01*
X135013800Y-80649340D01*
X135006232Y-80726178D01*
X134985609Y-80794164D01*
X134952120Y-80856817D01*
X134907052Y-80911732D01*
X134852137Y-80956800D01*
X134789484Y-80990289D01*
X134721498Y-81010912D01*
X134644660Y-81018480D01*
X133680940Y-81018480D01*
X133604102Y-81010912D01*
X133536116Y-80990289D01*
X133473463Y-80956800D01*
X133418548Y-80911732D01*
X133373480Y-80856817D01*
X133339991Y-80794164D01*
X133319368Y-80726178D01*
X133311800Y-80649340D01*
X133311800Y-79685620D01*
X133319368Y-79608782D01*
X133339991Y-79540796D01*
X133373480Y-79478143D01*
X133418548Y-79423228D01*
X133473463Y-79378160D01*
X133536116Y-79344671D01*
X133604102Y-79324048D01*
X133680940Y-79316480D01*
X134644660Y-79316480D01*
X134721498Y-79324048D01*
X134721498Y-79324048D01*
G37*
G36*
X119326480Y-80465780D02*
X118224480Y-80465780D01*
X118224480Y-79843780D01*
X119326480Y-79843780D01*
X119326480Y-80465780D01*
X119326480Y-80465780D01*
G37*
G36*
X119326480Y-79449780D02*
X118224480Y-79449780D01*
X118224480Y-78827780D01*
X119326480Y-78827780D01*
X119326480Y-79449780D01*
X119326480Y-79449780D01*
G37*
G36*
X132181498Y-76784048D02*
X132249484Y-76804671D01*
X132312137Y-76838160D01*
X132367052Y-76883228D01*
X132412120Y-76938143D01*
X132445609Y-77000796D01*
X132466232Y-77068782D01*
X132473800Y-77145620D01*
X132473800Y-78109340D01*
X132466232Y-78186178D01*
X132445609Y-78254164D01*
X132412120Y-78316817D01*
X132367052Y-78371732D01*
X132312137Y-78416800D01*
X132249484Y-78450289D01*
X132181498Y-78470912D01*
X132104660Y-78478480D01*
X131140940Y-78478480D01*
X131064102Y-78470912D01*
X130996116Y-78450289D01*
X130933463Y-78416800D01*
X130878548Y-78371732D01*
X130833480Y-78316817D01*
X130799991Y-78254164D01*
X130779368Y-78186178D01*
X130771800Y-78109340D01*
X130771800Y-77145620D01*
X130779368Y-77068782D01*
X130799991Y-77000796D01*
X130833480Y-76938143D01*
X130878548Y-76883228D01*
X130933463Y-76838160D01*
X130996116Y-76804671D01*
X131064102Y-76784048D01*
X131140940Y-76776480D01*
X132104660Y-76776480D01*
X132181498Y-76784048D01*
X132181498Y-76784048D01*
G37*
G36*
X134721498Y-76784048D02*
X134789484Y-76804671D01*
X134852137Y-76838160D01*
X134907052Y-76883228D01*
X134952120Y-76938143D01*
X134985609Y-77000796D01*
X135006232Y-77068782D01*
X135013800Y-77145620D01*
X135013800Y-78109340D01*
X135006232Y-78186178D01*
X134985609Y-78254164D01*
X134952120Y-78316817D01*
X134907052Y-78371732D01*
X134852137Y-78416800D01*
X134789484Y-78450289D01*
X134721498Y-78470912D01*
X134644660Y-78478480D01*
X133680940Y-78478480D01*
X133604102Y-78470912D01*
X133536116Y-78450289D01*
X133473463Y-78416800D01*
X133418548Y-78371732D01*
X133373480Y-78316817D01*
X133339991Y-78254164D01*
X133319368Y-78186178D01*
X133311800Y-78109340D01*
X133311800Y-77145620D01*
X133319368Y-77068782D01*
X133339991Y-77000796D01*
X133373480Y-76938143D01*
X133418548Y-76883228D01*
X133473463Y-76838160D01*
X133536116Y-76804671D01*
X133604102Y-76784048D01*
X133680940Y-76776480D01*
X134644660Y-76776480D01*
X134721498Y-76784048D01*
X134721498Y-76784048D01*
G37*
G36*
X119326480Y-78257880D02*
X118224480Y-78257880D01*
X118224480Y-77555880D01*
X119326480Y-77555880D01*
X119326480Y-78257880D01*
X119326480Y-78257880D01*
G37*
G36*
X115211823Y-75574561D02*
X115357595Y-75634942D01*
X115488791Y-75722604D01*
X115600356Y-75834169D01*
X115688018Y-75965365D01*
X115748399Y-76111137D01*
X115779180Y-76265887D01*
X115779180Y-76423673D01*
X115748399Y-76578423D01*
X115688018Y-76724195D01*
X115600356Y-76855391D01*
X115488791Y-76966956D01*
X115357595Y-77054618D01*
X115211823Y-77114999D01*
X115057073Y-77145780D01*
X114899287Y-77145780D01*
X114744537Y-77114999D01*
X114598765Y-77054618D01*
X114467569Y-76966956D01*
X114356004Y-76855391D01*
X114268342Y-76724195D01*
X114207961Y-76578423D01*
X114177180Y-76423673D01*
X114177180Y-76265887D01*
X114207961Y-76111137D01*
X114268342Y-75965365D01*
X114356004Y-75834169D01*
X114467569Y-75722604D01*
X114598765Y-75634942D01*
X114744537Y-75574561D01*
X114899287Y-75543780D01*
X115057073Y-75543780D01*
X115211823Y-75574561D01*
X115211823Y-75574561D01*
G37*
G36*
X119009123Y-75574561D02*
X119154895Y-75634942D01*
X119286091Y-75722604D01*
X119397656Y-75834169D01*
X119485318Y-75965365D01*
X119545699Y-76111137D01*
X119576480Y-76265887D01*
X119576480Y-76423673D01*
X119545699Y-76578423D01*
X119485318Y-76724195D01*
X119397656Y-76855391D01*
X119286091Y-76966956D01*
X119154895Y-77054618D01*
X119009123Y-77114999D01*
X118854373Y-77145780D01*
X118696587Y-77145780D01*
X118541837Y-77114999D01*
X118396065Y-77054618D01*
X118264869Y-76966956D01*
X118153304Y-76855391D01*
X118065642Y-76724195D01*
X118005261Y-76578423D01*
X117974480Y-76423673D01*
X117974480Y-76265887D01*
X118005261Y-76111137D01*
X118065642Y-75965365D01*
X118153304Y-75834169D01*
X118264869Y-75722604D01*
X118396065Y-75634942D01*
X118541837Y-75574561D01*
X118696587Y-75543780D01*
X118854373Y-75543780D01*
X119009123Y-75574561D01*
X119009123Y-75574561D01*
G37*
G36*
X128166722Y-75474361D02*
X128201637Y-75484953D01*
X128233825Y-75502158D01*
X128262033Y-75525307D01*
X128285182Y-75553515D01*
X128302387Y-75585703D01*
X128312979Y-75620618D01*
X128317160Y-75663075D01*
X128317160Y-76804285D01*
X128312979Y-76846742D01*
X128302387Y-76881657D01*
X128285182Y-76913845D01*
X128262033Y-76942053D01*
X128233825Y-76965202D01*
X128201637Y-76982407D01*
X128166722Y-76992999D01*
X128124265Y-76997180D01*
X126658055Y-76997180D01*
X126615598Y-76992999D01*
X126580683Y-76982407D01*
X126548495Y-76965202D01*
X126520287Y-76942053D01*
X126497138Y-76913845D01*
X126479933Y-76881657D01*
X126469341Y-76846742D01*
X126465160Y-76804285D01*
X126465160Y-75663075D01*
X126469341Y-75620618D01*
X126479933Y-75585703D01*
X126497138Y-75553515D01*
X126520287Y-75525307D01*
X126548495Y-75502158D01*
X126580683Y-75484953D01*
X126615598Y-75474361D01*
X126658055Y-75470180D01*
X128124265Y-75470180D01*
X128166722Y-75474361D01*
X128166722Y-75474361D01*
G37*
G36*
X132181498Y-74244048D02*
X132249484Y-74264671D01*
X132312137Y-74298160D01*
X132367052Y-74343228D01*
X132412120Y-74398143D01*
X132445609Y-74460796D01*
X132466232Y-74528782D01*
X132473800Y-74605620D01*
X132473800Y-75569340D01*
X132466232Y-75646178D01*
X132445609Y-75714164D01*
X132412120Y-75776817D01*
X132367052Y-75831732D01*
X132312137Y-75876800D01*
X132249484Y-75910289D01*
X132181498Y-75930912D01*
X132104660Y-75938480D01*
X131140940Y-75938480D01*
X131064102Y-75930912D01*
X130996116Y-75910289D01*
X130933463Y-75876800D01*
X130878548Y-75831732D01*
X130833480Y-75776817D01*
X130799991Y-75714164D01*
X130779368Y-75646178D01*
X130771800Y-75569340D01*
X130771800Y-74605620D01*
X130779368Y-74528782D01*
X130799991Y-74460796D01*
X130833480Y-74398143D01*
X130878548Y-74343228D01*
X130933463Y-74298160D01*
X130996116Y-74264671D01*
X131064102Y-74244048D01*
X131140940Y-74236480D01*
X132104660Y-74236480D01*
X132181498Y-74244048D01*
X132181498Y-74244048D01*
G37*
G36*
X134721498Y-74244048D02*
X134789484Y-74264671D01*
X134852137Y-74298160D01*
X134907052Y-74343228D01*
X134952120Y-74398143D01*
X134985609Y-74460796D01*
X135006232Y-74528782D01*
X135013800Y-74605620D01*
X135013800Y-75569340D01*
X135006232Y-75646178D01*
X134985609Y-75714164D01*
X134952120Y-75776817D01*
X134907052Y-75831732D01*
X134852137Y-75876800D01*
X134789484Y-75910289D01*
X134721498Y-75930912D01*
X134644660Y-75938480D01*
X133680940Y-75938480D01*
X133604102Y-75930912D01*
X133536116Y-75910289D01*
X133473463Y-75876800D01*
X133418548Y-75831732D01*
X133373480Y-75776817D01*
X133339991Y-75714164D01*
X133319368Y-75646178D01*
X133311800Y-75569340D01*
X133311800Y-74605620D01*
X133319368Y-74528782D01*
X133339991Y-74460796D01*
X133373480Y-74398143D01*
X133418548Y-74343228D01*
X133473463Y-74298160D01*
X133536116Y-74264671D01*
X133604102Y-74244048D01*
X133680940Y-74236480D01*
X134644660Y-74236480D01*
X134721498Y-74244048D01*
X134721498Y-74244048D01*
G37*
G36*
X128166722Y-72499361D02*
X128201637Y-72509953D01*
X128233825Y-72527158D01*
X128262033Y-72550307D01*
X128285182Y-72578515D01*
X128302387Y-72610703D01*
X128312979Y-72645618D01*
X128317160Y-72688075D01*
X128317160Y-73829285D01*
X128312979Y-73871742D01*
X128302387Y-73906657D01*
X128285182Y-73938845D01*
X128262033Y-73967053D01*
X128233825Y-73990202D01*
X128201637Y-74007407D01*
X128166722Y-74017999D01*
X128124265Y-74022180D01*
X126658055Y-74022180D01*
X126615598Y-74017999D01*
X126580683Y-74007407D01*
X126548495Y-73990202D01*
X126520287Y-73967053D01*
X126497138Y-73938845D01*
X126479933Y-73906657D01*
X126469341Y-73871742D01*
X126465160Y-73829285D01*
X126465160Y-72688075D01*
X126469341Y-72645618D01*
X126479933Y-72610703D01*
X126497138Y-72578515D01*
X126520287Y-72550307D01*
X126548495Y-72527158D01*
X126580683Y-72509953D01*
X126615598Y-72499361D01*
X126658055Y-72495180D01*
X128124265Y-72495180D01*
X128166722Y-72499361D01*
X128166722Y-72499361D01*
G37*
G36*
X134721498Y-71704048D02*
X134789484Y-71724671D01*
X134852137Y-71758160D01*
X134907052Y-71803228D01*
X134952120Y-71858143D01*
X134985609Y-71920796D01*
X135006232Y-71988782D01*
X135013800Y-72065620D01*
X135013800Y-73029340D01*
X135006232Y-73106178D01*
X134985609Y-73174164D01*
X134952120Y-73236817D01*
X134907052Y-73291732D01*
X134852137Y-73336800D01*
X134789484Y-73370289D01*
X134721498Y-73390912D01*
X134644660Y-73398480D01*
X133680940Y-73398480D01*
X133604102Y-73390912D01*
X133536116Y-73370289D01*
X133473463Y-73336800D01*
X133418548Y-73291732D01*
X133373480Y-73236817D01*
X133339991Y-73174164D01*
X133319368Y-73106178D01*
X133311800Y-73029340D01*
X133311800Y-72065620D01*
X133319368Y-71988782D01*
X133339991Y-71920796D01*
X133373480Y-71858143D01*
X133418548Y-71803228D01*
X133473463Y-71758160D01*
X133536116Y-71724671D01*
X133604102Y-71704048D01*
X133680940Y-71696480D01*
X134644660Y-71696480D01*
X134721498Y-71704048D01*
X134721498Y-71704048D01*
G37*
G36*
X132181498Y-71704048D02*
X132249484Y-71724671D01*
X132312137Y-71758160D01*
X132367052Y-71803228D01*
X132412120Y-71858143D01*
X132445609Y-71920796D01*
X132466232Y-71988782D01*
X132473800Y-72065620D01*
X132473800Y-73029340D01*
X132466232Y-73106178D01*
X132445609Y-73174164D01*
X132412120Y-73236817D01*
X132367052Y-73291732D01*
X132312137Y-73336800D01*
X132249484Y-73370289D01*
X132181498Y-73390912D01*
X132104660Y-73398480D01*
X131140940Y-73398480D01*
X131064102Y-73390912D01*
X130996116Y-73370289D01*
X130933463Y-73336800D01*
X130878548Y-73291732D01*
X130833480Y-73236817D01*
X130799991Y-73174164D01*
X130779368Y-73106178D01*
X130771800Y-73029340D01*
X130771800Y-72065620D01*
X130779368Y-71988782D01*
X130799991Y-71920796D01*
X130833480Y-71858143D01*
X130878548Y-71803228D01*
X130933463Y-71758160D01*
X130996116Y-71724671D01*
X131064102Y-71704048D01*
X131140940Y-71696480D01*
X132104660Y-71696480D01*
X132181498Y-71704048D01*
X132181498Y-71704048D01*
G37*
G36*
X122764862Y-71143061D02*
X122799777Y-71153653D01*
X122831965Y-71170858D01*
X122860173Y-71194007D01*
X122883322Y-71222215D01*
X122900527Y-71254403D01*
X122911119Y-71289318D01*
X122915300Y-71331775D01*
X122915300Y-72797985D01*
X122911119Y-72840442D01*
X122900527Y-72875357D01*
X122883322Y-72907545D01*
X122860173Y-72935753D01*
X122831965Y-72958902D01*
X122799777Y-72976107D01*
X122764862Y-72986699D01*
X122722405Y-72990880D01*
X121581195Y-72990880D01*
X121538738Y-72986699D01*
X121503823Y-72976107D01*
X121471635Y-72958902D01*
X121443427Y-72935753D01*
X121420278Y-72907545D01*
X121403073Y-72875357D01*
X121392481Y-72840442D01*
X121388300Y-72797985D01*
X121388300Y-71331775D01*
X121392481Y-71289318D01*
X121403073Y-71254403D01*
X121420278Y-71222215D01*
X121443427Y-71194007D01*
X121471635Y-71170858D01*
X121503823Y-71153653D01*
X121538738Y-71143061D01*
X121581195Y-71138880D01*
X122722405Y-71138880D01*
X122764862Y-71143061D01*
X122764862Y-71143061D01*
G37*
G36*
X119789862Y-71143061D02*
X119824777Y-71153653D01*
X119856965Y-71170858D01*
X119885173Y-71194007D01*
X119908322Y-71222215D01*
X119925527Y-71254403D01*
X119936119Y-71289318D01*
X119940300Y-71331775D01*
X119940300Y-72797985D01*
X119936119Y-72840442D01*
X119925527Y-72875357D01*
X119908322Y-72907545D01*
X119885173Y-72935753D01*
X119856965Y-72958902D01*
X119824777Y-72976107D01*
X119789862Y-72986699D01*
X119747405Y-72990880D01*
X118606195Y-72990880D01*
X118563738Y-72986699D01*
X118528823Y-72976107D01*
X118496635Y-72958902D01*
X118468427Y-72935753D01*
X118445278Y-72907545D01*
X118428073Y-72875357D01*
X118417481Y-72840442D01*
X118413300Y-72797985D01*
X118413300Y-71331775D01*
X118417481Y-71289318D01*
X118428073Y-71254403D01*
X118445278Y-71222215D01*
X118468427Y-71194007D01*
X118496635Y-71170858D01*
X118528823Y-71153653D01*
X118563738Y-71143061D01*
X118606195Y-71138880D01*
X119747405Y-71138880D01*
X119789862Y-71143061D01*
X119789862Y-71143061D01*
G37*
G36*
X134721498Y-69164048D02*
X134789484Y-69184671D01*
X134852137Y-69218160D01*
X134907052Y-69263228D01*
X134952120Y-69318143D01*
X134985609Y-69380796D01*
X135006232Y-69448782D01*
X135013800Y-69525620D01*
X135013800Y-70489340D01*
X135006232Y-70566178D01*
X134985609Y-70634164D01*
X134952120Y-70696817D01*
X134907052Y-70751732D01*
X134852137Y-70796800D01*
X134789484Y-70830289D01*
X134721498Y-70850912D01*
X134644660Y-70858480D01*
X133680940Y-70858480D01*
X133604102Y-70850912D01*
X133536116Y-70830289D01*
X133473463Y-70796800D01*
X133418548Y-70751732D01*
X133373480Y-70696817D01*
X133339991Y-70634164D01*
X133319368Y-70566178D01*
X133311800Y-70489340D01*
X133311800Y-69525620D01*
X133319368Y-69448782D01*
X133339991Y-69380796D01*
X133373480Y-69318143D01*
X133418548Y-69263228D01*
X133473463Y-69218160D01*
X133536116Y-69184671D01*
X133604102Y-69164048D01*
X133680940Y-69156480D01*
X134644660Y-69156480D01*
X134721498Y-69164048D01*
X134721498Y-69164048D01*
G37*
G36*
X132181498Y-69164048D02*
X132249484Y-69184671D01*
X132312137Y-69218160D01*
X132367052Y-69263228D01*
X132412120Y-69318143D01*
X132445609Y-69380796D01*
X132466232Y-69448782D01*
X132473800Y-69525620D01*
X132473800Y-70489340D01*
X132466232Y-70566178D01*
X132445609Y-70634164D01*
X132412120Y-70696817D01*
X132367052Y-70751732D01*
X132312137Y-70796800D01*
X132249484Y-70830289D01*
X132181498Y-70850912D01*
X132104660Y-70858480D01*
X131140940Y-70858480D01*
X131064102Y-70850912D01*
X130996116Y-70830289D01*
X130933463Y-70796800D01*
X130878548Y-70751732D01*
X130833480Y-70696817D01*
X130799991Y-70634164D01*
X130779368Y-70566178D01*
X130771800Y-70489340D01*
X130771800Y-69525620D01*
X130779368Y-69448782D01*
X130799991Y-69380796D01*
X130833480Y-69318143D01*
X130878548Y-69263228D01*
X130933463Y-69218160D01*
X130996116Y-69184671D01*
X131064102Y-69164048D01*
X131140940Y-69156480D01*
X132104660Y-69156480D01*
X132181498Y-69164048D01*
X132181498Y-69164048D01*
G37*
G36*
X119989862Y-67221301D02*
X120024777Y-67231893D01*
X120056965Y-67249098D01*
X120085173Y-67272247D01*
X120108322Y-67300455D01*
X120125527Y-67332643D01*
X120136119Y-67367558D01*
X120140300Y-67410015D01*
X120140300Y-68876225D01*
X120136119Y-68918682D01*
X120125527Y-68953597D01*
X120108322Y-68985785D01*
X120085173Y-69013993D01*
X120056965Y-69037142D01*
X120024777Y-69054347D01*
X119989862Y-69064939D01*
X119947405Y-69069120D01*
X118806195Y-69069120D01*
X118763738Y-69064939D01*
X118728823Y-69054347D01*
X118696635Y-69037142D01*
X118668427Y-69013993D01*
X118645278Y-68985785D01*
X118628073Y-68953597D01*
X118617481Y-68918682D01*
X118613300Y-68876225D01*
X118613300Y-67410015D01*
X118617481Y-67367558D01*
X118628073Y-67332643D01*
X118645278Y-67300455D01*
X118668427Y-67272247D01*
X118696635Y-67249098D01*
X118728823Y-67231893D01*
X118763738Y-67221301D01*
X118806195Y-67217120D01*
X119947405Y-67217120D01*
X119989862Y-67221301D01*
X119989862Y-67221301D01*
G37*
G36*
X122964862Y-67221301D02*
X122999777Y-67231893D01*
X123031965Y-67249098D01*
X123060173Y-67272247D01*
X123083322Y-67300455D01*
X123100527Y-67332643D01*
X123111119Y-67367558D01*
X123115300Y-67410015D01*
X123115300Y-68876225D01*
X123111119Y-68918682D01*
X123100527Y-68953597D01*
X123083322Y-68985785D01*
X123060173Y-69013993D01*
X123031965Y-69037142D01*
X122999777Y-69054347D01*
X122964862Y-69064939D01*
X122922405Y-69069120D01*
X121781195Y-69069120D01*
X121738738Y-69064939D01*
X121703823Y-69054347D01*
X121671635Y-69037142D01*
X121643427Y-69013993D01*
X121620278Y-68985785D01*
X121603073Y-68953597D01*
X121592481Y-68918682D01*
X121588300Y-68876225D01*
X121588300Y-67410015D01*
X121592481Y-67367558D01*
X121603073Y-67332643D01*
X121620278Y-67300455D01*
X121643427Y-67272247D01*
X121671635Y-67249098D01*
X121703823Y-67231893D01*
X121738738Y-67221301D01*
X121781195Y-67217120D01*
X122922405Y-67217120D01*
X122964862Y-67221301D01*
X122964862Y-67221301D01*
G37*
G36*
X132181498Y-66624048D02*
X132249484Y-66644671D01*
X132312137Y-66678160D01*
X132367052Y-66723228D01*
X132412120Y-66778143D01*
X132445609Y-66840796D01*
X132466232Y-66908782D01*
X132473800Y-66985620D01*
X132473800Y-67949340D01*
X132466232Y-68026178D01*
X132445609Y-68094164D01*
X132412120Y-68156817D01*
X132367052Y-68211732D01*
X132312137Y-68256800D01*
X132249484Y-68290289D01*
X132181498Y-68310912D01*
X132104660Y-68318480D01*
X131140940Y-68318480D01*
X131064102Y-68310912D01*
X130996116Y-68290289D01*
X130933463Y-68256800D01*
X130878548Y-68211732D01*
X130833480Y-68156817D01*
X130799991Y-68094164D01*
X130779368Y-68026178D01*
X130771800Y-67949340D01*
X130771800Y-66985620D01*
X130779368Y-66908782D01*
X130799991Y-66840796D01*
X130833480Y-66778143D01*
X130878548Y-66723228D01*
X130933463Y-66678160D01*
X130996116Y-66644671D01*
X131064102Y-66624048D01*
X131140940Y-66616480D01*
X132104660Y-66616480D01*
X132181498Y-66624048D01*
X132181498Y-66624048D01*
G37*
G36*
X134721498Y-66624048D02*
X134789484Y-66644671D01*
X134852137Y-66678160D01*
X134907052Y-66723228D01*
X134952120Y-66778143D01*
X134985609Y-66840796D01*
X135006232Y-66908782D01*
X135013800Y-66985620D01*
X135013800Y-67949340D01*
X135006232Y-68026178D01*
X134985609Y-68094164D01*
X134952120Y-68156817D01*
X134907052Y-68211732D01*
X134852137Y-68256800D01*
X134789484Y-68290289D01*
X134721498Y-68310912D01*
X134644660Y-68318480D01*
X133680940Y-68318480D01*
X133604102Y-68310912D01*
X133536116Y-68290289D01*
X133473463Y-68256800D01*
X133418548Y-68211732D01*
X133373480Y-68156817D01*
X133339991Y-68094164D01*
X133319368Y-68026178D01*
X133311800Y-67949340D01*
X133311800Y-66985620D01*
X133319368Y-66908782D01*
X133339991Y-66840796D01*
X133373480Y-66778143D01*
X133418548Y-66723228D01*
X133473463Y-66678160D01*
X133536116Y-66644671D01*
X133604102Y-66624048D01*
X133680940Y-66616480D01*
X134644660Y-66616480D01*
X134721498Y-66624048D01*
X134721498Y-66624048D01*
G37*
G36*
X132181498Y-64084048D02*
X132249484Y-64104671D01*
X132312137Y-64138160D01*
X132367052Y-64183228D01*
X132412120Y-64238143D01*
X132445609Y-64300796D01*
X132466232Y-64368782D01*
X132473800Y-64445620D01*
X132473800Y-65409340D01*
X132466232Y-65486178D01*
X132445609Y-65554164D01*
X132412120Y-65616817D01*
X132367052Y-65671732D01*
X132312137Y-65716800D01*
X132249484Y-65750289D01*
X132181498Y-65770912D01*
X132104660Y-65778480D01*
X131140940Y-65778480D01*
X131064102Y-65770912D01*
X130996116Y-65750289D01*
X130933463Y-65716800D01*
X130878548Y-65671732D01*
X130833480Y-65616817D01*
X130799991Y-65554164D01*
X130779368Y-65486178D01*
X130771800Y-65409340D01*
X130771800Y-64445620D01*
X130779368Y-64368782D01*
X130799991Y-64300796D01*
X130833480Y-64238143D01*
X130878548Y-64183228D01*
X130933463Y-64138160D01*
X130996116Y-64104671D01*
X131064102Y-64084048D01*
X131140940Y-64076480D01*
X132104660Y-64076480D01*
X132181498Y-64084048D01*
X132181498Y-64084048D01*
G37*
G36*
X134721498Y-64084048D02*
X134789484Y-64104671D01*
X134852137Y-64138160D01*
X134907052Y-64183228D01*
X134952120Y-64238143D01*
X134985609Y-64300796D01*
X135006232Y-64368782D01*
X135013800Y-64445620D01*
X135013800Y-65409340D01*
X135006232Y-65486178D01*
X134985609Y-65554164D01*
X134952120Y-65616817D01*
X134907052Y-65671732D01*
X134852137Y-65716800D01*
X134789484Y-65750289D01*
X134721498Y-65770912D01*
X134644660Y-65778480D01*
X133680940Y-65778480D01*
X133604102Y-65770912D01*
X133536116Y-65750289D01*
X133473463Y-65716800D01*
X133418548Y-65671732D01*
X133373480Y-65616817D01*
X133339991Y-65554164D01*
X133319368Y-65486178D01*
X133311800Y-65409340D01*
X133311800Y-64445620D01*
X133319368Y-64368782D01*
X133339991Y-64300796D01*
X133373480Y-64238143D01*
X133418548Y-64183228D01*
X133473463Y-64138160D01*
X133536116Y-64104671D01*
X133604102Y-64084048D01*
X133680940Y-64076480D01*
X134644660Y-64076480D01*
X134721498Y-64084048D01*
X134721498Y-64084048D01*
G37*
G36*
X116696818Y-61573900D02*
X116696820Y-61573901D01*
X116696821Y-61573901D01*
X116960886Y-61683280D01*
X117134294Y-61799148D01*
X117198542Y-61842077D01*
X117400643Y-62044178D01*
X117400645Y-62044181D01*
X117559440Y-62281834D01*
X117668819Y-62545899D01*
X117668820Y-62545902D01*
X117724580Y-62826228D01*
X117724580Y-63112052D01*
X117677572Y-63348380D01*
X117668819Y-63392381D01*
X117559440Y-63656446D01*
X117559439Y-63656447D01*
X117400643Y-63894102D01*
X117198542Y-64096203D01*
X117198539Y-64096205D01*
X116960886Y-64255000D01*
X116696821Y-64364379D01*
X116696820Y-64364379D01*
X116696818Y-64364380D01*
X116416492Y-64420140D01*
X116130668Y-64420140D01*
X115850342Y-64364380D01*
X115850340Y-64364379D01*
X115850339Y-64364379D01*
X115586274Y-64255000D01*
X115348621Y-64096205D01*
X115348618Y-64096203D01*
X115146517Y-63894102D01*
X114987721Y-63656447D01*
X114987720Y-63656446D01*
X114878341Y-63392381D01*
X114869589Y-63348380D01*
X114822580Y-63112052D01*
X114822580Y-62826228D01*
X114878340Y-62545902D01*
X114878341Y-62545899D01*
X114987720Y-62281834D01*
X115146515Y-62044181D01*
X115146517Y-62044178D01*
X115348618Y-61842077D01*
X115412866Y-61799148D01*
X115586274Y-61683280D01*
X115850339Y-61573901D01*
X115850340Y-61573901D01*
X115850342Y-61573900D01*
X116130668Y-61518140D01*
X116416492Y-61518140D01*
X116696818Y-61573900D01*
X116696818Y-61573900D01*
G37*
G36*
X182101818Y-60557900D02*
X182101820Y-60557901D01*
X182101821Y-60557901D01*
X182365886Y-60667280D01*
X182365887Y-60667281D01*
X182603542Y-60826077D01*
X182805643Y-61028178D01*
X182805645Y-61028181D01*
X182964440Y-61265834D01*
X183068948Y-61518140D01*
X183073820Y-61529902D01*
X183119747Y-61760796D01*
X183129580Y-61810229D01*
X183129580Y-62096051D01*
X183073819Y-62376381D01*
X182964440Y-62640446D01*
X182811498Y-62869340D01*
X182805643Y-62878102D01*
X182603542Y-63080203D01*
X182603539Y-63080205D01*
X182365886Y-63239000D01*
X182101821Y-63348379D01*
X182101820Y-63348379D01*
X182101818Y-63348380D01*
X181821492Y-63404140D01*
X181535668Y-63404140D01*
X181255342Y-63348380D01*
X181255340Y-63348379D01*
X181255339Y-63348379D01*
X180991274Y-63239000D01*
X180753621Y-63080205D01*
X180753618Y-63080203D01*
X180551517Y-62878102D01*
X180545662Y-62869340D01*
X180392720Y-62640446D01*
X180283341Y-62376381D01*
X180227580Y-62096051D01*
X180227580Y-61810229D01*
X180237413Y-61760796D01*
X180283340Y-61529902D01*
X180288212Y-61518140D01*
X180392720Y-61265834D01*
X180551515Y-61028181D01*
X180551517Y-61028178D01*
X180753618Y-60826077D01*
X180991273Y-60667281D01*
X180991274Y-60667280D01*
X181255339Y-60557901D01*
X181255340Y-60557901D01*
X181255342Y-60557900D01*
X181535668Y-60502140D01*
X181821492Y-60502140D01*
X182101818Y-60557900D01*
X182101818Y-60557900D01*
G37*
G36*
X132181498Y-61544048D02*
X132249484Y-61564671D01*
X132312137Y-61598160D01*
X132367052Y-61643228D01*
X132412120Y-61698143D01*
X132445609Y-61760796D01*
X132466232Y-61828782D01*
X132473800Y-61905620D01*
X132473800Y-62869340D01*
X132466232Y-62946178D01*
X132445609Y-63014164D01*
X132412120Y-63076817D01*
X132367052Y-63131732D01*
X132312137Y-63176800D01*
X132249484Y-63210289D01*
X132181498Y-63230912D01*
X132104660Y-63238480D01*
X131140940Y-63238480D01*
X131064102Y-63230912D01*
X130996116Y-63210289D01*
X130933463Y-63176800D01*
X130878548Y-63131732D01*
X130833480Y-63076817D01*
X130799991Y-63014164D01*
X130779368Y-62946178D01*
X130771800Y-62869340D01*
X130771800Y-61905620D01*
X130779368Y-61828782D01*
X130799991Y-61760796D01*
X130833480Y-61698143D01*
X130878548Y-61643228D01*
X130933463Y-61598160D01*
X130996116Y-61564671D01*
X131064102Y-61544048D01*
X131140940Y-61536480D01*
X132104660Y-61536480D01*
X132181498Y-61544048D01*
X132181498Y-61544048D01*
G37*
G36*
X134721498Y-61544048D02*
X134789484Y-61564671D01*
X134852137Y-61598160D01*
X134907052Y-61643228D01*
X134952120Y-61698143D01*
X134985609Y-61760796D01*
X135006232Y-61828782D01*
X135013800Y-61905620D01*
X135013800Y-62869340D01*
X135006232Y-62946178D01*
X134985609Y-63014164D01*
X134952120Y-63076817D01*
X134907052Y-63131732D01*
X134852137Y-63176800D01*
X134789484Y-63210289D01*
X134721498Y-63230912D01*
X134644660Y-63238480D01*
X133680940Y-63238480D01*
X133604102Y-63230912D01*
X133536116Y-63210289D01*
X133473463Y-63176800D01*
X133418548Y-63131732D01*
X133373480Y-63076817D01*
X133339991Y-63014164D01*
X133319368Y-62946178D01*
X133311800Y-62869340D01*
X133311800Y-61905620D01*
X133319368Y-61828782D01*
X133339991Y-61760796D01*
X133373480Y-61698143D01*
X133418548Y-61643228D01*
X133473463Y-61598160D01*
X133536116Y-61564671D01*
X133604102Y-61544048D01*
X133680940Y-61536480D01*
X134644660Y-61536480D01*
X134721498Y-61544048D01*
X134721498Y-61544048D01*
G37*
M02*
