G04 #@! TF.GenerationSoftware,KiCad,Pcbnew,5.0.2+dfsg1-1~bpo9+1*
G04 #@! TF.CreationDate,2020-11-02T20:14:28+00:00*
G04 #@! TF.ProjectId,gbc_outline_screen_new,6762635f-6f75-4746-9c69-6e655f736372,rev?*
G04 #@! TF.SameCoordinates,Original*
G04 #@! TF.FileFunction,Copper,L1,Top*
G04 #@! TF.FilePolarity,Positive*
%FSLAX46Y46*%
G04 Gerber Fmt 4.6, Leading zero omitted, Abs format (unit mm)*
G04 Created by KiCad (PCBNEW 5.0.2+dfsg1-1~bpo9+1) date Mon 02 Nov 2020 20:14:28 GMT*
%MOMM*%
%LPD*%
G01*
G04 APERTURE LIST*
G04 #@! TA.AperFunction,SMDPad,CuDef*
%ADD10R,3.000000X0.400000*%
G04 #@! TD*
G04 #@! TA.AperFunction,Conductor*
%ADD11C,0.100000*%
G04 #@! TD*
G04 #@! TA.AperFunction,SMDPad,CuDef*
%ADD12C,1.600000*%
G04 #@! TD*
G04 #@! TA.AperFunction,ComponentPad*
%ADD13C,2.800000*%
G04 #@! TD*
G04 #@! TA.AperFunction,ComponentPad*
%ADD14C,1.500000*%
G04 #@! TD*
G04 #@! TA.AperFunction,ComponentPad*
%ADD15C,1.800000*%
G04 #@! TD*
G04 #@! TA.AperFunction,ComponentPad*
%ADD16C,1.600000*%
G04 #@! TD*
G04 #@! TA.AperFunction,SMDPad,CuDef*
%ADD17R,1.524000X3.000000*%
G04 #@! TD*
G04 #@! TA.AperFunction,ViaPad*
%ADD18C,0.800000*%
G04 #@! TD*
G04 #@! TA.AperFunction,Conductor*
%ADD19C,0.250000*%
G04 #@! TD*
G04 APERTURE END LIST*
D10*
G04 #@! TO.P,U1,1*
G04 #@! TO.N,Net-(J1-Pad34)*
X135737600Y-73439020D03*
G04 #@! TO.P,U1,2*
G04 #@! TO.N,Net-(J1-Pad13)*
X135737600Y-74239120D03*
G04 #@! TO.P,U1,3*
G04 #@! TO.N,Net-(J1-Pad23)*
X135737600Y-75039220D03*
G04 #@! TO.P,U1,4*
G04 #@! TO.N,Net-(J1-Pad22)*
X135737600Y-75839320D03*
G04 #@! TO.P,U1,5*
G04 #@! TO.N,Net-(J1-Pad24)*
X135737600Y-76639420D03*
G04 #@! TO.P,U1,6*
G04 #@! TO.N,Net-(J1-Pad19)*
X135737600Y-77439520D03*
G04 #@! TO.P,U1,7*
G04 #@! TO.N,Net-(U1-Pad7)*
X135737600Y-78239620D03*
G04 #@! TO.P,U1,8*
G04 #@! TO.N,Net-(J1-Pad34)*
X135737600Y-79039720D03*
G04 #@! TO.P,U1,9*
G04 #@! TO.N,Net-(J1-Pad1)*
X135737600Y-79839820D03*
G04 #@! TO.P,U1,10*
X135737600Y-80639920D03*
G04 #@! TO.P,U1,11*
G04 #@! TO.N,Net-(R1-Pad2)*
X135737600Y-81440020D03*
G04 #@! TO.P,U1,12*
X135737600Y-82240120D03*
G04 #@! TO.P,U1,13*
X135737600Y-83040220D03*
G04 #@! TO.P,U1,14*
X135737600Y-83840320D03*
G04 #@! TO.P,U1,15*
G04 #@! TO.N,Net-(U1-Pad15)*
X135737600Y-84640420D03*
G04 #@! TO.P,U1,16*
G04 #@! TO.N,Net-(U1-Pad16)*
X135737600Y-85440520D03*
G04 #@! TO.P,U1,17*
G04 #@! TO.N,Net-(U1-Pad17)*
X135737600Y-86240620D03*
G04 #@! TO.P,U1,18*
G04 #@! TO.N,Net-(U1-Pad18)*
X135737600Y-87040720D03*
G04 #@! TD*
D11*
G04 #@! TO.N,Net-(U3-Pad1)*
G04 #@! TO.C,U3*
G36*
X176052267Y-102387926D02*
X176091096Y-102393686D01*
X176129174Y-102403224D01*
X176166133Y-102416448D01*
X176201619Y-102433231D01*
X176235288Y-102453412D01*
X176266817Y-102476796D01*
X176295903Y-102503157D01*
X176322264Y-102532243D01*
X176345648Y-102563772D01*
X176365829Y-102597441D01*
X176382612Y-102632927D01*
X176395836Y-102669886D01*
X176405374Y-102707964D01*
X176411134Y-102746793D01*
X176413060Y-102786000D01*
X176413060Y-104986000D01*
X176411134Y-105025207D01*
X176405374Y-105064036D01*
X176395836Y-105102114D01*
X176382612Y-105139073D01*
X176365829Y-105174559D01*
X176345648Y-105208228D01*
X176322264Y-105239757D01*
X176295903Y-105268843D01*
X176266817Y-105295204D01*
X176235288Y-105318588D01*
X176201619Y-105338769D01*
X176166133Y-105355552D01*
X176129174Y-105368776D01*
X176091096Y-105378314D01*
X176052267Y-105384074D01*
X176013060Y-105386000D01*
X175213060Y-105386000D01*
X175173853Y-105384074D01*
X175135024Y-105378314D01*
X175096946Y-105368776D01*
X175059987Y-105355552D01*
X175024501Y-105338769D01*
X174990832Y-105318588D01*
X174959303Y-105295204D01*
X174930217Y-105268843D01*
X174903856Y-105239757D01*
X174880472Y-105208228D01*
X174860291Y-105174559D01*
X174843508Y-105139073D01*
X174830284Y-105102114D01*
X174820746Y-105064036D01*
X174814986Y-105025207D01*
X174813060Y-104986000D01*
X174813060Y-102786000D01*
X174814986Y-102746793D01*
X174820746Y-102707964D01*
X174830284Y-102669886D01*
X174843508Y-102632927D01*
X174860291Y-102597441D01*
X174880472Y-102563772D01*
X174903856Y-102532243D01*
X174930217Y-102503157D01*
X174959303Y-102476796D01*
X174990832Y-102453412D01*
X175024501Y-102433231D01*
X175059987Y-102416448D01*
X175096946Y-102403224D01*
X175135024Y-102393686D01*
X175173853Y-102387926D01*
X175213060Y-102386000D01*
X176013060Y-102386000D01*
X176052267Y-102387926D01*
X176052267Y-102387926D01*
G37*
D12*
G04 #@! TD*
G04 #@! TO.P,U3,1*
G04 #@! TO.N,Net-(U3-Pad1)*
X175613060Y-103886000D03*
D11*
G04 #@! TO.N,Net-(R2-Pad1)*
G04 #@! TO.C,U3*
G36*
X173512267Y-102387926D02*
X173551096Y-102393686D01*
X173589174Y-102403224D01*
X173626133Y-102416448D01*
X173661619Y-102433231D01*
X173695288Y-102453412D01*
X173726817Y-102476796D01*
X173755903Y-102503157D01*
X173782264Y-102532243D01*
X173805648Y-102563772D01*
X173825829Y-102597441D01*
X173842612Y-102632927D01*
X173855836Y-102669886D01*
X173865374Y-102707964D01*
X173871134Y-102746793D01*
X173873060Y-102786000D01*
X173873060Y-104986000D01*
X173871134Y-105025207D01*
X173865374Y-105064036D01*
X173855836Y-105102114D01*
X173842612Y-105139073D01*
X173825829Y-105174559D01*
X173805648Y-105208228D01*
X173782264Y-105239757D01*
X173755903Y-105268843D01*
X173726817Y-105295204D01*
X173695288Y-105318588D01*
X173661619Y-105338769D01*
X173626133Y-105355552D01*
X173589174Y-105368776D01*
X173551096Y-105378314D01*
X173512267Y-105384074D01*
X173473060Y-105386000D01*
X172673060Y-105386000D01*
X172633853Y-105384074D01*
X172595024Y-105378314D01*
X172556946Y-105368776D01*
X172519987Y-105355552D01*
X172484501Y-105338769D01*
X172450832Y-105318588D01*
X172419303Y-105295204D01*
X172390217Y-105268843D01*
X172363856Y-105239757D01*
X172340472Y-105208228D01*
X172320291Y-105174559D01*
X172303508Y-105139073D01*
X172290284Y-105102114D01*
X172280746Y-105064036D01*
X172274986Y-105025207D01*
X172273060Y-104986000D01*
X172273060Y-102786000D01*
X172274986Y-102746793D01*
X172280746Y-102707964D01*
X172290284Y-102669886D01*
X172303508Y-102632927D01*
X172320291Y-102597441D01*
X172340472Y-102563772D01*
X172363856Y-102532243D01*
X172390217Y-102503157D01*
X172419303Y-102476796D01*
X172450832Y-102453412D01*
X172484501Y-102433231D01*
X172519987Y-102416448D01*
X172556946Y-102403224D01*
X172595024Y-102393686D01*
X172633853Y-102387926D01*
X172673060Y-102386000D01*
X173473060Y-102386000D01*
X173512267Y-102387926D01*
X173512267Y-102387926D01*
G37*
D12*
G04 #@! TD*
G04 #@! TO.P,U3,2*
G04 #@! TO.N,Net-(R2-Pad1)*
X173073060Y-103886000D03*
D11*
G04 #@! TO.N,Net-(U2-Pad1)*
G04 #@! TO.C,U3*
G36*
X170972267Y-102387926D02*
X171011096Y-102393686D01*
X171049174Y-102403224D01*
X171086133Y-102416448D01*
X171121619Y-102433231D01*
X171155288Y-102453412D01*
X171186817Y-102476796D01*
X171215903Y-102503157D01*
X171242264Y-102532243D01*
X171265648Y-102563772D01*
X171285829Y-102597441D01*
X171302612Y-102632927D01*
X171315836Y-102669886D01*
X171325374Y-102707964D01*
X171331134Y-102746793D01*
X171333060Y-102786000D01*
X171333060Y-104986000D01*
X171331134Y-105025207D01*
X171325374Y-105064036D01*
X171315836Y-105102114D01*
X171302612Y-105139073D01*
X171285829Y-105174559D01*
X171265648Y-105208228D01*
X171242264Y-105239757D01*
X171215903Y-105268843D01*
X171186817Y-105295204D01*
X171155288Y-105318588D01*
X171121619Y-105338769D01*
X171086133Y-105355552D01*
X171049174Y-105368776D01*
X171011096Y-105378314D01*
X170972267Y-105384074D01*
X170933060Y-105386000D01*
X170133060Y-105386000D01*
X170093853Y-105384074D01*
X170055024Y-105378314D01*
X170016946Y-105368776D01*
X169979987Y-105355552D01*
X169944501Y-105338769D01*
X169910832Y-105318588D01*
X169879303Y-105295204D01*
X169850217Y-105268843D01*
X169823856Y-105239757D01*
X169800472Y-105208228D01*
X169780291Y-105174559D01*
X169763508Y-105139073D01*
X169750284Y-105102114D01*
X169740746Y-105064036D01*
X169734986Y-105025207D01*
X169733060Y-104986000D01*
X169733060Y-102786000D01*
X169734986Y-102746793D01*
X169740746Y-102707964D01*
X169750284Y-102669886D01*
X169763508Y-102632927D01*
X169780291Y-102597441D01*
X169800472Y-102563772D01*
X169823856Y-102532243D01*
X169850217Y-102503157D01*
X169879303Y-102476796D01*
X169910832Y-102453412D01*
X169944501Y-102433231D01*
X169979987Y-102416448D01*
X170016946Y-102403224D01*
X170055024Y-102393686D01*
X170093853Y-102387926D01*
X170133060Y-102386000D01*
X170933060Y-102386000D01*
X170972267Y-102387926D01*
X170972267Y-102387926D01*
G37*
D12*
G04 #@! TD*
G04 #@! TO.P,U3,3*
G04 #@! TO.N,Net-(U2-Pad1)*
X170533060Y-103886000D03*
D11*
G04 #@! TO.N,Net-(U2-Pad2)*
G04 #@! TO.C,U3*
G36*
X168432267Y-102387926D02*
X168471096Y-102393686D01*
X168509174Y-102403224D01*
X168546133Y-102416448D01*
X168581619Y-102433231D01*
X168615288Y-102453412D01*
X168646817Y-102476796D01*
X168675903Y-102503157D01*
X168702264Y-102532243D01*
X168725648Y-102563772D01*
X168745829Y-102597441D01*
X168762612Y-102632927D01*
X168775836Y-102669886D01*
X168785374Y-102707964D01*
X168791134Y-102746793D01*
X168793060Y-102786000D01*
X168793060Y-104986000D01*
X168791134Y-105025207D01*
X168785374Y-105064036D01*
X168775836Y-105102114D01*
X168762612Y-105139073D01*
X168745829Y-105174559D01*
X168725648Y-105208228D01*
X168702264Y-105239757D01*
X168675903Y-105268843D01*
X168646817Y-105295204D01*
X168615288Y-105318588D01*
X168581619Y-105338769D01*
X168546133Y-105355552D01*
X168509174Y-105368776D01*
X168471096Y-105378314D01*
X168432267Y-105384074D01*
X168393060Y-105386000D01*
X167593060Y-105386000D01*
X167553853Y-105384074D01*
X167515024Y-105378314D01*
X167476946Y-105368776D01*
X167439987Y-105355552D01*
X167404501Y-105338769D01*
X167370832Y-105318588D01*
X167339303Y-105295204D01*
X167310217Y-105268843D01*
X167283856Y-105239757D01*
X167260472Y-105208228D01*
X167240291Y-105174559D01*
X167223508Y-105139073D01*
X167210284Y-105102114D01*
X167200746Y-105064036D01*
X167194986Y-105025207D01*
X167193060Y-104986000D01*
X167193060Y-102786000D01*
X167194986Y-102746793D01*
X167200746Y-102707964D01*
X167210284Y-102669886D01*
X167223508Y-102632927D01*
X167240291Y-102597441D01*
X167260472Y-102563772D01*
X167283856Y-102532243D01*
X167310217Y-102503157D01*
X167339303Y-102476796D01*
X167370832Y-102453412D01*
X167404501Y-102433231D01*
X167439987Y-102416448D01*
X167476946Y-102403224D01*
X167515024Y-102393686D01*
X167553853Y-102387926D01*
X167593060Y-102386000D01*
X168393060Y-102386000D01*
X168432267Y-102387926D01*
X168432267Y-102387926D01*
G37*
D12*
G04 #@! TD*
G04 #@! TO.P,U3,4*
G04 #@! TO.N,Net-(U2-Pad2)*
X167993060Y-103886000D03*
D11*
G04 #@! TO.N,Net-(J1-Pad34)*
G04 #@! TO.C,U3*
G36*
X165892267Y-102387926D02*
X165931096Y-102393686D01*
X165969174Y-102403224D01*
X166006133Y-102416448D01*
X166041619Y-102433231D01*
X166075288Y-102453412D01*
X166106817Y-102476796D01*
X166135903Y-102503157D01*
X166162264Y-102532243D01*
X166185648Y-102563772D01*
X166205829Y-102597441D01*
X166222612Y-102632927D01*
X166235836Y-102669886D01*
X166245374Y-102707964D01*
X166251134Y-102746793D01*
X166253060Y-102786000D01*
X166253060Y-104986000D01*
X166251134Y-105025207D01*
X166245374Y-105064036D01*
X166235836Y-105102114D01*
X166222612Y-105139073D01*
X166205829Y-105174559D01*
X166185648Y-105208228D01*
X166162264Y-105239757D01*
X166135903Y-105268843D01*
X166106817Y-105295204D01*
X166075288Y-105318588D01*
X166041619Y-105338769D01*
X166006133Y-105355552D01*
X165969174Y-105368776D01*
X165931096Y-105378314D01*
X165892267Y-105384074D01*
X165853060Y-105386000D01*
X165053060Y-105386000D01*
X165013853Y-105384074D01*
X164975024Y-105378314D01*
X164936946Y-105368776D01*
X164899987Y-105355552D01*
X164864501Y-105338769D01*
X164830832Y-105318588D01*
X164799303Y-105295204D01*
X164770217Y-105268843D01*
X164743856Y-105239757D01*
X164720472Y-105208228D01*
X164700291Y-105174559D01*
X164683508Y-105139073D01*
X164670284Y-105102114D01*
X164660746Y-105064036D01*
X164654986Y-105025207D01*
X164653060Y-104986000D01*
X164653060Y-102786000D01*
X164654986Y-102746793D01*
X164660746Y-102707964D01*
X164670284Y-102669886D01*
X164683508Y-102632927D01*
X164700291Y-102597441D01*
X164720472Y-102563772D01*
X164743856Y-102532243D01*
X164770217Y-102503157D01*
X164799303Y-102476796D01*
X164830832Y-102453412D01*
X164864501Y-102433231D01*
X164899987Y-102416448D01*
X164936946Y-102403224D01*
X164975024Y-102393686D01*
X165013853Y-102387926D01*
X165053060Y-102386000D01*
X165853060Y-102386000D01*
X165892267Y-102387926D01*
X165892267Y-102387926D01*
G37*
D12*
G04 #@! TD*
G04 #@! TO.P,U3,5*
G04 #@! TO.N,Net-(J1-Pad34)*
X165453060Y-103886000D03*
D11*
G04 #@! TO.N,Net-(SW1-Pad3)*
G04 #@! TO.C,U3*
G36*
X163352267Y-102387926D02*
X163391096Y-102393686D01*
X163429174Y-102403224D01*
X163466133Y-102416448D01*
X163501619Y-102433231D01*
X163535288Y-102453412D01*
X163566817Y-102476796D01*
X163595903Y-102503157D01*
X163622264Y-102532243D01*
X163645648Y-102563772D01*
X163665829Y-102597441D01*
X163682612Y-102632927D01*
X163695836Y-102669886D01*
X163705374Y-102707964D01*
X163711134Y-102746793D01*
X163713060Y-102786000D01*
X163713060Y-104986000D01*
X163711134Y-105025207D01*
X163705374Y-105064036D01*
X163695836Y-105102114D01*
X163682612Y-105139073D01*
X163665829Y-105174559D01*
X163645648Y-105208228D01*
X163622264Y-105239757D01*
X163595903Y-105268843D01*
X163566817Y-105295204D01*
X163535288Y-105318588D01*
X163501619Y-105338769D01*
X163466133Y-105355552D01*
X163429174Y-105368776D01*
X163391096Y-105378314D01*
X163352267Y-105384074D01*
X163313060Y-105386000D01*
X162513060Y-105386000D01*
X162473853Y-105384074D01*
X162435024Y-105378314D01*
X162396946Y-105368776D01*
X162359987Y-105355552D01*
X162324501Y-105338769D01*
X162290832Y-105318588D01*
X162259303Y-105295204D01*
X162230217Y-105268843D01*
X162203856Y-105239757D01*
X162180472Y-105208228D01*
X162160291Y-105174559D01*
X162143508Y-105139073D01*
X162130284Y-105102114D01*
X162120746Y-105064036D01*
X162114986Y-105025207D01*
X162113060Y-104986000D01*
X162113060Y-102786000D01*
X162114986Y-102746793D01*
X162120746Y-102707964D01*
X162130284Y-102669886D01*
X162143508Y-102632927D01*
X162160291Y-102597441D01*
X162180472Y-102563772D01*
X162203856Y-102532243D01*
X162230217Y-102503157D01*
X162259303Y-102476796D01*
X162290832Y-102453412D01*
X162324501Y-102433231D01*
X162359987Y-102416448D01*
X162396946Y-102403224D01*
X162435024Y-102393686D01*
X162473853Y-102387926D01*
X162513060Y-102386000D01*
X163313060Y-102386000D01*
X163352267Y-102387926D01*
X163352267Y-102387926D01*
G37*
D12*
G04 #@! TD*
G04 #@! TO.P,U3,6*
G04 #@! TO.N,Net-(SW1-Pad3)*
X162913060Y-103886000D03*
D11*
G04 #@! TO.N,Net-(U3-Pad7)*
G04 #@! TO.C,U3*
G36*
X174528267Y-123534926D02*
X174567096Y-123540686D01*
X174605174Y-123550224D01*
X174642133Y-123563448D01*
X174677619Y-123580231D01*
X174711288Y-123600412D01*
X174742817Y-123623796D01*
X174771903Y-123650157D01*
X174798264Y-123679243D01*
X174821648Y-123710772D01*
X174841829Y-123744441D01*
X174858612Y-123779927D01*
X174871836Y-123816886D01*
X174881374Y-123854964D01*
X174887134Y-123893793D01*
X174889060Y-123933000D01*
X174889060Y-124733000D01*
X174887134Y-124772207D01*
X174881374Y-124811036D01*
X174871836Y-124849114D01*
X174858612Y-124886073D01*
X174841829Y-124921559D01*
X174821648Y-124955228D01*
X174798264Y-124986757D01*
X174771903Y-125015843D01*
X174742817Y-125042204D01*
X174711288Y-125065588D01*
X174677619Y-125085769D01*
X174642133Y-125102552D01*
X174605174Y-125115776D01*
X174567096Y-125125314D01*
X174528267Y-125131074D01*
X174489060Y-125133000D01*
X173689060Y-125133000D01*
X173649853Y-125131074D01*
X173611024Y-125125314D01*
X173572946Y-125115776D01*
X173535987Y-125102552D01*
X173500501Y-125085769D01*
X173466832Y-125065588D01*
X173435303Y-125042204D01*
X173406217Y-125015843D01*
X173379856Y-124986757D01*
X173356472Y-124955228D01*
X173336291Y-124921559D01*
X173319508Y-124886073D01*
X173306284Y-124849114D01*
X173296746Y-124811036D01*
X173290986Y-124772207D01*
X173289060Y-124733000D01*
X173289060Y-123933000D01*
X173290986Y-123893793D01*
X173296746Y-123854964D01*
X173306284Y-123816886D01*
X173319508Y-123779927D01*
X173336291Y-123744441D01*
X173356472Y-123710772D01*
X173379856Y-123679243D01*
X173406217Y-123650157D01*
X173435303Y-123623796D01*
X173466832Y-123600412D01*
X173500501Y-123580231D01*
X173535987Y-123563448D01*
X173572946Y-123550224D01*
X173611024Y-123540686D01*
X173649853Y-123534926D01*
X173689060Y-123533000D01*
X174489060Y-123533000D01*
X174528267Y-123534926D01*
X174528267Y-123534926D01*
G37*
D12*
G04 #@! TD*
G04 #@! TO.P,U3,7*
G04 #@! TO.N,Net-(U3-Pad7)*
X174089060Y-124333000D03*
D13*
G04 #@! TO.P,REF\002A\002A,1*
G04 #@! TO.N,N/C*
X116286280Y-106151680D03*
G04 #@! TD*
G04 #@! TO.P,REF\002A\002A,1*
G04 #@! TO.N,N/C*
X181678580Y-61953140D03*
G04 #@! TD*
G04 #@! TO.P,REF\002A\002A,1*
G04 #@! TO.N,N/C*
X116273580Y-62969140D03*
G04 #@! TD*
G04 #@! TO.P,REF\002A\002A,1*
G04 #@! TO.N,N/C*
X181678580Y-106149140D03*
G04 #@! TD*
D14*
G04 #@! TO.P,U4,1*
G04 #@! TO.N,Net-(J1-Pad34)*
X126329440Y-90820240D03*
G04 #@! TO.P,U4,2*
G04 #@! TO.N,Net-(J1-Pad12)*
X126329440Y-92826840D03*
G04 #@! TO.P,U4,3*
G04 #@! TO.N,Net-(J1-Pad33)*
X126329440Y-94833440D03*
G04 #@! TO.P,U4,4*
G04 #@! TO.N,Net-(U4-Pad4)*
X126329440Y-96840040D03*
G04 #@! TO.P,U4,5*
G04 #@! TO.N,Net-(U4-Pad5)*
X126329440Y-98846640D03*
D15*
G04 #@! TO.P,U4,6*
G04 #@! TO.N,N/C*
X115204240Y-100002340D03*
G04 #@! TO.P,U4,7*
X115216940Y-89664540D03*
G04 #@! TD*
D16*
G04 #@! TO.P,U2,1*
G04 #@! TO.N,Net-(U2-Pad1)*
X174457360Y-94538800D03*
G04 #@! TO.P,U2,2*
G04 #@! TO.N,Net-(U2-Pad2)*
X176997360Y-94538800D03*
G04 #@! TD*
D17*
G04 #@! TO.P,U6,7*
G04 #@! TO.N,Net-(J1-Pad18)*
X150022560Y-118353840D03*
G04 #@! TO.P,U6,6*
G04 #@! TO.N,Net-(J1-Pad7)*
X147482560Y-118353840D03*
G04 #@! TO.P,U6,5*
G04 #@! TO.N,Net-(J1-Pad16)*
X144942560Y-118353840D03*
G04 #@! TO.P,U6,4*
G04 #@! TO.N,Net-(J1-Pad35)*
X142402560Y-118358920D03*
G04 #@! TO.P,U6,3*
G04 #@! TO.N,Net-(J1-Pad37)*
X139862560Y-118358920D03*
G04 #@! TO.P,U6,8*
G04 #@! TO.N,Net-(J1-Pad32)*
X152562560Y-118353840D03*
G04 #@! TO.P,U6,9*
G04 #@! TO.N,Net-(J1-Pad34)*
X155102560Y-118353840D03*
G04 #@! TO.P,U6,11*
G04 #@! TO.N,Net-(U4-Pad5)*
X160182560Y-118353840D03*
G04 #@! TO.P,U6,10*
G04 #@! TO.N,Net-(U4-Pad4)*
X157642560Y-118353840D03*
G04 #@! TO.P,U6,2*
G04 #@! TO.N,Net-(J1-Pad29)*
X137322560Y-118353840D03*
G04 #@! TO.P,U6,1*
G04 #@! TO.N,Net-(J1-Pad38)*
X134782560Y-118358920D03*
G04 #@! TD*
D14*
G04 #@! TO.P,U7,1*
G04 #@! TO.N,Net-(R2-Pad1)*
X118775480Y-84980780D03*
X118775480Y-76344780D03*
X114978180Y-76344780D03*
X114978180Y-84980780D03*
G04 #@! TD*
D18*
G04 #@! TO.N,Net-(J1-Pad1)*
X129270760Y-78816200D03*
G04 #@! TO.N,Net-(J1-Pad7)*
X138912600Y-68798440D03*
G04 #@! TO.N,Net-(J1-Pad13)*
X132953760Y-76169520D03*
G04 #@! TO.N,Net-(J1-Pad16)*
X139715240Y-71470520D03*
G04 #@! TO.N,Net-(J1-Pad18)*
X149656800Y-78592680D03*
G04 #@! TO.N,Net-(J1-Pad19)*
X139166600Y-80462120D03*
G04 #@! TO.N,Net-(J1-Pad22)*
X143758920Y-80624680D03*
G04 #@! TO.N,Net-(J1-Pad23)*
X143291560Y-86004400D03*
G04 #@! TO.N,Net-(J1-Pad24)*
X137601960Y-89646760D03*
G04 #@! TO.N,Net-(J1-Pad29)*
X136052560Y-97632520D03*
G04 #@! TO.N,Net-(J1-Pad32)*
X150747560Y-98130360D03*
G04 #@! TO.N,Net-(J1-Pad34)*
X153436320Y-99227640D03*
X127431800Y-71353680D03*
X129910840Y-102285800D03*
X130022600Y-68193920D03*
G04 #@! TO.N,Net-(J1-Pad35)*
X140985240Y-109479080D03*
G04 #@! TO.N,Net-(J1-Pad37)*
X138765280Y-110408720D03*
G04 #@! TO.N,Net-(J1-Pad38)*
X129504440Y-108493560D03*
G04 #@! TO.N,Net-(SW1-Pad3)*
X168054020Y-81076800D03*
G04 #@! TO.N,Net-(R1-Pad2)*
X128447800Y-80497680D03*
G04 #@! TO.N,Net-(U4-Pad4)*
X126583440Y-105008680D03*
X156265880Y-112842040D03*
G04 #@! TO.N,Net-(U4-Pad5)*
X158821120Y-111434880D03*
G04 #@! TO.N,Net-(R2-Pad1)*
X173299120Y-110289340D03*
G04 #@! TO.N,Net-(U3-Pad1)*
X162110420Y-115285520D03*
X122890280Y-113113820D03*
X121726960Y-83002120D03*
G04 #@! TD*
D19*
G04 #@! TO.N,Net-(J1-Pad1)*
X134073960Y-80685640D02*
X133230680Y-79842360D01*
X135823960Y-80685640D02*
X134073960Y-80685640D01*
X130296920Y-79842360D02*
X129270760Y-78816200D01*
X133111240Y-79842360D02*
X130296920Y-79842360D01*
X133154420Y-79885540D02*
X133111240Y-79842360D01*
X135823960Y-79885540D02*
X133154420Y-79885540D01*
X133230680Y-79842360D02*
X133111240Y-79842360D01*
G04 #@! TO.N,Net-(J1-Pad7)*
X147482560Y-117615840D02*
X148021040Y-117077360D01*
X147482560Y-118353840D02*
X147482560Y-117615840D01*
X148021040Y-117077360D02*
X148021040Y-76305240D01*
X140114241Y-68398441D02*
X140280560Y-68564760D01*
X138912600Y-68798440D02*
X139312599Y-68398441D01*
X139312599Y-68398441D02*
X140114241Y-68398441D01*
X148021040Y-76305240D02*
X140280560Y-68564760D01*
G04 #@! TO.N,Net-(J1-Pad13)*
X132953760Y-75272960D02*
X132953760Y-76169520D01*
X133987600Y-74239120D02*
X132953760Y-75272960D01*
X135737600Y-74239120D02*
X133987600Y-74239120D01*
G04 #@! TO.N,Net-(J1-Pad16)*
X144942560Y-116603840D02*
X146745960Y-114800440D01*
X144942560Y-118353840D02*
X144942560Y-116603840D01*
X146745960Y-114800440D02*
X146745960Y-76753720D01*
X141862759Y-71870519D02*
X142346680Y-72354440D01*
X140115239Y-71870519D02*
X141862759Y-71870519D01*
X139715240Y-71470520D02*
X140115239Y-71870519D01*
X146745960Y-76753720D02*
X142346680Y-72354440D01*
G04 #@! TO.N,Net-(J1-Pad18)*
X150022560Y-78958440D02*
X149656800Y-78592680D01*
X150022560Y-118353840D02*
X150022560Y-78958440D01*
G04 #@! TO.N,Net-(J1-Pad19)*
X139166600Y-79077880D02*
X139166600Y-80462120D01*
X137573960Y-77485240D02*
X139166600Y-79077880D01*
X135823960Y-77485240D02*
X137573960Y-77485240D01*
G04 #@! TO.N,Net-(J1-Pad22)*
X141325600Y-75839320D02*
X135737600Y-75839320D01*
X143758920Y-80624680D02*
X143758920Y-79221190D01*
X143758920Y-79221190D02*
X143418560Y-78880830D01*
X143418560Y-78880830D02*
X143418560Y-77932280D01*
X143418560Y-77932280D02*
X141325600Y-75839320D01*
G04 #@! TO.N,Net-(J1-Pad23)*
X137573960Y-75084940D02*
X137815260Y-75326240D01*
X135823960Y-75084940D02*
X137573960Y-75084940D01*
X137815260Y-75326240D02*
X142763240Y-75326240D01*
X142763240Y-75326240D02*
X145044160Y-77607160D01*
X145044160Y-84251800D02*
X143291560Y-86004400D01*
X145044160Y-77607160D02*
X145044160Y-84251800D01*
G04 #@! TO.N,Net-(J1-Pad24)*
X137573960Y-76685140D02*
X137860980Y-76972160D01*
X135823960Y-76685140D02*
X137573960Y-76685140D01*
X137860980Y-76972160D02*
X140873480Y-76972160D01*
X140873480Y-76972160D02*
X142707360Y-78806040D01*
X142707360Y-78806040D02*
X142707360Y-82834480D01*
X137601960Y-87939880D02*
X137601960Y-89646760D01*
X142707360Y-82834480D02*
X137601960Y-87939880D01*
G04 #@! TO.N,Net-(J1-Pad29)*
X136452559Y-97232521D02*
X136805721Y-97232521D01*
X136805721Y-97232521D02*
X137322560Y-97749360D01*
X136052560Y-97632520D02*
X136452559Y-97232521D01*
X137322560Y-118353840D02*
X137322560Y-97749360D01*
G04 #@! TO.N,Net-(J1-Pad32)*
X152562560Y-116603840D02*
X151902160Y-115943440D01*
X152562560Y-118353840D02*
X152562560Y-116603840D01*
X150747560Y-98130360D02*
X151561800Y-98130360D01*
X151561800Y-98130360D02*
X151902160Y-98470720D01*
X151902160Y-115943440D02*
X151902160Y-98470720D01*
G04 #@! TO.N,Net-(J1-Pad34)*
X135823960Y-79085440D02*
X131739640Y-79085440D01*
X134073960Y-73484740D02*
X133233220Y-72644000D01*
X135823960Y-73484740D02*
X134073960Y-73484740D01*
X130053080Y-72644000D02*
X128371600Y-70962520D01*
X133233220Y-72644000D02*
X130053080Y-72644000D01*
X131739640Y-79085440D02*
X131739640Y-79054960D01*
X130053080Y-77368400D02*
X130053080Y-72644000D01*
X131739640Y-79054960D02*
X130053080Y-77368400D01*
X155102560Y-100893880D02*
X153436320Y-99227640D01*
X153436320Y-99227640D02*
X153436320Y-69239090D01*
X153436320Y-69239090D02*
X139948920Y-55751690D01*
X139948920Y-55751690D02*
X129663230Y-55751690D01*
X129663230Y-55751690D02*
X128148080Y-57266840D01*
X128148080Y-57266840D02*
X128148080Y-61630560D01*
X128141679Y-70953681D02*
X128371600Y-70723760D01*
X127831799Y-70953681D02*
X128141679Y-70953681D01*
X127431800Y-71353680D02*
X127831799Y-70953681D01*
X128371600Y-70962520D02*
X128371600Y-70723760D01*
X128371600Y-70723760D02*
X128371600Y-69250560D01*
X128386840Y-90820240D02*
X126329440Y-90820240D01*
X128391920Y-90825320D02*
X128386840Y-90820240D01*
X129428240Y-91861640D02*
X128391920Y-90825320D01*
X129428240Y-91861640D02*
X129428240Y-101803200D01*
X129428240Y-101803200D02*
X129910840Y-102285800D01*
X128965960Y-69250560D02*
X130022600Y-68193920D01*
X128371600Y-69250560D02*
X128965960Y-69250560D01*
X128148080Y-69027040D02*
X128371600Y-69250560D01*
X128148080Y-61630560D02*
X128148080Y-69027040D01*
X165128450Y-104761790D02*
X165128450Y-106021630D01*
X165999160Y-103891080D02*
X165128450Y-104761790D01*
X165128450Y-106021630D02*
X164320220Y-106829860D01*
X164320220Y-106829860D02*
X157192980Y-106829860D01*
X157192980Y-106829860D02*
X155102560Y-104739440D01*
X155102560Y-104739440D02*
X155102560Y-100893880D01*
X155102560Y-118353840D02*
X155102560Y-104739440D01*
G04 #@! TO.N,Net-(J1-Pad35)*
X141532559Y-109879079D02*
X142402560Y-110749080D01*
X142402560Y-118358920D02*
X142402560Y-110749080D01*
X141385239Y-109879079D02*
X141532559Y-109879079D01*
X140985240Y-109479080D02*
X141385239Y-109879079D01*
G04 #@! TO.N,Net-(J1-Pad37)*
X139429439Y-110808719D02*
X139862560Y-111241840D01*
X139165279Y-110808719D02*
X139429439Y-110808719D01*
X138765280Y-110408720D02*
X139165279Y-110808719D01*
X139862560Y-118358920D02*
X139862560Y-111241840D01*
G04 #@! TO.N,Net-(J1-Pad38)*
X133770560Y-118358920D02*
X128554480Y-113142840D01*
X134782560Y-118358920D02*
X133770560Y-118358920D01*
X128554480Y-109443520D02*
X128554480Y-110347760D01*
X129504440Y-108493560D02*
X128554480Y-109443520D01*
X128554480Y-113142840D02*
X128554480Y-110347760D01*
G04 #@! TO.N,Net-(SW1-Pad3)*
X162913060Y-86217760D02*
X162913060Y-103886000D01*
X168054020Y-81076800D02*
X162913060Y-86217760D01*
G04 #@! TO.N,Net-(R1-Pad2)*
X134073960Y-82285840D02*
X134063800Y-82296000D01*
X135823960Y-82285840D02*
X134073960Y-82285840D01*
X132270500Y-82296000D02*
X131460240Y-81485740D01*
X135823960Y-81485740D02*
X131460240Y-81485740D01*
X134073960Y-83085940D02*
X134071420Y-83083400D01*
X135823960Y-83085940D02*
X134073960Y-83085940D01*
X133141720Y-83083400D02*
X132354320Y-82296000D01*
X134071420Y-83083400D02*
X133141720Y-83083400D01*
X132354320Y-82296000D02*
X132270500Y-82296000D01*
X134063800Y-82296000D02*
X132354320Y-82296000D01*
X134073960Y-83886040D02*
X134063800Y-83896200D01*
X135823960Y-83886040D02*
X134073960Y-83886040D01*
X133954520Y-83896200D02*
X133141720Y-83083400D01*
X134063800Y-83896200D02*
X133954520Y-83896200D01*
X129343099Y-80897679D02*
X129931160Y-81485740D01*
X128847799Y-80897679D02*
X129343099Y-80897679D01*
X128447800Y-80497680D02*
X128847799Y-80897679D01*
X131460240Y-81485740D02*
X129931160Y-81485740D01*
G04 #@! TO.N,Net-(U4-Pad4)*
X126183441Y-104608681D02*
X126183441Y-102978001D01*
X126583440Y-105008680D02*
X126183441Y-104608681D01*
X126183441Y-102978001D02*
X123555760Y-100350320D01*
X123555760Y-99613720D02*
X126329440Y-96840040D01*
X123555760Y-100350320D02*
X123555760Y-99613720D01*
X157214519Y-113242039D02*
X157642560Y-113670080D01*
X156665879Y-113242039D02*
X157214519Y-113242039D01*
X156265880Y-112842040D02*
X156665879Y-113242039D01*
X157642560Y-118353840D02*
X157642560Y-113670080D01*
G04 #@! TO.N,Net-(U4-Pad5)*
X160182560Y-116603840D02*
X160187640Y-116598760D01*
X160182560Y-118353840D02*
X160182560Y-116603840D01*
X159566559Y-111834879D02*
X160187640Y-112455960D01*
X159221119Y-111834879D02*
X159566559Y-111834879D01*
X158821120Y-111434880D02*
X159221119Y-111834879D01*
X160187640Y-116598760D02*
X160187640Y-112455960D01*
G04 #@! TO.N,Net-(U2-Pad1)*
X174457360Y-94538800D02*
X171079160Y-97917000D01*
X170533060Y-98463100D02*
X170533060Y-103886000D01*
X171079160Y-97917000D02*
X170533060Y-98463100D01*
G04 #@! TO.N,Net-(U2-Pad2)*
X176197361Y-93738801D02*
X176197361Y-93329861D01*
X176997360Y-94538800D02*
X176197361Y-93738801D01*
X176197361Y-93329861D02*
X175437800Y-92570300D01*
X175437800Y-92570300D02*
X172689520Y-92570300D01*
X172689520Y-92570300D02*
X168539160Y-96720660D01*
X167993060Y-97266760D02*
X167993060Y-103886000D01*
X168539160Y-96720660D02*
X167993060Y-97266760D01*
G04 #@! TO.N,Net-(R2-Pad1)*
X173299120Y-104211120D02*
X173619160Y-103891080D01*
X173299120Y-110289340D02*
X173299120Y-104211120D01*
G04 #@! TO.N,Net-(U3-Pad1)*
X170693080Y-115285520D02*
X162110420Y-115285520D01*
X121726960Y-111950500D02*
X121726960Y-83002120D01*
X122890280Y-113113820D02*
X121726960Y-111950500D01*
X170693080Y-115285520D02*
X171998640Y-115285520D01*
X175613060Y-111671100D02*
X175613060Y-103886000D01*
X171998640Y-115285520D02*
X175613060Y-111671100D01*
G04 #@! TD*
M02*
