G04 #@! TF.GenerationSoftware,KiCad,Pcbnew,5.0.2+dfsg1-1~bpo9+1*
G04 #@! TF.CreationDate,2020-07-02T14:44:30+01:00*
G04 #@! TF.ProjectId,gbc_outline_basic,6762635f-6f75-4746-9c69-6e655f626173,rev?*
G04 #@! TF.SameCoordinates,Original*
G04 #@! TF.FileFunction,Soldermask,Bot*
G04 #@! TF.FilePolarity,Negative*
%FSLAX46Y46*%
G04 Gerber Fmt 4.6, Leading zero omitted, Abs format (unit mm)*
G04 Created by KiCad (PCBNEW 5.0.2+dfsg1-1~bpo9+1) date Thu 02 Jul 2020 14:44:30 BST*
%MOMM*%
%LPD*%
G01*
G04 APERTURE LIST*
%ADD10C,0.100000*%
G04 APERTURE END LIST*
D10*
G36*
X104970461Y-161429828D02*
X105152630Y-161505285D01*
X105316583Y-161614835D01*
X105456005Y-161754257D01*
X105565555Y-161918210D01*
X105641012Y-162100379D01*
X105679480Y-162293770D01*
X105679480Y-162490950D01*
X105641012Y-162684341D01*
X105565555Y-162866510D01*
X105456005Y-163030463D01*
X105316583Y-163169885D01*
X105152630Y-163279435D01*
X104970461Y-163354892D01*
X104777070Y-163393360D01*
X104579890Y-163393360D01*
X104386499Y-163354892D01*
X104204330Y-163279435D01*
X104040377Y-163169885D01*
X103900955Y-163030463D01*
X103791405Y-162866510D01*
X103715948Y-162684341D01*
X103677480Y-162490950D01*
X103677480Y-162293770D01*
X103715948Y-162100379D01*
X103791405Y-161918210D01*
X103900955Y-161754257D01*
X104040377Y-161614835D01*
X104204330Y-161505285D01*
X104386499Y-161429828D01*
X104579890Y-161391360D01*
X104777070Y-161391360D01*
X104970461Y-161429828D01*
X104970461Y-161429828D01*
G37*
G36*
X110050461Y-156349828D02*
X110232630Y-156425285D01*
X110396583Y-156534835D01*
X110536005Y-156674257D01*
X110645555Y-156838210D01*
X110721012Y-157020379D01*
X110759480Y-157213770D01*
X110759480Y-157410950D01*
X110721012Y-157604341D01*
X110645555Y-157786510D01*
X110536005Y-157950463D01*
X110396583Y-158089885D01*
X110232630Y-158199435D01*
X110050461Y-158274892D01*
X109857070Y-158313360D01*
X109659890Y-158313360D01*
X109466499Y-158274892D01*
X109284330Y-158199435D01*
X109120377Y-158089885D01*
X108980955Y-157950463D01*
X108871405Y-157786510D01*
X108795948Y-157604341D01*
X108757480Y-157410950D01*
X108757480Y-157213770D01*
X108795948Y-157020379D01*
X108871405Y-156838210D01*
X108980955Y-156674257D01*
X109120377Y-156534835D01*
X109284330Y-156425285D01*
X109466499Y-156349828D01*
X109659890Y-156311360D01*
X109857070Y-156311360D01*
X110050461Y-156349828D01*
X110050461Y-156349828D01*
G37*
G36*
X107510461Y-156349828D02*
X107692630Y-156425285D01*
X107856583Y-156534835D01*
X107996005Y-156674257D01*
X108105555Y-156838210D01*
X108181012Y-157020379D01*
X108219480Y-157213770D01*
X108219480Y-157410950D01*
X108181012Y-157604341D01*
X108105555Y-157786510D01*
X107996005Y-157950463D01*
X107856583Y-158089885D01*
X107692630Y-158199435D01*
X107510461Y-158274892D01*
X107317070Y-158313360D01*
X107119890Y-158313360D01*
X106926499Y-158274892D01*
X106744330Y-158199435D01*
X106580377Y-158089885D01*
X106440955Y-157950463D01*
X106331405Y-157786510D01*
X106255948Y-157604341D01*
X106217480Y-157410950D01*
X106217480Y-157213770D01*
X106255948Y-157020379D01*
X106331405Y-156838210D01*
X106440955Y-156674257D01*
X106580377Y-156534835D01*
X106744330Y-156425285D01*
X106926499Y-156349828D01*
X107119890Y-156311360D01*
X107317070Y-156311360D01*
X107510461Y-156349828D01*
X107510461Y-156349828D01*
G37*
G36*
X99890461Y-156349828D02*
X100072630Y-156425285D01*
X100236583Y-156534835D01*
X100376005Y-156674257D01*
X100485555Y-156838210D01*
X100561012Y-157020379D01*
X100599480Y-157213770D01*
X100599480Y-157410950D01*
X100561012Y-157604341D01*
X100485555Y-157786510D01*
X100376005Y-157950463D01*
X100236583Y-158089885D01*
X100072630Y-158199435D01*
X99890461Y-158274892D01*
X99697070Y-158313360D01*
X99499890Y-158313360D01*
X99306499Y-158274892D01*
X99124330Y-158199435D01*
X98960377Y-158089885D01*
X98820955Y-157950463D01*
X98711405Y-157786510D01*
X98635948Y-157604341D01*
X98597480Y-157410950D01*
X98597480Y-157213770D01*
X98635948Y-157020379D01*
X98711405Y-156838210D01*
X98820955Y-156674257D01*
X98960377Y-156534835D01*
X99124330Y-156425285D01*
X99306499Y-156349828D01*
X99499890Y-156311360D01*
X99697070Y-156311360D01*
X99890461Y-156349828D01*
X99890461Y-156349828D01*
G37*
G36*
X102430461Y-156349828D02*
X102612630Y-156425285D01*
X102776583Y-156534835D01*
X102916005Y-156674257D01*
X103025555Y-156838210D01*
X103101012Y-157020379D01*
X103139480Y-157213770D01*
X103139480Y-157410950D01*
X103101012Y-157604341D01*
X103025555Y-157786510D01*
X102916005Y-157950463D01*
X102776583Y-158089885D01*
X102612630Y-158199435D01*
X102430461Y-158274892D01*
X102237070Y-158313360D01*
X102039890Y-158313360D01*
X101846499Y-158274892D01*
X101664330Y-158199435D01*
X101500377Y-158089885D01*
X101360955Y-157950463D01*
X101251405Y-157786510D01*
X101175948Y-157604341D01*
X101137480Y-157410950D01*
X101137480Y-157213770D01*
X101175948Y-157020379D01*
X101251405Y-156838210D01*
X101360955Y-156674257D01*
X101500377Y-156534835D01*
X101664330Y-156425285D01*
X101846499Y-156349828D01*
X102039890Y-156311360D01*
X102237070Y-156311360D01*
X102430461Y-156349828D01*
X102430461Y-156349828D01*
G37*
G36*
X113440538Y-139953220D02*
X113440540Y-139953221D01*
X113440541Y-139953221D01*
X113704606Y-140062600D01*
X113704607Y-140062601D01*
X113942262Y-140221397D01*
X114144363Y-140423498D01*
X114144365Y-140423501D01*
X114303160Y-140661154D01*
X114412539Y-140925219D01*
X114412540Y-140925222D01*
X114468300Y-141205548D01*
X114468300Y-141491372D01*
X114417282Y-141747860D01*
X114412539Y-141771701D01*
X114303160Y-142035766D01*
X114303159Y-142035767D01*
X114144363Y-142273422D01*
X113942262Y-142475523D01*
X113942259Y-142475525D01*
X113704606Y-142634320D01*
X113440541Y-142743699D01*
X113440540Y-142743699D01*
X113440538Y-142743700D01*
X113160212Y-142799460D01*
X112874388Y-142799460D01*
X112594062Y-142743700D01*
X112594060Y-142743699D01*
X112594059Y-142743699D01*
X112329994Y-142634320D01*
X112092341Y-142475525D01*
X112092338Y-142475523D01*
X111890237Y-142273422D01*
X111731441Y-142035767D01*
X111731440Y-142035766D01*
X111622061Y-141771701D01*
X111617319Y-141747860D01*
X111566300Y-141491372D01*
X111566300Y-141205548D01*
X111622060Y-140925222D01*
X111622061Y-140925219D01*
X111731440Y-140661154D01*
X111890235Y-140423501D01*
X111890237Y-140423498D01*
X112092338Y-140221397D01*
X112329993Y-140062601D01*
X112329994Y-140062600D01*
X112594059Y-139953221D01*
X112594060Y-139953221D01*
X112594062Y-139953220D01*
X112874388Y-139897460D01*
X113160212Y-139897460D01*
X113440538Y-139953220D01*
X113440538Y-139953220D01*
G37*
G36*
X86783238Y-139066760D02*
X86783240Y-139066761D01*
X86783241Y-139066761D01*
X87047306Y-139176140D01*
X87281754Y-139332794D01*
X87284962Y-139334937D01*
X87487063Y-139537038D01*
X87487065Y-139537041D01*
X87645860Y-139774694D01*
X87719808Y-139953221D01*
X87755240Y-140038762D01*
X87791568Y-140221397D01*
X87811000Y-140319089D01*
X87811000Y-140604911D01*
X87755239Y-140885241D01*
X87645860Y-141149306D01*
X87489206Y-141383754D01*
X87487063Y-141386962D01*
X87284962Y-141589063D01*
X87284959Y-141589065D01*
X87047306Y-141747860D01*
X86783241Y-141857239D01*
X86783240Y-141857239D01*
X86783238Y-141857240D01*
X86502912Y-141913000D01*
X86217088Y-141913000D01*
X85936762Y-141857240D01*
X85936760Y-141857239D01*
X85936759Y-141857239D01*
X85672694Y-141747860D01*
X85435041Y-141589065D01*
X85435038Y-141589063D01*
X85232937Y-141386962D01*
X85230794Y-141383754D01*
X85074140Y-141149306D01*
X84964761Y-140885241D01*
X84909000Y-140604911D01*
X84909000Y-140319089D01*
X84928432Y-140221397D01*
X84964760Y-140038762D01*
X85000192Y-139953221D01*
X85074140Y-139774694D01*
X85232935Y-139537041D01*
X85232937Y-139537038D01*
X85435038Y-139334937D01*
X85438246Y-139332794D01*
X85672694Y-139176140D01*
X85936759Y-139066761D01*
X85936760Y-139066761D01*
X85936762Y-139066760D01*
X86217088Y-139011000D01*
X86502912Y-139011000D01*
X86783238Y-139066760D01*
X86783238Y-139066760D01*
G37*
G36*
X66958538Y-136905220D02*
X66958540Y-136905221D01*
X66958541Y-136905221D01*
X67222606Y-137014600D01*
X67222607Y-137014601D01*
X67460262Y-137173397D01*
X67662363Y-137375498D01*
X67662365Y-137375501D01*
X67821160Y-137613154D01*
X67930539Y-137877219D01*
X67986300Y-138157549D01*
X67986300Y-138443371D01*
X67930539Y-138723701D01*
X67821160Y-138987766D01*
X67768378Y-139066760D01*
X67662363Y-139225422D01*
X67460262Y-139427523D01*
X67460259Y-139427525D01*
X67222606Y-139586320D01*
X66958541Y-139695699D01*
X66958540Y-139695699D01*
X66958538Y-139695700D01*
X66678212Y-139751460D01*
X66392388Y-139751460D01*
X66112062Y-139695700D01*
X66112060Y-139695699D01*
X66112059Y-139695699D01*
X65847994Y-139586320D01*
X65610341Y-139427525D01*
X65610338Y-139427523D01*
X65408237Y-139225422D01*
X65302222Y-139066760D01*
X65249440Y-138987766D01*
X65140061Y-138723701D01*
X65084300Y-138443371D01*
X65084300Y-138157549D01*
X65140061Y-137877219D01*
X65249440Y-137613154D01*
X65408235Y-137375501D01*
X65408237Y-137375498D01*
X65610338Y-137173397D01*
X65847993Y-137014601D01*
X65847994Y-137014600D01*
X66112059Y-136905221D01*
X66112060Y-136905221D01*
X66112062Y-136905220D01*
X66392388Y-136849460D01*
X66678212Y-136849460D01*
X66958538Y-136905220D01*
X66958538Y-136905220D01*
G37*
G36*
X88739038Y-133095220D02*
X88739040Y-133095221D01*
X88739041Y-133095221D01*
X89003106Y-133204600D01*
X89003107Y-133204601D01*
X89240762Y-133363397D01*
X89442863Y-133565498D01*
X89442865Y-133565501D01*
X89601660Y-133803154D01*
X89711039Y-134067219D01*
X89711040Y-134067222D01*
X89766800Y-134347548D01*
X89766800Y-134633372D01*
X89716287Y-134887320D01*
X89711039Y-134913701D01*
X89601660Y-135177766D01*
X89601659Y-135177767D01*
X89442863Y-135415422D01*
X89240762Y-135617523D01*
X89240759Y-135617525D01*
X89003106Y-135776320D01*
X88739041Y-135885699D01*
X88739040Y-135885699D01*
X88739038Y-135885700D01*
X88458712Y-135941460D01*
X88172888Y-135941460D01*
X87892562Y-135885700D01*
X87892560Y-135885699D01*
X87892559Y-135885699D01*
X87628494Y-135776320D01*
X87390841Y-135617525D01*
X87390838Y-135617523D01*
X87188737Y-135415422D01*
X87029941Y-135177767D01*
X87029940Y-135177766D01*
X86920561Y-134913701D01*
X86915314Y-134887320D01*
X86864800Y-134633372D01*
X86864800Y-134347548D01*
X86920560Y-134067222D01*
X86920561Y-134067219D01*
X87029940Y-133803154D01*
X87188735Y-133565501D01*
X87188737Y-133565498D01*
X87390838Y-133363397D01*
X87628493Y-133204601D01*
X87628494Y-133204600D01*
X87892559Y-133095221D01*
X87892560Y-133095221D01*
X87892562Y-133095220D01*
X88172888Y-133039460D01*
X88458712Y-133039460D01*
X88739038Y-133095220D01*
X88739038Y-133095220D01*
G37*
G36*
X132363538Y-132206220D02*
X132363540Y-132206221D01*
X132363541Y-132206221D01*
X132627606Y-132315600D01*
X132822211Y-132445631D01*
X132865262Y-132474397D01*
X133067363Y-132676498D01*
X133067365Y-132676501D01*
X133226160Y-132914154D01*
X133301160Y-133095221D01*
X133335540Y-133178222D01*
X133391300Y-133458548D01*
X133391300Y-133744372D01*
X133379608Y-133803154D01*
X133335539Y-134024701D01*
X133226160Y-134288766D01*
X133226159Y-134288767D01*
X133067363Y-134526422D01*
X132865262Y-134728523D01*
X132865259Y-134728525D01*
X132627606Y-134887320D01*
X132363541Y-134996699D01*
X132363540Y-134996699D01*
X132363538Y-134996700D01*
X132083212Y-135052460D01*
X131797388Y-135052460D01*
X131517062Y-134996700D01*
X131517060Y-134996699D01*
X131517059Y-134996699D01*
X131252994Y-134887320D01*
X131015341Y-134728525D01*
X131015338Y-134728523D01*
X130813237Y-134526422D01*
X130654441Y-134288767D01*
X130654440Y-134288766D01*
X130545061Y-134024701D01*
X130500993Y-133803154D01*
X130489300Y-133744372D01*
X130489300Y-133458548D01*
X130545060Y-133178222D01*
X130579440Y-133095221D01*
X130654440Y-132914154D01*
X130813235Y-132676501D01*
X130813237Y-132676498D01*
X131015338Y-132474397D01*
X131058389Y-132445631D01*
X131252994Y-132315600D01*
X131517059Y-132206221D01*
X131517060Y-132206221D01*
X131517062Y-132206220D01*
X131797388Y-132150460D01*
X132083212Y-132150460D01*
X132363538Y-132206220D01*
X132363538Y-132206220D01*
G37*
G36*
X121781160Y-129174368D02*
X121781162Y-129174369D01*
X121781163Y-129174369D01*
X121895514Y-129221735D01*
X122090726Y-129302594D01*
X122369327Y-129488749D01*
X122606251Y-129725673D01*
X122792406Y-130004274D01*
X122920632Y-130313840D01*
X122986000Y-130642465D01*
X122986000Y-130977535D01*
X122920632Y-131306160D01*
X122792406Y-131615726D01*
X122606251Y-131894327D01*
X122369327Y-132131251D01*
X122090726Y-132317406D01*
X121895514Y-132398265D01*
X121781163Y-132445631D01*
X121781162Y-132445631D01*
X121781160Y-132445632D01*
X121452535Y-132511000D01*
X121117465Y-132511000D01*
X120788840Y-132445632D01*
X120788838Y-132445631D01*
X120788837Y-132445631D01*
X120674486Y-132398265D01*
X120479274Y-132317406D01*
X120200673Y-132131251D01*
X119963749Y-131894327D01*
X119777594Y-131615726D01*
X119649368Y-131306160D01*
X119584000Y-130977535D01*
X119584000Y-130642465D01*
X119649368Y-130313840D01*
X119777594Y-130004274D01*
X119963749Y-129725673D01*
X120200673Y-129488749D01*
X120479274Y-129302594D01*
X120674486Y-129221735D01*
X120788837Y-129174369D01*
X120788838Y-129174369D01*
X120788840Y-129174368D01*
X121117465Y-129109000D01*
X121452535Y-129109000D01*
X121781160Y-129174368D01*
X121781160Y-129174368D01*
G37*
G36*
X94136538Y-125221220D02*
X94136540Y-125221221D01*
X94136541Y-125221221D01*
X94400606Y-125330600D01*
X94400607Y-125330601D01*
X94638262Y-125489397D01*
X94840363Y-125691498D01*
X94840365Y-125691501D01*
X94999160Y-125929154D01*
X95108539Y-126193219D01*
X95164300Y-126473549D01*
X95164300Y-126759371D01*
X95108539Y-127039701D01*
X94999160Y-127303766D01*
X94999159Y-127303767D01*
X94840363Y-127541422D01*
X94638262Y-127743523D01*
X94638259Y-127743525D01*
X94400606Y-127902320D01*
X94136541Y-128011699D01*
X94136540Y-128011699D01*
X94136538Y-128011700D01*
X93856212Y-128067460D01*
X93570388Y-128067460D01*
X93290062Y-128011700D01*
X93290060Y-128011699D01*
X93290059Y-128011699D01*
X93025994Y-127902320D01*
X92788341Y-127743525D01*
X92788338Y-127743523D01*
X92586237Y-127541422D01*
X92427441Y-127303767D01*
X92427440Y-127303766D01*
X92318061Y-127039701D01*
X92262300Y-126759371D01*
X92262300Y-126473549D01*
X92318061Y-126193219D01*
X92427440Y-125929154D01*
X92586235Y-125691501D01*
X92586237Y-125691498D01*
X92788338Y-125489397D01*
X93025993Y-125330601D01*
X93025994Y-125330600D01*
X93290059Y-125221221D01*
X93290060Y-125221221D01*
X93290062Y-125221220D01*
X93570388Y-125165460D01*
X93856212Y-125165460D01*
X94136538Y-125221220D01*
X94136538Y-125221220D01*
G37*
G36*
X116107538Y-118236220D02*
X116107540Y-118236221D01*
X116107541Y-118236221D01*
X116371606Y-118345600D01*
X116371607Y-118345601D01*
X116609262Y-118504397D01*
X116811363Y-118706498D01*
X116811365Y-118706501D01*
X116970160Y-118944154D01*
X117079539Y-119208219D01*
X117135300Y-119488549D01*
X117135300Y-119774371D01*
X117079539Y-120054701D01*
X116970160Y-120318766D01*
X116970159Y-120318767D01*
X116811363Y-120556422D01*
X116609262Y-120758523D01*
X116609259Y-120758525D01*
X116371606Y-120917320D01*
X116107541Y-121026699D01*
X116107540Y-121026699D01*
X116107538Y-121026700D01*
X115827212Y-121082460D01*
X115541388Y-121082460D01*
X115261062Y-121026700D01*
X115261060Y-121026699D01*
X115261059Y-121026699D01*
X114996994Y-120917320D01*
X114759341Y-120758525D01*
X114759338Y-120758523D01*
X114557237Y-120556422D01*
X114398441Y-120318767D01*
X114398440Y-120318766D01*
X114289061Y-120054701D01*
X114233300Y-119774371D01*
X114233300Y-119488549D01*
X114289061Y-119208219D01*
X114398440Y-118944154D01*
X114557235Y-118706501D01*
X114557237Y-118706498D01*
X114759338Y-118504397D01*
X114996993Y-118345601D01*
X114996994Y-118345600D01*
X115261059Y-118236221D01*
X115261060Y-118236221D01*
X115261062Y-118236220D01*
X115541388Y-118180460D01*
X115827212Y-118180460D01*
X116107538Y-118236220D01*
X116107538Y-118236220D01*
G37*
M02*
